  0
SECTION
  2
HEADER
  9
$ACADVER
  1
AC1014
  9
$HANDSEED
  5
FFFF
  9
$MEASUREMENT
 70
     1
  0
ENDSEC
  0
SECTION
  2
TABLES
  0
TABLE
  2
VPORT
  5
8
330
0
100
AcDbSymbolTable
 70
     4
  0
VPORT
  5
2E
330
8
100
AcDbSymbolTableRecord
100
AcDbViewportTableRecord
  2
*ACTIVE
 70
     0
 10
0.0
 20
0.0
 11
1.0
 21
1.0
 12
210.0
 22
148.5
 13
0.0
 23
0.0
 14
10.0
 24
10.0
 15
10.0
 25
10.0
 16
0.0
 26
0.0
 36
1.0
 17
0.0
 27
0.0
 37
0.0
 40
341.0
 41
1.24
 42
50.0
 43
0.0
 44
0.0
 50
0.0
 51
0.0
 71
     0
 72
   100
 73
     1
 74
     3
 75
     0
 76
     0
 77
     0
 78
     0
  0
ENDTAB
  0
TABLE
  2
LTYPE
  5
5
330
0
100
AcDbSymbolTable
 70
     1
  0
LTYPE
  5
14
330
5
100
AcDbSymbolTableRecord
100
AcDbLinetypeTableRecord
  2
BYBLOCK
 70
     0
  3

 72
    65
 73
     0
 40
0.0
  0
LTYPE
  5
15
330
5
100
AcDbSymbolTableRecord
100
AcDbLinetypeTableRecord
  2
BYLAYER
 70
     0
  3

 72
    65
 73
     0
 40
0.0
  0
LTYPE
  5
16
330
5
100
AcDbSymbolTableRecord
100
AcDbLinetypeTableRecord
  2
CONTINUOUS
 70
     0
  3
Solid line
 72
    65
 73
     0
 40
0.0
  0
ENDTAB
  0
TABLE
  2
LAYER
  5
2
100
AcDbSymbolTable
 70
2
  0
LAYER
  5
50
100
AcDbSymbolTableRecord
100
AcDbLayerTableRecord
  2
0
 70
0
  6
CONTINUOUS
  0
LAYER
  5
51
100
AcDbSymbolTableRecord
100
AcDbLayerTableRecord
  2
Calque_1
 70
0
  6
CONTINUOUS
  0
ENDTAB
  0
TABLE
  2
STYLE
  5
3
330
0
100
AcDbSymbolTable
 70
     1
  0
STYLE
  5
11
330
3
100
AcDbSymbolTableRecord
100
AcDbTextStyleTableRecord
  2
STANDARD
 70
     0
 40
0.0
 41
1.0
 50
0.0
 71
     0
 42
2.5
  3
txt
  4

  0
ENDTAB
  0
TABLE
  2
VIEW
  5
6
330
0
100
AcDbSymbolTable
 70
     0
  0
ENDTAB
  0
TABLE
  2
UCS
  5
7
330
0
100
AcDbSymbolTable
 70
     0
  0
ENDTAB
  0
TABLE
  2
APPID
  5
9
330
0
100
AcDbSymbolTable
 70
     2
  0
APPID
  5
12
330
9
100
AcDbSymbolTableRecord
100
AcDbRegAppTableRecord
  2
ACAD
 70
     0
  0
ENDTAB
  0
TABLE
  2
DIMSTYLE
  5
A
330
0
100
AcDbSymbolTable
 70
     1
  0
DIMSTYLE
105
27
330
A
100
AcDbSymbolTableRecord
100
AcDbDimStyleTableRecord
  2
ISO-25
 70
     0
  3

  4

  5

  6

  7

 40
1.0
 41
2.5
 42
0.625
 43
3.75
 44
1.25
 45
0.0
 46
0.0
 47
0.0
 48
0.0
140
2.5
141
2.5
142
0.0
143
0.03937007874016
144
1.0
145
0.0
146
1.0
147
0.625
 71
     0
 72
     0
 73
     0
 74
     0
 75
     0
 76
     0
 77
     1
 78
     8
170
     0
171
     3
172
     1
173
     0
174
     0
175
     0
176
     0
177
     0
178
     0
270
     2
271
     2
272
     2
273
     2
274
     3
340
11
275
     0
280
     0
281
     0
282
     0
283
     0
284
     8
285
     0
286
     0
287
     3
288
     0
  0
ENDTAB
  0
TABLE
  2
BLOCK_RECORD
  5
1
330
0
100
AcDbSymbolTable
 70
     1
  0
BLOCK_RECORD
  5
1F
330
1
100
AcDbSymbolTableRecord
100
AcDbBlockTableRecord
  2
*MODEL_SPACE
  0
BLOCK_RECORD
  5
1B
330
1
100
AcDbSymbolTableRecord
100
AcDbBlockTableRecord
  2
*PAPER_SPACE
  0
ENDTAB
  0
ENDSEC
  0
SECTION
  2
BLOCKS
  0
BLOCK
  5
20
330
1F
100
AcDbEntity
  8
0
100
AcDbBlockBegin
  2
*MODEL_SPACE
 70
     0
 10
0.0
 20
0.0
 30
0.0
  3
*MODEL_SPACE
  1

  0
ENDBLK
  5
21
330
1F
100
AcDbEntity
  8
0
100
AcDbBlockEnd
  0
BLOCK
  5
1C
330
1B
100
AcDbEntity
 67
     1
  8
0
100
AcDbBlockBegin
  2
*PAPER_SPACE
  1

  0
ENDBLK
  5
1D
330
1B
100
AcDbEntity
 67
     1
  8
0
100
AcDbBlockEnd
  0
ENDSEC
  0
SECTION
  2
ENTITIES
  0
SPLINE
  5
100
100
AcDbEntity
  8
Calque_1
 62
1
100
AcDbSpline
 70
8
 71
3
 72
8
 73
4
 74
0
 40
0
 40
0
 40
0
 40
0
 40
1
 40
1
 40
1
 40
1
 10
85.400003
 20
89.835010
 30
0.0
 10
85.400003
 20
88.951354
 30
0.0
 10
84.683659
 20
88.235010
 30
0.0
 10
83.800003
 20
88.235010
 30
0.0
  0
SPLINE
  5
101
100
AcDbEntity
  8
Calque_1
 62
1
100
AcDbSpline
 70
8
 71
3
 72
8
 73
4
 74
0
 40
0
 40
0
 40
0
 40
0
 40
1
 40
1
 40
1
 40
1
 10
83.800003
 20
88.235010
 30
0.0
 10
82.916347
 20
88.235010
 30
0.0
 10
82.200003
 20
88.951354
 30
0.0
 10
82.200003
 20
89.835010
 30
0.0
  0
SPLINE
  5
102
100
AcDbEntity
  8
Calque_1
 62
1
100
AcDbSpline
 70
8
 71
3
 72
8
 73
4
 74
0
 40
0
 40
0
 40
0
 40
0
 40
1
 40
1
 40
1
 40
1
 10
82.200003
 20
89.835010
 30
0.0
 10
82.200003
 20
90.718666
 30
0.0
 10
82.916347
 20
91.435010
 30
0.0
 10
83.800003
 20
91.435010
 30
0.0
  0
SPLINE
  5
103
100
AcDbEntity
  8
Calque_1
 62
1
100
AcDbSpline
 70
8
 71
3
 72
8
 73
4
 74
0
 40
0
 40
0
 40
0
 40
0
 40
1
 40
1
 40
1
 40
1
 10
83.800003
 20
91.435010
 30
0.0
 10
84.683659
 20
91.435010
 30
0.0
 10
85.400003
 20
90.718666
 30
0.0
 10
85.400003
 20
89.835010
 30
0.0
  0
SPLINE
  5
104
100
AcDbEntity
  8
Calque_1
 62
1
100
AcDbSpline
 70
8
 71
3
 72
8
 73
4
 74
0
 40
0
 40
0
 40
0
 40
0
 40
1
 40
1
 40
1
 40
1
 10
176.300000
 20
107.000000
 30
0.0
 10
176.300000
 20
106.588914
 30
0.0
 10
176.136697
 20
106.194666
 30
0.0
 10
175.846016
 20
105.903984
 30
0.0
  0
SPLINE
  5
105
100
AcDbEntity
  8
Calque_1
 62
1
100
AcDbSpline
 70
8
 71
3
 72
8
 73
4
 74
0
 40
0
 40
0
 40
0
 40
0
 40
1
 40
1
 40
1
 40
1
 10
175.846016
 20
105.903984
 30
0.0
 10
175.555334
 20
105.613303
 30
0.0
 10
175.161086
 20
105.450000
 30
0.0
 10
174.750000
 20
105.450000
 30
0.0
  0
SPLINE
  5
106
100
AcDbEntity
  8
Calque_1
 62
1
100
AcDbSpline
 70
8
 71
3
 72
8
 73
4
 74
0
 40
0
 40
0
 40
0
 40
0
 40
1
 40
1
 40
1
 40
1
 10
174.750000
 20
105.450000
 30
0.0
 10
174.338914
 20
105.450000
 30
0.0
 10
173.944666
 20
105.613303
 30
0.0
 10
173.653984
 20
105.903984
 30
0.0
  0
SPLINE
  5
107
100
AcDbEntity
  8
Calque_1
 62
1
100
AcDbSpline
 70
8
 71
3
 72
8
 73
4
 74
0
 40
0
 40
0
 40
0
 40
0
 40
1
 40
1
 40
1
 40
1
 10
173.653984
 20
105.903984
 30
0.0
 10
173.363303
 20
106.194666
 30
0.0
 10
173.200000
 20
106.588914
 30
0.0
 10
173.200000
 20
107.000000
 30
0.0
  0
SPLINE
  5
108
100
AcDbEntity
  8
Calque_1
 62
1
100
AcDbSpline
 70
8
 71
3
 72
8
 73
4
 74
0
 40
0
 40
0
 40
0
 40
0
 40
1
 40
1
 40
1
 40
1
 10
173.200000
 20
107.000000
 30
0.0
 10
173.200000
 20
107.411086
 30
0.0
 10
173.363303
 20
107.805334
 30
0.0
 10
173.653984
 20
108.096016
 30
0.0
  0
SPLINE
  5
109
100
AcDbEntity
  8
Calque_1
 62
1
100
AcDbSpline
 70
8
 71
3
 72
8
 73
4
 74
0
 40
0
 40
0
 40
0
 40
0
 40
1
 40
1
 40
1
 40
1
 10
173.653984
 20
108.096016
 30
0.0
 10
173.944666
 20
108.386697
 30
0.0
 10
174.338914
 20
108.550000
 30
0.0
 10
174.750000
 20
108.550000
 30
0.0
  0
SPLINE
  5
10a
100
AcDbEntity
  8
Calque_1
 62
1
100
AcDbSpline
 70
8
 71
3
 72
8
 73
4
 74
0
 40
0
 40
0
 40
0
 40
0
 40
1
 40
1
 40
1
 40
1
 10
174.750000
 20
108.550000
 30
0.0
 10
175.161086
 20
108.550000
 30
0.0
 10
175.555334
 20
108.386697
 30
0.0
 10
175.846016
 20
108.096016
 30
0.0
  0
SPLINE
  5
10b
100
AcDbEntity
  8
Calque_1
 62
1
100
AcDbSpline
 70
8
 71
3
 72
8
 73
4
 74
0
 40
0
 40
0
 40
0
 40
0
 40
1
 40
1
 40
1
 40
1
 10
175.846016
 20
108.096016
 30
0.0
 10
176.136697
 20
107.805334
 30
0.0
 10
176.300000
 20
107.411086
 30
0.0
 10
176.300000
 20
107.000000
 30
0.0
  0
LWPOLYLINE
  5
10c
100
AcDbEntity
  8
Calque_1
 62
1
100
AcDbPolyline
 90
1
 70
1
 10
85.400003
 20
89.835010
 30
0.0
  0
SPLINE
  5
10d
100
AcDbEntity
  8
Calque_1
 62
1
100
AcDbSpline
 70
8
 71
3
 72
8
 73
4
 74
0
 40
0
 40
0
 40
0
 40
0
 40
1
 40
1
 40
1
 40
1
 10
131.800000
 20
89.835010
 30
0.0
 10
131.800000
 20
88.951354
 30
0.0
 10
131.083656
 20
88.235010
 30
0.0
 10
130.200000
 20
88.235010
 30
0.0
  0
SPLINE
  5
10e
100
AcDbEntity
  8
Calque_1
 62
1
100
AcDbSpline
 70
8
 71
3
 72
8
 73
4
 74
0
 40
0
 40
0
 40
0
 40
0
 40
1
 40
1
 40
1
 40
1
 10
130.200000
 20
88.235010
 30
0.0
 10
129.775654
 20
88.235010
 30
0.0
 10
129.368687
 20
88.403581
 30
0.0
 10
129.068629
 20
88.703639
 30
0.0
  0
SPLINE
  5
10f
100
AcDbEntity
  8
Calque_1
 62
1
100
AcDbSpline
 70
8
 71
3
 72
8
 73
4
 74
0
 40
0
 40
0
 40
0
 40
0
 40
1
 40
1
 40
1
 40
1
 10
129.068629
 20
88.703639
 30
0.0
 10
128.768571
 20
89.003697
 30
0.0
 10
128.600000
 20
89.410664
 30
0.0
 10
128.600000
 20
89.835010
 30
0.0
  0
SPLINE
  5
110
100
AcDbEntity
  8
Calque_1
 62
1
100
AcDbSpline
 70
8
 71
3
 72
8
 73
4
 74
0
 40
0
 40
0
 40
0
 40
0
 40
1
 40
1
 40
1
 40
1
 10
128.600000
 20
89.835010
 30
0.0
 10
128.600000
 20
90.259356
 30
0.0
 10
128.768571
 20
90.666323
 30
0.0
 10
129.068629
 20
90.966381
 30
0.0
  0
SPLINE
  5
111
100
AcDbEntity
  8
Calque_1
 62
1
100
AcDbSpline
 70
8
 71
3
 72
8
 73
4
 74
0
 40
0
 40
0
 40
0
 40
0
 40
1
 40
1
 40
1
 40
1
 10
129.068629
 20
90.966381
 30
0.0
 10
129.368687
 20
91.266439
 30
0.0
 10
129.775654
 20
91.435010
 30
0.0
 10
130.200000
 20
91.435010
 30
0.0
  0
SPLINE
  5
112
100
AcDbEntity
  8
Calque_1
 62
1
100
AcDbSpline
 70
8
 71
3
 72
8
 73
4
 74
0
 40
0
 40
0
 40
0
 40
0
 40
1
 40
1
 40
1
 40
1
 10
130.200000
 20
91.435010
 30
0.0
 10
131.083656
 20
91.435010
 30
0.0
 10
131.800000
 20
90.718666
 30
0.0
 10
131.800000
 20
89.835010
 30
0.0
  0
LWPOLYLINE
  5
113
100
AcDbEntity
  8
Calque_1
 62
1
100
AcDbPolyline
 90
1
 70
1
 10
176.300000
 20
107.000000
 30
0.0
  0
SPLINE
  5
114
100
AcDbEntity
  8
Calque_1
 62
1
100
AcDbSpline
 70
8
 71
3
 72
8
 73
4
 74
0
 40
0
 40
0
 40
0
 40
0
 40
1
 40
1
 40
1
 40
1
 10
85.400003
 20
124.164990
 30
0.0
 10
85.400003
 20
123.281334
 30
0.0
 10
84.683659
 20
122.564990
 30
0.0
 10
83.800003
 20
122.564990
 30
0.0
  0
SPLINE
  5
115
100
AcDbEntity
  8
Calque_1
 62
1
100
AcDbSpline
 70
8
 71
3
 72
8
 73
4
 74
0
 40
0
 40
0
 40
0
 40
0
 40
1
 40
1
 40
1
 40
1
 10
83.800003
 20
122.564990
 30
0.0
 10
82.916347
 20
122.564990
 30
0.0
 10
82.200003
 20
123.281334
 30
0.0
 10
82.200003
 20
124.164990
 30
0.0
  0
SPLINE
  5
116
100
AcDbEntity
  8
Calque_1
 62
1
100
AcDbSpline
 70
8
 71
3
 72
8
 73
4
 74
0
 40
0
 40
0
 40
0
 40
0
 40
1
 40
1
 40
1
 40
1
 10
82.200003
 20
124.164990
 30
0.0
 10
82.200003
 20
125.048646
 30
0.0
 10
82.916347
 20
125.764990
 30
0.0
 10
83.800003
 20
125.764990
 30
0.0
  0
SPLINE
  5
117
100
AcDbEntity
  8
Calque_1
 62
1
100
AcDbSpline
 70
8
 71
3
 72
8
 73
4
 74
0
 40
0
 40
0
 40
0
 40
0
 40
1
 40
1
 40
1
 40
1
 10
83.800003
 20
125.764990
 30
0.0
 10
84.683659
 20
125.764990
 30
0.0
 10
85.400003
 20
125.048646
 30
0.0
 10
85.400003
 20
124.164990
 30
0.0
  0
LWPOLYLINE
  5
118
100
AcDbEntity
  8
Calque_1
 62
1
100
AcDbPolyline
 90
1
 70
1
 10
131.800000
 20
89.835010
 30
0.0
  0
SPLINE
  5
119
100
AcDbEntity
  8
Calque_1
 62
1
100
AcDbSpline
 70
8
 71
3
 72
8
 73
4
 74
0
 40
0
 40
0
 40
0
 40
0
 40
1
 40
1
 40
1
 40
1
 10
131.800000
 20
124.164990
 30
0.0
 10
131.800000
 20
123.281334
 30
0.0
 10
131.083656
 20
122.564990
 30
0.0
 10
130.200000
 20
122.564990
 30
0.0
  0
SPLINE
  5
11a
100
AcDbEntity
  8
Calque_1
 62
1
100
AcDbSpline
 70
8
 71
3
 72
8
 73
4
 74
0
 40
0
 40
0
 40
0
 40
0
 40
1
 40
1
 40
1
 40
1
 10
130.200000
 20
122.564990
 30
0.0
 10
129.775654
 20
122.564990
 30
0.0
 10
129.368687
 20
122.733561
 30
0.0
 10
129.068629
 20
123.033619
 30
0.0
  0
SPLINE
  5
11b
100
AcDbEntity
  8
Calque_1
 62
1
100
AcDbSpline
 70
8
 71
3
 72
8
 73
4
 74
0
 40
0
 40
0
 40
0
 40
0
 40
1
 40
1
 40
1
 40
1
 10
129.068629
 20
123.033619
 30
0.0
 10
128.768571
 20
123.333677
 30
0.0
 10
128.600000
 20
123.740644
 30
0.0
 10
128.600000
 20
124.164990
 30
0.0
  0
SPLINE
  5
11c
100
AcDbEntity
  8
Calque_1
 62
1
100
AcDbSpline
 70
8
 71
3
 72
8
 73
4
 74
0
 40
0
 40
0
 40
0
 40
0
 40
1
 40
1
 40
1
 40
1
 10
128.600000
 20
124.164990
 30
0.0
 10
128.600000
 20
124.589336
 30
0.0
 10
128.768571
 20
124.996303
 30
0.0
 10
129.068629
 20
125.296361
 30
0.0
  0
SPLINE
  5
11d
100
AcDbEntity
  8
Calque_1
 62
1
100
AcDbSpline
 70
8
 71
3
 72
8
 73
4
 74
0
 40
0
 40
0
 40
0
 40
0
 40
1
 40
1
 40
1
 40
1
 10
129.068629
 20
125.296361
 30
0.0
 10
129.368687
 20
125.596419
 30
0.0
 10
129.775654
 20
125.764990
 30
0.0
 10
130.200000
 20
125.764990
 30
0.0
  0
SPLINE
  5
11e
100
AcDbEntity
  8
Calque_1
 62
1
100
AcDbSpline
 70
8
 71
3
 72
8
 73
4
 74
0
 40
0
 40
0
 40
0
 40
0
 40
1
 40
1
 40
1
 40
1
 10
130.200000
 20
125.764990
 30
0.0
 10
131.083656
 20
125.764990
 30
0.0
 10
131.800000
 20
125.048646
 30
0.0
 10
131.800000
 20
124.164990
 30
0.0
  0
LWPOLYLINE
  5
11f
100
AcDbEntity
  8
Calque_1
 62
1
100
AcDbPolyline
 90
1
 70
1
 10
85.400003
 20
124.164990
 30
0.0
  0
LWPOLYLINE
  5
120
100
AcDbEntity
  8
Calque_1
 62
1
100
AcDbPolyline
 90
1
 70
1
 10
131.800000
 20
124.164990
 30
0.0
  0
SPLINE
  5
121
100
AcDbEntity
  8
Calque_1
 62
7
100
AcDbSpline
 70
8
 71
3
 72
8
 73
4
 74
0
 40
0
 40
0
 40
0
 40
0
 40
1
 40
1
 40
1
 40
1
 10
195.810590
 20
60.620450
 30
0.0
 10
196.070803
 20
60.620450
 30
0.0
 10
196.271960
 20
60.687810
 30
0.0
 10
196.414060
 20
60.822530
 30
0.0
  0
SPLINE
  5
122
100
AcDbEntity
  8
Calque_1
 62
7
100
AcDbSpline
 70
8
 71
3
 72
8
 73
4
 74
0
 40
0
 40
0
 40
0
 40
0
 40
1
 40
1
 40
1
 40
1
 10
196.414060
 20
60.822530
 30
0.0
 10
196.556160
 20
60.957250
 30
0.0
 10
196.627210
 20
61.149177
 30
0.0
 10
196.627210
 20
61.398310
 30
0.0
  0
SPLINE
  5
123
100
AcDbEntity
  8
Calque_1
 62
7
100
AcDbSpline
 70
8
 71
3
 72
8
 73
4
 74
0
 40
0
 40
0
 40
0
 40
0
 40
1
 40
1
 40
1
 40
1
 10
196.627210
 20
61.398310
 30
0.0
 10
196.627210
 20
61.645603
 30
0.0
 10
196.556160
 20
61.836610
 30
0.0
 10
196.414060
 20
61.971330
 30
0.0
  0
SPLINE
  5
124
100
AcDbEntity
  8
Calque_1
 62
7
100
AcDbSpline
 70
8
 71
3
 72
8
 73
4
 74
0
 40
0
 40
0
 40
0
 40
0
 40
1
 40
1
 40
1
 40
1
 10
196.414060
 20
61.971330
 30
0.0
 10
196.271960
 20
62.106050
 30
0.0
 10
196.070803
 20
62.173410
 30
0.0
 10
195.810590
 20
62.173410
 30
0.0
  0
LWPOLYLINE
  5
125
100
AcDbEntity
  8
Calque_1
 62
7
100
AcDbPolyline
 90
3
 70
0
 10
195.107470
 20
62.173410
 30
0.0
 10
195.107470
 20
60.620450
 30
0.0
 10
195.810590
 20
60.620450
 30
0.0
  0
LWPOLYLINE
  5
126
100
AcDbEntity
  8
Calque_1
 62
7
100
AcDbPolyline
 90
2
 70
0
 10
195.810590
 20
62.173410
 30
0.0
 10
195.107470
 20
62.173410
 30
0.0
  0
SPLINE
  5
127
100
AcDbEntity
  8
Calque_1
 62
7
100
AcDbSpline
 70
8
 71
3
 72
8
 73
4
 74
0
 40
0
 40
0
 40
0
 40
0
 40
1
 40
1
 40
1
 40
1
 10
195.810590
 20
62.632940
 30
0.0
 10
196.273803
 20
62.632940
 30
0.0
 10
196.623520
 20
62.527747
 30
0.0
 10
196.859740
 20
62.317360
 30
0.0
  0
SPLINE
  5
128
100
AcDbEntity
  8
Calque_1
 62
7
100
AcDbSpline
 70
8
 71
3
 72
8
 73
4
 74
0
 40
0
 40
0
 40
0
 40
0
 40
1
 40
1
 40
1
 40
1
 10
196.859740
 20
62.317360
 30
0.0
 10
197.097807
 20
62.108820
 30
0.0
 10
197.216840
 20
61.802470
 30
0.0
 10
197.216840
 20
61.398310
 30
0.0
  0
SPLINE
  5
129
100
AcDbEntity
  8
Calque_1
 62
7
100
AcDbSpline
 70
8
 71
3
 72
8
 73
4
 74
0
 40
0
 40
0
 40
0
 40
0
 40
1
 40
1
 40
1
 40
1
 10
197.216840
 20
61.398310
 30
0.0
 10
197.216840
 20
60.990463
 30
0.0
 10
197.097807
 20
60.682270
 30
0.0
 10
196.859740
 20
60.473730
 30
0.0
  0
SPLINE
  5
12a
100
AcDbEntity
  8
Calque_1
 62
7
100
AcDbSpline
 70
8
 71
3
 72
8
 73
4
 74
0
 40
0
 40
0
 40
0
 40
0
 40
1
 40
1
 40
1
 40
1
 10
196.859740
 20
60.473730
 30
0.0
 10
196.623520
 20
60.265197
 30
0.0
 10
196.273803
 20
60.160930
 30
0.0
 10
195.810590
 20
60.160930
 30
0.0
  0
LWPOLYLINE
  5
12b
100
AcDbEntity
  8
Calque_1
 62
7
100
AcDbPolyline
 90
2
 70
0
 10
194.548290
 20
62.632940
 30
0.0
 10
195.810590
 20
62.632940
 30
0.0
  0
SPLINE
  5
12c
100
AcDbEntity
  8
Calque_1
 62
7
100
AcDbSpline
 70
8
 71
3
 72
8
 73
4
 74
0
 40
0
 40
0
 40
0
 40
0
 40
1
 40
1
 40
1
 40
1
 10
199.647330
 20
62.253690
 30
0.0
 10
199.241323
 20
62.253690
 30
0.0
 10
198.918367
 20
62.102360
 30
0.0
 10
198.678460
 20
61.799700
 30
0.0
  0
SPLINE
  5
12d
100
AcDbEntity
  8
Calque_1
 62
7
100
AcDbSpline
 70
8
 71
3
 72
8
 73
4
 74
0
 40
0
 40
0
 40
0
 40
0
 40
1
 40
1
 40
1
 40
1
 10
198.678460
 20
61.799700
 30
0.0
 10
198.440393
 20
61.497047
 30
0.0
 10
198.321360
 20
61.084587
 30
0.0
 10
198.321360
 20
60.562320
 30
0.0
  0
SPLINE
  5
12e
100
AcDbEntity
  8
Calque_1
 62
7
100
AcDbSpline
 70
8
 71
3
 72
8
 73
4
 74
0
 40
0
 40
0
 40
0
 40
0
 40
1
 40
1
 40
1
 40
1
 10
198.321360
 20
60.562320
 30
0.0
 10
198.321360
 20
60.041893
 30
0.0
 10
198.440393
 20
59.630350
 30
0.0
 10
198.678460
 20
59.327690
 30
0.0
  0
SPLINE
  5
12f
100
AcDbEntity
  8
Calque_1
 62
7
100
AcDbSpline
 70
8
 71
3
 72
8
 73
4
 74
0
 40
0
 40
0
 40
0
 40
0
 40
1
 40
1
 40
1
 40
1
 10
198.678460
 20
59.327690
 30
0.0
 10
198.918367
 20
59.025037
 30
0.0
 10
199.241323
 20
58.873710
 30
0.0
 10
199.647330
 20
58.873710
 30
0.0
  0
SPLINE
  5
130
100
AcDbEntity
  8
Calque_1
 62
7
100
AcDbSpline
 70
8
 71
3
 72
8
 73
4
 74
0
 40
0
 40
0
 40
0
 40
0
 40
1
 40
1
 40
1
 40
1
 10
199.647330
 20
58.873710
 30
0.0
 10
200.053337
 20
58.873710
 30
0.0
 10
200.374450
 20
59.025037
 30
0.0
 10
200.610670
 20
59.327690
 30
0.0
  0
SPLINE
  5
131
100
AcDbEntity
  8
Calque_1
 62
7
100
AcDbSpline
 70
8
 71
3
 72
8
 73
4
 74
0
 40
0
 40
0
 40
0
 40
0
 40
1
 40
1
 40
1
 40
1
 10
200.610670
 20
59.327690
 30
0.0
 10
200.848737
 20
59.630350
 30
0.0
 10
200.967770
 20
60.041893
 30
0.0
 10
200.967770
 20
60.562320
 30
0.0
  0
SPLINE
  5
132
100
AcDbEntity
  8
Calque_1
 62
7
100
AcDbSpline
 70
8
 71
3
 72
8
 73
4
 74
0
 40
0
 40
0
 40
0
 40
0
 40
1
 40
1
 40
1
 40
1
 10
200.967770
 20
60.562320
 30
0.0
 10
200.967770
 20
61.084587
 30
0.0
 10
200.848737
 20
61.497047
 30
0.0
 10
200.610670
 20
61.799700
 30
0.0
  0
SPLINE
  5
133
100
AcDbEntity
  8
Calque_1
 62
7
100
AcDbSpline
 70
8
 71
3
 72
8
 73
4
 74
0
 40
0
 40
0
 40
0
 40
0
 40
1
 40
1
 40
1
 40
1
 10
200.610670
 20
61.799700
 30
0.0
 10
200.374450
 20
62.102360
 30
0.0
 10
200.053337
 20
62.253690
 30
0.0
 10
199.647330
 20
62.253690
 30
0.0
  0
LWPOLYLINE
  5
134
100
AcDbEntity
  8
Calque_1
 62
7
100
AcDbPolyline
 90
5
 70
0
 10
195.810590
 20
60.160930
 30
0.0
 10
195.107470
 20
60.160930
 30
0.0
 10
195.107470
 20
58.500000
 30
0.0
 10
194.548290
 20
58.500000
 30
0.0
 10
194.548290
 20
62.632940
 30
0.0
  0
SPLINE
  5
135
100
AcDbEntity
  8
Calque_1
 62
7
100
AcDbSpline
 70
8
 71
3
 72
8
 73
4
 74
0
 40
0
 40
0
 40
0
 40
0
 40
1
 40
1
 40
1
 40
1
 10
199.647330
 20
62.707680
 30
0.0
 10
200.226810
 20
62.707680
 30
0.0
 10
200.690023
 20
62.512983
 30
0.0
 10
201.036970
 20
62.123590
 30
0.0
  0
SPLINE
  5
136
100
AcDbEntity
  8
Calque_1
 62
7
100
AcDbSpline
 70
8
 71
3
 72
8
 73
4
 74
0
 40
0
 40
0
 40
0
 40
0
 40
1
 40
1
 40
1
 40
1
 10
201.036970
 20
62.123590
 30
0.0
 10
201.383917
 20
61.736037
 30
0.0
 10
201.557390
 20
61.215613
 30
0.0
 10
201.557390
 20
60.562320
 30
0.0
  0
SPLINE
  5
137
100
AcDbEntity
  8
Calque_1
 62
7
100
AcDbSpline
 70
8
 71
3
 72
8
 73
4
 74
0
 40
0
 40
0
 40
0
 40
0
 40
1
 40
1
 40
1
 40
1
 10
201.557390
 20
60.562320
 30
0.0
 10
201.557390
 20
59.910867
 30
0.0
 10
201.383917
 20
59.390443
 30
0.0
 10
201.036970
 20
59.001050
 30
0.0
  0
SPLINE
  5
138
100
AcDbEntity
  8
Calque_1
 62
7
100
AcDbSpline
 70
8
 71
3
 72
8
 73
4
 74
0
 40
0
 40
0
 40
0
 40
0
 40
1
 40
1
 40
1
 40
1
 10
201.036970
 20
59.001050
 30
0.0
 10
200.690023
 20
58.613497
 30
0.0
 10
200.226810
 20
58.419720
 30
0.0
 10
199.647330
 20
58.419720
 30
0.0
  0
SPLINE
  5
139
100
AcDbEntity
  8
Calque_1
 62
7
100
AcDbSpline
 70
8
 71
3
 72
8
 73
4
 74
0
 40
0
 40
0
 40
0
 40
0
 40
1
 40
1
 40
1
 40
1
 10
199.647330
 20
58.419720
 30
0.0
 10
199.066003
 20
58.419720
 30
0.0
 10
198.600943
 20
58.613497
 30
0.0
 10
198.252150
 20
59.001050
 30
0.0
  0
SPLINE
  5
13a
100
AcDbEntity
  8
Calque_1
 62
7
100
AcDbSpline
 70
8
 71
3
 72
8
 73
4
 74
0
 40
0
 40
0
 40
0
 40
0
 40
1
 40
1
 40
1
 40
1
 10
198.252150
 20
59.001050
 30
0.0
 10
197.905203
 20
59.388597
 30
0.0
 10
197.731730
 20
59.909020
 30
0.0
 10
197.731730
 20
60.562320
 30
0.0
  0
SPLINE
  5
13b
100
AcDbEntity
  8
Calque_1
 62
7
100
AcDbSpline
 70
8
 71
3
 72
8
 73
4
 74
0
 40
0
 40
0
 40
0
 40
0
 40
1
 40
1
 40
1
 40
1
 10
197.731730
 20
60.562320
 30
0.0
 10
197.731730
 20
61.215613
 30
0.0
 10
197.905203
 20
61.736037
 30
0.0
 10
198.252150
 20
62.123590
 30
0.0
  0
SPLINE
  5
13c
100
AcDbEntity
  8
Calque_1
 62
7
100
AcDbSpline
 70
8
 71
3
 72
8
 73
4
 74
0
 40
0
 40
0
 40
0
 40
0
 40
1
 40
1
 40
1
 40
1
 10
198.252150
 20
62.123590
 30
0.0
 10
198.600943
 20
62.512983
 30
0.0
 10
199.066003
 20
62.707680
 30
0.0
 10
199.647330
 20
62.707680
 30
0.0
  0
LWPOLYLINE
  5
13d
100
AcDbEntity
  8
Calque_1
 62
7
100
AcDbPolyline
 90
1
 70
1
 10
199.647330
 20
62.253690
 30
0.0
  0
LWPOLYLINE
  5
13e
100
AcDbEntity
  8
Calque_1
 62
7
100
AcDbPolyline
 90
1
 70
1
 10
199.647330
 20
62.707680
 30
0.0
  0
LWPOLYLINE
  5
13f
100
AcDbEntity
  8
Calque_1
 62
7
100
AcDbPolyline
 90
13
 70
1
 10
202.063980
 20
62.632940
 30
0.0
 10
202.628690
 20
62.632940
 30
0.0
 10
203.497910
 20
59.139460
 30
0.0
 10
204.364360
 20
62.632940
 30
0.0
 10
204.992740
 20
62.632940
 30
0.0
 10
205.861960
 20
59.139460
 30
0.0
 10
206.728410
 20
62.632940
 30
0.0
 10
207.295890
 20
62.632940
 30
0.0
 10
206.257810
 20
58.500000
 30
0.0
 10
205.554690
 20
58.500000
 30
0.0
 10
204.682700
 20
62.087600
 30
0.0
 10
203.802410
 20
58.500000
 30
0.0
 10
203.099290
 20
58.500000
 30
0.0
  0
SPLINE
  5
140
100
AcDbEntity
  8
Calque_1
 62
7
100
AcDbSpline
 70
8
 71
3
 72
8
 73
4
 74
0
 40
0
 40
0
 40
0
 40
0
 40
1
 40
1
 40
1
 40
1
 10
213.582490
 20
60.437750
 30
0.0
 10
213.702450
 20
60.397150
 30
0.0
 10
213.818717
 20
60.310410
 30
0.0
 10
213.931290
 20
60.177530
 30
0.0
  0
SPLINE
  5
141
100
AcDbEntity
  8
Calque_1
 62
7
100
AcDbSpline
 70
8
 71
3
 72
8
 73
4
 74
0
 40
0
 40
0
 40
0
 40
0
 40
1
 40
1
 40
1
 40
1
 10
213.931290
 20
60.177530
 30
0.0
 10
214.045703
 20
60.044657
 30
0.0
 10
214.160120
 20
59.861957
 30
0.0
 10
214.274540
 20
59.629430
 30
0.0
  0
LWPOLYLINE
  5
142
100
AcDbEntity
  8
Calque_1
 62
7
100
AcDbPolyline
 90
12
 70
1
 10
208.035000
 20
62.632940
 30
0.0
 10
210.648190
 20
62.632940
 30
0.0
 10
210.648190
 20
62.162340
 30
0.0
 10
208.594180
 20
62.162340
 30
0.0
 10
208.594180
 20
60.938790
 30
0.0
 10
210.562380
 20
60.938790
 30
0.0
 10
210.562380
 20
60.468200
 30
0.0
 10
208.594180
 20
60.468200
 30
0.0
 10
208.594180
 20
58.970600
 30
0.0
 10
210.698020
 20
58.970600
 30
0.0
 10
210.698020
 20
58.500000
 30
0.0
 10
208.035000
 20
58.500000
 30
0.0
  0
SPLINE
  5
143
100
AcDbEntity
  8
Calque_1
 62
7
100
AcDbSpline
 70
8
 71
3
 72
8
 73
4
 74
0
 40
0
 40
0
 40
0
 40
0
 40
1
 40
1
 40
1
 40
1
 10
213.712600
 20
59.560220
 30
0.0
 10
213.576033
 20
59.837047
 30
0.0
 10
213.443160
 20
60.020673
 30
0.0
 10
213.313980
 20
60.111100
 30
0.0
  0
SPLINE
  5
144
100
AcDbEntity
  8
Calque_1
 62
7
100
AcDbSpline
 70
8
 71
3
 72
8
 73
4
 74
0
 40
0
 40
0
 40
0
 40
0
 40
1
 40
1
 40
1
 40
1
 10
213.313980
 20
60.111100
 30
0.0
 10
213.186640
 20
60.201527
 30
0.0
 10
213.012240
 20
60.246740
 30
0.0
 10
212.790780
 20
60.246740
 30
0.0
  0
LWPOLYLINE
  5
145
100
AcDbEntity
  8
Calque_1
 62
7
100
AcDbPolyline
 90
4
 70
0
 10
214.274540
 20
59.629430
 30
0.0
 10
214.842030
 20
58.500000
 30
0.0
 10
214.241330
 20
58.500000
 30
0.0
 10
213.712600
 20
59.560220
 30
0.0
  0
SPLINE
  5
146
100
AcDbEntity
  8
Calque_1
 62
7
100
AcDbSpline
 70
8
 71
3
 72
8
 73
4
 74
0
 40
0
 40
0
 40
0
 40
0
 40
1
 40
1
 40
1
 40
1
 10
212.884900
 20
62.632940
 30
0.0
 10
213.357340
 20
62.632940
 30
0.0
 10
213.709827
 20
62.534207
 30
0.0
 10
213.942360
 20
62.336740
 30
0.0
  0
SPLINE
  5
147
100
AcDbEntity
  8
Calque_1
 62
7
100
AcDbSpline
 70
8
 71
3
 72
8
 73
4
 74
0
 40
0
 40
0
 40
0
 40
0
 40
1
 40
1
 40
1
 40
1
 10
213.942360
 20
62.336740
 30
0.0
 10
214.174887
 20
62.139273
 30
0.0
 10
214.291150
 20
61.841230
 30
0.0
 10
214.291150
 20
61.442610
 30
0.0
  0
SPLINE
  5
148
100
AcDbEntity
  8
Calque_1
 62
7
100
AcDbSpline
 70
8
 71
3
 72
8
 73
4
 74
0
 40
0
 40
0
 40
0
 40
0
 40
1
 40
1
 40
1
 40
1
 10
214.291150
 20
61.442610
 30
0.0
 10
214.291150
 20
61.182397
 30
0.0
 10
214.230250
 20
60.966477
 30
0.0
 10
214.108450
 20
60.794850
 30
0.0
  0
SPLINE
  5
149
100
AcDbEntity
  8
Calque_1
 62
7
100
AcDbSpline
 70
8
 71
3
 72
8
 73
4
 74
0
 40
0
 40
0
 40
0
 40
0
 40
1
 40
1
 40
1
 40
1
 10
214.108450
 20
60.794850
 30
0.0
 10
213.988497
 20
60.623217
 30
0.0
 10
213.813177
 20
60.504183
 30
0.0
 10
213.582490
 20
60.437750
 30
0.0
  0
LWPOLYLINE
  5
14a
100
AcDbEntity
  8
Calque_1
 62
7
100
AcDbPolyline
 90
6
 70
0
 10
212.790780
 20
60.246740
 30
0.0
 10
212.181780
 20
60.246740
 30
0.0
 10
212.181780
 20
58.500000
 30
0.0
 10
211.622600
 20
58.500000
 30
0.0
 10
211.622600
 20
62.632940
 30
0.0
 10
212.884900
 20
62.632940
 30
0.0
  0
LWPOLYLINE
  5
14b
100
AcDbEntity
  8
Calque_1
 62
7
100
AcDbPolyline
 90
1
 70
1
 10
213.582490
 20
60.437750
 30
0.0
  0
SPLINE
  5
14c
100
AcDbEntity
  8
Calque_1
 62
7
100
AcDbSpline
 70
8
 71
3
 72
8
 73
4
 74
0
 40
0
 40
0
 40
0
 40
0
 40
1
 40
1
 40
1
 40
1
 10
212.884900
 20
60.706260
 30
0.0
 10
213.154340
 20
60.706260
 30
0.0
 10
213.357343
 20
60.768083
 30
0.0
 10
213.493910
 20
60.891730
 30
0.0
  0
SPLINE
  5
14d
100
AcDbEntity
  8
Calque_1
 62
7
100
AcDbSpline
 70
8
 71
3
 72
8
 73
4
 74
0
 40
0
 40
0
 40
0
 40
0
 40
1
 40
1
 40
1
 40
1
 10
213.493910
 20
60.891730
 30
0.0
 10
213.632317
 20
61.017223
 30
0.0
 10
213.701520
 20
61.200850
 30
0.0
 10
213.701520
 20
61.442610
 30
0.0
  0
SPLINE
  5
14e
100
AcDbEntity
  8
Calque_1
 62
7
100
AcDbSpline
 70
8
 71
3
 72
8
 73
4
 74
0
 40
0
 40
0
 40
0
 40
0
 40
1
 40
1
 40
1
 40
1
 10
213.701520
 20
61.442610
 30
0.0
 10
213.701520
 20
61.684363
 30
0.0
 10
213.632317
 20
61.866140
 30
0.0
 10
213.493910
 20
61.987940
 30
0.0
  0
SPLINE
  5
14f
100
AcDbEntity
  8
Calque_1
 62
7
100
AcDbSpline
 70
8
 71
3
 72
8
 73
4
 74
0
 40
0
 40
0
 40
0
 40
0
 40
1
 40
1
 40
1
 40
1
 10
213.493910
 20
61.987940
 30
0.0
 10
213.357343
 20
62.111587
 30
0.0
 10
213.154340
 20
62.173410
 30
0.0
 10
212.884900
 20
62.173410
 30
0.0
  0
LWPOLYLINE
  5
150
100
AcDbEntity
  8
Calque_1
 62
7
100
AcDbPolyline
 90
3
 70
0
 10
212.181780
 20
62.173410
 30
0.0
 10
212.181780
 20
60.706260
 30
0.0
 10
212.884900
 20
60.706260
 30
0.0
  0
LWPOLYLINE
  5
151
100
AcDbEntity
  8
Calque_1
 62
7
100
AcDbPolyline
 90
2
 70
0
 10
212.884900
 20
62.173410
 30
0.0
 10
212.181780
 20
62.173410
 30
0.0
  0
SPLINE
  5
152
100
AcDbEntity
  8
Calque_1
 62
7
100
AcDbSpline
 70
8
 71
3
 72
8
 73
4
 74
0
 40
0
 40
0
 40
0
 40
0
 40
1
 40
1
 40
1
 40
1
 10
143.713830
 20
117.513040
 30
0.0
 10
143.425937
 20
117.308807
 30
0.0
 10
143.108513
 20
117.153787
 30
0.0
 10
142.761560
 20
117.047980
 30
0.0
  0
SPLINE
  5
153
100
AcDbEntity
  8
Calque_1
 62
7
100
AcDbSpline
 70
8
 71
3
 72
8
 73
4
 74
0
 40
0
 40
0
 40
0
 40
0
 40
1
 40
1
 40
1
 40
1
 10
142.761560
 20
117.047980
 30
0.0
 10
142.414613
 20
116.944633
 30
0.0
 10
142.044290
 20
116.892960
 30
0.0
 10
141.650590
 20
116.892960
 30
0.0
  0
SPLINE
  5
154
100
AcDbEntity
  8
Calque_1
 62
7
100
AcDbSpline
 70
8
 71
3
 72
8
 73
4
 74
0
 40
0
 40
0
 40
0
 40
0
 40
1
 40
1
 40
1
 40
1
 10
141.650590
 20
116.892960
 30
0.0
 10
140.789370
 20
116.892960
 30
0.0
 10
140.115157
 20
117.143947
 30
0.0
 10
139.627950
 20
117.645920
 30
0.0
  0
SPLINE
  5
155
100
AcDbEntity
  8
Calque_1
 62
7
100
AcDbSpline
 70
8
 71
3
 72
8
 73
4
 74
0
 40
0
 40
0
 40
0
 40
0
 40
1
 40
1
 40
1
 40
1
 10
139.627950
 20
117.645920
 30
0.0
 10
139.143210
 20
118.150347
 30
0.0
 10
138.900840
 20
118.851623
 30
0.0
 10
138.900840
 20
119.749750
 30
0.0
  0
SPLINE
  5
156
100
AcDbEntity
  8
Calque_1
 62
7
100
AcDbSpline
 70
8
 71
3
 72
8
 73
4
 74
0
 40
0
 40
0
 40
0
 40
0
 40
1
 40
1
 40
1
 40
1
 10
138.900840
 20
119.749750
 30
0.0
 10
138.900840
 20
120.650343
 30
0.0
 10
139.143210
 20
121.351623
 30
0.0
 10
139.627950
 20
121.853590
 30
0.0
  0
SPLINE
  5
157
100
AcDbEntity
  8
Calque_1
 62
7
100
AcDbSpline
 70
8
 71
3
 72
8
 73
4
 74
0
 40
0
 40
0
 40
0
 40
0
 40
1
 40
1
 40
1
 40
1
 10
139.627950
 20
121.853590
 30
0.0
 10
140.115157
 20
122.358023
 30
0.0
 10
140.789370
 20
122.610240
 30
0.0
 10
141.650590
 20
122.610240
 30
0.0
  0
SPLINE
  5
158
100
AcDbEntity
  8
Calque_1
 62
7
100
AcDbSpline
 70
8
 71
3
 72
8
 73
4
 74
0
 40
0
 40
0
 40
0
 40
0
 40
1
 40
1
 40
1
 40
1
 10
141.650590
 20
122.610240
 30
0.0
 10
142.009843
 20
122.610240
 30
0.0
 10
142.350640
 20
122.565947
 30
0.0
 10
142.672980
 20
122.477360
 30
0.0
  0
SPLINE
  5
159
100
AcDbEntity
  8
Calque_1
 62
7
100
AcDbSpline
 70
8
 71
3
 72
8
 73
4
 74
0
 40
0
 40
0
 40
0
 40
0
 40
1
 40
1
 40
1
 40
1
 10
142.672980
 20
122.477360
 30
0.0
 10
142.997787
 20
122.388780
 30
0.0
 10
143.296753
 20
122.258367
 30
0.0
 10
143.569880
 20
122.086120
 30
0.0
  0
LWPOLYLINE
  5
15a
100
AcDbEntity
  8
Calque_1
 62
7
100
AcDbPolyline
 90
6
 70
0
 10
142.975640
 20
117.786170
 30
0.0
 10
142.975640
 20
119.266240
 30
0.0
 10
141.757630
 20
119.266240
 30
0.0
 10
141.757630
 20
119.878940
 30
0.0
 10
143.713830
 20
119.878940
 30
0.0
 10
143.713830
 20
117.513040
 30
0.0
  0
SPLINE
  5
15b
100
AcDbEntity
  8
Calque_1
 62
7
100
AcDbSpline
 70
8
 71
3
 72
8
 73
4
 74
0
 40
0
 40
0
 40
0
 40
0
 40
1
 40
1
 40
1
 40
1
 10
143.569880
 20
121.292570
 30
0.0
 10
143.294293
 20
121.526330
 30
0.0
 10
143.001480
 20
121.702263
 30
0.0
 10
142.691440
 20
121.820370
 30
0.0
  0
SPLINE
  5
15c
100
AcDbEntity
  8
Calque_1
 62
7
100
AcDbSpline
 70
8
 71
3
 72
8
 73
4
 74
0
 40
0
 40
0
 40
0
 40
0
 40
1
 40
1
 40
1
 40
1
 10
142.691440
 20
121.820370
 30
0.0
 10
142.381400
 20
121.938483
 30
0.0
 10
142.055367
 20
121.997540
 30
0.0
 10
141.713340
 20
121.997540
 30
0.0
  0
SPLINE
  5
15d
100
AcDbEntity
  8
Calque_1
 62
7
100
AcDbSpline
 70
8
 71
3
 72
8
 73
4
 74
0
 40
0
 40
0
 40
0
 40
0
 40
1
 40
1
 40
1
 40
1
 10
141.713340
 20
121.997540
 30
0.0
 10
141.039127
 20
121.997540
 30
0.0
 10
140.532237
 20
121.809300
 30
0.0
 10
140.192670
 20
121.432820
 30
0.0
  0
SPLINE
  5
15e
100
AcDbEntity
  8
Calque_1
 62
7
100
AcDbSpline
 70
8
 71
3
 72
8
 73
4
 74
0
 40
0
 40
0
 40
0
 40
0
 40
1
 40
1
 40
1
 40
1
 10
140.192670
 20
121.432820
 30
0.0
 10
139.855563
 20
121.056347
 30
0.0
 10
139.687010
 20
120.495323
 30
0.0
 10
139.687010
 20
119.749750
 30
0.0
  0
SPLINE
  5
15f
100
AcDbEntity
  8
Calque_1
 62
7
100
AcDbSpline
 70
8
 71
3
 72
8
 73
4
 74
0
 40
0
 40
0
 40
0
 40
0
 40
1
 40
1
 40
1
 40
1
 10
139.687010
 20
119.749750
 30
0.0
 10
139.687010
 20
119.006643
 30
0.0
 10
139.855563
 20
118.446850
 30
0.0
 10
140.192670
 20
118.070370
 30
0.0
  0
SPLINE
  5
160
100
AcDbEntity
  8
Calque_1
 62
7
100
AcDbSpline
 70
8
 71
3
 72
8
 73
4
 74
0
 40
0
 40
0
 40
0
 40
0
 40
1
 40
1
 40
1
 40
1
 10
140.192670
 20
118.070370
 30
0.0
 10
140.532237
 20
117.693897
 30
0.0
 10
141.039127
 20
117.505660
 30
0.0
 10
141.713340
 20
117.505660
 30
0.0
  0
SPLINE
  5
161
100
AcDbEntity
  8
Calque_1
 62
7
100
AcDbSpline
 70
8
 71
3
 72
8
 73
4
 74
0
 40
0
 40
0
 40
0
 40
0
 40
1
 40
1
 40
1
 40
1
 10
141.713340
 20
117.505660
 30
0.0
 10
141.976627
 20
117.505660
 30
0.0
 10
142.211617
 20
117.527793
 30
0.0
 10
142.418310
 20
117.572060
 30
0.0
  0
SPLINE
  5
162
100
AcDbEntity
  8
Calque_1
 62
7
100
AcDbSpline
 70
8
 71
3
 72
8
 73
4
 74
0
 40
0
 40
0
 40
0
 40
0
 40
1
 40
1
 40
1
 40
1
 10
142.418310
 20
117.572060
 30
0.0
 10
142.625003
 20
117.618793
 30
0.0
 10
142.810780
 20
117.690150
 30
0.0
 10
142.975640
 20
117.786130
 30
0.0
  0
LWPOLYLINE
  5
163
100
AcDbEntity
  8
Calque_1
 62
7
100
AcDbPolyline
 90
2
 70
0
 10
143.569880
 20
122.086120
 30
0.0
 10
143.569880
 20
121.292570
 30
0.0
  0
LWPOLYLINE
  5
164
100
AcDbEntity
  8
Calque_1
 62
7
100
AcDbPolyline
 90
1
 70
1
 10
142.975640
 20
117.786130
 30
0.0
  0
LWPOLYLINE
  5
165
100
AcDbEntity
  8
Calque_1
 62
7
100
AcDbPolyline
 90
12
 70
1
 10
145.079480
 20
122.510580
 30
0.0
 10
148.563730
 20
122.510580
 30
0.0
 10
148.563730
 20
121.883120
 30
0.0
 10
145.825050
 20
121.883120
 30
0.0
 10
145.825050
 20
120.251720
 30
0.0
 10
148.449310
 20
120.251720
 30
0.0
 10
148.449310
 20
119.624260
 30
0.0
 10
145.825050
 20
119.624260
 30
0.0
 10
145.825050
 20
117.627460
 30
0.0
 10
148.630170
 20
117.627460
 30
0.0
 10
148.630170
 20
117.000000
 30
0.0
 10
145.079480
 20
117.000000
 30
0.0
  0
SPLINE
  5
166
100
AcDbEntity
  8
Calque_1
 62
7
100
AcDbSpline
 70
8
 71
3
 72
8
 73
4
 74
0
 40
0
 40
0
 40
0
 40
0
 40
1
 40
1
 40
1
 40
1
 10
157.754180
 20
122.004920
 30
0.0
 10
157.212847
 20
122.004920
 30
0.0
 10
156.782237
 20
121.803150
 30
0.0
 10
156.462350
 20
121.399610
 30
0.0
  0
SPLINE
  5
167
100
AcDbEntity
  8
Calque_1
 62
7
100
AcDbSpline
 70
8
 71
3
 72
8
 73
4
 74
0
 40
0
 40
0
 40
0
 40
0
 40
1
 40
1
 40
1
 40
1
 10
156.462350
 20
121.399610
 30
0.0
 10
156.144930
 20
120.996063
 30
0.0
 10
155.986220
 20
120.446110
 30
0.0
 10
155.986220
 20
119.749750
 30
0.0
  0
SPLINE
  5
168
100
AcDbEntity
  8
Calque_1
 62
7
100
AcDbSpline
 70
8
 71
3
 72
8
 73
4
 74
0
 40
0
 40
0
 40
0
 40
0
 40
1
 40
1
 40
1
 40
1
 10
155.986220
 20
119.749750
 30
0.0
 10
155.986220
 20
119.055857
 30
0.0
 10
156.144930
 20
118.507137
 30
0.0
 10
156.462350
 20
118.103590
 30
0.0
  0
SPLINE
  5
169
100
AcDbEntity
  8
Calque_1
 62
7
100
AcDbSpline
 70
8
 71
3
 72
8
 73
4
 74
0
 40
0
 40
0
 40
0
 40
0
 40
1
 40
1
 40
1
 40
1
 10
156.462350
 20
118.103590
 30
0.0
 10
156.782237
 20
117.700050
 30
0.0
 10
157.212847
 20
117.498280
 30
0.0
 10
157.754180
 20
117.498280
 30
0.0
  0
SPLINE
  5
16a
100
AcDbEntity
  8
Calque_1
 62
7
100
AcDbSpline
 70
8
 71
3
 72
8
 73
4
 74
0
 40
0
 40
0
 40
0
 40
0
 40
1
 40
1
 40
1
 40
1
 10
157.754180
 20
117.498280
 30
0.0
 10
158.295520
 20
117.498280
 30
0.0
 10
158.723670
 20
117.700050
 30
0.0
 10
159.038630
 20
118.103590
 30
0.0
  0
SPLINE
  5
16b
100
AcDbEntity
  8
Calque_1
 62
7
100
AcDbSpline
 70
8
 71
3
 72
8
 73
4
 74
0
 40
0
 40
0
 40
0
 40
0
 40
1
 40
1
 40
1
 40
1
 10
159.038630
 20
118.103590
 30
0.0
 10
159.356050
 20
118.507137
 30
0.0
 10
159.514760
 20
119.055857
 30
0.0
 10
159.514760
 20
119.749750
 30
0.0
  0
SPLINE
  5
16c
100
AcDbEntity
  8
Calque_1
 62
7
100
AcDbSpline
 70
8
 71
3
 72
8
 73
4
 74
0
 40
0
 40
0
 40
0
 40
0
 40
1
 40
1
 40
1
 40
1
 10
159.514760
 20
119.749750
 30
0.0
 10
159.514760
 20
120.446110
 30
0.0
 10
159.356050
 20
120.996063
 30
0.0
 10
159.038630
 20
121.399610
 30
0.0
  0
SPLINE
  5
16d
100
AcDbEntity
  8
Calque_1
 62
7
100
AcDbSpline
 70
8
 71
3
 72
8
 73
4
 74
0
 40
0
 40
0
 40
0
 40
0
 40
1
 40
1
 40
1
 40
1
 10
159.038630
 20
121.399610
 30
0.0
 10
158.723670
 20
121.803150
 30
0.0
 10
158.295520
 20
122.004920
 30
0.0
 10
157.754180
 20
122.004920
 30
0.0
  0
LWPOLYLINE
  5
16e
100
AcDbEntity
  8
Calque_1
 62
7
100
AcDbPolyline
 90
10
 70
1
 10
149.862940
 20
122.510580
 30
0.0
 10
150.866880
 20
122.510580
 30
0.0
 10
153.310290
 20
117.900590
 30
0.0
 10
153.310290
 20
122.510580
 30
0.0
 10
154.033710
 20
122.510580
 30
0.0
 10
154.033710
 20
117.000000
 30
0.0
 10
153.029770
 20
117.000000
 30
0.0
 10
150.586370
 20
121.609990
 30
0.0
 10
150.586370
 20
117.000000
 30
0.0
 10
149.862940
 20
117.000000
 30
0.0
  0
SPLINE
  5
16f
100
AcDbEntity
  8
Calque_1
 62
7
100
AcDbSpline
 70
8
 71
3
 72
8
 73
4
 74
0
 40
0
 40
0
 40
0
 40
0
 40
1
 40
1
 40
1
 40
1
 10
157.754180
 20
122.610240
 30
0.0
 10
158.526820
 20
122.610240
 30
0.0
 10
159.144440
 20
122.350643
 30
0.0
 10
159.607040
 20
121.831450
 30
0.0
  0
SPLINE
  5
170
100
AcDbEntity
  8
Calque_1
 62
7
100
AcDbSpline
 70
8
 71
3
 72
8
 73
4
 74
0
 40
0
 40
0
 40
0
 40
0
 40
1
 40
1
 40
1
 40
1
 10
159.607040
 20
121.831450
 30
0.0
 10
160.069640
 20
121.314717
 30
0.0
 10
160.300940
 20
120.620817
 30
0.0
 10
160.300940
 20
119.749750
 30
0.0
  0
SPLINE
  5
171
100
AcDbEntity
  8
Calque_1
 62
7
100
AcDbSpline
 70
8
 71
3
 72
8
 73
4
 74
0
 40
0
 40
0
 40
0
 40
0
 40
1
 40
1
 40
1
 40
1
 10
160.300940
 20
119.749750
 30
0.0
 10
160.300940
 20
118.881150
 30
0.0
 10
160.069640
 20
118.187253
 30
0.0
 10
159.607040
 20
117.668060
 30
0.0
  0
SPLINE
  5
172
100
AcDbEntity
  8
Calque_1
 62
7
100
AcDbSpline
 70
8
 71
3
 72
8
 73
4
 74
0
 40
0
 40
0
 40
0
 40
0
 40
1
 40
1
 40
1
 40
1
 10
159.607040
 20
117.668060
 30
0.0
 10
159.144440
 20
117.151327
 30
0.0
 10
158.526820
 20
116.892960
 30
0.0
 10
157.754180
 20
116.892960
 30
0.0
  0
SPLINE
  5
173
100
AcDbEntity
  8
Calque_1
 62
7
100
AcDbSpline
 70
8
 71
3
 72
8
 73
4
 74
0
 40
0
 40
0
 40
0
 40
0
 40
1
 40
1
 40
1
 40
1
 10
157.754180
 20
116.892960
 30
0.0
 10
156.979087
 20
116.892960
 30
0.0
 10
156.359010
 20
117.151327
 30
0.0
 10
155.893950
 20
117.668060
 30
0.0
  0
SPLINE
  5
174
100
AcDbEntity
  8
Calque_1
 62
7
100
AcDbSpline
 70
8
 71
3
 72
8
 73
4
 74
0
 40
0
 40
0
 40
0
 40
0
 40
1
 40
1
 40
1
 40
1
 10
155.893950
 20
117.668060
 30
0.0
 10
155.431350
 20
118.184793
 30
0.0
 10
155.200050
 20
118.878690
 30
0.0
 10
155.200050
 20
119.749750
 30
0.0
  0
SPLINE
  5
175
100
AcDbEntity
  8
Calque_1
 62
7
100
AcDbSpline
 70
8
 71
3
 72
8
 73
4
 74
0
 40
0
 40
0
 40
0
 40
0
 40
1
 40
1
 40
1
 40
1
 10
155.200050
 20
119.749750
 30
0.0
 10
155.200050
 20
120.620817
 30
0.0
 10
155.431350
 20
121.314717
 30
0.0
 10
155.893950
 20
121.831450
 30
0.0
  0
SPLINE
  5
176
100
AcDbEntity
  8
Calque_1
 62
7
100
AcDbSpline
 70
8
 71
3
 72
8
 73
4
 74
0
 40
0
 40
0
 40
0
 40
0
 40
1
 40
1
 40
1
 40
1
 10
155.893950
 20
121.831450
 30
0.0
 10
156.359010
 20
122.350643
 30
0.0
 10
156.979087
 20
122.610240
 30
0.0
 10
157.754180
 20
122.610240
 30
0.0
  0
LWPOLYLINE
  5
177
100
AcDbEntity
  8
Calque_1
 62
7
100
AcDbPolyline
 90
1
 70
1
 10
157.754180
 20
122.004920
 30
0.0
  0
LWPOLYLINE
  5
178
100
AcDbEntity
  8
Calque_1
 62
7
100
AcDbPolyline
 90
1
 70
1
 10
157.754180
 20
122.610240
 30
0.0
  0
SPLINE
  5
179
100
AcDbEntity
  8
Calque_1
 62
7
100
AcDbSpline
 70
8
 71
3
 72
8
 73
4
 74
0
 40
0
 40
0
 40
0
 40
0
 40
1
 40
1
 40
1
 40
1
 10
164.770670
 20
121.602610
 30
0.0
 10
164.487697
 20
121.737943
 30
0.0
 10
164.220717
 20
121.838830
 30
0.0
 10
163.969730
 20
121.905270
 30
0.0
  0
SPLINE
  5
17a
100
AcDbEntity
  8
Calque_1
 62
7
100
AcDbSpline
 70
8
 71
3
 72
8
 73
4
 74
0
 40
0
 40
0
 40
0
 40
0
 40
1
 40
1
 40
1
 40
1
 10
163.969730
 20
121.905270
 30
0.0
 10
163.718750
 20
121.971670
 30
0.0
 10
163.476380
 20
122.004870
 30
0.0
 10
163.242620
 20
122.004870
 30
0.0
  0
SPLINE
  5
17b
100
AcDbEntity
  8
Calque_1
 62
7
100
AcDbSpline
 70
8
 71
3
 72
8
 73
4
 74
0
 40
0
 40
0
 40
0
 40
0
 40
1
 40
1
 40
1
 40
1
 10
163.242620
 20
122.004870
 30
0.0
 10
162.836613
 20
122.004870
 30
0.0
 10
162.522883
 20
121.926130
 30
0.0
 10
162.301430
 20
121.768650
 30
0.0
  0
SPLINE
  5
17c
100
AcDbEntity
  8
Calque_1
 62
7
100
AcDbSpline
 70
8
 71
3
 72
8
 73
4
 74
0
 40
0
 40
0
 40
0
 40
0
 40
1
 40
1
 40
1
 40
1
 10
162.301430
 20
121.768650
 30
0.0
 10
162.082430
 20
121.611170
 30
0.0
 10
161.972930
 20
121.387253
 30
0.0
 10
161.972930
 20
121.096900
 30
0.0
  0
SPLINE
  5
17d
100
AcDbEntity
  8
Calque_1
 62
7
100
AcDbSpline
 70
8
 71
3
 72
8
 73
4
 74
0
 40
0
 40
0
 40
0
 40
0
 40
1
 40
1
 40
1
 40
1
 10
161.972930
 20
121.096900
 30
0.0
 10
161.972930
 20
120.853300
 30
0.0
 10
162.045520
 20
120.668753
 30
0.0
 10
162.190700
 20
120.543260
 30
0.0
  0
SPLINE
  5
17e
100
AcDbEntity
  8
Calque_1
 62
7
100
AcDbSpline
 70
8
 71
3
 72
8
 73
4
 74
0
 40
0
 40
0
 40
0
 40
0
 40
1
 40
1
 40
1
 40
1
 10
162.190700
 20
120.543260
 30
0.0
 10
162.338340
 20
120.420227
 30
0.0
 10
162.616390
 20
120.320570
 30
0.0
 10
163.024850
 20
120.244290
 30
0.0
  0
LWPOLYLINE
  5
17f
100
AcDbEntity
  8
Calque_1
 62
7
100
AcDbPolyline
 90
2
 70
0
 10
164.770670
 20
122.329720
 30
0.0
 10
164.770670
 20
121.602610
 30
0.0
  0
SPLINE
  5
180
100
AcDbEntity
  8
Calque_1
 62
7
100
AcDbSpline
 70
8
 71
3
 72
8
 73
4
 74
0
 40
0
 40
0
 40
0
 40
0
 40
1
 40
1
 40
1
 40
1
 10
163.475150
 20
120.151990
 30
0.0
 10
164.031250
 20
120.046183
 30
0.0
 10
164.440943
 20
119.859173
 30
0.0
 10
164.704230
 20
119.590960
 30
0.0
  0
SPLINE
  5
181
100
AcDbEntity
  8
Calque_1
 62
7
100
AcDbSpline
 70
8
 71
3
 72
8
 73
4
 74
0
 40
0
 40
0
 40
0
 40
0
 40
1
 40
1
 40
1
 40
1
 10
164.704230
 20
119.590960
 30
0.0
 10
164.969977
 20
119.325213
 30
0.0
 10
165.102850
 20
118.968423
 30
0.0
 10
165.102850
 20
118.520590
 30
0.0
  0
SPLINE
  5
182
100
AcDbEntity
  8
Calque_1
 62
7
100
AcDbSpline
 70
8
 71
3
 72
8
 73
4
 74
0
 40
0
 40
0
 40
0
 40
0
 40
1
 40
1
 40
1
 40
1
 10
165.102850
 20
118.520590
 30
0.0
 10
165.102850
 20
117.986630
 30
0.0
 10
164.923227
 20
117.581857
 30
0.0
 10
164.563980
 20
117.306270
 30
0.0
  0
SPLINE
  5
183
100
AcDbEntity
  8
Calque_1
 62
7
100
AcDbSpline
 70
8
 71
3
 72
8
 73
4
 74
0
 40
0
 40
0
 40
0
 40
0
 40
1
 40
1
 40
1
 40
1
 10
164.563980
 20
117.306270
 30
0.0
 10
164.207187
 20
117.030677
 30
0.0
 10
163.683070
 20
116.892880
 30
0.0
 10
162.991630
 20
116.892880
 30
0.0
  0
SPLINE
  5
184
100
AcDbEntity
  8
Calque_1
 62
7
100
AcDbSpline
 70
8
 71
3
 72
8
 73
4
 74
0
 40
0
 40
0
 40
0
 40
0
 40
1
 40
1
 40
1
 40
1
 10
162.991630
 20
116.892880
 30
0.0
 10
162.730803
 20
116.892880
 30
0.0
 10
162.452753
 20
116.922413
 30
0.0
 10
162.157480
 20
116.981480
 30
0.0
  0
SPLINE
  5
185
100
AcDbEntity
  8
Calque_1
 62
7
100
AcDbSpline
 70
8
 71
3
 72
8
 73
4
 74
0
 40
0
 40
0
 40
0
 40
0
 40
1
 40
1
 40
1
 40
1
 10
162.157480
 20
116.981480
 30
0.0
 10
161.864667
 20
117.040547
 30
0.0
 10
161.560780
 20
117.127897
 30
0.0
 10
161.245820
 20
117.243530
 30
0.0
  0
LWPOLYLINE
  5
186
100
AcDbEntity
  8
Calque_1
 62
7
100
AcDbPolyline
 90
2
 70
0
 10
163.024850
 20
120.244290
 30
0.0
 10
163.475150
 20
120.151990
 30
0.0
  0
SPLINE
  5
187
100
AcDbEntity
  8
Calque_1
 62
7
100
AcDbSpline
 70
8
 71
3
 72
8
 73
4
 74
0
 40
0
 40
0
 40
0
 40
0
 40
1
 40
1
 40
1
 40
1
 10
161.245820
 20
118.011250
 30
0.0
 10
161.548473
 20
117.841463
 30
0.0
 10
161.844977
 20
117.713510
 30
0.0
 10
162.135330
 20
117.627390
 30
0.0
  0
SPLINE
  5
188
100
AcDbEntity
  8
Calque_1
 62
7
100
AcDbSpline
 70
8
 71
3
 72
8
 73
4
 74
0
 40
0
 40
0
 40
0
 40
0
 40
1
 40
1
 40
1
 40
1
 10
162.135330
 20
117.627390
 30
0.0
 10
162.425690
 20
117.541270
 30
0.0
 10
162.711123
 20
117.498210
 30
0.0
 10
162.991630
 20
117.498210
 30
0.0
  0
SPLINE
  5
189
100
AcDbEntity
  8
Calque_1
 62
7
100
AcDbSpline
 70
8
 71
3
 72
8
 73
4
 74
0
 40
0
 40
0
 40
0
 40
0
 40
1
 40
1
 40
1
 40
1
 10
162.991630
 20
117.498210
 30
0.0
 10
163.417323
 20
117.498210
 30
0.0
 10
163.745820
 20
117.581870
 30
0.0
 10
163.977120
 20
117.749190
 30
0.0
  0
SPLINE
  5
18a
100
AcDbEntity
  8
Calque_1
 62
7
100
AcDbSpline
 70
8
 71
3
 72
8
 73
4
 74
0
 40
0
 40
0
 40
0
 40
0
 40
1
 40
1
 40
1
 40
1
 10
163.977120
 20
117.749190
 30
0.0
 10
164.208413
 20
117.916517
 30
0.0
 10
164.324060
 20
118.155200
 30
0.0
 10
164.324060
 20
118.465240
 30
0.0
  0
SPLINE
  5
18b
100
AcDbEntity
  8
Calque_1
 62
7
100
AcDbSpline
 70
8
 71
3
 72
8
 73
4
 74
0
 40
0
 40
0
 40
0
 40
0
 40
1
 40
1
 40
1
 40
1
 10
164.324060
 20
118.465240
 30
0.0
 10
164.324060
 20
118.735907
 30
0.0
 10
164.240400
 20
118.947520
 30
0.0
 10
164.073080
 20
119.100080
 30
0.0
  0
SPLINE
  5
18c
100
AcDbEntity
  8
Calque_1
 62
7
100
AcDbSpline
 70
8
 71
3
 72
8
 73
4
 74
0
 40
0
 40
0
 40
0
 40
0
 40
1
 40
1
 40
1
 40
1
 10
164.073080
 20
119.100080
 30
0.0
 10
163.908220
 20
119.252640
 30
0.0
 10
163.636320
 20
119.367060
 30
0.0
 10
163.257380
 20
119.443340
 30
0.0
  0
LWPOLYLINE
  5
18d
100
AcDbEntity
  8
Calque_1
 62
7
100
AcDbPolyline
 90
2
 70
0
 10
161.245820
 20
117.243530
 30
0.0
 10
161.245820
 20
118.011250
 30
0.0
  0
SPLINE
  5
18e
100
AcDbEntity
  8
Calque_1
 62
7
100
AcDbSpline
 70
8
 71
3
 72
8
 73
4
 74
0
 40
0
 40
0
 40
0
 40
0
 40
1
 40
1
 40
1
 40
1
 10
162.803400
 20
119.531940
 30
0.0
 10
162.247293
 20
119.642667
 30
0.0
 10
161.844980
 20
119.816140
 30
0.0
 10
161.596460
 20
120.052360
 30
0.0
  0
SPLINE
  5
18f
100
AcDbEntity
  8
Calque_1
 62
7
100
AcDbSpline
 70
8
 71
3
 72
8
 73
4
 74
0
 40
0
 40
0
 40
0
 40
0
 40
1
 40
1
 40
1
 40
1
 10
161.596460
 20
120.052360
 30
0.0
 10
161.347933
 20
120.288580
 30
0.0
 10
161.223670
 20
120.617073
 30
0.0
 10
161.223670
 20
121.037840
 30
0.0
  0
SPLINE
  5
190
100
AcDbEntity
  8
Calque_1
 62
7
100
AcDbSpline
 70
8
 71
3
 72
8
 73
4
 74
0
 40
0
 40
0
 40
0
 40
0
 40
1
 40
1
 40
1
 40
1
 10
161.223670
 20
121.037840
 30
0.0
 10
161.223670
 20
121.525047
 30
0.0
 10
161.394683
 20
121.908907
 30
0.0
 10
161.736710
 20
122.189420
 30
0.0
  0
SPLINE
  5
191
100
AcDbEntity
  8
Calque_1
 62
7
100
AcDbSpline
 70
8
 71
3
 72
8
 73
4
 74
0
 40
0
 40
0
 40
0
 40
0
 40
1
 40
1
 40
1
 40
1
 10
161.736710
 20
122.189420
 30
0.0
 10
162.081197
 20
122.469933
 30
0.0
 10
162.554870
 20
122.610190
 30
0.0
 10
163.157730
 20
122.610190
 30
0.0
  0
SPLINE
  5
192
100
AcDbEntity
  8
Calque_1
 62
7
100
AcDbSpline
 70
8
 71
3
 72
8
 73
4
 74
0
 40
0
 40
0
 40
0
 40
0
 40
1
 40
1
 40
1
 40
1
 10
163.157730
 20
122.610190
 30
0.0
 10
163.416097
 20
122.610190
 30
0.0
 10
163.679383
 20
122.586823
 30
0.0
 10
163.947590
 20
122.540090
 30
0.0
  0
SPLINE
  5
193
100
AcDbEntity
  8
Calque_1
 62
7
100
AcDbSpline
 70
8
 71
3
 72
8
 73
4
 74
0
 40
0
 40
0
 40
0
 40
0
 40
1
 40
1
 40
1
 40
1
 10
163.947590
 20
122.540090
 30
0.0
 10
164.215797
 20
122.493357
 30
0.0
 10
164.490157
 20
122.423227
 30
0.0
 10
164.770670
 20
122.329700
 30
0.0
  0
LWPOLYLINE
  5
194
100
AcDbEntity
  8
Calque_1
 62
7
100
AcDbPolyline
 90
2
 70
0
 10
163.257380
 20
119.443340
 30
0.0
 10
162.803400
 20
119.531940
 30
0.0
  0
SPLINE
  5
195
100
AcDbEntity
  8
Calque_1
 62
7
100
AcDbSpline
 70
8
 71
3
 72
8
 73
4
 74
0
 40
0
 40
0
 40
0
 40
0
 40
1
 40
1
 40
1
 40
1
 10
139.395420
 20
99.583660
 30
0.0
 10
139.555360
 20
99.529527
 30
0.0
 10
139.710380
 20
99.413877
 30
0.0
 10
139.860480
 20
99.236710
 30
0.0
  0
SPLINE
  5
196
100
AcDbEntity
  8
Calque_1
 62
7
100
AcDbSpline
 70
8
 71
3
 72
8
 73
4
 74
0
 40
0
 40
0
 40
0
 40
0
 40
1
 40
1
 40
1
 40
1
 10
139.860480
 20
99.236710
 30
0.0
 10
140.013040
 20
99.059543
 30
0.0
 10
140.165600
 20
98.815943
 30
0.0
 10
140.318160
 20
98.505910
 30
0.0
  0
LWPOLYLINE
  5
197
100
AcDbEntity
  8
Calque_1
 62
7
100
AcDbPolyline
 90
1
 70
1
 10
164.770670
 20
122.329700
 30
0.0
  0
SPLINE
  5
198
100
AcDbEntity
  8
Calque_1
 62
7
100
AcDbSpline
 70
8
 71
3
 72
8
 73
4
 74
0
 40
0
 40
0
 40
0
 40
0
 40
1
 40
1
 40
1
 40
1
 10
139.568900
 20
98.413630
 30
0.0
 10
139.386813
 20
98.782723
 30
0.0
 10
139.209647
 20
99.027557
 30
0.0
 10
139.037400
 20
99.148130
 30
0.0
  0
SPLINE
  5
199
100
AcDbEntity
  8
Calque_1
 62
7
100
AcDbSpline
 70
8
 71
3
 72
8
 73
4
 74
0
 40
0
 40
0
 40
0
 40
0
 40
1
 40
1
 40
1
 40
1
 10
139.037400
 20
99.148130
 30
0.0
 10
138.867620
 20
99.268703
 30
0.0
 10
138.635090
 20
99.328990
 30
0.0
 10
138.339810
 20
99.328990
 30
0.0
  0
LWPOLYLINE
  5
19a
100
AcDbEntity
  8
Calque_1
 62
7
100
AcDbPolyline
 90
4
 70
0
 10
140.318160
 20
98.505910
 30
0.0
 10
141.074800
 20
97.000000
 30
0.0
 10
140.273870
 20
97.000000
 30
0.0
 10
139.568900
 20
98.413630
 30
0.0
  0
SPLINE
  5
19b
100
AcDbEntity
  8
Calque_1
 62
7
100
AcDbSpline
 70
8
 71
3
 72
8
 73
4
 74
0
 40
0
 40
0
 40
0
 40
0
 40
1
 40
1
 40
1
 40
1
 10
138.465300
 20
102.510580
 30
0.0
 10
139.095227
 20
102.510580
 30
0.0
 10
139.565210
 20
102.378937
 30
0.0
 10
139.875250
 20
102.115650
 30
0.0
  0
SPLINE
  5
19c
100
AcDbEntity
  8
Calque_1
 62
7
100
AcDbSpline
 70
8
 71
3
 72
8
 73
4
 74
0
 40
0
 40
0
 40
0
 40
0
 40
1
 40
1
 40
1
 40
1
 10
139.875250
 20
102.115650
 30
0.0
 10
140.185283
 20
101.852363
 30
0.0
 10
140.340300
 20
101.454970
 30
0.0
 10
140.340300
 20
100.923470
 30
0.0
  0
SPLINE
  5
19d
100
AcDbEntity
  8
Calque_1
 62
7
100
AcDbSpline
 70
8
 71
3
 72
8
 73
4
 74
0
 40
0
 40
0
 40
0
 40
0
 40
1
 40
1
 40
1
 40
1
 10
140.340300
 20
100.923470
 30
0.0
 10
140.340300
 20
100.576523
 30
0.0
 10
140.259100
 20
100.288630
 30
0.0
 10
140.096700
 20
100.059790
 30
0.0
  0
SPLINE
  5
19e
100
AcDbEntity
  8
Calque_1
 62
7
100
AcDbSpline
 70
8
 71
3
 72
8
 73
4
 74
0
 40
0
 40
0
 40
0
 40
0
 40
1
 40
1
 40
1
 40
1
 10
140.096700
 20
100.059790
 30
0.0
 10
139.936760
 20
99.830957
 30
0.0
 10
139.703000
 20
99.672247
 30
0.0
 10
139.395420
 20
99.583660
 30
0.0
  0
LWPOLYLINE
  5
19f
100
AcDbEntity
  8
Calque_1
 62
7
100
AcDbPolyline
 90
6
 70
0
 10
138.339810
 20
99.328990
 30
0.0
 10
137.527800
 20
99.328990
 30
0.0
 10
137.527800
 20
97.000000
 30
0.0
 10
136.782230
 20
97.000000
 30
0.0
 10
136.782230
 20
102.510580
 30
0.0
 10
138.465300
 20
102.510580
 30
0.0
  0
LWPOLYLINE
  5
1a0
100
AcDbEntity
  8
Calque_1
 62
7
100
AcDbPolyline
 90
1
 70
1
 10
139.395420
 20
99.583660
 30
0.0
  0
SPLINE
  5
1a1
100
AcDbEntity
  8
Calque_1
 62
7
100
AcDbSpline
 70
8
 71
3
 72
8
 73
4
 74
0
 40
0
 40
0
 40
0
 40
0
 40
1
 40
1
 40
1
 40
1
 10
138.465300
 20
99.941680
 30
0.0
 10
138.824553
 20
99.941680
 30
0.0
 10
139.095223
 20
100.024113
 30
0.0
 10
139.277310
 20
100.188980
 30
0.0
  0
SPLINE
  5
1a2
100
AcDbEntity
  8
Calque_1
 62
7
100
AcDbSpline
 70
8
 71
3
 72
8
 73
4
 74
0
 40
0
 40
0
 40
0
 40
0
 40
1
 40
1
 40
1
 40
1
 10
139.277310
 20
100.188980
 30
0.0
 10
139.461857
 20
100.356300
 30
0.0
 10
139.554130
 20
100.601130
 30
0.0
 10
139.554130
 20
100.923470
 30
0.0
  0
SPLINE
  5
1a3
100
AcDbEntity
  8
Calque_1
 62
7
100
AcDbSpline
 70
8
 71
3
 72
8
 73
4
 74
0
 40
0
 40
0
 40
0
 40
0
 40
1
 40
1
 40
1
 40
1
 10
139.554130
 20
100.923470
 30
0.0
 10
139.554130
 20
101.245817
 30
0.0
 10
139.461857
 20
101.488190
 30
0.0
 10
139.277310
 20
101.650590
 30
0.0
  0
SPLINE
  5
1a4
100
AcDbEntity
  8
Calque_1
 62
7
100
AcDbSpline
 70
8
 71
3
 72
8
 73
4
 74
0
 40
0
 40
0
 40
0
 40
0
 40
1
 40
1
 40
1
 40
1
 10
139.277310
 20
101.650590
 30
0.0
 10
139.095223
 20
101.815450
 30
0.0
 10
138.824553
 20
101.897880
 30
0.0
 10
138.465300
 20
101.897880
 30
0.0
  0
LWPOLYLINE
  5
1a5
100
AcDbEntity
  8
Calque_1
 62
7
100
AcDbPolyline
 90
3
 70
0
 10
137.527800
 20
101.897880
 30
0.0
 10
137.527800
 20
99.941680
 30
0.0
 10
138.465300
 20
99.941680
 30
0.0
  0
LWPOLYLINE
  5
1a6
100
AcDbEntity
  8
Calque_1
 62
7
100
AcDbPolyline
 90
2
 70
0
 10
138.465300
 20
101.897880
 30
0.0
 10
137.527800
 20
101.897880
 30
0.0
  0
LWPOLYLINE
  5
1a7
100
AcDbEntity
  8
Calque_1
 62
7
100
AcDbPolyline
 90
12
 70
1
 10
142.038140
 20
102.510580
 30
0.0
 10
145.522390
 20
102.510580
 30
0.0
 10
145.522390
 20
101.883120
 30
0.0
 10
142.783710
 20
101.883120
 30
0.0
 10
142.783710
 20
100.251720
 30
0.0
 10
145.407970
 20
100.251720
 30
0.0
 10
145.407970
 20
99.624260
 30
0.0
 10
142.783710
 20
99.624260
 30
0.0
 10
142.783710
 20
97.627460
 30
0.0
 10
145.588830
 20
97.627460
 30
0.0
 10
145.588830
 20
97.000000
 30
0.0
 10
142.038140
 20
97.000000
 30
0.0
  0
SPLINE
  5
1a8
100
AcDbEntity
  8
Calque_1
 62
7
100
AcDbSpline
 70
8
 71
3
 72
8
 73
4
 74
0
 40
0
 40
0
 40
0
 40
0
 40
1
 40
1
 40
1
 40
1
 10
155.583910
 20
102.004920
 30
0.0
 10
155.042570
 20
102.004920
 30
0.0
 10
154.611960
 20
101.803150
 30
0.0
 10
154.292080
 20
101.399610
 30
0.0
  0
SPLINE
  5
1a9
100
AcDbEntity
  8
Calque_1
 62
7
100
AcDbSpline
 70
8
 71
3
 72
8
 73
4
 74
0
 40
0
 40
0
 40
0
 40
0
 40
1
 40
1
 40
1
 40
1
 10
154.292080
 20
101.399610
 30
0.0
 10
153.974653
 20
100.996063
 30
0.0
 10
153.815940
 20
100.446110
 30
0.0
 10
153.815940
 20
99.749750
 30
0.0
  0
SPLINE
  5
1aa
100
AcDbEntity
  8
Calque_1
 62
7
100
AcDbSpline
 70
8
 71
3
 72
8
 73
4
 74
0
 40
0
 40
0
 40
0
 40
0
 40
1
 40
1
 40
1
 40
1
 10
153.815940
 20
99.749750
 30
0.0
 10
153.815940
 20
99.055857
 30
0.0
 10
153.974653
 20
98.507137
 30
0.0
 10
154.292080
 20
98.103590
 30
0.0
  0
SPLINE
  5
1ab
100
AcDbEntity
  8
Calque_1
 62
7
100
AcDbSpline
 70
8
 71
3
 72
8
 73
4
 74
0
 40
0
 40
0
 40
0
 40
0
 40
1
 40
1
 40
1
 40
1
 10
154.292080
 20
98.103590
 30
0.0
 10
154.611960
 20
97.700050
 30
0.0
 10
155.042570
 20
97.498280
 30
0.0
 10
155.583910
 20
97.498280
 30
0.0
  0
SPLINE
  5
1ac
100
AcDbEntity
  8
Calque_1
 62
7
100
AcDbSpline
 70
8
 71
3
 72
8
 73
4
 74
0
 40
0
 40
0
 40
0
 40
0
 40
1
 40
1
 40
1
 40
1
 10
155.583910
 20
97.498280
 30
0.0
 10
156.125243
 20
97.498280
 30
0.0
 10
156.553393
 20
97.700050
 30
0.0
 10
156.868360
 20
98.103590
 30
0.0
  0
SPLINE
  5
1ad
100
AcDbEntity
  8
Calque_1
 62
7
100
AcDbSpline
 70
8
 71
3
 72
8
 73
4
 74
0
 40
0
 40
0
 40
0
 40
0
 40
1
 40
1
 40
1
 40
1
 10
156.868360
 20
98.103590
 30
0.0
 10
157.185780
 20
98.507137
 30
0.0
 10
157.344490
 20
99.055857
 30
0.0
 10
157.344490
 20
99.749750
 30
0.0
  0
SPLINE
  5
1ae
100
AcDbEntity
  8
Calque_1
 62
7
100
AcDbSpline
 70
8
 71
3
 72
8
 73
4
 74
0
 40
0
 40
0
 40
0
 40
0
 40
1
 40
1
 40
1
 40
1
 10
157.344490
 20
99.749750
 30
0.0
 10
157.344490
 20
100.446110
 30
0.0
 10
157.185780
 20
100.996063
 30
0.0
 10
156.868360
 20
101.399610
 30
0.0
  0
SPLINE
  5
1af
100
AcDbEntity
  8
Calque_1
 62
7
100
AcDbSpline
 70
8
 71
3
 72
8
 73
4
 74
0
 40
0
 40
0
 40
0
 40
0
 40
1
 40
1
 40
1
 40
1
 10
156.868360
 20
101.399610
 30
0.0
 10
156.553393
 20
101.803150
 30
0.0
 10
156.125243
 20
102.004920
 30
0.0
 10
155.583910
 20
102.004920
 30
0.0
  0
LWPOLYLINE
  5
1b0
100
AcDbEntity
  8
Calque_1
 62
7
100
AcDbPolyline
 90
13
 70
1
 10
146.821600
 20
102.510580
 30
0.0
 10
147.932580
 20
102.510580
 30
0.0
 10
149.338830
 20
98.760580
 30
0.0
 10
150.752460
 20
102.510580
 30
0.0
 10
151.863440
 20
102.510580
 30
0.0
 10
151.863440
 20
97.000000
 30
0.0
 10
151.136320
 20
97.000000
 30
0.0
 10
151.136320
 20
101.838830
 30
0.0
 10
149.715310
 20
98.059300
 30
0.0
 10
148.966040
 20
98.059300
 30
0.0
 10
147.545030
 20
101.838830
 30
0.0
 10
147.545030
 20
97.000000
 30
0.0
 10
146.821600
 20
97.000000
 30
0.0
  0
SPLINE
  5
1b1
100
AcDbEntity
  8
Calque_1
 62
7
100
AcDbSpline
 70
8
 71
3
 72
8
 73
4
 74
0
 40
0
 40
0
 40
0
 40
0
 40
1
 40
1
 40
1
 40
1
 10
155.583910
 20
102.610240
 30
0.0
 10
156.356543
 20
102.610240
 30
0.0
 10
156.974160
 20
102.350643
 30
0.0
 10
157.436760
 20
101.831450
 30
0.0
  0
SPLINE
  5
1b2
100
AcDbEntity
  8
Calque_1
 62
7
100
AcDbSpline
 70
8
 71
3
 72
8
 73
4
 74
0
 40
0
 40
0
 40
0
 40
0
 40
1
 40
1
 40
1
 40
1
 10
157.436760
 20
101.831450
 30
0.0
 10
157.899360
 20
101.314717
 30
0.0
 10
158.130660
 20
100.620817
 30
0.0
 10
158.130660
 20
99.749750
 30
0.0
  0
SPLINE
  5
1b3
100
AcDbEntity
  8
Calque_1
 62
7
100
AcDbSpline
 70
8
 71
3
 72
8
 73
4
 74
0
 40
0
 40
0
 40
0
 40
0
 40
1
 40
1
 40
1
 40
1
 10
158.130660
 20
99.749750
 30
0.0
 10
158.130660
 20
98.881150
 30
0.0
 10
157.899360
 20
98.187253
 30
0.0
 10
157.436760
 20
97.668060
 30
0.0
  0
SPLINE
  5
1b4
100
AcDbEntity
  8
Calque_1
 62
7
100
AcDbSpline
 70
8
 71
3
 72
8
 73
4
 74
0
 40
0
 40
0
 40
0
 40
0
 40
1
 40
1
 40
1
 40
1
 10
157.436760
 20
97.668060
 30
0.0
 10
156.974160
 20
97.151327
 30
0.0
 10
156.356543
 20
96.892960
 30
0.0
 10
155.583910
 20
96.892960
 30
0.0
  0
SPLINE
  5
1b5
100
AcDbEntity
  8
Calque_1
 62
7
100
AcDbSpline
 70
8
 71
3
 72
8
 73
4
 74
0
 40
0
 40
0
 40
0
 40
0
 40
1
 40
1
 40
1
 40
1
 10
155.583910
 20
96.892960
 30
0.0
 10
154.808810
 20
96.892960
 30
0.0
 10
154.188730
 20
97.151327
 30
0.0
 10
153.723670
 20
97.668060
 30
0.0
  0
SPLINE
  5
1b6
100
AcDbEntity
  8
Calque_1
 62
7
100
AcDbSpline
 70
8
 71
3
 72
8
 73
4
 74
0
 40
0
 40
0
 40
0
 40
0
 40
1
 40
1
 40
1
 40
1
 10
153.723670
 20
97.668060
 30
0.0
 10
153.261070
 20
98.184793
 30
0.0
 10
153.029770
 20
98.878690
 30
0.0
 10
153.029770
 20
99.749750
 30
0.0
  0
SPLINE
  5
1b7
100
AcDbEntity
  8
Calque_1
 62
7
100
AcDbSpline
 70
8
 71
3
 72
8
 73
4
 74
0
 40
0
 40
0
 40
0
 40
0
 40
1
 40
1
 40
1
 40
1
 10
153.029770
 20
99.749750
 30
0.0
 10
153.029770
 20
100.620817
 30
0.0
 10
153.261070
 20
101.314717
 30
0.0
 10
153.723670
 20
101.831450
 30
0.0
  0
SPLINE
  5
1b8
100
AcDbEntity
  8
Calque_1
 62
7
100
AcDbSpline
 70
8
 71
3
 72
8
 73
4
 74
0
 40
0
 40
0
 40
0
 40
0
 40
1
 40
1
 40
1
 40
1
 10
153.723670
 20
101.831450
 30
0.0
 10
154.188730
 20
102.350643
 30
0.0
 10
154.808810
 20
102.610240
 30
0.0
 10
155.583910
 20
102.610240
 30
0.0
  0
LWPOLYLINE
  5
1b9
100
AcDbEntity
  8
Calque_1
 62
7
100
AcDbPolyline
 90
1
 70
1
 10
155.583910
 20
102.004920
 30
0.0
  0
LWPOLYLINE
  5
1ba
100
AcDbEntity
  8
Calque_1
 62
7
100
AcDbPolyline
 90
1
 70
1
 10
155.583910
 20
102.610240
 30
0.0
  0
LWPOLYLINE
  5
1bb
100
AcDbEntity
  8
Calque_1
 62
7
100
AcDbPolyline
 90
8
 70
1
 10
158.532970
 20
102.510580
 30
0.0
 10
163.194640
 20
102.510580
 30
0.0
 10
163.194640
 20
101.883120
 30
0.0
 10
161.238440
 20
101.883120
 30
0.0
 10
161.238440
 20
97.000000
 30
0.0
 10
160.489170
 20
97.000000
 30
0.0
 10
160.489170
 20
101.883120
 30
0.0
 10
158.532970
 20
101.883120
 30
0.0
  0
LWPOLYLINE
  5
1bc
100
AcDbEntity
  8
Calque_1
 62
7
100
AcDbPolyline
 90
12
 70
1
 10
163.918060
 20
102.510580
 30
0.0
 10
167.402310
 20
102.510580
 30
0.0
 10
167.402310
 20
101.883120
 30
0.0
 10
164.663630
 20
101.883120
 30
0.0
 10
164.663630
 20
100.251720
 30
0.0
 10
167.287890
 20
100.251720
 30
0.0
 10
167.287890
 20
99.624260
 30
0.0
 10
164.663630
 20
99.624260
 30
0.0
 10
164.663630
 20
97.627460
 30
0.0
 10
167.468750
 20
97.627460
 30
0.0
 10
167.468750
 20
97.000000
 30
0.0
 10
163.918060
 20
97.000000
 30
0.0
  0
LWPOLYLINE
  5
1bd
100
AcDbEntity
  8
Calque_1
 62
1
100
AcDbPolyline
 90
4
 70
1
 10
74.750000
 20
159.250000
 30
0.0
 10
229.250000
 20
159.250000
 30
0.0
 10
229.250000
 20
54.750000
 30
0.0
 10
74.750000
 20
54.750000
 30
0.0
  0
LWPOLYLINE
  5
1be
100
AcDbEntity
  8
Calque_1
 62
7
100
AcDbPolyline
 90
13
 70
1
 10
125.392590
 20
156.132940
 30
0.0
 10
125.957310
 20
156.132940
 30
0.0
 10
126.826530
 20
152.639460
 30
0.0
 10
127.692970
 20
156.132940
 30
0.0
 10
128.321360
 20
156.132940
 30
0.0
 10
129.190580
 20
152.639460
 30
0.0
 10
130.057020
 20
156.132940
 30
0.0
 10
130.624510
 20
156.132940
 30
0.0
 10
129.586430
 20
152.000000
 30
0.0
 10
128.883300
 20
152.000000
 30
0.0
 10
128.011320
 20
155.587600
 30
0.0
 10
127.131030
 20
152.000000
 30
0.0
 10
126.427900
 20
152.000000
 30
0.0
  0
LWPOLYLINE
  5
1bf
100
AcDbEntity
  8
Calque_1
 62
7
100
AcDbPolyline
 90
12
 70
1
 10
131.363620
 20
156.132940
 30
0.0
 10
131.922800
 20
156.132940
 30
0.0
 10
131.922800
 20
154.438790
 30
0.0
 10
133.954660
 20
154.438790
 30
0.0
 10
133.954660
 20
156.132940
 30
0.0
 10
134.513840
 20
156.132940
 30
0.0
 10
134.513840
 20
152.000000
 30
0.0
 10
133.954660
 20
152.000000
 30
0.0
 10
133.954660
 20
153.968200
 30
0.0
 10
131.922800
 20
153.968200
 30
0.0
 10
131.922800
 20
152.000000
 30
0.0
 10
131.363620
 20
152.000000
 30
0.0
  0
LWPOLYLINE
  5
1c0
100
AcDbEntity
  8
Calque_1
 62
7
100
AcDbPolyline
 90
4
 70
1
 10
135.626660
 20
156.132940
 30
0.0
 10
136.185840
 20
156.132940
 30
0.0
 10
136.185840
 20
152.000000
 30
0.0
 10
135.626660
 20
152.000000
 30
0.0
  0
LWPOLYLINE
  5
1c1
100
AcDbEntity
  8
Calque_1
 62
7
100
AcDbPolyline
 90
8
 70
1
 10
136.725640
 20
156.132940
 30
0.0
 10
140.221890
 20
156.132940
 30
0.0
 10
140.221890
 20
155.662340
 30
0.0
 10
138.754740
 20
155.662340
 30
0.0
 10
138.754740
 20
152.000000
 30
0.0
 10
138.192790
 20
152.000000
 30
0.0
 10
138.192790
 20
155.662340
 30
0.0
 10
136.725640
 20
155.662340
 30
0.0
  0
SPLINE
  5
1c2
100
AcDbEntity
  8
Calque_1
 62
7
100
AcDbSpline
 70
8
 71
3
 72
8
 73
4
 74
0
 40
0
 40
0
 40
0
 40
0
 40
1
 40
1
 40
1
 40
1
 10
166.070190
 20
153.937750
 30
0.0
 10
166.190143
 20
153.897150
 30
0.0
 10
166.306407
 20
153.810410
 30
0.0
 10
166.418980
 20
153.677530
 30
0.0
  0
SPLINE
  5
1c3
100
AcDbEntity
  8
Calque_1
 62
7
100
AcDbSpline
 70
8
 71
3
 72
8
 73
4
 74
0
 40
0
 40
0
 40
0
 40
0
 40
1
 40
1
 40
1
 40
1
 10
166.418980
 20
153.677530
 30
0.0
 10
166.533400
 20
153.544657
 30
0.0
 10
166.647820
 20
153.361957
 30
0.0
 10
166.762240
 20
153.129430
 30
0.0
  0
LWPOLYLINE
  5
1c4
100
AcDbEntity
  8
Calque_1
 62
7
100
AcDbPolyline
 90
12
 70
1
 10
140.764460
 20
156.132940
 30
0.0
 10
143.377640
 20
156.132940
 30
0.0
 10
143.377640
 20
155.662340
 30
0.0
 10
141.323630
 20
155.662340
 30
0.0
 10
141.323630
 20
154.438790
 30
0.0
 10
143.291830
 20
154.438790
 30
0.0
 10
143.291830
 20
153.968200
 30
0.0
 10
141.323630
 20
153.968200
 30
0.0
 10
141.323630
 20
152.470600
 30
0.0
 10
143.427470
 20
152.470600
 30
0.0
 10
143.427470
 20
152.000000
 30
0.0
 10
140.764460
 20
152.000000
 30
0.0
  0
SPLINE
  5
1c5
100
AcDbEntity
  8
Calque_1
 62
7
100
AcDbSpline
 70
8
 71
3
 72
8
 73
4
 74
0
 40
0
 40
0
 40
0
 40
0
 40
1
 40
1
 40
1
 40
1
 10
166.200300
 20
153.060220
 30
0.0
 10
166.063733
 20
153.337047
 30
0.0
 10
165.930857
 20
153.520673
 30
0.0
 10
165.801670
 20
153.611100
 30
0.0
  0
SPLINE
  5
1c6
100
AcDbEntity
  8
Calque_1
 62
7
100
AcDbSpline
 70
8
 71
3
 72
8
 73
4
 74
0
 40
0
 40
0
 40
0
 40
0
 40
1
 40
1
 40
1
 40
1
 10
165.801670
 20
153.611100
 30
0.0
 10
165.674337
 20
153.701527
 30
0.0
 10
165.499940
 20
153.746740
 30
0.0
 10
165.278480
 20
153.746740
 30
0.0
  0
LWPOLYLINE
  5
1c7
100
AcDbEntity
  8
Calque_1
 62
7
100
AcDbPolyline
 90
4
 70
0
 10
166.762240
 20
153.129430
 30
0.0
 10
167.329720
 20
152.000000
 30
0.0
 10
166.729020
 20
152.000000
 30
0.0
 10
166.200300
 20
153.060220
 30
0.0
  0
SPLINE
  5
1c8
100
AcDbEntity
  8
Calque_1
 62
7
100
AcDbSpline
 70
8
 71
3
 72
8
 73
4
 74
0
 40
0
 40
0
 40
0
 40
0
 40
1
 40
1
 40
1
 40
1
 10
165.372600
 20
156.132940
 30
0.0
 10
165.845040
 20
156.132940
 30
0.0
 10
166.197527
 20
156.034207
 30
0.0
 10
166.430060
 20
155.836740
 30
0.0
  0
SPLINE
  5
1c9
100
AcDbEntity
  8
Calque_1
 62
7
100
AcDbSpline
 70
8
 71
3
 72
8
 73
4
 74
0
 40
0
 40
0
 40
0
 40
0
 40
1
 40
1
 40
1
 40
1
 10
166.430060
 20
155.836740
 30
0.0
 10
166.662587
 20
155.639273
 30
0.0
 10
166.778850
 20
155.341230
 30
0.0
 10
166.778850
 20
154.942610
 30
0.0
  0
SPLINE
  5
1ca
100
AcDbEntity
  8
Calque_1
 62
7
100
AcDbSpline
 70
8
 71
3
 72
8
 73
4
 74
0
 40
0
 40
0
 40
0
 40
0
 40
1
 40
1
 40
1
 40
1
 10
166.778850
 20
154.942610
 30
0.0
 10
166.778850
 20
154.682397
 30
0.0
 10
166.717950
 20
154.466477
 30
0.0
 10
166.596150
 20
154.294850
 30
0.0
  0
SPLINE
  5
1cb
100
AcDbEntity
  8
Calque_1
 62
7
100
AcDbSpline
 70
8
 71
3
 72
8
 73
4
 74
0
 40
0
 40
0
 40
0
 40
0
 40
1
 40
1
 40
1
 40
1
 10
166.596150
 20
154.294850
 30
0.0
 10
166.476197
 20
154.123217
 30
0.0
 10
166.300877
 20
154.004183
 30
0.0
 10
166.070190
 20
153.937750
 30
0.0
  0
LWPOLYLINE
  5
1cc
100
AcDbEntity
  8
Calque_1
 62
7
100
AcDbPolyline
 90
6
 70
0
 10
165.278480
 20
153.746740
 30
0.0
 10
164.669480
 20
153.746740
 30
0.0
 10
164.669480
 20
152.000000
 30
0.0
 10
164.110300
 20
152.000000
 30
0.0
 10
164.110300
 20
156.132940
 30
0.0
 10
165.372600
 20
156.132940
 30
0.0
  0
LWPOLYLINE
  5
1cd
100
AcDbEntity
  8
Calque_1
 62
7
100
AcDbPolyline
 90
1
 70
1
 10
166.070190
 20
153.937750
 30
0.0
  0
SPLINE
  5
1ce
100
AcDbEntity
  8
Calque_1
 62
7
100
AcDbSpline
 70
8
 71
3
 72
8
 73
4
 74
0
 40
0
 40
0
 40
0
 40
0
 40
1
 40
1
 40
1
 40
1
 10
165.372600
 20
154.206260
 30
0.0
 10
165.642040
 20
154.206260
 30
0.0
 10
165.845043
 20
154.268083
 30
0.0
 10
165.981610
 20
154.391730
 30
0.0
  0
SPLINE
  5
1cf
100
AcDbEntity
  8
Calque_1
 62
7
100
AcDbSpline
 70
8
 71
3
 72
8
 73
4
 74
0
 40
0
 40
0
 40
0
 40
0
 40
1
 40
1
 40
1
 40
1
 10
165.981610
 20
154.391730
 30
0.0
 10
166.120017
 20
154.517223
 30
0.0
 10
166.189220
 20
154.700850
 30
0.0
 10
166.189220
 20
154.942610
 30
0.0
  0
SPLINE
  5
1d0
100
AcDbEntity
  8
Calque_1
 62
7
100
AcDbSpline
 70
8
 71
3
 72
8
 73
4
 74
0
 40
0
 40
0
 40
0
 40
0
 40
1
 40
1
 40
1
 40
1
 10
166.189220
 20
154.942610
 30
0.0
 10
166.189220
 20
155.184363
 30
0.0
 10
166.120017
 20
155.366140
 30
0.0
 10
165.981610
 20
155.487940
 30
0.0
  0
SPLINE
  5
1d1
100
AcDbEntity
  8
Calque_1
 62
7
100
AcDbSpline
 70
8
 71
3
 72
8
 73
4
 74
0
 40
0
 40
0
 40
0
 40
0
 40
1
 40
1
 40
1
 40
1
 10
165.981610
 20
155.487940
 30
0.0
 10
165.845043
 20
155.611587
 30
0.0
 10
165.642040
 20
155.673410
 30
0.0
 10
165.372600
 20
155.673410
 30
0.0
  0
LWPOLYLINE
  5
1d2
100
AcDbEntity
  8
Calque_1
 62
7
100
AcDbPolyline
 90
3
 70
0
 10
164.669480
 20
155.673410
 30
0.0
 10
164.669480
 20
154.206260
 30
0.0
 10
165.372600
 20
154.206260
 30
0.0
  0
LWPOLYLINE
  5
1d3
100
AcDbEntity
  8
Calque_1
 62
7
100
AcDbPolyline
 90
2
 70
0
 10
165.372600
 20
155.673410
 30
0.0
 10
164.669480
 20
155.673410
 30
0.0
  0
LWPOLYLINE
  5
1d4
100
AcDbEntity
  8
Calque_1
 62
7
100
AcDbPolyline
 90
12
 70
1
 10
168.052230
 20
156.132940
 30
0.0
 10
170.665420
 20
156.132940
 30
0.0
 10
170.665420
 20
155.662340
 30
0.0
 10
168.611410
 20
155.662340
 30
0.0
 10
168.611410
 20
154.438790
 30
0.0
 10
170.579600
 20
154.438790
 30
0.0
 10
170.579600
 20
153.968200
 30
0.0
 10
168.611410
 20
153.968200
 30
0.0
 10
168.611410
 20
152.470600
 30
0.0
 10
170.715240
 20
152.470600
 30
0.0
 10
170.715240
 20
152.000000
 30
0.0
 10
168.052230
 20
152.000000
 30
0.0
  0
SPLINE
  5
1d5
100
AcDbEntity
  8
Calque_1
 62
7
100
AcDbSpline
 70
8
 71
3
 72
8
 73
4
 74
0
 40
0
 40
0
 40
0
 40
0
 40
1
 40
1
 40
1
 40
1
 10
172.874450
 20
152.459520
 30
0.0
 10
173.444697
 20
152.459520
 30
0.0
 10
173.861773
 20
152.588703
 30
0.0
 10
174.125680
 20
152.847070
 30
0.0
  0
SPLINE
  5
1d6
100
AcDbEntity
  8
Calque_1
 62
7
100
AcDbSpline
 70
8
 71
3
 72
8
 73
4
 74
0
 40
0
 40
0
 40
0
 40
0
 40
1
 40
1
 40
1
 40
1
 10
174.125680
 20
152.847070
 30
0.0
 10
174.391427
 20
153.105437
 30
0.0
 10
174.524300
 20
153.513287
 30
0.0
 10
174.524300
 20
154.070620
 30
0.0
  0
SPLINE
  5
1d7
100
AcDbEntity
  8
Calque_1
 62
7
100
AcDbSpline
 70
8
 71
3
 72
8
 73
4
 74
0
 40
0
 40
0
 40
0
 40
0
 40
1
 40
1
 40
1
 40
1
 10
174.524300
 20
154.070620
 30
0.0
 10
174.524300
 20
154.624260
 30
0.0
 10
174.391427
 20
155.029340
 30
0.0
 10
174.125680
 20
155.285860
 30
0.0
  0
SPLINE
  5
1d8
100
AcDbEntity
  8
Calque_1
 62
7
100
AcDbSpline
 70
8
 71
3
 72
8
 73
4
 74
0
 40
0
 40
0
 40
0
 40
0
 40
1
 40
1
 40
1
 40
1
 10
174.125680
 20
155.285860
 30
0.0
 10
173.861773
 20
155.544227
 30
0.0
 10
173.444697
 20
155.673410
 30
0.0
 10
172.874450
 20
155.673410
 30
0.0
  0
LWPOLYLINE
  5
1d9
100
AcDbEntity
  8
Calque_1
 62
7
100
AcDbPolyline
 90
3
 70
0
 10
172.199000
 20
155.673410
 30
0.0
 10
172.199000
 20
152.459520
 30
0.0
 10
172.874450
 20
152.459520
 30
0.0
  0
LWPOLYLINE
  5
1da
100
AcDbEntity
  8
Calque_1
 62
7
100
AcDbPolyline
 90
2
 70
0
 10
172.874450
 20
155.673410
 30
0.0
 10
172.199000
 20
155.673410
 30
0.0
  0
SPLINE
  5
1db
100
AcDbEntity
  8
Calque_1
 62
7
100
AcDbSpline
 70
8
 71
3
 72
8
 73
4
 74
0
 40
0
 40
0
 40
0
 40
0
 40
1
 40
1
 40
1
 40
1
 10
172.788630
 20
156.132940
 30
0.0
 10
173.589563
 20
156.132940
 30
0.0
 10
174.177347
 20
155.965923
 30
0.0
 10
174.551980
 20
155.631890
 30
0.0
  0
SPLINE
  5
1dc
100
AcDbEntity
  8
Calque_1
 62
7
100
AcDbSpline
 70
8
 71
3
 72
8
 73
4
 74
0
 40
0
 40
0
 40
0
 40
0
 40
1
 40
1
 40
1
 40
1
 10
174.551980
 20
155.631890
 30
0.0
 10
174.926613
 20
155.299703
 30
0.0
 10
175.113930
 20
154.779280
 30
0.0
 10
175.113930
 20
154.070620
 30
0.0
  0
SPLINE
  5
1dd
100
AcDbEntity
  8
Calque_1
 62
7
100
AcDbSpline
 70
8
 71
3
 72
8
 73
4
 74
0
 40
0
 40
0
 40
0
 40
0
 40
1
 40
1
 40
1
 40
1
 10
175.113930
 20
154.070620
 30
0.0
 10
175.113930
 20
153.358267
 30
0.0
 10
174.925690
 20
152.835077
 30
0.0
 10
174.549210
 20
152.501050
 30
0.0
  0
SPLINE
  5
1de
100
AcDbEntity
  8
Calque_1
 62
7
100
AcDbSpline
 70
8
 71
3
 72
8
 73
4
 74
0
 40
0
 40
0
 40
0
 40
0
 40
1
 40
1
 40
1
 40
1
 10
174.549210
 20
152.501050
 30
0.0
 10
174.172737
 20
152.167017
 30
0.0
 10
173.585877
 20
152.000000
 30
0.0
 10
172.788630
 20
152.000000
 30
0.0
  0
LWPOLYLINE
  5
1df
100
AcDbEntity
  8
Calque_1
 62
7
100
AcDbPolyline
 90
2
 70
0
 10
171.639830
 20
156.132940
 30
0.0
 10
172.788630
 20
156.132940
 30
0.0
  0
LWPOLYLINE
  5
1e0
100
AcDbEntity
  8
Calque_1
 62
7
100
AcDbPolyline
 90
3
 70
0
 10
172.788630
 20
152.000000
 30
0.0
 10
171.639830
 20
152.000000
 30
0.0
 10
171.639830
 20
156.132940
 30
0.0
  0
SPLINE
  5
1e1
100
AcDbEntity
  8
Calque_1
 62
7
100
AcDbSpline
 70
8
 71
3
 72
8
 73
4
 74
0
 40
0
 40
0
 40
0
 40
0
 40
1
 40
1
 40
1
 40
1
 10
94.259781
 20
152.459520
 30
0.0
 10
94.560593
 20
152.459520
 30
0.0
 10
94.782972
 20
152.521343
 30
0.0
 10
94.926919
 20
152.644990
 30
0.0
  0
SPLINE
  5
1e2
100
AcDbEntity
  8
Calque_1
 62
7
100
AcDbSpline
 70
8
 71
3
 72
8
 73
4
 74
0
 40
0
 40
0
 40
0
 40
0
 40
1
 40
1
 40
1
 40
1
 10
94.926919
 20
152.644990
 30
0.0
 10
95.072712
 20
152.770483
 30
0.0
 10
95.145608
 20
152.961490
 30
0.0
 10
95.145608
 20
153.218010
 30
0.0
  0
SPLINE
  5
1e3
100
AcDbEntity
  8
Calque_1
 62
7
100
AcDbSpline
 70
8
 71
3
 72
8
 73
4
 74
0
 40
0
 40
0
 40
0
 40
0
 40
1
 40
1
 40
1
 40
1
 10
95.145608
 20
153.218010
 30
0.0
 10
95.145608
 20
153.476377
 30
0.0
 10
95.072712
 20
153.666460
 30
0.0
 10
94.926919
 20
153.788260
 30
0.0
  0
SPLINE
  5
1e4
100
AcDbEntity
  8
Calque_1
 62
7
100
AcDbSpline
 70
8
 71
3
 72
8
 73
4
 74
0
 40
0
 40
0
 40
0
 40
0
 40
1
 40
1
 40
1
 40
1
 10
94.926919
 20
153.788260
 30
0.0
 10
94.782972
 20
153.911907
 30
0.0
 10
94.560593
 20
153.973730
 30
0.0
 10
94.259781
 20
153.973730
 30
0.0
  0
LWPOLYLINE
  5
1e5
100
AcDbEntity
  8
Calque_1
 62
7
100
AcDbPolyline
 90
3
 70
0
 10
93.362881
 20
153.973730
 30
0.0
 10
93.362881
 20
152.459520
 30
0.0
 10
94.259781
 20
152.459520
 30
0.0
  0
LWPOLYLINE
  5
1e6
100
AcDbEntity
  8
Calque_1
 62
7
100
AcDbPolyline
 90
2
 70
0
 10
94.259781
 20
153.973730
 30
0.0
 10
93.362881
 20
153.973730
 30
0.0
  0
SPLINE
  5
1e7
100
AcDbEntity
  8
Calque_1
 62
7
100
AcDbSpline
 70
8
 71
3
 72
8
 73
4
 74
0
 40
0
 40
0
 40
0
 40
0
 40
1
 40
1
 40
1
 40
1
 10
94.190576
 20
154.427720
 30
0.0
 10
94.463706
 20
154.427720
 30
0.0
 10
94.666708
 20
154.478470
 30
0.0
 10
94.799582
 20
154.579970
 30
0.0
  0
SPLINE
  5
1e8
100
AcDbEntity
  8
Calque_1
 62
7
100
AcDbSpline
 70
8
 71
3
 72
8
 73
4
 74
0
 40
0
 40
0
 40
0
 40
0
 40
1
 40
1
 40
1
 40
1
 10
94.799582
 20
154.579970
 30
0.0
 10
94.934301
 20
154.683317
 30
0.0
 10
95.001661
 20
154.840183
 30
0.0
 10
95.001661
 20
155.050570
 30
0.0
  0
SPLINE
  5
1e9
100
AcDbEntity
  8
Calque_1
 62
7
100
AcDbSpline
 70
8
 71
3
 72
8
 73
4
 74
0
 40
0
 40
0
 40
0
 40
0
 40
1
 40
1
 40
1
 40
1
 10
95.001661
 20
155.050570
 30
0.0
 10
95.001661
 20
155.259103
 30
0.0
 10
94.934301
 20
155.415043
 30
0.0
 10
94.799582
 20
155.518390
 30
0.0
  0
SPLINE
  5
1ea
100
AcDbEntity
  8
Calque_1
 62
7
100
AcDbSpline
 70
8
 71
3
 72
8
 73
4
 74
0
 40
0
 40
0
 40
0
 40
0
 40
1
 40
1
 40
1
 40
1
 10
94.799582
 20
155.518390
 30
0.0
 10
94.666708
 20
155.621737
 30
0.0
 10
94.463706
 20
155.673410
 30
0.0
 10
94.190576
 20
155.673410
 30
0.0
  0
LWPOLYLINE
  5
1eb
100
AcDbEntity
  8
Calque_1
 62
7
100
AcDbPolyline
 90
3
 70
0
 10
93.362881
 20
155.673410
 30
0.0
 10
93.362881
 20
154.427720
 30
0.0
 10
94.190576
 20
154.427720
 30
0.0
  0
LWPOLYLINE
  5
1ec
100
AcDbEntity
  8
Calque_1
 62
7
100
AcDbPolyline
 90
2
 70
0
 10
94.190576
 20
155.673410
 30
0.0
 10
93.362881
 20
155.673410
 30
0.0
  0
SPLINE
  5
1ed
100
AcDbEntity
  8
Calque_1
 62
7
100
AcDbSpline
 70
8
 71
3
 72
8
 73
4
 74
0
 40
0
 40
0
 40
0
 40
0
 40
1
 40
1
 40
1
 40
1
 10
94.232099
 20
156.132940
 30
0.0
 10
94.658403
 20
156.132940
 30
0.0
 10
94.986897
 20
156.044357
 30
0.0
 10
95.217581
 20
155.867190
 30
0.0
  0
SPLINE
  5
1ee
100
AcDbEntity
  8
Calque_1
 62
7
100
AcDbSpline
 70
8
 71
3
 72
8
 73
4
 74
0
 40
0
 40
0
 40
0
 40
0
 40
1
 40
1
 40
1
 40
1
 10
95.217581
 20
155.867190
 30
0.0
 10
95.448265
 20
155.690023
 30
0.0
 10
95.563607
 20
155.438117
 30
0.0
 10
95.563607
 20
155.111470
 30
0.0
  0
SPLINE
  5
1ef
100
AcDbEntity
  8
Calque_1
 62
7
100
AcDbSpline
 70
8
 71
3
 72
8
 73
4
 74
0
 40
0
 40
0
 40
0
 40
0
 40
1
 40
1
 40
1
 40
1
 10
95.563607
 20
155.111470
 30
0.0
 10
95.563607
 20
154.858637
 30
0.0
 10
95.504552
 20
154.657480
 30
0.0
 10
95.386442
 20
154.508000
 30
0.0
  0
SPLINE
  5
1f0
100
AcDbEntity
  8
Calque_1
 62
7
100
AcDbSpline
 70
8
 71
3
 72
8
 73
4
 74
0
 40
0
 40
0
 40
0
 40
0
 40
1
 40
1
 40
1
 40
1
 10
95.386442
 20
154.508000
 30
0.0
 10
95.268331
 20
154.358513
 30
0.0
 10
95.094857
 20
154.265317
 30
0.0
 10
94.866019
 20
154.228410
 30
0.0
  0
SPLINE
  5
1f1
100
AcDbEntity
  8
Calque_1
 62
7
100
AcDbSpline
 70
8
 71
3
 72
8
 73
4
 74
0
 40
0
 40
0
 40
0
 40
0
 40
1
 40
1
 40
1
 40
1
 10
94.866019
 20
154.228410
 30
0.0
 10
95.140994
 20
154.169343
 30
0.0
 10
95.354146
 20
154.045697
 30
0.0
 10
95.505475
 20
153.857470
 30
0.0
  0
SPLINE
  5
1f2
100
AcDbEntity
  8
Calque_1
 62
7
100
AcDbSpline
 70
8
 71
3
 72
8
 73
4
 74
0
 40
0
 40
0
 40
0
 40
0
 40
1
 40
1
 40
1
 40
1
 10
95.505475
 20
153.857470
 30
0.0
 10
95.658649
 20
153.671077
 30
0.0
 10
95.735236
 20
153.437623
 30
0.0
 10
95.735236
 20
153.157110
 30
0.0
  0
SPLINE
  5
1f3
100
AcDbEntity
  8
Calque_1
 62
7
100
AcDbSpline
 70
8
 71
3
 72
8
 73
4
 74
0
 40
0
 40
0
 40
0
 40
0
 40
1
 40
1
 40
1
 40
1
 10
95.735236
 20
153.157110
 30
0.0
 10
95.735236
 20
152.788017
 30
0.0
 10
95.609744
 20
152.502890
 30
0.0
 10
95.358760
 20
152.301730
 30
0.0
  0
SPLINE
  5
1f4
100
AcDbEntity
  8
Calque_1
 62
7
100
AcDbSpline
 70
8
 71
3
 72
8
 73
4
 74
0
 40
0
 40
0
 40
0
 40
0
 40
1
 40
1
 40
1
 40
1
 10
95.358760
 20
152.301730
 30
0.0
 10
95.107775
 20
152.100577
 30
0.0
 10
94.750676
 20
152.000000
 30
0.0
 10
94.287463
 20
152.000000
 30
0.0
  0
LWPOLYLINE
  5
1f5
100
AcDbEntity
  8
Calque_1
 62
7
100
AcDbPolyline
 90
2
 70
0
 10
92.803703
 20
156.132940
 30
0.0
 10
94.232099
 20
156.132940
 30
0.0
  0
LWPOLYLINE
  5
1f6
100
AcDbEntity
  8
Calque_1
 62
7
100
AcDbPolyline
 90
3
 70
0
 10
94.287463
 20
152.000000
 30
0.0
 10
92.803703
 20
152.000000
 30
0.0
 10
92.803703
 20
156.132940
 30
0.0
  0
LWPOLYLINE
  5
1f7
100
AcDbEntity
  8
Calque_1
 62
7
100
AcDbPolyline
 90
6
 70
1
 10
96.690268
 20
156.132940
 30
0.0
 10
97.249446
 20
156.132940
 30
0.0
 10
97.249446
 20
152.470600
 30
0.0
 10
99.261934
 20
152.470600
 30
0.0
 10
99.261934
 20
152.000000
 30
0.0
 10
96.690268
 20
152.000000
 30
0.0
  0
SPLINE
  5
1f8
100
AcDbEntity
  8
Calque_1
 62
7
100
AcDbSpline
 70
8
 71
3
 72
8
 73
4
 74
0
 40
0
 40
0
 40
0
 40
0
 40
1
 40
1
 40
1
 40
1
 10
100.067480
 20
153.622170
 30
0.0
 10
100.067480
 20
153.179257
 30
0.0
 10
100.147760
 20
152.859990
 30
0.0
 10
100.308320
 20
152.664370
 30
0.0
  0
SPLINE
  5
1f9
100
AcDbEntity
  8
Calque_1
 62
7
100
AcDbSpline
 70
8
 71
3
 72
8
 73
4
 74
0
 40
0
 40
0
 40
0
 40
0
 40
1
 40
1
 40
1
 40
1
 10
100.308320
 20
152.664370
 30
0.0
 10
100.468873
 20
152.470597
 30
0.0
 10
100.729083
 20
152.373710
 30
0.0
 10
101.088950
 20
152.373710
 30
0.0
  0
SPLINE
  5
1fa
100
AcDbEntity
  8
Calque_1
 62
7
100
AcDbSpline
 70
8
 71
3
 72
8
 73
4
 74
0
 40
0
 40
0
 40
0
 40
0
 40
1
 40
1
 40
1
 40
1
 10
101.088950
 20
152.373710
 30
0.0
 10
101.446970
 20
152.373710
 30
0.0
 10
101.706260
 20
152.470597
 30
0.0
 10
101.866820
 20
152.664370
 30
0.0
  0
SPLINE
  5
1fb
100
AcDbEntity
  8
Calque_1
 62
7
100
AcDbSpline
 70
8
 71
3
 72
8
 73
4
 74
0
 40
0
 40
0
 40
0
 40
0
 40
1
 40
1
 40
1
 40
1
 10
101.866820
 20
152.664370
 30
0.0
 10
102.027373
 20
152.859990
 30
0.0
 10
102.107650
 20
153.179257
 30
0.0
 10
102.107650
 20
153.622170
 30
0.0
  0
LWPOLYLINE
  5
1fc
100
AcDbEntity
  8
Calque_1
 62
7
100
AcDbPolyline
 90
3
 70
0
 10
99.505536
 20
156.132940
 30
0.0
 10
100.067480
 20
156.132940
 30
0.0
 10
100.067480
 20
153.622170
 30
0.0
  0
SPLINE
  5
1fd
100
AcDbEntity
  8
Calque_1
 62
7
100
AcDbSpline
 70
8
 71
3
 72
8
 73
4
 74
0
 40
0
 40
0
 40
0
 40
0
 40
1
 40
1
 40
1
 40
1
 10
102.669600
 20
153.552970
 30
0.0
 10
102.669600
 20
153.014090
 30
0.0
 10
102.535803
 20
152.607163
 30
0.0
 10
102.268210
 20
152.332190
 30
0.0
  0
SPLINE
  5
1fe
100
AcDbEntity
  8
Calque_1
 62
7
100
AcDbSpline
 70
8
 71
3
 72
8
 73
4
 74
0
 40
0
 40
0
 40
0
 40
0
 40
1
 40
1
 40
1
 40
1
 10
102.268210
 20
152.332190
 30
0.0
 10
102.002463
 20
152.057210
 30
0.0
 10
101.609377
 20
151.919720
 30
0.0
 10
101.088950
 20
151.919720
 30
0.0
  0
SPLINE
  5
1ff
100
AcDbEntity
  8
Calque_1
 62
7
100
AcDbSpline
 70
8
 71
3
 72
8
 73
4
 74
0
 40
0
 40
0
 40
0
 40
0
 40
1
 40
1
 40
1
 40
1
 10
101.088950
 20
151.919720
 30
0.0
 10
100.566683
 20
151.919720
 30
0.0
 10
100.171753
 20
152.057210
 30
0.0
 10
99.904158
 20
152.332190
 30
0.0
  0
SPLINE
  5
200
100
AcDbEntity
  8
Calque_1
 62
7
100
AcDbSpline
 70
8
 71
3
 72
8
 73
4
 74
0
 40
0
 40
0
 40
0
 40
0
 40
1
 40
1
 40
1
 40
1
 10
99.904158
 20
152.332190
 30
0.0
 10
99.638410
 20
152.607163
 30
0.0
 10
99.505536
 20
153.014090
 30
0.0
 10
99.505536
 20
153.552970
 30
0.0
  0
LWPOLYLINE
  5
201
100
AcDbEntity
  8
Calque_1
 62
7
100
AcDbPolyline
 90
4
 70
0
 10
102.107650
 20
153.622170
 30
0.0
 10
102.107650
 20
156.132940
 30
0.0
 10
102.669600
 20
156.132940
 30
0.0
 10
102.669600
 20
153.552970
 30
0.0
  0
LWPOLYLINE
  5
202
100
AcDbEntity
  8
Calque_1
 62
7
100
AcDbPolyline
 90
2
 70
0
 10
99.505536
 20
153.552970
 30
0.0
 10
99.505536
 20
156.132940
 30
0.0
  0
LWPOLYLINE
  5
203
100
AcDbEntity
  8
Calque_1
 62
7
100
AcDbPolyline
 90
12
 70
1
 10
103.721520
 20
156.132940
 30
0.0
 10
106.334710
 20
156.132940
 30
0.0
 10
106.334710
 20
155.662340
 30
0.0
 10
104.280700
 20
155.662340
 30
0.0
 10
104.280700
 20
154.438790
 30
0.0
 10
106.248890
 20
154.438790
 30
0.0
 10
106.248890
 20
153.968200
 30
0.0
 10
104.280700
 20
153.968200
 30
0.0
 10
104.280700
 20
152.470600
 30
0.0
 10
106.384540
 20
152.470600
 30
0.0
 10
106.384540
 20
152.000000
 30
0.0
 10
103.721520
 20
152.000000
 30
0.0
  0
LWPOLYLINE
  5
204
100
AcDbEntity
  8
Calque_1
 62
7
100
AcDbPolyline
 90
3
 70
1
 10
130.480560
 20
62.082060
 30
0.0
 10
129.722070
 20
60.025280
 30
0.0
 10
131.241820
 20
60.025280
 30
0.0
  0
LWPOLYLINE
  5
205
100
AcDbEntity
  8
Calque_1
 62
7
100
AcDbPolyline
 90
8
 70
1
 10
130.164990
 20
62.632940
 30
0.0
 10
130.798900
 20
62.632940
 30
0.0
 10
132.374020
 20
58.500000
 30
0.0
 10
131.792690
 20
58.500000
 30
0.0
 10
131.416220
 20
59.560220
 30
0.0
 10
129.553210
 20
59.560220
 30
0.0
 10
129.176730
 20
58.500000
 30
0.0
 10
128.587110
 20
58.500000
 30
0.0
  0
SPLINE
  5
206
100
AcDbEntity
  8
Calque_1
 62
7
100
AcDbSpline
 70
8
 71
3
 72
8
 73
4
 74
0
 40
0
 40
0
 40
0
 40
0
 40
1
 40
1
 40
1
 40
1
 10
133.472990
 20
60.122170
 30
0.0
 10
133.472990
 20
59.679257
 30
0.0
 10
133.553270
 20
59.359990
 30
0.0
 10
133.713830
 20
59.164370
 30
0.0
  0
SPLINE
  5
207
100
AcDbEntity
  8
Calque_1
 62
7
100
AcDbSpline
 70
8
 71
3
 72
8
 73
4
 74
0
 40
0
 40
0
 40
0
 40
0
 40
1
 40
1
 40
1
 40
1
 10
133.713830
 20
59.164370
 30
0.0
 10
133.874383
 20
58.970597
 30
0.0
 10
134.134593
 20
58.873710
 30
0.0
 10
134.494460
 20
58.873710
 30
0.0
  0
SPLINE
  5
208
100
AcDbEntity
  8
Calque_1
 62
7
100
AcDbSpline
 70
8
 71
3
 72
8
 73
4
 74
0
 40
0
 40
0
 40
0
 40
0
 40
1
 40
1
 40
1
 40
1
 10
134.494460
 20
58.873710
 30
0.0
 10
134.852487
 20
58.873710
 30
0.0
 10
135.111777
 20
58.970597
 30
0.0
 10
135.272330
 20
59.164370
 30
0.0
  0
SPLINE
  5
209
100
AcDbEntity
  8
Calque_1
 62
7
100
AcDbSpline
 70
8
 71
3
 72
8
 73
4
 74
0
 40
0
 40
0
 40
0
 40
0
 40
1
 40
1
 40
1
 40
1
 10
135.272330
 20
59.164370
 30
0.0
 10
135.432883
 20
59.359990
 30
0.0
 10
135.513160
 20
59.679257
 30
0.0
 10
135.513160
 20
60.122170
 30
0.0
  0
LWPOLYLINE
  5
20a
100
AcDbEntity
  8
Calque_1
 62
7
100
AcDbPolyline
 90
3
 70
0
 10
132.911050
 20
62.632940
 30
0.0
 10
133.472990
 20
62.632940
 30
0.0
 10
133.472990
 20
60.122170
 30
0.0
  0
SPLINE
  5
20b
100
AcDbEntity
  8
Calque_1
 62
7
100
AcDbSpline
 70
8
 71
3
 72
8
 73
4
 74
0
 40
0
 40
0
 40
0
 40
0
 40
1
 40
1
 40
1
 40
1
 10
136.075110
 20
60.052970
 30
0.0
 10
136.075110
 20
59.514090
 30
0.0
 10
135.941313
 20
59.107163
 30
0.0
 10
135.673720
 20
58.832190
 30
0.0
  0
SPLINE
  5
20c
100
AcDbEntity
  8
Calque_1
 62
7
100
AcDbSpline
 70
8
 71
3
 72
8
 73
4
 74
0
 40
0
 40
0
 40
0
 40
0
 40
1
 40
1
 40
1
 40
1
 10
135.673720
 20
58.832190
 30
0.0
 10
135.407973
 20
58.557210
 30
0.0
 10
135.014887
 20
58.419720
 30
0.0
 10
134.494460
 20
58.419720
 30
0.0
  0
SPLINE
  5
20d
100
AcDbEntity
  8
Calque_1
 62
7
100
AcDbSpline
 70
8
 71
3
 72
8
 73
4
 74
0
 40
0
 40
0
 40
0
 40
0
 40
1
 40
1
 40
1
 40
1
 10
134.494460
 20
58.419720
 30
0.0
 10
133.972193
 20
58.419720
 30
0.0
 10
133.577263
 20
58.557210
 30
0.0
 10
133.309670
 20
58.832190
 30
0.0
  0
SPLINE
  5
20e
100
AcDbEntity
  8
Calque_1
 62
7
100
AcDbSpline
 70
8
 71
3
 72
8
 73
4
 74
0
 40
0
 40
0
 40
0
 40
0
 40
1
 40
1
 40
1
 40
1
 10
133.309670
 20
58.832190
 30
0.0
 10
133.043923
 20
59.107163
 30
0.0
 10
132.911050
 20
59.514090
 30
0.0
 10
132.911050
 20
60.052970
 30
0.0
  0
LWPOLYLINE
  5
20f
100
AcDbEntity
  8
Calque_1
 62
7
100
AcDbPolyline
 90
4
 70
0
 10
135.513160
 20
60.122170
 30
0.0
 10
135.513160
 20
62.632940
 30
0.0
 10
136.075110
 20
62.632940
 30
0.0
 10
136.075110
 20
60.052970
 30
0.0
  0
LWPOLYLINE
  5
210
100
AcDbEntity
  8
Calque_1
 62
7
100
AcDbPolyline
 90
2
 70
0
 10
132.911050
 20
60.052970
 30
0.0
 10
132.911050
 20
62.632940
 30
0.0
  0
LWPOLYLINE
  5
211
100
AcDbEntity
  8
Calque_1
 62
7
100
AcDbPolyline
 90
12
 70
1
 10
136.927720
 20
62.632940
 30
0.0
 10
137.528420
 20
62.632940
 30
0.0
 10
138.555430
 20
61.096580
 30
0.0
 10
139.587970
 20
62.632940
 30
0.0
 10
140.188670
 20
62.632940
 30
0.0
 10
138.859930
 20
60.648130
 30
0.0
 10
140.277250
 20
58.500000
 30
0.0
 10
139.676550
 20
58.500000
 30
0.0
 10
138.513900
 20
60.257810
 30
0.0
 10
137.342950
 20
58.500000
 30
0.0
 10
136.739480
 20
58.500000
 30
0.0
 10
138.214940
 20
60.706260
 30
0.0
  0
LWPOLYLINE
  5
212
100
AcDbEntity
  8
Calque_1
 62
7
100
AcDbPolyline
 90
13
 70
1
 10
156.813300
 20
62.632940
 30
0.0
 10
157.646530
 20
62.632940
 30
0.0
 10
158.701220
 20
59.820440
 30
0.0
 10
159.761440
 20
62.632940
 30
0.0
 10
160.594670
 20
62.632940
 30
0.0
 10
160.594670
 20
58.500000
 30
0.0
 10
160.049340
 20
58.500000
 30
0.0
 10
160.049340
 20
62.129120
 30
0.0
 10
158.983580
 20
59.294480
 30
0.0
 10
158.421630
 20
59.294480
 30
0.0
 10
157.355870
 20
62.129120
 30
0.0
 10
157.355870
 20
58.500000
 30
0.0
 10
156.813300
 20
58.500000
 30
0.0
  0
LWPOLYLINE
  5
213
100
AcDbEntity
  8
Calque_1
 62
7
100
AcDbPolyline
 90
4
 70
1
 10
161.707490
 20
62.632940
 30
0.0
 10
162.266670
 20
62.632940
 30
0.0
 10
162.266670
 20
58.500000
 30
0.0
 10
161.707490
 20
58.500000
 30
0.0
  0
SPLINE
  5
214
100
AcDbEntity
  8
Calque_1
 62
7
100
AcDbSpline
 70
8
 71
3
 72
8
 73
4
 74
0
 40
0
 40
0
 40
0
 40
0
 40
1
 40
1
 40
1
 40
1
 10
164.614110
 20
58.959520
 30
0.0
 10
165.184363
 20
58.959520
 30
0.0
 10
165.601440
 20
59.088703
 30
0.0
 10
165.865340
 20
59.347070
 30
0.0
  0
SPLINE
  5
215
100
AcDbEntity
  8
Calque_1
 62
7
100
AcDbSpline
 70
8
 71
3
 72
8
 73
4
 74
0
 40
0
 40
0
 40
0
 40
0
 40
1
 40
1
 40
1
 40
1
 10
165.865340
 20
59.347070
 30
0.0
 10
166.131087
 20
59.605437
 30
0.0
 10
166.263960
 20
60.013287
 30
0.0
 10
166.263960
 20
60.570620
 30
0.0
  0
SPLINE
  5
216
100
AcDbEntity
  8
Calque_1
 62
7
100
AcDbSpline
 70
8
 71
3
 72
8
 73
4
 74
0
 40
0
 40
0
 40
0
 40
0
 40
1
 40
1
 40
1
 40
1
 10
166.263960
 20
60.570620
 30
0.0
 10
166.263960
 20
61.124260
 30
0.0
 10
166.131087
 20
61.529340
 30
0.0
 10
165.865340
 20
61.785860
 30
0.0
  0
SPLINE
  5
217
100
AcDbEntity
  8
Calque_1
 62
7
100
AcDbSpline
 70
8
 71
3
 72
8
 73
4
 74
0
 40
0
 40
0
 40
0
 40
0
 40
1
 40
1
 40
1
 40
1
 10
165.865340
 20
61.785860
 30
0.0
 10
165.601440
 20
62.044227
 30
0.0
 10
165.184363
 20
62.173410
 30
0.0
 10
164.614110
 20
62.173410
 30
0.0
  0
LWPOLYLINE
  5
218
100
AcDbEntity
  8
Calque_1
 62
7
100
AcDbPolyline
 90
3
 70
0
 10
163.938670
 20
62.173410
 30
0.0
 10
163.938670
 20
58.959520
 30
0.0
 10
164.614110
 20
58.959520
 30
0.0
  0
LWPOLYLINE
  5
219
100
AcDbEntity
  8
Calque_1
 62
7
100
AcDbPolyline
 90
2
 70
0
 10
164.614110
 20
62.173410
 30
0.0
 10
163.938670
 20
62.173410
 30
0.0
  0
SPLINE
  5
21a
100
AcDbEntity
  8
Calque_1
 62
7
100
AcDbSpline
 70
8
 71
3
 72
8
 73
4
 74
0
 40
0
 40
0
 40
0
 40
0
 40
1
 40
1
 40
1
 40
1
 10
164.528300
 20
62.632940
 30
0.0
 10
165.329233
 20
62.632940
 30
0.0
 10
165.917017
 20
62.465923
 30
0.0
 10
166.291650
 20
62.131890
 30
0.0
  0
SPLINE
  5
21b
100
AcDbEntity
  8
Calque_1
 62
7
100
AcDbSpline
 70
8
 71
3
 72
8
 73
4
 74
0
 40
0
 40
0
 40
0
 40
0
 40
1
 40
1
 40
1
 40
1
 10
166.291650
 20
62.131890
 30
0.0
 10
166.666277
 20
61.799703
 30
0.0
 10
166.853590
 20
61.279280
 30
0.0
 10
166.853590
 20
60.570620
 30
0.0
  0
SPLINE
  5
21c
100
AcDbEntity
  8
Calque_1
 62
7
100
AcDbSpline
 70
8
 71
3
 72
8
 73
4
 74
0
 40
0
 40
0
 40
0
 40
0
 40
1
 40
1
 40
1
 40
1
 10
166.853590
 20
60.570620
 30
0.0
 10
166.853590
 20
59.858267
 30
0.0
 10
166.665353
 20
59.335077
 30
0.0
 10
166.288880
 20
59.001050
 30
0.0
  0
SPLINE
  5
21d
100
AcDbEntity
  8
Calque_1
 62
7
100
AcDbSpline
 70
8
 71
3
 72
8
 73
4
 74
0
 40
0
 40
0
 40
0
 40
0
 40
1
 40
1
 40
1
 40
1
 10
166.288880
 20
59.001050
 30
0.0
 10
165.912400
 20
58.667017
 30
0.0
 10
165.325540
 20
58.500000
 30
0.0
 10
164.528300
 20
58.500000
 30
0.0
  0
LWPOLYLINE
  5
21e
100
AcDbEntity
  8
Calque_1
 62
7
100
AcDbPolyline
 90
2
 70
0
 10
163.379490
 20
62.632940
 30
0.0
 10
164.528300
 20
62.632940
 30
0.0
  0
LWPOLYLINE
  5
21f
100
AcDbEntity
  8
Calque_1
 62
7
100
AcDbPolyline
 90
3
 70
0
 10
164.528300
 20
58.500000
 30
0.0
 10
163.379490
 20
58.500000
 30
0.0
 10
163.379490
 20
62.632940
 30
0.0
  0
SPLINE
  5
220
100
AcDbEntity
  8
Calque_1
 62
7
100
AcDbSpline
 70
8
 71
3
 72
8
 73
4
 74
0
 40
0
 40
0
 40
0
 40
0
 40
1
 40
1
 40
1
 40
1
 10
172.896590
 20
62.253690
 30
0.0
 10
172.490590
 20
62.253690
 30
0.0
 10
172.167633
 20
62.102360
 30
0.0
 10
171.927720
 20
61.799700
 30
0.0
  0
SPLINE
  5
221
100
AcDbEntity
  8
Calque_1
 62
7
100
AcDbSpline
 70
8
 71
3
 72
8
 73
4
 74
0
 40
0
 40
0
 40
0
 40
0
 40
1
 40
1
 40
1
 40
1
 10
171.927720
 20
61.799700
 30
0.0
 10
171.689653
 20
61.497047
 30
0.0
 10
171.570620
 20
61.084587
 30
0.0
 10
171.570620
 20
60.562320
 30
0.0
  0
SPLINE
  5
222
100
AcDbEntity
  8
Calque_1
 62
7
100
AcDbSpline
 70
8
 71
3
 72
8
 73
4
 74
0
 40
0
 40
0
 40
0
 40
0
 40
1
 40
1
 40
1
 40
1
 10
171.570620
 20
60.562320
 30
0.0
 10
171.570620
 20
60.041893
 30
0.0
 10
171.689653
 20
59.630350
 30
0.0
 10
171.927720
 20
59.327690
 30
0.0
  0
SPLINE
  5
223
100
AcDbEntity
  8
Calque_1
 62
7
100
AcDbSpline
 70
8
 71
3
 72
8
 73
4
 74
0
 40
0
 40
0
 40
0
 40
0
 40
1
 40
1
 40
1
 40
1
 10
171.927720
 20
59.327690
 30
0.0
 10
172.167633
 20
59.025037
 30
0.0
 10
172.490590
 20
58.873710
 30
0.0
 10
172.896590
 20
58.873710
 30
0.0
  0
SPLINE
  5
224
100
AcDbEntity
  8
Calque_1
 62
7
100
AcDbSpline
 70
8
 71
3
 72
8
 73
4
 74
0
 40
0
 40
0
 40
0
 40
0
 40
1
 40
1
 40
1
 40
1
 10
172.896590
 20
58.873710
 30
0.0
 10
173.302597
 20
58.873710
 30
0.0
 10
173.623710
 20
59.025037
 30
0.0
 10
173.859930
 20
59.327690
 30
0.0
  0
SPLINE
  5
225
100
AcDbEntity
  8
Calque_1
 62
7
100
AcDbSpline
 70
8
 71
3
 72
8
 73
4
 74
0
 40
0
 40
0
 40
0
 40
0
 40
1
 40
1
 40
1
 40
1
 10
173.859930
 20
59.327690
 30
0.0
 10
174.097997
 20
59.630350
 30
0.0
 10
174.217030
 20
60.041893
 30
0.0
 10
174.217030
 20
60.562320
 30
0.0
  0
SPLINE
  5
226
100
AcDbEntity
  8
Calque_1
 62
7
100
AcDbSpline
 70
8
 71
3
 72
8
 73
4
 74
0
 40
0
 40
0
 40
0
 40
0
 40
1
 40
1
 40
1
 40
1
 10
174.217030
 20
60.562320
 30
0.0
 10
174.217030
 20
61.084587
 30
0.0
 10
174.097997
 20
61.497047
 30
0.0
 10
173.859930
 20
61.799700
 30
0.0
  0
SPLINE
  5
227
100
AcDbEntity
  8
Calque_1
 62
7
100
AcDbSpline
 70
8
 71
3
 72
8
 73
4
 74
0
 40
0
 40
0
 40
0
 40
0
 40
1
 40
1
 40
1
 40
1
 10
173.859930
 20
61.799700
 30
0.0
 10
173.623710
 20
62.102360
 30
0.0
 10
173.302597
 20
62.253690
 30
0.0
 10
172.896590
 20
62.253690
 30
0.0
  0
LWPOLYLINE
  5
228
100
AcDbEntity
  8
Calque_1
 62
7
100
AcDbPolyline
 90
4
 70
1
 10
167.742190
 20
62.632940
 30
0.0
 10
168.301370
 20
62.632940
 30
0.0
 10
168.301370
 20
58.500000
 30
0.0
 10
167.742190
 20
58.500000
 30
0.0
  0
SPLINE
  5
229
100
AcDbEntity
  8
Calque_1
 62
7
100
AcDbSpline
 70
8
 71
3
 72
8
 73
4
 74
0
 40
0
 40
0
 40
0
 40
0
 40
1
 40
1
 40
1
 40
1
 10
172.896590
 20
62.707680
 30
0.0
 10
173.476070
 20
62.707680
 30
0.0
 10
173.939283
 20
62.512983
 30
0.0
 10
174.286230
 20
62.123590
 30
0.0
  0
SPLINE
  5
22a
100
AcDbEntity
  8
Calque_1
 62
7
100
AcDbSpline
 70
8
 71
3
 72
8
 73
4
 74
0
 40
0
 40
0
 40
0
 40
0
 40
1
 40
1
 40
1
 40
1
 10
174.286230
 20
62.123590
 30
0.0
 10
174.633183
 20
61.736037
 30
0.0
 10
174.806660
 20
61.215613
 30
0.0
 10
174.806660
 20
60.562320
 30
0.0
  0
SPLINE
  5
22b
100
AcDbEntity
  8
Calque_1
 62
7
100
AcDbSpline
 70
8
 71
3
 72
8
 73
4
 74
0
 40
0
 40
0
 40
0
 40
0
 40
1
 40
1
 40
1
 40
1
 10
174.806660
 20
60.562320
 30
0.0
 10
174.806660
 20
59.910867
 30
0.0
 10
174.633183
 20
59.390443
 30
0.0
 10
174.286230
 20
59.001050
 30
0.0
  0
SPLINE
  5
22c
100
AcDbEntity
  8
Calque_1
 62
7
100
AcDbSpline
 70
8
 71
3
 72
8
 73
4
 74
0
 40
0
 40
0
 40
0
 40
0
 40
1
 40
1
 40
1
 40
1
 10
174.286230
 20
59.001050
 30
0.0
 10
173.939283
 20
58.613497
 30
0.0
 10
173.476070
 20
58.419720
 30
0.0
 10
172.896590
 20
58.419720
 30
0.0
  0
SPLINE
  5
22d
100
AcDbEntity
  8
Calque_1
 62
7
100
AcDbSpline
 70
8
 71
3
 72
8
 73
4
 74
0
 40
0
 40
0
 40
0
 40
0
 40
1
 40
1
 40
1
 40
1
 10
172.896590
 20
58.419720
 30
0.0
 10
172.315270
 20
58.419720
 30
0.0
 10
171.850213
 20
58.613497
 30
0.0
 10
171.501420
 20
59.001050
 30
0.0
  0
SPLINE
  5
22e
100
AcDbEntity
  8
Calque_1
 62
7
100
AcDbSpline
 70
8
 71
3
 72
8
 73
4
 74
0
 40
0
 40
0
 40
0
 40
0
 40
1
 40
1
 40
1
 40
1
 10
171.501420
 20
59.001050
 30
0.0
 10
171.154467
 20
59.388597
 30
0.0
 10
170.980990
 20
59.909020
 30
0.0
 10
170.980990
 20
60.562320
 30
0.0
  0
SPLINE
  5
22f
100
AcDbEntity
  8
Calque_1
 62
7
100
AcDbSpline
 70
8
 71
3
 72
8
 73
4
 74
0
 40
0
 40
0
 40
0
 40
0
 40
1
 40
1
 40
1
 40
1
 10
170.980990
 20
60.562320
 30
0.0
 10
170.980990
 20
61.215613
 30
0.0
 10
171.154467
 20
61.736037
 30
0.0
 10
171.501420
 20
62.123590
 30
0.0
  0
SPLINE
  5
230
100
AcDbEntity
  8
Calque_1
 62
7
100
AcDbSpline
 70
8
 71
3
 72
8
 73
4
 74
0
 40
0
 40
0
 40
0
 40
0
 40
1
 40
1
 40
1
 40
1
 10
171.501420
 20
62.123590
 30
0.0
 10
171.850213
 20
62.512983
 30
0.0
 10
172.315270
 20
62.707680
 30
0.0
 10
172.896590
 20
62.707680
 30
0.0
  0
LWPOLYLINE
  5
231
100
AcDbEntity
  8
Calque_1
 62
7
100
AcDbPolyline
 90
1
 70
1
 10
172.896590
 20
62.253690
 30
0.0
  0
LWPOLYLINE
  5
232
100
AcDbEntity
  8
Calque_1
 62
7
100
AcDbPolyline
 90
1
 70
1
 10
172.896590
 20
62.707680
 30
0.0
  0
SPLINE
  5
233
100
AcDbEntity
  8
Calque_1
 62
7
100
AcDbSpline
 70
8
 71
3
 72
8
 73
4
 74
0
 40
0
 40
0
 40
0
 40
0
 40
1
 40
1
 40
1
 40
1
 10
176.179690
 20
60.122170
 30
0.0
 10
176.179690
 20
59.679257
 30
0.0
 10
176.259967
 20
59.359990
 30
0.0
 10
176.420520
 20
59.164370
 30
0.0
  0
SPLINE
  5
234
100
AcDbEntity
  8
Calque_1
 62
7
100
AcDbSpline
 70
8
 71
3
 72
8
 73
4
 74
0
 40
0
 40
0
 40
0
 40
0
 40
1
 40
1
 40
1
 40
1
 10
176.420520
 20
59.164370
 30
0.0
 10
176.581080
 20
58.970597
 30
0.0
 10
176.841293
 20
58.873710
 30
0.0
 10
177.201160
 20
58.873710
 30
0.0
  0
SPLINE
  5
235
100
AcDbEntity
  8
Calque_1
 62
7
100
AcDbSpline
 70
8
 71
3
 72
8
 73
4
 74
0
 40
0
 40
0
 40
0
 40
0
 40
1
 40
1
 40
1
 40
1
 10
177.201160
 20
58.873710
 30
0.0
 10
177.559180
 20
58.873710
 30
0.0
 10
177.818467
 20
58.970597
 30
0.0
 10
177.979020
 20
59.164370
 30
0.0
  0
SPLINE
  5
236
100
AcDbEntity
  8
Calque_1
 62
7
100
AcDbSpline
 70
8
 71
3
 72
8
 73
4
 74
0
 40
0
 40
0
 40
0
 40
0
 40
1
 40
1
 40
1
 40
1
 10
177.979020
 20
59.164370
 30
0.0
 10
178.139580
 20
59.359990
 30
0.0
 10
178.219860
 20
59.679257
 30
0.0
 10
178.219860
 20
60.122170
 30
0.0
  0
LWPOLYLINE
  5
237
100
AcDbEntity
  8
Calque_1
 62
7
100
AcDbPolyline
 90
3
 70
0
 10
175.617740
 20
62.632940
 30
0.0
 10
176.179690
 20
62.632940
 30
0.0
 10
176.179690
 20
60.122170
 30
0.0
  0
SPLINE
  5
238
100
AcDbEntity
  8
Calque_1
 62
7
100
AcDbSpline
 70
8
 71
3
 72
8
 73
4
 74
0
 40
0
 40
0
 40
0
 40
0
 40
1
 40
1
 40
1
 40
1
 10
178.781800
 20
60.052970
 30
0.0
 10
178.781800
 20
59.514090
 30
0.0
 10
178.648003
 20
59.107163
 30
0.0
 10
178.380410
 20
58.832190
 30
0.0
  0
SPLINE
  5
239
100
AcDbEntity
  8
Calque_1
 62
7
100
AcDbSpline
 70
8
 71
3
 72
8
 73
4
 74
0
 40
0
 40
0
 40
0
 40
0
 40
1
 40
1
 40
1
 40
1
 10
178.380410
 20
58.832190
 30
0.0
 10
178.114663
 20
58.557210
 30
0.0
 10
177.721580
 20
58.419720
 30
0.0
 10
177.201160
 20
58.419720
 30
0.0
  0
SPLINE
  5
23a
100
AcDbEntity
  8
Calque_1
 62
7
100
AcDbSpline
 70
8
 71
3
 72
8
 73
4
 74
0
 40
0
 40
0
 40
0
 40
0
 40
1
 40
1
 40
1
 40
1
 10
177.201160
 20
58.419720
 30
0.0
 10
176.678887
 20
58.419720
 30
0.0
 10
176.283953
 20
58.557210
 30
0.0
 10
176.016360
 20
58.832190
 30
0.0
  0
SPLINE
  5
23b
100
AcDbEntity
  8
Calque_1
 62
7
100
AcDbSpline
 70
8
 71
3
 72
8
 73
4
 74
0
 40
0
 40
0
 40
0
 40
0
 40
1
 40
1
 40
1
 40
1
 10
176.016360
 20
58.832190
 30
0.0
 10
175.750613
 20
59.107163
 30
0.0
 10
175.617740
 20
59.514090
 30
0.0
 10
175.617740
 20
60.052970
 30
0.0
  0
LWPOLYLINE
  5
23c
100
AcDbEntity
  8
Calque_1
 62
7
100
AcDbPolyline
 90
4
 70
0
 10
178.219860
 20
60.122170
 30
0.0
 10
178.219860
 20
62.632940
 30
0.0
 10
178.781800
 20
62.632940
 30
0.0
 10
178.781800
 20
60.052970
 30
0.0
  0
LWPOLYLINE
  5
23d
100
AcDbEntity
  8
Calque_1
 62
7
100
AcDbPolyline
 90
2
 70
0
 10
175.617740
 20
60.052970
 30
0.0
 10
175.617740
 20
62.632940
 30
0.0
  0
LWPOLYLINE
  5
23e
100
AcDbEntity
  8
Calque_1
 62
7
100
AcDbPolyline
 90
8
 70
1
 10
179.260700
 20
62.632940
 30
0.0
 10
182.756950
 20
62.632940
 30
0.0
 10
182.756950
 20
62.162340
 30
0.0
 10
181.289800
 20
62.162340
 30
0.0
 10
181.289800
 20
58.500000
 30
0.0
 10
180.727850
 20
58.500000
 30
0.0
 10
180.727850
 20
62.162340
 30
0.0
 10
179.260700
 20
62.162340
 30
0.0
  0
LWPOLYLINE
  5
23f
100
AcDbEntity
  8
Calque_1
 62
7
100
AcDbPolyline
 90
6
 70
1
 10
195.677720
 20
156.132940
 30
0.0
 10
196.236900
 20
156.132940
 30
0.0
 10
196.236900
 20
152.470600
 30
0.0
 10
198.249380
 20
152.470600
 30
0.0
 10
198.249380
 20
152.000000
 30
0.0
 10
195.677720
 20
152.000000
 30
0.0
  0
LWPOLYLINE
  5
240
100
AcDbEntity
  8
Calque_1
 62
7
100
AcDbPolyline
 90
12
 70
1
 10
198.833480
 20
156.132940
 30
0.0
 10
201.446670
 20
156.132940
 30
0.0
 10
201.446670
 20
155.662340
 30
0.0
 10
199.392650
 20
155.662340
 30
0.0
 10
199.392650
 20
154.438790
 30
0.0
 10
201.360850
 20
154.438790
 30
0.0
 10
201.360850
 20
153.968200
 30
0.0
 10
199.392650
 20
153.968200
 30
0.0
 10
199.392650
 20
152.470600
 30
0.0
 10
201.496490
 20
152.470600
 30
0.0
 10
201.496490
 20
152.000000
 30
0.0
 10
198.833480
 20
152.000000
 30
0.0
  0
SPLINE
  5
241
100
AcDbEntity
  8
Calque_1
 62
7
100
AcDbSpline
 70
8
 71
3
 72
8
 73
4
 74
0
 40
0
 40
0
 40
0
 40
0
 40
1
 40
1
 40
1
 40
1
 10
204.898620
 20
155.451960
 30
0.0
 10
204.686393
 20
155.553460
 30
0.0
 10
204.486160
 20
155.629123
 30
0.0
 10
204.297920
 20
155.678950
 30
0.0
  0
SPLINE
  5
242
100
AcDbEntity
  8
Calque_1
 62
7
100
AcDbSpline
 70
8
 71
3
 72
8
 73
4
 74
0
 40
0
 40
0
 40
0
 40
0
 40
1
 40
1
 40
1
 40
1
 10
204.297920
 20
155.678950
 30
0.0
 10
204.109680
 20
155.728750
 30
0.0
 10
203.927900
 20
155.753650
 30
0.0
 10
203.752580
 20
155.753650
 30
0.0
  0
SPLINE
  5
243
100
AcDbEntity
  8
Calque_1
 62
7
100
AcDbSpline
 70
8
 71
3
 72
8
 73
4
 74
0
 40
0
 40
0
 40
0
 40
0
 40
1
 40
1
 40
1
 40
1
 10
203.752580
 20
155.753650
 30
0.0
 10
203.448080
 20
155.753650
 30
0.0
 10
203.212783
 20
155.694597
 30
0.0
 10
203.046690
 20
155.576490
 30
0.0
  0
SPLINE
  5
244
100
AcDbEntity
  8
Calque_1
 62
7
100
AcDbSpline
 70
8
 71
3
 72
8
 73
4
 74
0
 40
0
 40
0
 40
0
 40
0
 40
1
 40
1
 40
1
 40
1
 10
203.046690
 20
155.576490
 30
0.0
 10
202.882443
 20
155.458377
 30
0.0
 10
202.800320
 20
155.290437
 30
0.0
 10
202.800320
 20
155.072670
 30
0.0
  0
SPLINE
  5
245
100
AcDbEntity
  8
Calque_1
 62
7
100
AcDbSpline
 70
8
 71
3
 72
8
 73
4
 74
0
 40
0
 40
0
 40
0
 40
0
 40
1
 40
1
 40
1
 40
1
 10
202.800320
 20
155.072670
 30
0.0
 10
202.800320
 20
154.889970
 30
0.0
 10
202.854760
 20
154.751560
 30
0.0
 10
202.963640
 20
154.657440
 30
0.0
  0
SPLINE
  5
246
100
AcDbEntity
  8
Calque_1
 62
7
100
AcDbSpline
 70
8
 71
3
 72
8
 73
4
 74
0
 40
0
 40
0
 40
0
 40
0
 40
1
 40
1
 40
1
 40
1
 10
202.963640
 20
154.657440
 30
0.0
 10
203.074373
 20
154.565167
 30
0.0
 10
203.282913
 20
154.490427
 30
0.0
 10
203.589260
 20
154.433220
 30
0.0
  0
LWPOLYLINE
  5
247
100
AcDbEntity
  8
Calque_1
 62
7
100
AcDbPolyline
 90
2
 70
0
 10
204.898620
 20
155.997290
 30
0.0
 10
204.898620
 20
155.451960
 30
0.0
  0
SPLINE
  5
248
100
AcDbEntity
  8
Calque_1
 62
7
100
AcDbSpline
 70
8
 71
3
 72
8
 73
4
 74
0
 40
0
 40
0
 40
0
 40
0
 40
1
 40
1
 40
1
 40
1
 10
203.926980
 20
154.364020
 30
0.0
 10
204.344060
 20
154.284667
 30
0.0
 10
204.651330
 20
154.144410
 30
0.0
 10
204.848790
 20
153.943250
 30
0.0
  0
SPLINE
  5
249
100
AcDbEntity
  8
Calque_1
 62
7
100
AcDbSpline
 70
8
 71
3
 72
8
 73
4
 74
0
 40
0
 40
0
 40
0
 40
0
 40
1
 40
1
 40
1
 40
1
 10
204.848790
 20
153.943250
 30
0.0
 10
205.048103
 20
153.743943
 30
0.0
 10
205.147760
 20
153.476350
 30
0.0
 10
205.147760
 20
153.140470
 30
0.0
  0
SPLINE
  5
24a
100
AcDbEntity
  8
Calque_1
 62
7
100
AcDbSpline
 70
8
 71
3
 72
8
 73
4
 74
0
 40
0
 40
0
 40
0
 40
0
 40
1
 40
1
 40
1
 40
1
 10
205.147760
 20
153.140470
 30
0.0
 10
205.147760
 20
152.740003
 30
0.0
 10
205.013040
 20
152.436423
 30
0.0
 10
204.743600
 20
152.229730
 30
0.0
  0
SPLINE
  5
24b
100
AcDbEntity
  8
Calque_1
 62
7
100
AcDbSpline
 70
8
 71
3
 72
8
 73
4
 74
0
 40
0
 40
0
 40
0
 40
0
 40
1
 40
1
 40
1
 40
1
 10
204.743600
 20
152.229730
 30
0.0
 10
204.476007
 20
152.023037
 30
0.0
 10
204.082923
 20
151.919690
 30
0.0
 10
203.564350
 20
151.919690
 30
0.0
  0
SPLINE
  5
24c
100
AcDbEntity
  8
Calque_1
 62
7
100
AcDbSpline
 70
8
 71
3
 72
8
 73
4
 74
0
 40
0
 40
0
 40
0
 40
0
 40
1
 40
1
 40
1
 40
1
 10
203.564350
 20
151.919690
 30
0.0
 10
203.368730
 20
151.919690
 30
0.0
 10
203.160190
 20
151.941823
 30
0.0
 10
202.938730
 20
151.986090
 30
0.0
  0
SPLINE
  5
24d
100
AcDbEntity
  8
Calque_1
 62
7
100
AcDbSpline
 70
8
 71
3
 72
8
 73
4
 74
0
 40
0
 40
0
 40
0
 40
0
 40
1
 40
1
 40
1
 40
1
 10
202.938730
 20
151.986090
 30
0.0
 10
202.719117
 20
152.030357
 30
0.0
 10
202.491200
 20
152.095870
 30
0.0
 10
202.254980
 20
152.182630
 30
0.0
  0
LWPOLYLINE
  5
24e
100
AcDbEntity
  8
Calque_1
 62
7
100
AcDbPolyline
 90
2
 70
0
 10
203.589260
 20
154.433220
 30
0.0
 10
203.926980
 20
154.364020
 30
0.0
  0
SPLINE
  5
24f
100
AcDbEntity
  8
Calque_1
 62
7
100
AcDbSpline
 70
8
 71
3
 72
8
 73
4
 74
0
 40
0
 40
0
 40
0
 40
0
 40
1
 40
1
 40
1
 40
1
 10
202.254980
 20
152.758420
 30
0.0
 10
202.481973
 20
152.631080
 30
0.0
 10
202.704353
 20
152.535117
 30
0.0
 10
202.922120
 20
152.470530
 30
0.0
  0
SPLINE
  5
250
100
AcDbEntity
  8
Calque_1
 62
7
100
AcDbSpline
 70
8
 71
3
 72
8
 73
4
 74
0
 40
0
 40
0
 40
0
 40
0
 40
1
 40
1
 40
1
 40
1
 10
202.922120
 20
152.470530
 30
0.0
 10
203.139887
 20
152.405930
 30
0.0
 10
203.353963
 20
152.373630
 30
0.0
 10
203.564350
 20
152.373630
 30
0.0
  0
SPLINE
  5
251
100
AcDbEntity
  8
Calque_1
 62
7
100
AcDbSpline
 70
8
 71
3
 72
8
 73
4
 74
0
 40
0
 40
0
 40
0
 40
0
 40
1
 40
1
 40
1
 40
1
 10
203.564350
 20
152.373630
 30
0.0
 10
203.883617
 20
152.373630
 30
0.0
 10
204.129987
 20
152.436377
 30
0.0
 10
204.303460
 20
152.561870
 30
0.0
  0
SPLINE
  5
252
100
AcDbEntity
  8
Calque_1
 62
7
100
AcDbSpline
 70
8
 71
3
 72
8
 73
4
 74
0
 40
0
 40
0
 40
0
 40
0
 40
1
 40
1
 40
1
 40
1
 10
204.303460
 20
152.561870
 30
0.0
 10
204.476933
 20
152.687357
 30
0.0
 10
204.563670
 20
152.866367
 30
0.0
 10
204.563670
 20
153.098900
 30
0.0
  0
SPLINE
  5
253
100
AcDbEntity
  8
Calque_1
 62
7
100
AcDbSpline
 70
8
 71
3
 72
8
 73
4
 74
0
 40
0
 40
0
 40
0
 40
0
 40
1
 40
1
 40
1
 40
1
 10
204.563670
 20
153.098900
 30
0.0
 10
204.563670
 20
153.301900
 30
0.0
 10
204.500923
 20
153.460610
 30
0.0
 10
204.375430
 20
153.575030
 30
0.0
  0
SPLINE
  5
254
100
AcDbEntity
  8
Calque_1
 62
7
100
AcDbSpline
 70
8
 71
3
 72
8
 73
4
 74
0
 40
0
 40
0
 40
0
 40
0
 40
1
 40
1
 40
1
 40
1
 10
204.375430
 20
153.575030
 30
0.0
 10
204.251783
 20
153.689450
 30
0.0
 10
204.047860
 20
153.775263
 30
0.0
 10
203.763660
 20
153.832470
 30
0.0
  0
LWPOLYLINE
  5
255
100
AcDbEntity
  8
Calque_1
 62
7
100
AcDbPolyline
 90
2
 70
0
 10
202.254980
 20
152.182630
 30
0.0
 10
202.254980
 20
152.758420
 30
0.0
  0
SPLINE
  5
256
100
AcDbEntity
  8
Calque_1
 62
7
100
AcDbSpline
 70
8
 71
3
 72
8
 73
4
 74
0
 40
0
 40
0
 40
0
 40
0
 40
1
 40
1
 40
1
 40
1
 10
203.423170
 20
153.898870
 30
0.0
 10
203.006090
 20
153.981917
 30
0.0
 10
202.704353
 20
154.112023
 30
0.0
 10
202.517960
 20
154.289190
 30
0.0
  0
SPLINE
  5
257
100
AcDbEntity
  8
Calque_1
 62
7
100
AcDbSpline
 70
8
 71
3
 72
8
 73
4
 74
0
 40
0
 40
0
 40
0
 40
0
 40
1
 40
1
 40
1
 40
1
 10
202.517960
 20
154.289190
 30
0.0
 10
202.331567
 20
154.466357
 30
0.0
 10
202.238370
 20
154.712727
 30
0.0
 10
202.238370
 20
155.028300
 30
0.0
  0
SPLINE
  5
258
100
AcDbEntity
  8
Calque_1
 62
7
100
AcDbSpline
 70
8
 71
3
 72
8
 73
4
 74
0
 40
0
 40
0
 40
0
 40
0
 40
1
 40
1
 40
1
 40
1
 10
202.238370
 20
155.028300
 30
0.0
 10
202.238370
 20
155.393707
 30
0.0
 10
202.366630
 20
155.681600
 30
0.0
 10
202.623150
 20
155.891980
 30
0.0
  0
SPLINE
  5
259
100
AcDbEntity
  8
Calque_1
 62
7
100
AcDbSpline
 70
8
 71
3
 72
8
 73
4
 74
0
 40
0
 40
0
 40
0
 40
0
 40
1
 40
1
 40
1
 40
1
 10
202.623150
 20
155.891980
 30
0.0
 10
202.881517
 20
156.102367
 30
0.0
 10
203.236773
 20
156.207560
 30
0.0
 10
203.688920
 20
156.207560
 30
0.0
  0
SPLINE
  5
25a
100
AcDbEntity
  8
Calque_1
 62
7
100
AcDbSpline
 70
8
 71
3
 72
8
 73
4
 74
0
 40
0
 40
0
 40
0
 40
0
 40
1
 40
1
 40
1
 40
1
 10
203.688920
 20
156.207560
 30
0.0
 10
203.882693
 20
156.207560
 30
0.0
 10
204.080157
 20
156.190027
 30
0.0
 10
204.281310
 20
156.154960
 30
0.0
  0
SPLINE
  5
25b
100
AcDbEntity
  8
Calque_1
 62
7
100
AcDbSpline
 70
8
 71
3
 72
8
 73
4
 74
0
 40
0
 40
0
 40
0
 40
0
 40
1
 40
1
 40
1
 40
1
 10
204.281310
 20
156.154960
 30
0.0
 10
204.482470
 20
156.119893
 30
0.0
 10
204.688240
 20
156.067297
 30
0.0
 10
204.898620
 20
155.997170
 30
0.0
  0
LWPOLYLINE
  5
25c
100
AcDbEntity
  8
Calque_1
 62
7
100
AcDbPolyline
 90
2
 70
0
 10
203.763660
 20
153.832470
 30
0.0
 10
203.423170
 20
153.898870
 30
0.0
  0
LWPOLYLINE
  5
25d
100
AcDbEntity
  8
Calque_1
 62
7
100
AcDbPolyline
 90
2
 70
0
 10
204.898620
 20
155.997170
 30
0.0
 10
204.898620
 20
155.997290
 30
0.0
  0
LWPOLYLINE
  5
25e
100
AcDbEntity
  8
Calque_1
 62
7
100
AcDbPolyline
 90
6
 70
1
 10
206.019750
 20
156.132940
 30
0.0
 10
206.578920
 20
156.132940
 30
0.0
 10
206.578920
 20
152.470600
 30
0.0
 10
208.591410
 20
152.470600
 30
0.0
 10
208.591410
 20
152.000000
 30
0.0
 10
206.019750
 20
152.000000
 30
0.0
  0
LWPOLYLINE
  5
25f
100
AcDbEntity
  8
Calque_1
 62
7
100
AcDbPolyline
 90
4
 70
1
 10
209.175500
 20
156.132940
 30
0.0
 10
209.734680
 20
156.132940
 30
0.0
 10
209.734680
 20
152.000000
 30
0.0
 10
209.175500
 20
152.000000
 30
0.0
  0
LWPOLYLINE
  5
260
100
AcDbEntity
  8
Calque_1
 62
7
100
AcDbPolyline
 90
12
 70
1
 10
210.847500
 20
156.132940
 30
0.0
 10
213.460690
 20
156.132940
 30
0.0
 10
213.460690
 20
155.662340
 30
0.0
 10
211.406680
 20
155.662340
 30
0.0
 10
211.406680
 20
154.438790
 30
0.0
 10
213.374880
 20
154.438790
 30
0.0
 10
213.374880
 20
153.968200
 30
0.0
 10
211.406680
 20
153.968200
 30
0.0
 10
211.406680
 20
152.470600
 30
0.0
 10
213.510520
 20
152.470600
 30
0.0
 10
213.510520
 20
152.000000
 30
0.0
 10
210.847500
 20
152.000000
 30
0.0
  0
SPLINE
  5
261
100
AcDbEntity
  8
Calque_1
 62
7
100
AcDbSpline
 70
8
 71
3
 72
8
 73
4
 74
0
 40
0
 40
0
 40
0
 40
0
 40
1
 40
1
 40
1
 40
1
 10
90.453494
 20
61.951960
 30
0.0
 10
90.241265
 20
62.053460
 30
0.0
 10
90.041031
 20
62.129123
 30
0.0
 10
89.852793
 20
62.178950
 30
0.0
  0
SPLINE
  5
262
100
AcDbEntity
  8
Calque_1
 62
7
100
AcDbSpline
 70
8
 71
3
 72
8
 73
4
 74
0
 40
0
 40
0
 40
0
 40
0
 40
1
 40
1
 40
1
 40
1
 10
89.852793
 20
62.178950
 30
0.0
 10
89.664554
 20
62.228750
 30
0.0
 10
89.482775
 20
62.253650
 30
0.0
 10
89.307455
 20
62.253650
 30
0.0
  0
SPLINE
  5
263
100
AcDbEntity
  8
Calque_1
 62
7
100
AcDbSpline
 70
8
 71
3
 72
8
 73
4
 74
0
 40
0
 40
0
 40
0
 40
0
 40
1
 40
1
 40
1
 40
1
 10
89.307455
 20
62.253650
 30
0.0
 10
89.002952
 20
62.253650
 30
0.0
 10
88.767655
 20
62.194597
 30
0.0
 10
88.601562
 20
62.076490
 30
0.0
  0
SPLINE
  5
264
100
AcDbEntity
  8
Calque_1
 62
7
100
AcDbSpline
 70
8
 71
3
 72
8
 73
4
 74
0
 40
0
 40
0
 40
0
 40
0
 40
1
 40
1
 40
1
 40
1
 10
88.601562
 20
62.076490
 30
0.0
 10
88.437315
 20
61.958377
 30
0.0
 10
88.355192
 20
61.790437
 30
0.0
 10
88.355192
 20
61.572670
 30
0.0
  0
SPLINE
  5
265
100
AcDbEntity
  8
Calque_1
 62
7
100
AcDbSpline
 70
8
 71
3
 72
8
 73
4
 74
0
 40
0
 40
0
 40
0
 40
0
 40
1
 40
1
 40
1
 40
1
 10
88.355192
 20
61.572670
 30
0.0
 10
88.355192
 20
61.389970
 30
0.0
 10
88.409633
 20
61.251560
 30
0.0
 10
88.518516
 20
61.157440
 30
0.0
  0
SPLINE
  5
266
100
AcDbEntity
  8
Calque_1
 62
7
100
AcDbSpline
 70
8
 71
3
 72
8
 73
4
 74
0
 40
0
 40
0
 40
0
 40
0
 40
1
 40
1
 40
1
 40
1
 10
88.518516
 20
61.157440
 30
0.0
 10
88.629244
 20
61.065167
 30
0.0
 10
88.837782
 20
60.990427
 30
0.0
 10
89.144131
 20
60.933220
 30
0.0
  0
LWPOLYLINE
  5
267
100
AcDbEntity
  8
Calque_1
 62
7
100
AcDbPolyline
 90
2
 70
0
 10
90.453494
 20
62.497290
 30
0.0
 10
90.453494
 20
61.951960
 30
0.0
  0
SPLINE
  5
268
100
AcDbEntity
  8
Calque_1
 62
7
100
AcDbSpline
 70
8
 71
3
 72
8
 73
4
 74
0
 40
0
 40
0
 40
0
 40
0
 40
1
 40
1
 40
1
 40
1
 10
89.481853
 20
60.864020
 30
0.0
 10
89.898930
 20
60.784667
 30
0.0
 10
90.206201
 20
60.644410
 30
0.0
 10
90.403666
 20
60.443250
 30
0.0
  0
SPLINE
  5
269
100
AcDbEntity
  8
Calque_1
 62
7
100
AcDbSpline
 70
8
 71
3
 72
8
 73
4
 74
0
 40
0
 40
0
 40
0
 40
0
 40
1
 40
1
 40
1
 40
1
 10
90.403666
 20
60.443250
 30
0.0
 10
90.602977
 20
60.243943
 30
0.0
 10
90.702633
 20
59.976350
 30
0.0
 10
90.702633
 20
59.640470
 30
0.0
  0
SPLINE
  5
26a
100
AcDbEntity
  8
Calque_1
 62
7
100
AcDbSpline
 70
8
 71
3
 72
8
 73
4
 74
0
 40
0
 40
0
 40
0
 40
0
 40
1
 40
1
 40
1
 40
1
 10
90.702633
 20
59.640470
 30
0.0
 10
90.702633
 20
59.240003
 30
0.0
 10
90.567913
 20
58.936423
 30
0.0
 10
90.298474
 20
58.729730
 30
0.0
  0
SPLINE
  5
26b
100
AcDbEntity
  8
Calque_1
 62
7
100
AcDbSpline
 70
8
 71
3
 72
8
 73
4
 74
0
 40
0
 40
0
 40
0
 40
0
 40
1
 40
1
 40
1
 40
1
 10
90.298474
 20
58.729730
 30
0.0
 10
90.030881
 20
58.523037
 30
0.0
 10
89.637795
 20
58.419690
 30
0.0
 10
89.119217
 20
58.419690
 30
0.0
  0
SPLINE
  5
26c
100
AcDbEntity
  8
Calque_1
 62
7
100
AcDbSpline
 70
8
 71
3
 72
8
 73
4
 74
0
 40
0
 40
0
 40
0
 40
0
 40
1
 40
1
 40
1
 40
1
 10
89.119217
 20
58.419690
 30
0.0
 10
88.923597
 20
58.419690
 30
0.0
 10
88.715059
 20
58.441823
 30
0.0
 10
88.493602
 20
58.486090
 30
0.0
  0
SPLINE
  5
26d
100
AcDbEntity
  8
Calque_1
 62
7
100
AcDbSpline
 70
8
 71
3
 72
8
 73
4
 74
0
 40
0
 40
0
 40
0
 40
0
 40
1
 40
1
 40
1
 40
1
 10
88.493602
 20
58.486090
 30
0.0
 10
88.273991
 20
58.530357
 30
0.0
 10
88.046075
 20
58.595870
 30
0.0
 10
87.809854
 20
58.682630
 30
0.0
  0
LWPOLYLINE
  5
26e
100
AcDbEntity
  8
Calque_1
 62
7
100
AcDbPolyline
 90
2
 70
0
 10
89.144131
 20
60.933220
 30
0.0
 10
89.481853
 20
60.864020
 30
0.0
  0
SPLINE
  5
26f
100
AcDbEntity
  8
Calque_1
 62
7
100
AcDbSpline
 70
8
 71
3
 72
8
 73
4
 74
0
 40
0
 40
0
 40
0
 40
0
 40
1
 40
1
 40
1
 40
1
 10
87.809854
 20
59.258420
 30
0.0
 10
88.036847
 20
59.131080
 30
0.0
 10
88.259227
 20
59.035117
 30
0.0
 10
88.476993
 20
58.970530
 30
0.0
  0
SPLINE
  5
270
100
AcDbEntity
  8
Calque_1
 62
7
100
AcDbSpline
 70
8
 71
3
 72
8
 73
4
 74
0
 40
0
 40
0
 40
0
 40
0
 40
1
 40
1
 40
1
 40
1
 10
88.476993
 20
58.970530
 30
0.0
 10
88.694758
 20
58.905930
 30
0.0
 10
88.908833
 20
58.873630
 30
0.0
 10
89.119217
 20
58.873630
 30
0.0
  0
SPLINE
  5
271
100
AcDbEntity
  8
Calque_1
 62
7
100
AcDbSpline
 70
8
 71
3
 72
8
 73
4
 74
0
 40
0
 40
0
 40
0
 40
0
 40
1
 40
1
 40
1
 40
1
 10
89.119217
 20
58.873630
 30
0.0
 10
89.438484
 20
58.873630
 30
0.0
 10
89.684854
 20
58.936377
 30
0.0
 10
89.858329
 20
59.061870
 30
0.0
  0
SPLINE
  5
272
100
AcDbEntity
  8
Calque_1
 62
7
100
AcDbSpline
 70
8
 71
3
 72
8
 73
4
 74
0
 40
0
 40
0
 40
0
 40
0
 40
1
 40
1
 40
1
 40
1
 10
89.858329
 20
59.061870
 30
0.0
 10
90.031804
 20
59.187357
 30
0.0
 10
90.118541
 20
59.366367
 30
0.0
 10
90.118541
 20
59.598900
 30
0.0
  0
SPLINE
  5
273
100
AcDbEntity
  8
Calque_1
 62
7
100
AcDbSpline
 70
8
 71
3
 72
8
 73
4
 74
0
 40
0
 40
0
 40
0
 40
0
 40
1
 40
1
 40
1
 40
1
 10
90.118541
 20
59.598900
 30
0.0
 10
90.118541
 20
59.801900
 30
0.0
 10
90.055795
 20
59.960610
 30
0.0
 10
89.930302
 20
60.075030
 30
0.0
  0
SPLINE
  5
274
100
AcDbEntity
  8
Calque_1
 62
7
100
AcDbSpline
 70
8
 71
3
 72
8
 73
4
 74
0
 40
0
 40
0
 40
0
 40
0
 40
1
 40
1
 40
1
 40
1
 10
89.930302
 20
60.075030
 30
0.0
 10
89.806655
 20
60.189450
 30
0.0
 10
89.602731
 20
60.275263
 30
0.0
 10
89.318528
 20
60.332470
 30
0.0
  0
LWPOLYLINE
  5
275
100
AcDbEntity
  8
Calque_1
 62
7
100
AcDbPolyline
 90
2
 70
0
 10
87.809854
 20
58.682630
 30
0.0
 10
87.809854
 20
59.258420
 30
0.0
  0
SPLINE
  5
276
100
AcDbEntity
  8
Calque_1
 62
7
100
AcDbSpline
 70
8
 71
3
 72
8
 73
4
 74
0
 40
0
 40
0
 40
0
 40
0
 40
1
 40
1
 40
1
 40
1
 10
88.978039
 20
60.398870
 30
0.0
 10
88.560962
 20
60.481917
 30
0.0
 10
88.259227
 20
60.612023
 30
0.0
 10
88.072834
 20
60.789190
 30
0.0
  0
SPLINE
  5
277
100
AcDbEntity
  8
Calque_1
 62
7
100
AcDbSpline
 70
8
 71
3
 72
8
 73
4
 74
0
 40
0
 40
0
 40
0
 40
0
 40
1
 40
1
 40
1
 40
1
 10
88.072834
 20
60.789190
 30
0.0
 10
87.886441
 20
60.966357
 30
0.0
 10
87.793245
 20
61.212727
 30
0.0
 10
87.793245
 20
61.528300
 30
0.0
  0
SPLINE
  5
278
100
AcDbEntity
  8
Calque_1
 62
7
100
AcDbSpline
 70
8
 71
3
 72
8
 73
4
 74
0
 40
0
 40
0
 40
0
 40
0
 40
1
 40
1
 40
1
 40
1
 10
87.793245
 20
61.528300
 30
0.0
 10
87.793245
 20
61.893707
 30
0.0
 10
87.921505
 20
62.181600
 30
0.0
 10
88.178026
 20
62.391980
 30
0.0
  0
SPLINE
  5
279
100
AcDbEntity
  8
Calque_1
 62
7
100
AcDbSpline
 70
8
 71
3
 72
8
 73
4
 74
0
 40
0
 40
0
 40
0
 40
0
 40
1
 40
1
 40
1
 40
1
 10
88.178026
 20
62.391980
 30
0.0
 10
88.436392
 20
62.602367
 30
0.0
 10
88.791646
 20
62.707560
 30
0.0
 10
89.243787
 20
62.707560
 30
0.0
  0
SPLINE
  5
27a
100
AcDbEntity
  8
Calque_1
 62
7
100
AcDbSpline
 70
8
 71
3
 72
8
 73
4
 74
0
 40
0
 40
0
 40
0
 40
0
 40
1
 40
1
 40
1
 40
1
 10
89.243787
 20
62.707560
 30
0.0
 10
89.437562
 20
62.707560
 30
0.0
 10
89.635027
 20
62.690027
 30
0.0
 10
89.836183
 20
62.654960
 30
0.0
  0
SPLINE
  5
27b
100
AcDbEntity
  8
Calque_1
 62
7
100
AcDbSpline
 70
8
 71
3
 72
8
 73
4
 74
0
 40
0
 40
0
 40
0
 40
0
 40
1
 40
1
 40
1
 40
1
 10
89.836183
 20
62.654960
 30
0.0
 10
90.037340
 20
62.619893
 30
0.0
 10
90.243110
 20
62.567297
 30
0.0
 10
90.453494
 20
62.497170
 30
0.0
  0
LWPOLYLINE
  5
27c
100
AcDbEntity
  8
Calque_1
 62
7
100
AcDbPolyline
 90
2
 70
0
 10
89.318528
 20
60.332470
 30
0.0
 10
88.978039
 20
60.398870
 30
0.0
  0
LWPOLYLINE
  5
27d
100
AcDbEntity
  8
Calque_1
 62
7
100
AcDbPolyline
 90
2
 70
0
 10
90.453494
 20
62.497170
 30
0.0
 10
90.453494
 20
62.497290
 30
0.0
  0
SPLINE
  5
27e
100
AcDbEntity
  8
Calque_1
 62
7
100
AcDbSpline
 70
8
 71
3
 72
8
 73
4
 74
0
 40
0
 40
0
 40
0
 40
0
 40
1
 40
1
 40
1
 40
1
 10
92.072896
 20
60.122170
 30
0.0
 10
92.072896
 20
59.679257
 30
0.0
 10
92.153174
 20
59.359990
 30
0.0
 10
92.313730
 20
59.164370
 30
0.0
  0
SPLINE
  5
27f
100
AcDbEntity
  8
Calque_1
 62
7
100
AcDbSpline
 70
8
 71
3
 72
8
 73
4
 74
0
 40
0
 40
0
 40
0
 40
0
 40
1
 40
1
 40
1
 40
1
 10
92.313730
 20
59.164370
 30
0.0
 10
92.474286
 20
58.970597
 30
0.0
 10
92.734498
 20
58.873710
 30
0.0
 10
93.094365
 20
58.873710
 30
0.0
  0
SPLINE
  5
280
100
AcDbEntity
  8
Calque_1
 62
7
100
AcDbSpline
 70
8
 71
3
 72
8
 73
4
 74
0
 40
0
 40
0
 40
0
 40
0
 40
1
 40
1
 40
1
 40
1
 10
93.094365
 20
58.873710
 30
0.0
 10
93.452387
 20
58.873710
 30
0.0
 10
93.711676
 20
58.970597
 30
0.0
 10
93.872232
 20
59.164370
 30
0.0
  0
SPLINE
  5
281
100
AcDbEntity
  8
Calque_1
 62
7
100
AcDbSpline
 70
8
 71
3
 72
8
 73
4
 74
0
 40
0
 40
0
 40
0
 40
0
 40
1
 40
1
 40
1
 40
1
 10
93.872232
 20
59.164370
 30
0.0
 10
94.032788
 20
59.359990
 30
0.0
 10
94.113066
 20
59.679257
 30
0.0
 10
94.113066
 20
60.122170
 30
0.0
  0
LWPOLYLINE
  5
282
100
AcDbEntity
  8
Calque_1
 62
7
100
AcDbPolyline
 90
3
 70
0
 10
91.510950
 20
62.632940
 30
0.0
 10
92.072896
 20
62.632940
 30
0.0
 10
92.072896
 20
60.122170
 30
0.0
  0
SPLINE
  5
283
100
AcDbEntity
  8
Calque_1
 62
7
100
AcDbSpline
 70
8
 71
3
 72
8
 73
4
 74
0
 40
0
 40
0
 40
0
 40
0
 40
1
 40
1
 40
1
 40
1
 10
94.675012
 20
60.052970
 30
0.0
 10
94.675012
 20
59.514090
 30
0.0
 10
94.541215
 20
59.107163
 30
0.0
 10
94.273622
 20
58.832190
 30
0.0
  0
SPLINE
  5
284
100
AcDbEntity
  8
Calque_1
 62
7
100
AcDbSpline
 70
8
 71
3
 72
8
 73
4
 74
0
 40
0
 40
0
 40
0
 40
0
 40
1
 40
1
 40
1
 40
1
 10
94.273622
 20
58.832190
 30
0.0
 10
94.007874
 20
58.557210
 30
0.0
 10
93.614788
 20
58.419720
 30
0.0
 10
93.094365
 20
58.419720
 30
0.0
  0
SPLINE
  5
285
100
AcDbEntity
  8
Calque_1
 62
7
100
AcDbSpline
 70
8
 71
3
 72
8
 73
4
 74
0
 40
0
 40
0
 40
0
 40
0
 40
1
 40
1
 40
1
 40
1
 10
93.094365
 20
58.419720
 30
0.0
 10
92.572096
 20
58.419720
 30
0.0
 10
92.177165
 20
58.557210
 30
0.0
 10
91.909572
 20
58.832190
 30
0.0
  0
SPLINE
  5
286
100
AcDbEntity
  8
Calque_1
 62
7
100
AcDbSpline
 70
8
 71
3
 72
8
 73
4
 74
0
 40
0
 40
0
 40
0
 40
0
 40
1
 40
1
 40
1
 40
1
 10
91.909572
 20
58.832190
 30
0.0
 10
91.643824
 20
59.107163
 30
0.0
 10
91.510950
 20
59.514090
 30
0.0
 10
91.510950
 20
60.052970
 30
0.0
  0
LWPOLYLINE
  5
287
100
AcDbEntity
  8
Calque_1
 62
7
100
AcDbPolyline
 90
4
 70
0
 10
94.113066
 20
60.122170
 30
0.0
 10
94.113066
 20
62.632940
 30
0.0
 10
94.675012
 20
62.632940
 30
0.0
 10
94.675012
 20
60.052970
 30
0.0
  0
LWPOLYLINE
  5
288
100
AcDbEntity
  8
Calque_1
 62
7
100
AcDbPolyline
 90
2
 70
0
 10
91.510950
 20
60.052970
 30
0.0
 10
91.510950
 20
62.632940
 30
0.0
  0
SPLINE
  5
289
100
AcDbEntity
  8
Calque_1
 62
7
100
AcDbSpline
 70
8
 71
3
 72
8
 73
4
 74
0
 40
0
 40
0
 40
0
 40
0
 40
1
 40
1
 40
1
 40
1
 10
98.204479
 20
61.951960
 30
0.0
 10
97.992250
 20
62.053460
 30
0.0
 10
97.792016
 20
62.129123
 30
0.0
 10
97.603777
 20
62.178950
 30
0.0
  0
SPLINE
  5
28a
100
AcDbEntity
  8
Calque_1
 62
7
100
AcDbSpline
 70
8
 71
3
 72
8
 73
4
 74
0
 40
0
 40
0
 40
0
 40
0
 40
1
 40
1
 40
1
 40
1
 10
97.603777
 20
62.178950
 30
0.0
 10
97.415539
 20
62.228750
 30
0.0
 10
97.233760
 20
62.253650
 30
0.0
 10
97.058440
 20
62.253650
 30
0.0
  0
SPLINE
  5
28b
100
AcDbEntity
  8
Calque_1
 62
7
100
AcDbSpline
 70
8
 71
3
 72
8
 73
4
 74
0
 40
0
 40
0
 40
0
 40
0
 40
1
 40
1
 40
1
 40
1
 10
97.058440
 20
62.253650
 30
0.0
 10
96.753937
 20
62.253650
 30
0.0
 10
96.518640
 20
62.194597
 30
0.0
 10
96.352547
 20
62.076490
 30
0.0
  0
SPLINE
  5
28c
100
AcDbEntity
  8
Calque_1
 62
7
100
AcDbSpline
 70
8
 71
3
 72
8
 73
4
 74
0
 40
0
 40
0
 40
0
 40
0
 40
1
 40
1
 40
1
 40
1
 10
96.352547
 20
62.076490
 30
0.0
 10
96.188300
 20
61.958377
 30
0.0
 10
96.106176
 20
61.790437
 30
0.0
 10
96.106176
 20
61.572670
 30
0.0
  0
SPLINE
  5
28d
100
AcDbEntity
  8
Calque_1
 62
7
100
AcDbSpline
 70
8
 71
3
 72
8
 73
4
 74
0
 40
0
 40
0
 40
0
 40
0
 40
1
 40
1
 40
1
 40
1
 10
96.106176
 20
61.572670
 30
0.0
 10
96.106176
 20
61.389970
 30
0.0
 10
96.160618
 20
61.251560
 30
0.0
 10
96.269501
 20
61.157440
 30
0.0
  0
SPLINE
  5
28e
100
AcDbEntity
  8
Calque_1
 62
7
100
AcDbSpline
 70
8
 71
3
 72
8
 73
4
 74
0
 40
0
 40
0
 40
0
 40
0
 40
1
 40
1
 40
1
 40
1
 10
96.269501
 20
61.157440
 30
0.0
 10
96.380229
 20
61.065167
 30
0.0
 10
96.588767
 20
60.990427
 30
0.0
 10
96.895116
 20
60.933220
 30
0.0
  0
LWPOLYLINE
  5
28f
100
AcDbEntity
  8
Calque_1
 62
7
100
AcDbPolyline
 90
2
 70
0
 10
98.204479
 20
62.497290
 30
0.0
 10
98.204479
 20
61.951960
 30
0.0
  0
SPLINE
  5
290
100
AcDbEntity
  8
Calque_1
 62
7
100
AcDbSpline
 70
8
 71
3
 72
8
 73
4
 74
0
 40
0
 40
0
 40
0
 40
0
 40
1
 40
1
 40
1
 40
1
 10
97.232837
 20
60.864020
 30
0.0
 10
97.649914
 20
60.784667
 30
0.0
 10
97.957185
 20
60.644410
 30
0.0
 10
98.154651
 20
60.443250
 30
0.0
  0
SPLINE
  5
291
100
AcDbEntity
  8
Calque_1
 62
7
100
AcDbSpline
 70
8
 71
3
 72
8
 73
4
 74
0
 40
0
 40
0
 40
0
 40
0
 40
1
 40
1
 40
1
 40
1
 10
98.154651
 20
60.443250
 30
0.0
 10
98.353962
 20
60.243943
 30
0.0
 10
98.453617
 20
59.976350
 30
0.0
 10
98.453617
 20
59.640470
 30
0.0
  0
SPLINE
  5
292
100
AcDbEntity
  8
Calque_1
 62
7
100
AcDbSpline
 70
8
 71
3
 72
8
 73
4
 74
0
 40
0
 40
0
 40
0
 40
0
 40
1
 40
1
 40
1
 40
1
 10
98.453617
 20
59.640470
 30
0.0
 10
98.453617
 20
59.240003
 30
0.0
 10
98.318898
 20
58.936423
 30
0.0
 10
98.049459
 20
58.729730
 30
0.0
  0
SPLINE
  5
293
100
AcDbEntity
  8
Calque_1
 62
7
100
AcDbSpline
 70
8
 71
3
 72
8
 73
4
 74
0
 40
0
 40
0
 40
0
 40
0
 40
1
 40
1
 40
1
 40
1
 10
98.049459
 20
58.729730
 30
0.0
 10
97.781866
 20
58.523037
 30
0.0
 10
97.388780
 20
58.419690
 30
0.0
 10
96.870202
 20
58.419690
 30
0.0
  0
SPLINE
  5
294
100
AcDbEntity
  8
Calque_1
 62
7
100
AcDbSpline
 70
8
 71
3
 72
8
 73
4
 74
0
 40
0
 40
0
 40
0
 40
0
 40
1
 40
1
 40
1
 40
1
 10
96.870202
 20
58.419690
 30
0.0
 10
96.674582
 20
58.419690
 30
0.0
 10
96.466044
 20
58.441823
 30
0.0
 10
96.244587
 20
58.486090
 30
0.0
  0
SPLINE
  5
295
100
AcDbEntity
  8
Calque_1
 62
7
100
AcDbSpline
 70
8
 71
3
 72
8
 73
4
 74
0
 40
0
 40
0
 40
0
 40
0
 40
1
 40
1
 40
1
 40
1
 10
96.244587
 20
58.486090
 30
0.0
 10
96.024976
 20
58.530357
 30
0.0
 10
95.797060
 20
58.595870
 30
0.0
 10
95.560839
 20
58.682630
 30
0.0
  0
LWPOLYLINE
  5
296
100
AcDbEntity
  8
Calque_1
 62
7
100
AcDbPolyline
 90
2
 70
0
 10
96.895116
 20
60.933220
 30
0.0
 10
97.232837
 20
60.864020
 30
0.0
  0
SPLINE
  5
297
100
AcDbEntity
  8
Calque_1
 62
7
100
AcDbSpline
 70
8
 71
3
 72
8
 73
4
 74
0
 40
0
 40
0
 40
0
 40
0
 40
1
 40
1
 40
1
 40
1
 10
95.560839
 20
59.258420
 30
0.0
 10
95.787832
 20
59.131080
 30
0.0
 10
96.010212
 20
59.035117
 30
0.0
 10
96.227977
 20
58.970530
 30
0.0
  0
SPLINE
  5
298
100
AcDbEntity
  8
Calque_1
 62
7
100
AcDbSpline
 70
8
 71
3
 72
8
 73
4
 74
0
 40
0
 40
0
 40
0
 40
0
 40
1
 40
1
 40
1
 40
1
 10
96.227977
 20
58.970530
 30
0.0
 10
96.445743
 20
58.905930
 30
0.0
 10
96.659818
 20
58.873630
 30
0.0
 10
96.870202
 20
58.873630
 30
0.0
  0
SPLINE
  5
299
100
AcDbEntity
  8
Calque_1
 62
7
100
AcDbSpline
 70
8
 71
3
 72
8
 73
4
 74
0
 40
0
 40
0
 40
0
 40
0
 40
1
 40
1
 40
1
 40
1
 10
96.870202
 20
58.873630
 30
0.0
 10
97.189469
 20
58.873630
 30
0.0
 10
97.435839
 20
58.936377
 30
0.0
 10
97.609314
 20
59.061870
 30
0.0
  0
SPLINE
  5
29a
100
AcDbEntity
  8
Calque_1
 62
7
100
AcDbSpline
 70
8
 71
3
 72
8
 73
4
 74
0
 40
0
 40
0
 40
0
 40
0
 40
1
 40
1
 40
1
 40
1
 10
97.609314
 20
59.061870
 30
0.0
 10
97.782788
 20
59.187357
 30
0.0
 10
97.869525
 20
59.366367
 30
0.0
 10
97.869525
 20
59.598900
 30
0.0
  0
SPLINE
  5
29b
100
AcDbEntity
  8
Calque_1
 62
7
100
AcDbSpline
 70
8
 71
3
 72
8
 73
4
 74
0
 40
0
 40
0
 40
0
 40
0
 40
1
 40
1
 40
1
 40
1
 10
97.869525
 20
59.598900
 30
0.0
 10
97.869525
 20
59.801900
 30
0.0
 10
97.806779
 20
59.960610
 30
0.0
 10
97.681287
 20
60.075030
 30
0.0
  0
SPLINE
  5
29c
100
AcDbEntity
  8
Calque_1
 62
7
100
AcDbSpline
 70
8
 71
3
 72
8
 73
4
 74
0
 40
0
 40
0
 40
0
 40
0
 40
1
 40
1
 40
1
 40
1
 10
97.681287
 20
60.075030
 30
0.0
 10
97.557640
 20
60.189450
 30
0.0
 10
97.353716
 20
60.275263
 30
0.0
 10
97.069513
 20
60.332470
 30
0.0
  0
LWPOLYLINE
  5
29d
100
AcDbEntity
  8
Calque_1
 62
7
100
AcDbPolyline
 90
2
 70
0
 10
95.560839
 20
58.682630
 30
0.0
 10
95.560839
 20
59.258420
 30
0.0
  0
SPLINE
  5
29e
100
AcDbEntity
  8
Calque_1
 62
7
100
AcDbSpline
 70
8
 71
3
 72
8
 73
4
 74
0
 40
0
 40
0
 40
0
 40
0
 40
1
 40
1
 40
1
 40
1
 10
96.729023
 20
60.398870
 30
0.0
 10
96.311946
 20
60.481917
 30
0.0
 10
96.010212
 20
60.612023
 30
0.0
 10
95.823819
 20
60.789190
 30
0.0
  0
SPLINE
  5
29f
100
AcDbEntity
  8
Calque_1
 62
7
100
AcDbSpline
 70
8
 71
3
 72
8
 73
4
 74
0
 40
0
 40
0
 40
0
 40
0
 40
1
 40
1
 40
1
 40
1
 10
95.823819
 20
60.789190
 30
0.0
 10
95.637426
 20
60.966357
 30
0.0
 10
95.544230
 20
61.212727
 30
0.0
 10
95.544230
 20
61.528300
 30
0.0
  0
SPLINE
  5
2a0
100
AcDbEntity
  8
Calque_1
 62
7
100
AcDbSpline
 70
8
 71
3
 72
8
 73
4
 74
0
 40
0
 40
0
 40
0
 40
0
 40
1
 40
1
 40
1
 40
1
 10
95.544230
 20
61.528300
 30
0.0
 10
95.544230
 20
61.893707
 30
0.0
 10
95.672490
 20
62.181600
 30
0.0
 10
95.929011
 20
62.391980
 30
0.0
  0
SPLINE
  5
2a1
100
AcDbEntity
  8
Calque_1
 62
7
100
AcDbSpline
 70
8
 71
3
 72
8
 73
4
 74
0
 40
0
 40
0
 40
0
 40
0
 40
1
 40
1
 40
1
 40
1
 10
95.929011
 20
62.391980
 30
0.0
 10
96.187377
 20
62.602367
 30
0.0
 10
96.542630
 20
62.707560
 30
0.0
 10
96.994771
 20
62.707560
 30
0.0
  0
SPLINE
  5
2a2
100
AcDbEntity
  8
Calque_1
 62
7
100
AcDbSpline
 70
8
 71
3
 72
8
 73
4
 74
0
 40
0
 40
0
 40
0
 40
0
 40
1
 40
1
 40
1
 40
1
 10
96.994771
 20
62.707560
 30
0.0
 10
97.188546
 20
62.707560
 30
0.0
 10
97.386011
 20
62.690027
 30
0.0
 10
97.587168
 20
62.654960
 30
0.0
  0
SPLINE
  5
2a3
100
AcDbEntity
  8
Calque_1
 62
7
100
AcDbSpline
 70
8
 71
3
 72
8
 73
4
 74
0
 40
0
 40
0
 40
0
 40
0
 40
1
 40
1
 40
1
 40
1
 10
97.587168
 20
62.654960
 30
0.0
 10
97.788325
 20
62.619893
 30
0.0
 10
97.994095
 20
62.567297
 30
0.0
 10
98.204479
 20
62.497170
 30
0.0
  0
LWPOLYLINE
  5
2a4
100
AcDbEntity
  8
Calque_1
 62
7
100
AcDbPolyline
 90
2
 70
0
 10
97.069513
 20
60.332470
 30
0.0
 10
96.729023
 20
60.398870
 30
0.0
  0
LWPOLYLINE
  5
2a5
100
AcDbEntity
  8
Calque_1
 62
7
100
AcDbPolyline
 90
2
 70
0
 10
98.204479
 20
62.497170
 30
0.0
 10
98.204479
 20
62.497290
 30
0.0
  0
LWPOLYLINE
  5
2a6
100
AcDbEntity
  8
Calque_1
 62
7
100
AcDbPolyline
 90
8
 70
1
 10
98.752584
 20
62.632940
 30
0.0
 10
102.248830
 20
62.632940
 30
0.0
 10
102.248830
 20
62.162340
 30
0.0
 10
100.781680
 20
62.162340
 30
0.0
 10
100.781680
 20
58.500000
 30
0.0
 10
100.219730
 20
58.500000
 30
0.0
 10
100.219730
 20
62.162340
 30
0.0
 10
98.752584
 20
62.162340
 30
0.0
  0
LWPOLYLINE
  5
2a7
100
AcDbEntity
  8
Calque_1
 62
7
100
AcDbPolyline
 90
3
 70
1
 10
103.729820
 20
62.082060
 30
0.0
 10
102.971330
 20
60.025280
 30
0.0
 10
104.491080
 20
60.025280
 30
0.0
  0
LWPOLYLINE
  5
2a8
100
AcDbEntity
  8
Calque_1
 62
7
100
AcDbPolyline
 90
8
 70
1
 10
103.414250
 20
62.632940
 30
0.0
 10
104.048170
 20
62.632940
 30
0.0
 10
105.623280
 20
58.500000
 30
0.0
 10
105.041950
 20
58.500000
 30
0.0
 10
104.665480
 20
59.560220
 30
0.0
 10
102.802470
 20
59.560220
 30
0.0
 10
102.426000
 20
58.500000
 30
0.0
 10
101.836370
 20
58.500000
 30
0.0
  0
LWPOLYLINE
  5
2a9
100
AcDbEntity
  8
Calque_1
 62
7
100
AcDbPolyline
 90
4
 70
1
 10
106.223980
 20
62.632940
 30
0.0
 10
106.783160
 20
62.632940
 30
0.0
 10
106.783160
 20
58.500000
 30
0.0
 10
106.223980
 20
58.500000
 30
0.0
  0
SPLINE
  5
2aa
100
AcDbEntity
  8
Calque_1
 62
1
100
AcDbSpline
 70
8
 71
3
 72
8
 73
4
 74
0
 40
0
 40
0
 40
0
 40
0
 40
1
 40
1
 40
1
 40
1
 10
220.800000
 20
107.000000
 30
0.0
 10
220.800000
 20
106.588914
 30
0.0
 10
220.636697
 20
106.194666
 30
0.0
 10
220.346016
 20
105.903984
 30
0.0
  0
SPLINE
  5
2ab
100
AcDbEntity
  8
Calque_1
 62
1
100
AcDbSpline
 70
8
 71
3
 72
8
 73
4
 74
0
 40
0
 40
0
 40
0
 40
0
 40
1
 40
1
 40
1
 40
1
 10
220.346016
 20
105.903984
 30
0.0
 10
220.055334
 20
105.613303
 30
0.0
 10
219.661086
 20
105.450000
 30
0.0
 10
219.250000
 20
105.450000
 30
0.0
  0
SPLINE
  5
2ac
100
AcDbEntity
  8
Calque_1
 62
1
100
AcDbSpline
 70
8
 71
3
 72
8
 73
4
 74
0
 40
0
 40
0
 40
0
 40
0
 40
1
 40
1
 40
1
 40
1
 10
219.250000
 20
105.450000
 30
0.0
 10
218.838914
 20
105.450000
 30
0.0
 10
218.444666
 20
105.613303
 30
0.0
 10
218.153984
 20
105.903984
 30
0.0
  0
SPLINE
  5
2ad
100
AcDbEntity
  8
Calque_1
 62
1
100
AcDbSpline
 70
8
 71
3
 72
8
 73
4
 74
0
 40
0
 40
0
 40
0
 40
0
 40
1
 40
1
 40
1
 40
1
 10
218.153984
 20
105.903984
 30
0.0
 10
217.863303
 20
106.194666
 30
0.0
 10
217.700000
 20
106.588914
 30
0.0
 10
217.700000
 20
107.000000
 30
0.0
  0
SPLINE
  5
2ae
100
AcDbEntity
  8
Calque_1
 62
1
100
AcDbSpline
 70
8
 71
3
 72
8
 73
4
 74
0
 40
0
 40
0
 40
0
 40
0
 40
1
 40
1
 40
1
 40
1
 10
217.700000
 20
107.000000
 30
0.0
 10
217.700000
 20
107.411086
 30
0.0
 10
217.863303
 20
107.805334
 30
0.0
 10
218.153984
 20
108.096016
 30
0.0
  0
SPLINE
  5
2af
100
AcDbEntity
  8
Calque_1
 62
1
100
AcDbSpline
 70
8
 71
3
 72
8
 73
4
 74
0
 40
0
 40
0
 40
0
 40
0
 40
1
 40
1
 40
1
 40
1
 10
218.153984
 20
108.096016
 30
0.0
 10
218.444666
 20
108.386697
 30
0.0
 10
218.838914
 20
108.550000
 30
0.0
 10
219.250000
 20
108.550000
 30
0.0
  0
SPLINE
  5
2b0
100
AcDbEntity
  8
Calque_1
 62
1
100
AcDbSpline
 70
8
 71
3
 72
8
 73
4
 74
0
 40
0
 40
0
 40
0
 40
0
 40
1
 40
1
 40
1
 40
1
 10
219.250000
 20
108.550000
 30
0.0
 10
219.661086
 20
108.550000
 30
0.0
 10
220.055334
 20
108.386697
 30
0.0
 10
220.346016
 20
108.096016
 30
0.0
  0
SPLINE
  5
2b1
100
AcDbEntity
  8
Calque_1
 62
1
100
AcDbSpline
 70
8
 71
3
 72
8
 73
4
 74
0
 40
0
 40
0
 40
0
 40
0
 40
1
 40
1
 40
1
 40
1
 10
220.346016
 20
108.096016
 30
0.0
 10
220.636697
 20
107.805334
 30
0.0
 10
220.800000
 20
107.411086
 30
0.0
 10
220.800000
 20
107.000000
 30
0.0
  0
LWPOLYLINE
  5
2b2
100
AcDbEntity
  8
Calque_1
 62
7
100
AcDbPolyline
 90
10
 70
1
 10
107.895980
 20
62.632940
 30
0.0
 10
108.648930
 20
62.632940
 30
0.0
 10
110.481480
 20
59.175440
 30
0.0
 10
110.481480
 20
62.632940
 30
0.0
 10
111.024050
 20
62.632940
 30
0.0
 10
111.024050
 20
58.500000
 30
0.0
 10
110.271100
 20
58.500000
 30
0.0
 10
108.438550
 20
61.957490
 30
0.0
 10
108.438550
 20
58.500000
 30
0.0
 10
107.895980
 20
58.500000
 30
0.0
  0
SPLINE
  5
2b3
100
AcDbEntity
  8
Calque_1
 62
1
100
AcDbSpline
 70
8
 71
3
 72
8
 73
4
 74
0
 40
0
 40
0
 40
0
 40
0
 40
1
 40
1
 40
1
 40
1
 10
210.750000
 20
72.000000
 30
0.0
 10
210.750000
 20
70.342397
 30
0.0
 10
210.091520
 20
68.752685
 30
0.0
 10
208.919417
 20
67.580583
 30
0.0
  0
SPLINE
  5
2b4
100
AcDbEntity
  8
Calque_1
 62
1
100
AcDbSpline
 70
8
 71
3
 72
8
 73
4
 74
0
 40
0
 40
0
 40
0
 40
0
 40
1
 40
1
 40
1
 40
1
 10
208.919417
 20
67.580583
 30
0.0
 10
207.747315
 20
66.408480
 30
0.0
 10
206.157603
 20
65.750000
 30
0.0
 10
204.500000
 20
65.750000
 30
0.0
  0
SPLINE
  5
2b5
100
AcDbEntity
  8
Calque_1
 62
1
100
AcDbSpline
 70
8
 71
3
 72
8
 73
4
 74
0
 40
0
 40
0
 40
0
 40
0
 40
1
 40
1
 40
1
 40
1
 10
204.500000
 20
65.750000
 30
0.0
 10
202.842397
 20
65.750000
 30
0.0
 10
201.252685
 20
66.408480
 30
0.0
 10
200.080583
 20
67.580583
 30
0.0
  0
SPLINE
  5
2b6
100
AcDbEntity
  8
Calque_1
 62
1
100
AcDbSpline
 70
8
 71
3
 72
8
 73
4
 74
0
 40
0
 40
0
 40
0
 40
0
 40
1
 40
1
 40
1
 40
1
 10
200.080583
 20
67.580583
 30
0.0
 10
198.908480
 20
68.752685
 30
0.0
 10
198.250000
 20
70.342397
 30
0.0
 10
198.250000
 20
72.000000
 30
0.0
  0
SPLINE
  5
2b7
100
AcDbEntity
  8
Calque_1
 62
1
100
AcDbSpline
 70
8
 71
3
 72
8
 73
4
 74
0
 40
0
 40
0
 40
0
 40
0
 40
1
 40
1
 40
1
 40
1
 10
198.250000
 20
72.000000
 30
0.0
 10
198.250000
 20
73.657603
 30
0.0
 10
198.908480
 20
75.247315
 30
0.0
 10
200.080583
 20
76.419417
 30
0.0
  0
SPLINE
  5
2b8
100
AcDbEntity
  8
Calque_1
 62
1
100
AcDbSpline
 70
8
 71
3
 72
8
 73
4
 74
0
 40
0
 40
0
 40
0
 40
0
 40
1
 40
1
 40
1
 40
1
 10
200.080583
 20
76.419417
 30
0.0
 10
201.252685
 20
77.591520
 30
0.0
 10
202.842397
 20
78.250000
 30
0.0
 10
204.500000
 20
78.250000
 30
0.0
  0
SPLINE
  5
2b9
100
AcDbEntity
  8
Calque_1
 62
1
100
AcDbSpline
 70
8
 71
3
 72
8
 73
4
 74
0
 40
0
 40
0
 40
0
 40
0
 40
1
 40
1
 40
1
 40
1
 10
204.500000
 20
78.250000
 30
0.0
 10
206.157603
 20
78.250000
 30
0.0
 10
207.747315
 20
77.591520
 30
0.0
 10
208.919417
 20
76.419417
 30
0.0
  0
SPLINE
  5
2ba
100
AcDbEntity
  8
Calque_1
 62
1
100
AcDbSpline
 70
8
 71
3
 72
8
 73
4
 74
0
 40
0
 40
0
 40
0
 40
0
 40
1
 40
1
 40
1
 40
1
 10
208.919417
 20
76.419417
 30
0.0
 10
210.091520
 20
75.247315
 30
0.0
 10
210.750000
 20
73.657603
 30
0.0
 10
210.750000
 20
72.000000
 30
0.0
  0
LWPOLYLINE
  5
2bb
100
AcDbEntity
  8
Calque_1
 62
1
100
AcDbPolyline
 90
1
 70
1
 10
220.800000
 20
107.000000
 30
0.0
  0
SPLINE
  5
2bc
100
AcDbEntity
  8
Calque_1
 62
1
100
AcDbSpline
 70
8
 71
3
 72
8
 73
4
 74
0
 40
0
 40
0
 40
0
 40
0
 40
1
 40
1
 40
1
 40
1
 10
182.350000
 20
72.000000
 30
0.0
 10
182.350000
 20
71.575654
 30
0.0
 10
182.181429
 20
71.168687
 30
0.0
 10
181.881371
 20
70.868629
 30
0.0
  0
SPLINE
  5
2bd
100
AcDbEntity
  8
Calque_1
 62
1
100
AcDbSpline
 70
8
 71
3
 72
8
 73
4
 74
0
 40
0
 40
0
 40
0
 40
0
 40
1
 40
1
 40
1
 40
1
 10
181.881371
 20
70.868629
 30
0.0
 10
181.581313
 20
70.568571
 30
0.0
 10
181.174346
 20
70.400000
 30
0.0
 10
180.750000
 20
70.400000
 30
0.0
  0
SPLINE
  5
2be
100
AcDbEntity
  8
Calque_1
 62
1
100
AcDbSpline
 70
8
 71
3
 72
8
 73
4
 74
0
 40
0
 40
0
 40
0
 40
0
 40
1
 40
1
 40
1
 40
1
 10
180.750000
 20
70.400000
 30
0.0
 10
180.325654
 20
70.400000
 30
0.0
 10
179.918687
 20
70.568571
 30
0.0
 10
179.618629
 20
70.868629
 30
0.0
  0
SPLINE
  5
2bf
100
AcDbEntity
  8
Calque_1
 62
1
100
AcDbSpline
 70
8
 71
3
 72
8
 73
4
 74
0
 40
0
 40
0
 40
0
 40
0
 40
1
 40
1
 40
1
 40
1
 10
179.618629
 20
70.868629
 30
0.0
 10
179.318571
 20
71.168687
 30
0.0
 10
179.150000
 20
71.575654
 30
0.0
 10
179.150000
 20
72.000000
 30
0.0
  0
SPLINE
  5
2c0
100
AcDbEntity
  8
Calque_1
 62
1
100
AcDbSpline
 70
8
 71
3
 72
8
 73
4
 74
0
 40
0
 40
0
 40
0
 40
0
 40
1
 40
1
 40
1
 40
1
 10
179.150000
 20
72.000000
 30
0.0
 10
179.150000
 20
72.424346
 30
0.0
 10
179.318571
 20
72.831313
 30
0.0
 10
179.618629
 20
73.131371
 30
0.0
  0
SPLINE
  5
2c1
100
AcDbEntity
  8
Calque_1
 62
1
100
AcDbSpline
 70
8
 71
3
 72
8
 73
4
 74
0
 40
0
 40
0
 40
0
 40
0
 40
1
 40
1
 40
1
 40
1
 10
179.618629
 20
73.131371
 30
0.0
 10
179.918687
 20
73.431429
 30
0.0
 10
180.325654
 20
73.600000
 30
0.0
 10
180.750000
 20
73.600000
 30
0.0
  0
SPLINE
  5
2c2
100
AcDbEntity
  8
Calque_1
 62
1
100
AcDbSpline
 70
8
 71
3
 72
8
 73
4
 74
0
 40
0
 40
0
 40
0
 40
0
 40
1
 40
1
 40
1
 40
1
 10
180.750000
 20
73.600000
 30
0.0
 10
181.174346
 20
73.600000
 30
0.0
 10
181.581313
 20
73.431429
 30
0.0
 10
181.881371
 20
73.131371
 30
0.0
  0
SPLINE
  5
2c3
100
AcDbEntity
  8
Calque_1
 62
1
100
AcDbSpline
 70
8
 71
3
 72
8
 73
4
 74
0
 40
0
 40
0
 40
0
 40
0
 40
1
 40
1
 40
1
 40
1
 10
181.881371
 20
73.131371
 30
0.0
 10
182.181429
 20
72.831313
 30
0.0
 10
182.350000
 20
72.424346
 30
0.0
 10
182.350000
 20
72.000000
 30
0.0
  0
LWPOLYLINE
  5
2c4
100
AcDbEntity
  8
Calque_1
 62
1
100
AcDbPolyline
 90
1
 70
1
 10
210.750000
 20
72.000000
 30
0.0
  0
SPLINE
  5
2c5
100
AcDbEntity
  8
Calque_1
 62
1
100
AcDbSpline
 70
8
 71
3
 72
8
 73
4
 74
0
 40
0
 40
0
 40
0
 40
0
 40
1
 40
1
 40
1
 40
1
 10
159.850000
 20
72.000000
 30
0.0
 10
159.850000
 20
71.575654
 30
0.0
 10
159.681429
 20
71.168687
 30
0.0
 10
159.381371
 20
70.868629
 30
0.0
  0
SPLINE
  5
2c6
100
AcDbEntity
  8
Calque_1
 62
1
100
AcDbSpline
 70
8
 71
3
 72
8
 73
4
 74
0
 40
0
 40
0
 40
0
 40
0
 40
1
 40
1
 40
1
 40
1
 10
159.381371
 20
70.868629
 30
0.0
 10
159.081313
 20
70.568571
 30
0.0
 10
158.674346
 20
70.400000
 30
0.0
 10
158.250000
 20
70.400000
 30
0.0
  0
SPLINE
  5
2c7
100
AcDbEntity
  8
Calque_1
 62
1
100
AcDbSpline
 70
8
 71
3
 72
8
 73
4
 74
0
 40
0
 40
0
 40
0
 40
0
 40
1
 40
1
 40
1
 40
1
 10
158.250000
 20
70.400000
 30
0.0
 10
157.825654
 20
70.400000
 30
0.0
 10
157.418687
 20
70.568571
 30
0.0
 10
157.118629
 20
70.868629
 30
0.0
  0
SPLINE
  5
2c8
100
AcDbEntity
  8
Calque_1
 62
1
100
AcDbSpline
 70
8
 71
3
 72
8
 73
4
 74
0
 40
0
 40
0
 40
0
 40
0
 40
1
 40
1
 40
1
 40
1
 10
157.118629
 20
70.868629
 30
0.0
 10
156.818571
 20
71.168687
 30
0.0
 10
156.650000
 20
71.575654
 30
0.0
 10
156.650000
 20
72.000000
 30
0.0
  0
SPLINE
  5
2c9
100
AcDbEntity
  8
Calque_1
 62
1
100
AcDbSpline
 70
8
 71
3
 72
8
 73
4
 74
0
 40
0
 40
0
 40
0
 40
0
 40
1
 40
1
 40
1
 40
1
 10
156.650000
 20
72.000000
 30
0.0
 10
156.650000
 20
72.424346
 30
0.0
 10
156.818571
 20
72.831313
 30
0.0
 10
157.118629
 20
73.131371
 30
0.0
  0
SPLINE
  5
2ca
100
AcDbEntity
  8
Calque_1
 62
1
100
AcDbSpline
 70
8
 71
3
 72
8
 73
4
 74
0
 40
0
 40
0
 40
0
 40
0
 40
1
 40
1
 40
1
 40
1
 10
157.118629
 20
73.131371
 30
0.0
 10
157.418687
 20
73.431429
 30
0.0
 10
157.825654
 20
73.600000
 30
0.0
 10
158.250000
 20
73.600000
 30
0.0
  0
SPLINE
  5
2cb
100
AcDbEntity
  8
Calque_1
 62
1
100
AcDbSpline
 70
8
 71
3
 72
8
 73
4
 74
0
 40
0
 40
0
 40
0
 40
0
 40
1
 40
1
 40
1
 40
1
 10
158.250000
 20
73.600000
 30
0.0
 10
158.674346
 20
73.600000
 30
0.0
 10
159.081313
 20
73.431429
 30
0.0
 10
159.381371
 20
73.131371
 30
0.0
  0
SPLINE
  5
2cc
100
AcDbEntity
  8
Calque_1
 62
1
100
AcDbSpline
 70
8
 71
3
 72
8
 73
4
 74
0
 40
0
 40
0
 40
0
 40
0
 40
1
 40
1
 40
1
 40
1
 10
159.381371
 20
73.131371
 30
0.0
 10
159.681429
 20
72.831313
 30
0.0
 10
159.850000
 20
72.424346
 30
0.0
 10
159.850000
 20
72.000000
 30
0.0
  0
LWPOLYLINE
  5
2cd
100
AcDbEntity
  8
Calque_1
 62
1
100
AcDbPolyline
 90
1
 70
1
 10
182.350000
 20
72.000000
 30
0.0
  0
SPLINE
  5
2ce
100
AcDbEntity
  8
Calque_1
 62
1
100
AcDbSpline
 70
8
 71
3
 72
8
 73
4
 74
0
 40
0
 40
0
 40
0
 40
0
 40
1
 40
1
 40
1
 40
1
 10
177.050000
 20
72.000000
 30
0.0
 10
177.050000
 20
67.830250
 30
0.0
 10
173.669750
 20
64.450000
 30
0.0
 10
169.500000
 20
64.450000
 30
0.0
  0
SPLINE
  5
2cf
100
AcDbEntity
  8
Calque_1
 62
1
100
AcDbSpline
 70
8
 71
3
 72
8
 73
4
 74
0
 40
0
 40
0
 40
0
 40
0
 40
1
 40
1
 40
1
 40
1
 10
169.500000
 20
64.450000
 30
0.0
 10
165.330250
 20
64.450000
 30
0.0
 10
161.950000
 20
67.830250
 30
0.0
 10
161.950000
 20
72.000000
 30
0.0
  0
SPLINE
  5
2d0
100
AcDbEntity
  8
Calque_1
 62
1
100
AcDbSpline
 70
8
 71
3
 72
8
 73
4
 74
0
 40
0
 40
0
 40
0
 40
0
 40
1
 40
1
 40
1
 40
1
 10
161.950000
 20
72.000000
 30
0.0
 10
161.950000
 20
76.169750
 30
0.0
 10
165.330250
 20
79.550000
 30
0.0
 10
169.500000
 20
79.550000
 30
0.0
  0
SPLINE
  5
2d1
100
AcDbEntity
  8
Calque_1
 62
1
100
AcDbSpline
 70
8
 71
3
 72
8
 73
4
 74
0
 40
0
 40
0
 40
0
 40
0
 40
1
 40
1
 40
1
 40
1
 10
169.500000
 20
79.550000
 30
0.0
 10
173.669750
 20
79.550000
 30
0.0
 10
177.050000
 20
76.169750
 30
0.0
 10
177.050000
 20
72.000000
 30
0.0
  0
LWPOLYLINE
  5
2d2
100
AcDbEntity
  8
Calque_1
 62
1
100
AcDbPolyline
 90
1
 70
1
 10
159.850000
 20
72.000000
 30
0.0
  0
SPLINE
  5
2d3
100
AcDbEntity
  8
Calque_1
 62
1
100
AcDbSpline
 70
8
 71
3
 72
8
 73
4
 74
0
 40
0
 40
0
 40
0
 40
0
 40
1
 40
1
 40
1
 40
1
 10
138.950000
 20
72.000000
 30
0.0
 10
138.950000
 20
70.819787
 30
0.0
 10
138.481162
 20
69.687912
 30
0.0
 10
137.646625
 20
68.853375
 30
0.0
  0
SPLINE
  5
2d4
100
AcDbEntity
  8
Calque_1
 62
1
100
AcDbSpline
 70
8
 71
3
 72
8
 73
4
 74
0
 40
0
 40
0
 40
0
 40
0
 40
1
 40
1
 40
1
 40
1
 10
137.646625
 20
68.853375
 30
0.0
 10
136.812088
 20
68.018838
 30
0.0
 10
135.680213
 20
67.550000
 30
0.0
 10
134.500000
 20
67.550000
 30
0.0
  0
SPLINE
  5
2d5
100
AcDbEntity
  8
Calque_1
 62
1
100
AcDbSpline
 70
8
 71
3
 72
8
 73
4
 74
0
 40
0
 40
0
 40
0
 40
0
 40
1
 40
1
 40
1
 40
1
 10
134.500000
 20
67.550000
 30
0.0
 10
133.319787
 20
67.550000
 30
0.0
 10
132.187912
 20
68.018838
 30
0.0
 10
131.353375
 20
68.853375
 30
0.0
  0
SPLINE
  5
2d6
100
AcDbEntity
  8
Calque_1
 62
1
100
AcDbSpline
 70
8
 71
3
 72
8
 73
4
 74
0
 40
0
 40
0
 40
0
 40
0
 40
1
 40
1
 40
1
 40
1
 10
131.353375
 20
68.853375
 30
0.0
 10
130.518838
 20
69.687912
 30
0.0
 10
130.050000
 20
70.819787
 30
0.0
 10
130.050000
 20
72.000000
 30
0.0
  0
SPLINE
  5
2d7
100
AcDbEntity
  8
Calque_1
 62
1
100
AcDbSpline
 70
8
 71
3
 72
8
 73
4
 74
0
 40
0
 40
0
 40
0
 40
0
 40
1
 40
1
 40
1
 40
1
 10
130.050000
 20
72.000000
 30
0.0
 10
130.050000
 20
73.180213
 30
0.0
 10
130.518838
 20
74.312088
 30
0.0
 10
131.353375
 20
75.146625
 30
0.0
  0
SPLINE
  5
2d8
100
AcDbEntity
  8
Calque_1
 62
1
100
AcDbSpline
 70
8
 71
3
 72
8
 73
4
 74
0
 40
0
 40
0
 40
0
 40
0
 40
1
 40
1
 40
1
 40
1
 10
131.353375
 20
75.146625
 30
0.0
 10
132.187912
 20
75.981162
 30
0.0
 10
133.319787
 20
76.450000
 30
0.0
 10
134.500000
 20
76.450000
 30
0.0
  0
SPLINE
  5
2d9
100
AcDbEntity
  8
Calque_1
 62
1
100
AcDbSpline
 70
8
 71
3
 72
8
 73
4
 74
0
 40
0
 40
0
 40
0
 40
0
 40
1
 40
1
 40
1
 40
1
 10
134.500000
 20
76.450000
 30
0.0
 10
135.680213
 20
76.450000
 30
0.0
 10
136.812088
 20
75.981162
 30
0.0
 10
137.646625
 20
75.146625
 30
0.0
  0
SPLINE
  5
2da
100
AcDbEntity
  8
Calque_1
 62
1
100
AcDbSpline
 70
8
 71
3
 72
8
 73
4
 74
0
 40
0
 40
0
 40
0
 40
0
 40
1
 40
1
 40
1
 40
1
 10
137.646625
 20
75.146625
 30
0.0
 10
138.481162
 20
74.312088
 30
0.0
 10
138.950000
 20
73.180213
 30
0.0
 10
138.950000
 20
72.000000
 30
0.0
  0
LWPOLYLINE
  5
2db
100
AcDbEntity
  8
Calque_1
 62
1
100
AcDbPolyline
 90
1
 70
1
 10
177.050000
 20
72.000000
 30
0.0
  0
SPLINE
  5
2dc
100
AcDbEntity
  8
Calque_1
 62
1
100
AcDbSpline
 70
8
 71
3
 72
8
 73
4
 74
0
 40
0
 40
0
 40
0
 40
0
 40
1
 40
1
 40
1
 40
1
 10
103.950000
 20
72.000000
 30
0.0
 10
103.950000
 20
70.819787
 30
0.0
 10
103.481162
 20
69.687912
 30
0.0
 10
102.646625
 20
68.853375
 30
0.0
  0
SPLINE
  5
2dd
100
AcDbEntity
  8
Calque_1
 62
1
100
AcDbSpline
 70
8
 71
3
 72
8
 73
4
 74
0
 40
0
 40
0
 40
0
 40
0
 40
1
 40
1
 40
1
 40
1
 10
102.646625
 20
68.853375
 30
0.0
 10
101.812088
 20
68.018838
 30
0.0
 10
100.680213
 20
67.550000
 30
0.0
 10
99.500000
 20
67.550000
 30
0.0
  0
SPLINE
  5
2de
100
AcDbEntity
  8
Calque_1
 62
1
100
AcDbSpline
 70
8
 71
3
 72
8
 73
4
 74
0
 40
0
 40
0
 40
0
 40
0
 40
1
 40
1
 40
1
 40
1
 10
99.500000
 20
67.550000
 30
0.0
 10
98.319787
 20
67.550000
 30
0.0
 10
97.187912
 20
68.018838
 30
0.0
 10
96.353375
 20
68.853375
 30
0.0
  0
SPLINE
  5
2df
100
AcDbEntity
  8
Calque_1
 62
1
100
AcDbSpline
 70
8
 71
3
 72
8
 73
4
 74
0
 40
0
 40
0
 40
0
 40
0
 40
1
 40
1
 40
1
 40
1
 10
96.353375
 20
68.853375
 30
0.0
 10
95.518838
 20
69.687912
 30
0.0
 10
95.050000
 20
70.819787
 30
0.0
 10
95.050000
 20
72.000000
 30
0.0
  0
SPLINE
  5
2e0
100
AcDbEntity
  8
Calque_1
 62
1
100
AcDbSpline
 70
8
 71
3
 72
8
 73
4
 74
0
 40
0
 40
0
 40
0
 40
0
 40
1
 40
1
 40
1
 40
1
 10
95.050000
 20
72.000000
 30
0.0
 10
95.050000
 20
73.180213
 30
0.0
 10
95.518838
 20
74.312088
 30
0.0
 10
96.353375
 20
75.146625
 30
0.0
  0
SPLINE
  5
2e1
100
AcDbEntity
  8
Calque_1
 62
1
100
AcDbSpline
 70
8
 71
3
 72
8
 73
4
 74
0
 40
0
 40
0
 40
0
 40
0
 40
1
 40
1
 40
1
 40
1
 10
96.353375
 20
75.146625
 30
0.0
 10
97.187912
 20
75.981162
 30
0.0
 10
98.319787
 20
76.450000
 30
0.0
 10
99.500000
 20
76.450000
 30
0.0
  0
SPLINE
  5
2e2
100
AcDbEntity
  8
Calque_1
 62
1
100
AcDbSpline
 70
8
 71
3
 72
8
 73
4
 74
0
 40
0
 40
0
 40
0
 40
0
 40
1
 40
1
 40
1
 40
1
 10
99.500000
 20
76.450000
 30
0.0
 10
100.680213
 20
76.450000
 30
0.0
 10
101.812088
 20
75.981162
 30
0.0
 10
102.646625
 20
75.146625
 30
0.0
  0
SPLINE
  5
2e3
100
AcDbEntity
  8
Calque_1
 62
1
100
AcDbSpline
 70
8
 71
3
 72
8
 73
4
 74
0
 40
0
 40
0
 40
0
 40
0
 40
1
 40
1
 40
1
 40
1
 10
102.646625
 20
75.146625
 30
0.0
 10
103.481162
 20
74.312088
 30
0.0
 10
103.950000
 20
73.180213
 30
0.0
 10
103.950000
 20
72.000000
 30
0.0
  0
LWPOLYLINE
  5
2e4
100
AcDbEntity
  8
Calque_1
 62
1
100
AcDbPolyline
 90
1
 70
1
 10
138.950000
 20
72.000000
 30
0.0
  0
SPLINE
  5
2e5
100
AcDbEntity
  8
Calque_1
 62
1
100
AcDbSpline
 70
8
 71
3
 72
8
 73
4
 74
0
 40
0
 40
0
 40
0
 40
0
 40
1
 40
1
 40
1
 40
1
 10
208.950000
 20
142.000000
 30
0.0
 10
208.950000
 20
140.819787
 30
0.0
 10
208.481162
 20
139.687912
 30
0.0
 10
207.646625
 20
138.853375
 30
0.0
  0
SPLINE
  5
2e6
100
AcDbEntity
  8
Calque_1
 62
1
100
AcDbSpline
 70
8
 71
3
 72
8
 73
4
 74
0
 40
0
 40
0
 40
0
 40
0
 40
1
 40
1
 40
1
 40
1
 10
207.646625
 20
138.853375
 30
0.0
 10
206.812088
 20
138.018838
 30
0.0
 10
205.680213
 20
137.550000
 30
0.0
 10
204.500000
 20
137.550000
 30
0.0
  0
SPLINE
  5
2e7
100
AcDbEntity
  8
Calque_1
 62
1
100
AcDbSpline
 70
8
 71
3
 72
8
 73
4
 74
0
 40
0
 40
0
 40
0
 40
0
 40
1
 40
1
 40
1
 40
1
 10
204.500000
 20
137.550000
 30
0.0
 10
203.319787
 20
137.550000
 30
0.0
 10
202.187912
 20
138.018838
 30
0.0
 10
201.353375
 20
138.853375
 30
0.0
  0
SPLINE
  5
2e8
100
AcDbEntity
  8
Calque_1
 62
1
100
AcDbSpline
 70
8
 71
3
 72
8
 73
4
 74
0
 40
0
 40
0
 40
0
 40
0
 40
1
 40
1
 40
1
 40
1
 10
201.353375
 20
138.853375
 30
0.0
 10
200.518838
 20
139.687912
 30
0.0
 10
200.050000
 20
140.819787
 30
0.0
 10
200.050000
 20
142.000000
 30
0.0
  0
SPLINE
  5
2e9
100
AcDbEntity
  8
Calque_1
 62
1
100
AcDbSpline
 70
8
 71
3
 72
8
 73
4
 74
0
 40
0
 40
0
 40
0
 40
0
 40
1
 40
1
 40
1
 40
1
 10
200.050000
 20
142.000000
 30
0.0
 10
200.050000
 20
143.180213
 30
0.0
 10
200.518838
 20
144.312088
 30
0.0
 10
201.353375
 20
145.146625
 30
0.0
  0
SPLINE
  5
2ea
100
AcDbEntity
  8
Calque_1
 62
1
100
AcDbSpline
 70
8
 71
3
 72
8
 73
4
 74
0
 40
0
 40
0
 40
0
 40
0
 40
1
 40
1
 40
1
 40
1
 10
201.353375
 20
145.146625
 30
0.0
 10
202.187912
 20
145.981162
 30
0.0
 10
203.319787
 20
146.450000
 30
0.0
 10
204.500000
 20
146.450000
 30
0.0
  0
SPLINE
  5
2eb
100
AcDbEntity
  8
Calque_1
 62
1
100
AcDbSpline
 70
8
 71
3
 72
8
 73
4
 74
0
 40
0
 40
0
 40
0
 40
0
 40
1
 40
1
 40
1
 40
1
 10
204.500000
 20
146.450000
 30
0.0
 10
205.680213
 20
146.450000
 30
0.0
 10
206.812088
 20
145.981162
 30
0.0
 10
207.646625
 20
145.146625
 30
0.0
  0
SPLINE
  5
2ec
100
AcDbEntity
  8
Calque_1
 62
1
100
AcDbSpline
 70
8
 71
3
 72
8
 73
4
 74
0
 40
0
 40
0
 40
0
 40
0
 40
1
 40
1
 40
1
 40
1
 10
207.646625
 20
145.146625
 30
0.0
 10
208.481162
 20
144.312088
 30
0.0
 10
208.950000
 20
143.180213
 30
0.0
 10
208.950000
 20
142.000000
 30
0.0
  0
LWPOLYLINE
  5
2ed
100
AcDbEntity
  8
Calque_1
 62
1
100
AcDbPolyline
 90
1
 70
1
 10
103.950000
 20
72.000000
 30
0.0
  0
SPLINE
  5
2ee
100
AcDbEntity
  8
Calque_1
 62
1
100
AcDbSpline
 70
8
 71
3
 72
8
 73
4
 74
0
 40
0
 40
0
 40
0
 40
0
 40
1
 40
1
 40
1
 40
1
 10
103.950000
 20
142.000000
 30
0.0
 10
103.950000
 20
140.819787
 30
0.0
 10
103.481162
 20
139.687912
 30
0.0
 10
102.646625
 20
138.853375
 30
0.0
  0
SPLINE
  5
2ef
100
AcDbEntity
  8
Calque_1
 62
1
100
AcDbSpline
 70
8
 71
3
 72
8
 73
4
 74
0
 40
0
 40
0
 40
0
 40
0
 40
1
 40
1
 40
1
 40
1
 10
102.646625
 20
138.853375
 30
0.0
 10
101.812088
 20
138.018838
 30
0.0
 10
100.680213
 20
137.550000
 30
0.0
 10
99.500000
 20
137.550000
 30
0.0
  0
SPLINE
  5
2f0
100
AcDbEntity
  8
Calque_1
 62
1
100
AcDbSpline
 70
8
 71
3
 72
8
 73
4
 74
0
 40
0
 40
0
 40
0
 40
0
 40
1
 40
1
 40
1
 40
1
 10
99.500000
 20
137.550000
 30
0.0
 10
98.319787
 20
137.550000
 30
0.0
 10
97.187912
 20
138.018838
 30
0.0
 10
96.353375
 20
138.853375
 30
0.0
  0
SPLINE
  5
2f1
100
AcDbEntity
  8
Calque_1
 62
1
100
AcDbSpline
 70
8
 71
3
 72
8
 73
4
 74
0
 40
0
 40
0
 40
0
 40
0
 40
1
 40
1
 40
1
 40
1
 10
96.353375
 20
138.853375
 30
0.0
 10
95.518838
 20
139.687912
 30
0.0
 10
95.050000
 20
140.819787
 30
0.0
 10
95.050000
 20
142.000000
 30
0.0
  0
SPLINE
  5
2f2
100
AcDbEntity
  8
Calque_1
 62
1
100
AcDbSpline
 70
8
 71
3
 72
8
 73
4
 74
0
 40
0
 40
0
 40
0
 40
0
 40
1
 40
1
 40
1
 40
1
 10
95.050000
 20
142.000000
 30
0.0
 10
95.050000
 20
143.180213
 30
0.0
 10
95.518838
 20
144.312088
 30
0.0
 10
96.353375
 20
145.146625
 30
0.0
  0
SPLINE
  5
2f3
100
AcDbEntity
  8
Calque_1
 62
1
100
AcDbSpline
 70
8
 71
3
 72
8
 73
4
 74
0
 40
0
 40
0
 40
0
 40
0
 40
1
 40
1
 40
1
 40
1
 10
96.353375
 20
145.146625
 30
0.0
 10
97.187912
 20
145.981162
 30
0.0
 10
98.319787
 20
146.450000
 30
0.0
 10
99.500000
 20
146.450000
 30
0.0
  0
SPLINE
  5
2f4
100
AcDbEntity
  8
Calque_1
 62
1
100
AcDbSpline
 70
8
 71
3
 72
8
 73
4
 74
0
 40
0
 40
0
 40
0
 40
0
 40
1
 40
1
 40
1
 40
1
 10
99.500000
 20
146.450000
 30
0.0
 10
100.680213
 20
146.450000
 30
0.0
 10
101.812088
 20
145.981162
 30
0.0
 10
102.646625
 20
145.146625
 30
0.0
  0
SPLINE
  5
2f5
100
AcDbEntity
  8
Calque_1
 62
1
100
AcDbSpline
 70
8
 71
3
 72
8
 73
4
 74
0
 40
0
 40
0
 40
0
 40
0
 40
1
 40
1
 40
1
 40
1
 10
102.646625
 20
145.146625
 30
0.0
 10
103.481162
 20
144.312088
 30
0.0
 10
103.950000
 20
143.180213
 30
0.0
 10
103.950000
 20
142.000000
 30
0.0
  0
LWPOLYLINE
  5
2f6
100
AcDbEntity
  8
Calque_1
 62
1
100
AcDbPolyline
 90
1
 70
1
 10
208.950000
 20
142.000000
 30
0.0
  0
SPLINE
  5
2f7
100
AcDbEntity
  8
Calque_1
 62
1
100
AcDbSpline
 70
8
 71
3
 72
8
 73
4
 74
0
 40
0
 40
0
 40
0
 40
0
 40
1
 40
1
 40
1
 40
1
 10
153.550000
 20
59.750000
 30
0.0
 10
153.550000
 20
59.338914
 30
0.0
 10
153.386697
 20
58.944666
 30
0.0
 10
153.096016
 20
58.653984
 30
0.0
  0
SPLINE
  5
2f8
100
AcDbEntity
  8
Calque_1
 62
1
100
AcDbSpline
 70
8
 71
3
 72
8
 73
4
 74
0
 40
0
 40
0
 40
0
 40
0
 40
1
 40
1
 40
1
 40
1
 10
153.096016
 20
58.653984
 30
0.0
 10
152.805334
 20
58.363303
 30
0.0
 10
152.411086
 20
58.200000
 30
0.0
 10
152.000000
 20
58.200000
 30
0.0
  0
SPLINE
  5
2f9
100
AcDbEntity
  8
Calque_1
 62
1
100
AcDbSpline
 70
8
 71
3
 72
8
 73
4
 74
0
 40
0
 40
0
 40
0
 40
0
 40
1
 40
1
 40
1
 40
1
 10
152.000000
 20
58.200000
 30
0.0
 10
151.588914
 20
58.200000
 30
0.0
 10
151.194666
 20
58.363303
 30
0.0
 10
150.903984
 20
58.653984
 30
0.0
  0
SPLINE
  5
2fa
100
AcDbEntity
  8
Calque_1
 62
1
100
AcDbSpline
 70
8
 71
3
 72
8
 73
4
 74
0
 40
0
 40
0
 40
0
 40
0
 40
1
 40
1
 40
1
 40
1
 10
150.903984
 20
58.653984
 30
0.0
 10
150.613303
 20
58.944666
 30
0.0
 10
150.450000
 20
59.338914
 30
0.0
 10
150.450000
 20
59.750000
 30
0.0
  0
SPLINE
  5
2fb
100
AcDbEntity
  8
Calque_1
 62
1
100
AcDbSpline
 70
8
 71
3
 72
8
 73
4
 74
0
 40
0
 40
0
 40
0
 40
0
 40
1
 40
1
 40
1
 40
1
 10
150.450000
 20
59.750000
 30
0.0
 10
150.450000
 20
60.161086
 30
0.0
 10
150.613303
 20
60.555334
 30
0.0
 10
150.903984
 20
60.846016
 30
0.0
  0
SPLINE
  5
2fc
100
AcDbEntity
  8
Calque_1
 62
1
100
AcDbSpline
 70
8
 71
3
 72
8
 73
4
 74
0
 40
0
 40
0
 40
0
 40
0
 40
1
 40
1
 40
1
 40
1
 10
150.903984
 20
60.846016
 30
0.0
 10
151.194666
 20
61.136697
 30
0.0
 10
151.588914
 20
61.300000
 30
0.0
 10
152.000000
 20
61.300000
 30
0.0
  0
SPLINE
  5
2fd
100
AcDbEntity
  8
Calque_1
 62
1
100
AcDbSpline
 70
8
 71
3
 72
8
 73
4
 74
0
 40
0
 40
0
 40
0
 40
0
 40
1
 40
1
 40
1
 40
1
 10
152.000000
 20
61.300000
 30
0.0
 10
152.411086
 20
61.300000
 30
0.0
 10
152.805334
 20
61.136697
 30
0.0
 10
153.096016
 20
60.846016
 30
0.0
  0
SPLINE
  5
2fe
100
AcDbEntity
  8
Calque_1
 62
1
100
AcDbSpline
 70
8
 71
3
 72
8
 73
4
 74
0
 40
0
 40
0
 40
0
 40
0
 40
1
 40
1
 40
1
 40
1
 10
153.096016
 20
60.846016
 30
0.0
 10
153.386697
 20
60.555334
 30
0.0
 10
153.550000
 20
60.161086
 30
0.0
 10
153.550000
 20
59.750000
 30
0.0
  0
LWPOLYLINE
  5
2ff
100
AcDbEntity
  8
Calque_1
 62
1
100
AcDbPolyline
 90
1
 70
1
 10
103.950000
 20
142.000000
 30
0.0
  0
SPLINE
  5
300
100
AcDbEntity
  8
Calque_1
 62
1
100
AcDbSpline
 70
8
 71
3
 72
8
 73
4
 74
0
 40
0
 40
0
 40
0
 40
0
 40
1
 40
1
 40
1
 40
1
 10
153.550000
 20
154.250000
 30
0.0
 10
153.550000
 20
153.838914
 30
0.0
 10
153.386697
 20
153.444666
 30
0.0
 10
153.096016
 20
153.153984
 30
0.0
  0
SPLINE
  5
301
100
AcDbEntity
  8
Calque_1
 62
1
100
AcDbSpline
 70
8
 71
3
 72
8
 73
4
 74
0
 40
0
 40
0
 40
0
 40
0
 40
1
 40
1
 40
1
 40
1
 10
153.096016
 20
153.153984
 30
0.0
 10
152.805334
 20
152.863303
 30
0.0
 10
152.411086
 20
152.700000
 30
0.0
 10
152.000000
 20
152.700000
 30
0.0
  0
SPLINE
  5
302
100
AcDbEntity
  8
Calque_1
 62
1
100
AcDbSpline
 70
8
 71
3
 72
8
 73
4
 74
0
 40
0
 40
0
 40
0
 40
0
 40
1
 40
1
 40
1
 40
1
 10
152.000000
 20
152.700000
 30
0.0
 10
151.588914
 20
152.700000
 30
0.0
 10
151.194666
 20
152.863303
 30
0.0
 10
150.903984
 20
153.153984
 30
0.0
  0
SPLINE
  5
303
100
AcDbEntity
  8
Calque_1
 62
1
100
AcDbSpline
 70
8
 71
3
 72
8
 73
4
 74
0
 40
0
 40
0
 40
0
 40
0
 40
1
 40
1
 40
1
 40
1
 10
150.903984
 20
153.153984
 30
0.0
 10
150.613303
 20
153.444666
 30
0.0
 10
150.450000
 20
153.838914
 30
0.0
 10
150.450000
 20
154.250000
 30
0.0
  0
SPLINE
  5
304
100
AcDbEntity
  8
Calque_1
 62
1
100
AcDbSpline
 70
8
 71
3
 72
8
 73
4
 74
0
 40
0
 40
0
 40
0
 40
0
 40
1
 40
1
 40
1
 40
1
 10
150.450000
 20
154.250000
 30
0.0
 10
150.450000
 20
154.661086
 30
0.0
 10
150.613303
 20
155.055334
 30
0.0
 10
150.903984
 20
155.346016
 30
0.0
  0
SPLINE
  5
305
100
AcDbEntity
  8
Calque_1
 62
1
100
AcDbSpline
 70
8
 71
3
 72
8
 73
4
 74
0
 40
0
 40
0
 40
0
 40
0
 40
1
 40
1
 40
1
 40
1
 10
150.903984
 20
155.346016
 30
0.0
 10
151.194666
 20
155.636697
 30
0.0
 10
151.588914
 20
155.800000
 30
0.0
 10
152.000000
 20
155.800000
 30
0.0
  0
SPLINE
  5
306
100
AcDbEntity
  8
Calque_1
 62
1
100
AcDbSpline
 70
8
 71
3
 72
8
 73
4
 74
0
 40
0
 40
0
 40
0
 40
0
 40
1
 40
1
 40
1
 40
1
 10
152.000000
 20
155.800000
 30
0.0
 10
152.411086
 20
155.800000
 30
0.0
 10
152.805334
 20
155.636697
 30
0.0
 10
153.096016
 20
155.346016
 30
0.0
  0
SPLINE
  5
307
100
AcDbEntity
  8
Calque_1
 62
1
100
AcDbSpline
 70
8
 71
3
 72
8
 73
4
 74
0
 40
0
 40
0
 40
0
 40
0
 40
1
 40
1
 40
1
 40
1
 10
153.096016
 20
155.346016
 30
0.0
 10
153.386697
 20
155.055334
 30
0.0
 10
153.550000
 20
154.661086
 30
0.0
 10
153.550000
 20
154.250000
 30
0.0
  0
LWPOLYLINE
  5
308
100
AcDbEntity
  8
Calque_1
 62
1
100
AcDbPolyline
 90
1
 70
1
 10
153.550000
 20
59.750000
 30
0.0
  0
SPLINE
  5
309
100
AcDbEntity
  8
Calque_1
 62
1
100
AcDbSpline
 70
8
 71
3
 72
8
 73
4
 74
0
 40
0
 40
0
 40
0
 40
0
 40
1
 40
1
 40
1
 40
1
 10
81.300000
 20
154.250000
 30
0.0
 10
81.300000
 20
153.838914
 30
0.0
 10
81.136697
 20
153.444666
 30
0.0
 10
80.846016
 20
153.153984
 30
0.0
  0
SPLINE
  5
30a
100
AcDbEntity
  8
Calque_1
 62
1
100
AcDbSpline
 70
8
 71
3
 72
8
 73
4
 74
0
 40
0
 40
0
 40
0
 40
0
 40
1
 40
1
 40
1
 40
1
 10
80.846016
 20
153.153984
 30
0.0
 10
80.555334
 20
152.863303
 30
0.0
 10
80.161086
 20
152.700000
 30
0.0
 10
79.750000
 20
152.700000
 30
0.0
  0
SPLINE
  5
30b
100
AcDbEntity
  8
Calque_1
 62
1
100
AcDbSpline
 70
8
 71
3
 72
8
 73
4
 74
0
 40
0
 40
0
 40
0
 40
0
 40
1
 40
1
 40
1
 40
1
 10
79.750000
 20
152.700000
 30
0.0
 10
79.338914
 20
152.700000
 30
0.0
 10
78.944666
 20
152.863303
 30
0.0
 10
78.653984
 20
153.153984
 30
0.0
  0
SPLINE
  5
30c
100
AcDbEntity
  8
Calque_1
 62
1
100
AcDbSpline
 70
8
 71
3
 72
8
 73
4
 74
0
 40
0
 40
0
 40
0
 40
0
 40
1
 40
1
 40
1
 40
1
 10
78.653984
 20
153.153984
 30
0.0
 10
78.363303
 20
153.444666
 30
0.0
 10
78.200000
 20
153.838914
 30
0.0
 10
78.200000
 20
154.250000
 30
0.0
  0
SPLINE
  5
30d
100
AcDbEntity
  8
Calque_1
 62
1
100
AcDbSpline
 70
8
 71
3
 72
8
 73
4
 74
0
 40
0
 40
0
 40
0
 40
0
 40
1
 40
1
 40
1
 40
1
 10
78.200000
 20
154.250000
 30
0.0
 10
78.200000
 20
154.661086
 30
0.0
 10
78.363303
 20
155.055334
 30
0.0
 10
78.653984
 20
155.346016
 30
0.0
  0
SPLINE
  5
30e
100
AcDbEntity
  8
Calque_1
 62
1
100
AcDbSpline
 70
8
 71
3
 72
8
 73
4
 74
0
 40
0
 40
0
 40
0
 40
0
 40
1
 40
1
 40
1
 40
1
 10
78.653984
 20
155.346016
 30
0.0
 10
78.944666
 20
155.636697
 30
0.0
 10
79.338914
 20
155.800000
 30
0.0
 10
79.750000
 20
155.800000
 30
0.0
  0
SPLINE
  5
30f
100
AcDbEntity
  8
Calque_1
 62
1
100
AcDbSpline
 70
8
 71
3
 72
8
 73
4
 74
0
 40
0
 40
0
 40
0
 40
0
 40
1
 40
1
 40
1
 40
1
 10
79.750000
 20
155.800000
 30
0.0
 10
80.161086
 20
155.800000
 30
0.0
 10
80.555334
 20
155.636697
 30
0.0
 10
80.846016
 20
155.346016
 30
0.0
  0
SPLINE
  5
310
100
AcDbEntity
  8
Calque_1
 62
1
100
AcDbSpline
 70
8
 71
3
 72
8
 73
4
 74
0
 40
0
 40
0
 40
0
 40
0
 40
1
 40
1
 40
1
 40
1
 10
80.846016
 20
155.346016
 30
0.0
 10
81.136697
 20
155.055334
 30
0.0
 10
81.300000
 20
154.661086
 30
0.0
 10
81.300000
 20
154.250000
 30
0.0
  0
LWPOLYLINE
  5
311
100
AcDbEntity
  8
Calque_1
 62
1
100
AcDbPolyline
 90
1
 70
1
 10
153.550000
 20
154.250000
 30
0.0
  0
SPLINE
  5
312
100
AcDbEntity
  8
Calque_1
 62
1
100
AcDbSpline
 70
8
 71
3
 72
8
 73
4
 74
0
 40
0
 40
0
 40
0
 40
0
 40
1
 40
1
 40
1
 40
1
 10
81.300000
 20
59.750000
 30
0.0
 10
81.300000
 20
59.338914
 30
0.0
 10
81.136697
 20
58.944666
 30
0.0
 10
80.846016
 20
58.653984
 30
0.0
  0
SPLINE
  5
313
100
AcDbEntity
  8
Calque_1
 62
1
100
AcDbSpline
 70
8
 71
3
 72
8
 73
4
 74
0
 40
0
 40
0
 40
0
 40
0
 40
1
 40
1
 40
1
 40
1
 10
80.846016
 20
58.653984
 30
0.0
 10
80.555334
 20
58.363303
 30
0.0
 10
80.161086
 20
58.200000
 30
0.0
 10
79.750000
 20
58.200000
 30
0.0
  0
SPLINE
  5
314
100
AcDbEntity
  8
Calque_1
 62
1
100
AcDbSpline
 70
8
 71
3
 72
8
 73
4
 74
0
 40
0
 40
0
 40
0
 40
0
 40
1
 40
1
 40
1
 40
1
 10
79.750000
 20
58.200000
 30
0.0
 10
79.338914
 20
58.200000
 30
0.0
 10
78.944666
 20
58.363303
 30
0.0
 10
78.653984
 20
58.653984
 30
0.0
  0
SPLINE
  5
315
100
AcDbEntity
  8
Calque_1
 62
1
100
AcDbSpline
 70
8
 71
3
 72
8
 73
4
 74
0
 40
0
 40
0
 40
0
 40
0
 40
1
 40
1
 40
1
 40
1
 10
78.653984
 20
58.653984
 30
0.0
 10
78.363303
 20
58.944666
 30
0.0
 10
78.200000
 20
59.338914
 30
0.0
 10
78.200000
 20
59.750000
 30
0.0
  0
SPLINE
  5
316
100
AcDbEntity
  8
Calque_1
 62
1
100
AcDbSpline
 70
8
 71
3
 72
8
 73
4
 74
0
 40
0
 40
0
 40
0
 40
0
 40
1
 40
1
 40
1
 40
1
 10
78.200000
 20
59.750000
 30
0.0
 10
78.200000
 20
60.161086
 30
0.0
 10
78.363303
 20
60.555334
 30
0.0
 10
78.653984
 20
60.846016
 30
0.0
  0
SPLINE
  5
317
100
AcDbEntity
  8
Calque_1
 62
1
100
AcDbSpline
 70
8
 71
3
 72
8
 73
4
 74
0
 40
0
 40
0
 40
0
 40
0
 40
1
 40
1
 40
1
 40
1
 10
78.653984
 20
60.846016
 30
0.0
 10
78.944666
 20
61.136697
 30
0.0
 10
79.338914
 20
61.300000
 30
0.0
 10
79.750000
 20
61.300000
 30
0.0
  0
SPLINE
  5
318
100
AcDbEntity
  8
Calque_1
 62
1
100
AcDbSpline
 70
8
 71
3
 72
8
 73
4
 74
0
 40
0
 40
0
 40
0
 40
0
 40
1
 40
1
 40
1
 40
1
 10
79.750000
 20
61.300000
 30
0.0
 10
80.161086
 20
61.300000
 30
0.0
 10
80.555334
 20
61.136697
 30
0.0
 10
80.846016
 20
60.846016
 30
0.0
  0
SPLINE
  5
319
100
AcDbEntity
  8
Calque_1
 62
1
100
AcDbSpline
 70
8
 71
3
 72
8
 73
4
 74
0
 40
0
 40
0
 40
0
 40
0
 40
1
 40
1
 40
1
 40
1
 10
80.846016
 20
60.846016
 30
0.0
 10
81.136697
 20
60.555334
 30
0.0
 10
81.300000
 20
60.161086
 30
0.0
 10
81.300000
 20
59.750000
 30
0.0
  0
LWPOLYLINE
  5
31a
100
AcDbEntity
  8
Calque_1
 62
1
100
AcDbPolyline
 90
1
 70
1
 10
81.300000
 20
154.250000
 30
0.0
  0
SPLINE
  5
31b
100
AcDbEntity
  8
Calque_1
 62
1
100
AcDbSpline
 70
8
 71
3
 72
8
 73
4
 74
0
 40
0
 40
0
 40
0
 40
0
 40
1
 40
1
 40
1
 40
1
 10
225.800000
 20
59.750000
 30
0.0
 10
225.800000
 20
59.338914
 30
0.0
 10
225.636697
 20
58.944666
 30
0.0
 10
225.346016
 20
58.653984
 30
0.0
  0
SPLINE
  5
31c
100
AcDbEntity
  8
Calque_1
 62
1
100
AcDbSpline
 70
8
 71
3
 72
8
 73
4
 74
0
 40
0
 40
0
 40
0
 40
0
 40
1
 40
1
 40
1
 40
1
 10
225.346016
 20
58.653984
 30
0.0
 10
225.055334
 20
58.363303
 30
0.0
 10
224.661086
 20
58.200000
 30
0.0
 10
224.250000
 20
58.200000
 30
0.0
  0
SPLINE
  5
31d
100
AcDbEntity
  8
Calque_1
 62
1
100
AcDbSpline
 70
8
 71
3
 72
8
 73
4
 74
0
 40
0
 40
0
 40
0
 40
0
 40
1
 40
1
 40
1
 40
1
 10
224.250000
 20
58.200000
 30
0.0
 10
223.838914
 20
58.200000
 30
0.0
 10
223.444666
 20
58.363303
 30
0.0
 10
223.153984
 20
58.653984
 30
0.0
  0
SPLINE
  5
31e
100
AcDbEntity
  8
Calque_1
 62
1
100
AcDbSpline
 70
8
 71
3
 72
8
 73
4
 74
0
 40
0
 40
0
 40
0
 40
0
 40
1
 40
1
 40
1
 40
1
 10
223.153984
 20
58.653984
 30
0.0
 10
222.863303
 20
58.944666
 30
0.0
 10
222.700000
 20
59.338914
 30
0.0
 10
222.700000
 20
59.750000
 30
0.0
  0
SPLINE
  5
31f
100
AcDbEntity
  8
Calque_1
 62
1
100
AcDbSpline
 70
8
 71
3
 72
8
 73
4
 74
0
 40
0
 40
0
 40
0
 40
0
 40
1
 40
1
 40
1
 40
1
 10
222.700000
 20
59.750000
 30
0.0
 10
222.700000
 20
60.161086
 30
0.0
 10
222.863303
 20
60.555334
 30
0.0
 10
223.153984
 20
60.846016
 30
0.0
  0
SPLINE
  5
320
100
AcDbEntity
  8
Calque_1
 62
1
100
AcDbSpline
 70
8
 71
3
 72
8
 73
4
 74
0
 40
0
 40
0
 40
0
 40
0
 40
1
 40
1
 40
1
 40
1
 10
223.153984
 20
60.846016
 30
0.0
 10
223.444666
 20
61.136697
 30
0.0
 10
223.838914
 20
61.300000
 30
0.0
 10
224.250000
 20
61.300000
 30
0.0
  0
SPLINE
  5
321
100
AcDbEntity
  8
Calque_1
 62
1
100
AcDbSpline
 70
8
 71
3
 72
8
 73
4
 74
0
 40
0
 40
0
 40
0
 40
0
 40
1
 40
1
 40
1
 40
1
 10
224.250000
 20
61.300000
 30
0.0
 10
224.661086
 20
61.300000
 30
0.0
 10
225.055334
 20
61.136697
 30
0.0
 10
225.346016
 20
60.846016
 30
0.0
  0
SPLINE
  5
322
100
AcDbEntity
  8
Calque_1
 62
1
100
AcDbSpline
 70
8
 71
3
 72
8
 73
4
 74
0
 40
0
 40
0
 40
0
 40
0
 40
1
 40
1
 40
1
 40
1
 10
225.346016
 20
60.846016
 30
0.0
 10
225.636697
 20
60.555334
 30
0.0
 10
225.800000
 20
60.161086
 30
0.0
 10
225.800000
 20
59.750000
 30
0.0
  0
LWPOLYLINE
  5
323
100
AcDbEntity
  8
Calque_1
 62
1
100
AcDbPolyline
 90
1
 70
1
 10
81.300000
 20
59.750000
 30
0.0
  0
SPLINE
  5
324
100
AcDbEntity
  8
Calque_1
 62
1
100
AcDbSpline
 70
8
 71
3
 72
8
 73
4
 74
0
 40
0
 40
0
 40
0
 40
0
 40
1
 40
1
 40
1
 40
1
 10
225.800000
 20
154.250000
 30
0.0
 10
225.800000
 20
153.838914
 30
0.0
 10
225.636697
 20
153.444666
 30
0.0
 10
225.346016
 20
153.153984
 30
0.0
  0
SPLINE
  5
325
100
AcDbEntity
  8
Calque_1
 62
1
100
AcDbSpline
 70
8
 71
3
 72
8
 73
4
 74
0
 40
0
 40
0
 40
0
 40
0
 40
1
 40
1
 40
1
 40
1
 10
225.346016
 20
153.153984
 30
0.0
 10
225.055334
 20
152.863303
 30
0.0
 10
224.661086
 20
152.700000
 30
0.0
 10
224.250000
 20
152.700000
 30
0.0
  0
SPLINE
  5
326
100
AcDbEntity
  8
Calque_1
 62
1
100
AcDbSpline
 70
8
 71
3
 72
8
 73
4
 74
0
 40
0
 40
0
 40
0
 40
0
 40
1
 40
1
 40
1
 40
1
 10
224.250000
 20
152.700000
 30
0.0
 10
223.838914
 20
152.700000
 30
0.0
 10
223.444666
 20
152.863303
 30
0.0
 10
223.153984
 20
153.153984
 30
0.0
  0
SPLINE
  5
327
100
AcDbEntity
  8
Calque_1
 62
1
100
AcDbSpline
 70
8
 71
3
 72
8
 73
4
 74
0
 40
0
 40
0
 40
0
 40
0
 40
1
 40
1
 40
1
 40
1
 10
223.153984
 20
153.153984
 30
0.0
 10
222.863303
 20
153.444666
 30
0.0
 10
222.700000
 20
153.838914
 30
0.0
 10
222.700000
 20
154.250000
 30
0.0
  0
SPLINE
  5
328
100
AcDbEntity
  8
Calque_1
 62
1
100
AcDbSpline
 70
8
 71
3
 72
8
 73
4
 74
0
 40
0
 40
0
 40
0
 40
0
 40
1
 40
1
 40
1
 40
1
 10
222.700000
 20
154.250000
 30
0.0
 10
222.700000
 20
154.661086
 30
0.0
 10
222.863303
 20
155.055334
 30
0.0
 10
223.153984
 20
155.346016
 30
0.0
  0
SPLINE
  5
329
100
AcDbEntity
  8
Calque_1
 62
1
100
AcDbSpline
 70
8
 71
3
 72
8
 73
4
 74
0
 40
0
 40
0
 40
0
 40
0
 40
1
 40
1
 40
1
 40
1
 10
223.153984
 20
155.346016
 30
0.0
 10
223.444666
 20
155.636697
 30
0.0
 10
223.838914
 20
155.800000
 30
0.0
 10
224.250000
 20
155.800000
 30
0.0
  0
SPLINE
  5
32a
100
AcDbEntity
  8
Calque_1
 62
1
100
AcDbSpline
 70
8
 71
3
 72
8
 73
4
 74
0
 40
0
 40
0
 40
0
 40
0
 40
1
 40
1
 40
1
 40
1
 10
224.250000
 20
155.800000
 30
0.0
 10
224.661086
 20
155.800000
 30
0.0
 10
225.055334
 20
155.636697
 30
0.0
 10
225.346016
 20
155.346016
 30
0.0
  0
SPLINE
  5
32b
100
AcDbEntity
  8
Calque_1
 62
1
100
AcDbSpline
 70
8
 71
3
 72
8
 73
4
 74
0
 40
0
 40
0
 40
0
 40
0
 40
1
 40
1
 40
1
 40
1
 10
225.346016
 20
155.346016
 30
0.0
 10
225.636697
 20
155.055334
 30
0.0
 10
225.800000
 20
154.661086
 30
0.0
 10
225.800000
 20
154.250000
 30
0.0
  0
LWPOLYLINE
  5
32c
100
AcDbEntity
  8
Calque_1
 62
1
100
AcDbPolyline
 90
1
 70
1
 10
225.800000
 20
59.750000
 30
0.0
  0
SPLINE
  5
32d
100
AcDbEntity
  8
Calque_1
 62
1
100
AcDbSpline
 70
8
 71
3
 72
8
 73
4
 74
0
 40
0
 40
0
 40
0
 40
0
 40
1
 40
1
 40
1
 40
1
 10
173.950000
 20
142.000000
 30
0.0
 10
173.950000
 20
140.819787
 30
0.0
 10
173.481162
 20
139.687912
 30
0.0
 10
172.646625
 20
138.853375
 30
0.0
  0
SPLINE
  5
32e
100
AcDbEntity
  8
Calque_1
 62
1
100
AcDbSpline
 70
8
 71
3
 72
8
 73
4
 74
0
 40
0
 40
0
 40
0
 40
0
 40
1
 40
1
 40
1
 40
1
 10
172.646625
 20
138.853375
 30
0.0
 10
171.812088
 20
138.018838
 30
0.0
 10
170.680213
 20
137.550000
 30
0.0
 10
169.500000
 20
137.550000
 30
0.0
  0
SPLINE
  5
32f
100
AcDbEntity
  8
Calque_1
 62
1
100
AcDbSpline
 70
8
 71
3
 72
8
 73
4
 74
0
 40
0
 40
0
 40
0
 40
0
 40
1
 40
1
 40
1
 40
1
 10
169.500000
 20
137.550000
 30
0.0
 10
168.319787
 20
137.550000
 30
0.0
 10
167.187912
 20
138.018838
 30
0.0
 10
166.353375
 20
138.853375
 30
0.0
  0
SPLINE
  5
330
100
AcDbEntity
  8
Calque_1
 62
1
100
AcDbSpline
 70
8
 71
3
 72
8
 73
4
 74
0
 40
0
 40
0
 40
0
 40
0
 40
1
 40
1
 40
1
 40
1
 10
166.353375
 20
138.853375
 30
0.0
 10
165.518838
 20
139.687912
 30
0.0
 10
165.050000
 20
140.819787
 30
0.0
 10
165.050000
 20
142.000000
 30
0.0
  0
SPLINE
  5
331
100
AcDbEntity
  8
Calque_1
 62
1
100
AcDbSpline
 70
8
 71
3
 72
8
 73
4
 74
0
 40
0
 40
0
 40
0
 40
0
 40
1
 40
1
 40
1
 40
1
 10
165.050000
 20
142.000000
 30
0.0
 10
165.050000
 20
143.180213
 30
0.0
 10
165.518838
 20
144.312088
 30
0.0
 10
166.353375
 20
145.146625
 30
0.0
  0
SPLINE
  5
332
100
AcDbEntity
  8
Calque_1
 62
1
100
AcDbSpline
 70
8
 71
3
 72
8
 73
4
 74
0
 40
0
 40
0
 40
0
 40
0
 40
1
 40
1
 40
1
 40
1
 10
166.353375
 20
145.146625
 30
0.0
 10
167.187912
 20
145.981162
 30
0.0
 10
168.319787
 20
146.450000
 30
0.0
 10
169.500000
 20
146.450000
 30
0.0
  0
SPLINE
  5
333
100
AcDbEntity
  8
Calque_1
 62
1
100
AcDbSpline
 70
8
 71
3
 72
8
 73
4
 74
0
 40
0
 40
0
 40
0
 40
0
 40
1
 40
1
 40
1
 40
1
 10
169.500000
 20
146.450000
 30
0.0
 10
170.680213
 20
146.450000
 30
0.0
 10
171.812088
 20
145.981162
 30
0.0
 10
172.646625
 20
145.146625
 30
0.0
  0
SPLINE
  5
334
100
AcDbEntity
  8
Calque_1
 62
1
100
AcDbSpline
 70
8
 71
3
 72
8
 73
4
 74
0
 40
0
 40
0
 40
0
 40
0
 40
1
 40
1
 40
1
 40
1
 10
172.646625
 20
145.146625
 30
0.0
 10
173.481162
 20
144.312088
 30
0.0
 10
173.950000
 20
143.180213
 30
0.0
 10
173.950000
 20
142.000000
 30
0.0
  0
LWPOLYLINE
  5
335
100
AcDbEntity
  8
Calque_1
 62
1
100
AcDbPolyline
 90
1
 70
1
 10
225.800000
 20
154.250000
 30
0.0
  0
SPLINE
  5
336
100
AcDbEntity
  8
Calque_1
 62
1
100
AcDbSpline
 70
8
 71
3
 72
8
 73
4
 74
0
 40
0
 40
0
 40
0
 40
0
 40
1
 40
1
 40
1
 40
1
 10
138.950000
 20
142.000000
 30
0.0
 10
138.950000
 20
140.819787
 30
0.0
 10
138.481162
 20
139.687912
 30
0.0
 10
137.646625
 20
138.853375
 30
0.0
  0
SPLINE
  5
337
100
AcDbEntity
  8
Calque_1
 62
1
100
AcDbSpline
 70
8
 71
3
 72
8
 73
4
 74
0
 40
0
 40
0
 40
0
 40
0
 40
1
 40
1
 40
1
 40
1
 10
137.646625
 20
138.853375
 30
0.0
 10
136.812088
 20
138.018838
 30
0.0
 10
135.680213
 20
137.550000
 30
0.0
 10
134.500000
 20
137.550000
 30
0.0
  0
SPLINE
  5
338
100
AcDbEntity
  8
Calque_1
 62
1
100
AcDbSpline
 70
8
 71
3
 72
8
 73
4
 74
0
 40
0
 40
0
 40
0
 40
0
 40
1
 40
1
 40
1
 40
1
 10
134.500000
 20
137.550000
 30
0.0
 10
133.319787
 20
137.550000
 30
0.0
 10
132.187912
 20
138.018838
 30
0.0
 10
131.353375
 20
138.853375
 30
0.0
  0
SPLINE
  5
339
100
AcDbEntity
  8
Calque_1
 62
1
100
AcDbSpline
 70
8
 71
3
 72
8
 73
4
 74
0
 40
0
 40
0
 40
0
 40
0
 40
1
 40
1
 40
1
 40
1
 10
131.353375
 20
138.853375
 30
0.0
 10
130.518838
 20
139.687912
 30
0.0
 10
130.050000
 20
140.819787
 30
0.0
 10
130.050000
 20
142.000000
 30
0.0
  0
SPLINE
  5
33a
100
AcDbEntity
  8
Calque_1
 62
1
100
AcDbSpline
 70
8
 71
3
 72
8
 73
4
 74
0
 40
0
 40
0
 40
0
 40
0
 40
1
 40
1
 40
1
 40
1
 10
130.050000
 20
142.000000
 30
0.0
 10
130.050000
 20
143.180213
 30
0.0
 10
130.518838
 20
144.312088
 30
0.0
 10
131.353375
 20
145.146625
 30
0.0
  0
SPLINE
  5
33b
100
AcDbEntity
  8
Calque_1
 62
1
100
AcDbSpline
 70
8
 71
3
 72
8
 73
4
 74
0
 40
0
 40
0
 40
0
 40
0
 40
1
 40
1
 40
1
 40
1
 10
131.353375
 20
145.146625
 30
0.0
 10
132.187912
 20
145.981162
 30
0.0
 10
133.319787
 20
146.450000
 30
0.0
 10
134.500000
 20
146.450000
 30
0.0
  0
SPLINE
  5
33c
100
AcDbEntity
  8
Calque_1
 62
1
100
AcDbSpline
 70
8
 71
3
 72
8
 73
4
 74
0
 40
0
 40
0
 40
0
 40
0
 40
1
 40
1
 40
1
 40
1
 10
134.500000
 20
146.450000
 30
0.0
 10
135.680213
 20
146.450000
 30
0.0
 10
136.812088
 20
145.981162
 30
0.0
 10
137.646625
 20
145.146625
 30
0.0
  0
SPLINE
  5
33d
100
AcDbEntity
  8
Calque_1
 62
1
100
AcDbSpline
 70
8
 71
3
 72
8
 73
4
 74
0
 40
0
 40
0
 40
0
 40
0
 40
1
 40
1
 40
1
 40
1
 10
137.646625
 20
145.146625
 30
0.0
 10
138.481162
 20
144.312088
 30
0.0
 10
138.950000
 20
143.180213
 30
0.0
 10
138.950000
 20
142.000000
 30
0.0
  0
LWPOLYLINE
  5
33e
100
AcDbEntity
  8
Calque_1
 62
1
100
AcDbPolyline
 90
1
 70
1
 10
173.950000
 20
142.000000
 30
0.0
  0
LWPOLYLINE
  5
33f
100
AcDbEntity
  8
Calque_1
 62
1
100
AcDbPolyline
 90
1
 70
1
 10
138.950000
 20
142.000000
 30
0.0
  0
ENDSEC
  0
SECTION
  2
OBJECTS
  0
DICTIONARY
  5
C
330
0
100
AcDbDictionary
  3
ACAD_GROUP
350
D
  3
ACAD_MLINESTYLE
350
17
  0
DICTIONARY
  5
D
330
C
100
AcDbDictionary
  0
DICTIONARY
  5
1A
330
C
100
AcDbDictionary
  0
DICTIONARY
  5
17
330
C
100
AcDbDictionary
  3
STANDARD
350
18
  0
DICTIONARY
  5
19
330
C
100
AcDbDictionary
  0
ENDSEC
  0
EOF
