  0
SECTION
  2
HEADER
  9
$ACADVER
  1
AC1014
  9
$HANDSEED
  5
FFFF
  9
$MEASUREMENT
 70
     1
  0
ENDSEC
  0
SECTION
  2
TABLES
  0
TABLE
  2
VPORT
  5
8
330
0
100
AcDbSymbolTable
 70
     4
  0
VPORT
  5
2E
330
8
100
AcDbSymbolTableRecord
100
AcDbViewportTableRecord
  2
*ACTIVE
 70
     0
 10
0.0
 20
0.0
 11
1.0
 21
1.0
 12
210.0
 22
148.5
 13
0.0
 23
0.0
 14
10.0
 24
10.0
 15
10.0
 25
10.0
 16
0.0
 26
0.0
 36
1.0
 17
0.0
 27
0.0
 37
0.0
 40
341.0
 41
1.24
 42
50.0
 43
0.0
 44
0.0
 50
0.0
 51
0.0
 71
     0
 72
   100
 73
     1
 74
     3
 75
     0
 76
     0
 77
     0
 78
     0
  0
ENDTAB
  0
TABLE
  2
LTYPE
  5
5
330
0
100
AcDbSymbolTable
 70
     1
  0
LTYPE
  5
14
330
5
100
AcDbSymbolTableRecord
100
AcDbLinetypeTableRecord
  2
BYBLOCK
 70
     0
  3

 72
    65
 73
     0
 40
0.0
  0
LTYPE
  5
15
330
5
100
AcDbSymbolTableRecord
100
AcDbLinetypeTableRecord
  2
BYLAYER
 70
     0
  3

 72
    65
 73
     0
 40
0.0
  0
LTYPE
  5
16
330
5
100
AcDbSymbolTableRecord
100
AcDbLinetypeTableRecord
  2
CONTINUOUS
 70
     0
  3
Solid line
 72
    65
 73
     0
 40
0.0
  0
ENDTAB
  0
TABLE
  2
LAYER
  5
2
100
AcDbSymbolTable
 70
2
  0
LAYER
  5
50
100
AcDbSymbolTableRecord
100
AcDbLayerTableRecord
  2
0
 70
0
  6
CONTINUOUS
  0
LAYER
  5
51
100
AcDbSymbolTableRecord
100
AcDbLayerTableRecord
  2
Calque_1
 70
0
  6
CONTINUOUS
  0
ENDTAB
  0
TABLE
  2
STYLE
  5
3
330
0
100
AcDbSymbolTable
 70
     1
  0
STYLE
  5
11
330
3
100
AcDbSymbolTableRecord
100
AcDbTextStyleTableRecord
  2
STANDARD
 70
     0
 40
0.0
 41
1.0
 50
0.0
 71
     0
 42
2.5
  3
txt
  4

  0
ENDTAB
  0
TABLE
  2
VIEW
  5
6
330
0
100
AcDbSymbolTable
 70
     0
  0
ENDTAB
  0
TABLE
  2
UCS
  5
7
330
0
100
AcDbSymbolTable
 70
     0
  0
ENDTAB
  0
TABLE
  2
APPID
  5
9
330
0
100
AcDbSymbolTable
 70
     2
  0
APPID
  5
12
330
9
100
AcDbSymbolTableRecord
100
AcDbRegAppTableRecord
  2
ACAD
 70
     0
  0
ENDTAB
  0
TABLE
  2
DIMSTYLE
  5
A
330
0
100
AcDbSymbolTable
 70
     1
  0
DIMSTYLE
105
27
330
A
100
AcDbSymbolTableRecord
100
AcDbDimStyleTableRecord
  2
ISO-25
 70
     0
  3

  4

  5

  6

  7

 40
1.0
 41
2.5
 42
0.625
 43
3.75
 44
1.25
 45
0.0
 46
0.0
 47
0.0
 48
0.0
140
2.5
141
2.5
142
0.0
143
0.03937007874016
144
1.0
145
0.0
146
1.0
147
0.625
 71
     0
 72
     0
 73
     0
 74
     0
 75
     0
 76
     0
 77
     1
 78
     8
170
     0
171
     3
172
     1
173
     0
174
     0
175
     0
176
     0
177
     0
178
     0
270
     2
271
     2
272
     2
273
     2
274
     3
340
11
275
     0
280
     0
281
     0
282
     0
283
     0
284
     8
285
     0
286
     0
287
     3
288
     0
  0
ENDTAB
  0
TABLE
  2
BLOCK_RECORD
  5
1
330
0
100
AcDbSymbolTable
 70
     1
  0
BLOCK_RECORD
  5
1F
330
1
100
AcDbSymbolTableRecord
100
AcDbBlockTableRecord
  2
*MODEL_SPACE
  0
BLOCK_RECORD
  5
1B
330
1
100
AcDbSymbolTableRecord
100
AcDbBlockTableRecord
  2
*PAPER_SPACE
  0
ENDTAB
  0
ENDSEC
  0
SECTION
  2
BLOCKS
  0
BLOCK
  5
20
330
1F
100
AcDbEntity
  8
0
100
AcDbBlockBegin
  2
*MODEL_SPACE
 70
     0
 10
0.0
 20
0.0
 30
0.0
  3
*MODEL_SPACE
  1

  0
ENDBLK
  5
21
330
1F
100
AcDbEntity
  8
0
100
AcDbBlockEnd
  0
BLOCK
  5
1C
330
1B
100
AcDbEntity
 67
     1
  8
0
100
AcDbBlockBegin
  2
*PAPER_SPACE
  1

  0
ENDBLK
  5
1D
330
1B
100
AcDbEntity
 67
     1
  8
0
100
AcDbBlockEnd
  0
ENDSEC
  0
SECTION
  2
ENTITIES
  0
SPLINE
  5
100
100
AcDbEntity
  8
Calque_1
 62
1
100
AcDbSpline
 70
8
 71
3
 72
8
 73
4
 74
0
 40
0
 40
0
 40
0
 40
0
 40
1
 40
1
 40
1
 40
1
 10
328.763060
 20
96.700000
 30
0.0
 10
328.763060
 20
94.788629
 30
0.0
 10
327.743356
 20
93.022450
 30
0.0
 10
326.088060
 20
92.066764
 30
0.0
  0
SPLINE
  5
101
100
AcDbEntity
  8
Calque_1
 62
1
100
AcDbSpline
 70
8
 71
3
 72
8
 73
4
 74
0
 40
0
 40
0
 40
0
 40
0
 40
1
 40
1
 40
1
 40
1
 10
326.088060
 20
92.066764
 30
0.0
 10
324.432764
 20
91.111079
 30
0.0
 10
322.393356
 20
91.111079
 30
0.0
 10
320.738060
 20
92.066764
 30
0.0
  0
SPLINE
  5
102
100
AcDbEntity
  8
Calque_1
 62
1
100
AcDbSpline
 70
8
 71
3
 72
8
 73
4
 74
0
 40
0
 40
0
 40
0
 40
0
 40
1
 40
1
 40
1
 40
1
 10
320.738060
 20
92.066764
 30
0.0
 10
319.082764
 20
93.022450
 30
0.0
 10
318.063060
 20
94.788629
 30
0.0
 10
318.063060
 20
96.700000
 30
0.0
  0
SPLINE
  5
103
100
AcDbEntity
  8
Calque_1
 62
1
100
AcDbSpline
 70
8
 71
3
 72
8
 73
4
 74
0
 40
0
 40
0
 40
0
 40
0
 40
1
 40
1
 40
1
 40
1
 10
318.063060
 20
96.700000
 30
0.0
 10
318.063060
 20
98.611371
 30
0.0
 10
319.082764
 20
100.377550
 30
0.0
 10
320.738060
 20
101.333236
 30
0.0
  0
SPLINE
  5
104
100
AcDbEntity
  8
Calque_1
 62
1
100
AcDbSpline
 70
8
 71
3
 72
8
 73
4
 74
0
 40
0
 40
0
 40
0
 40
0
 40
1
 40
1
 40
1
 40
1
 10
320.738060
 20
101.333236
 30
0.0
 10
322.393356
 20
102.288921
 30
0.0
 10
324.432764
 20
102.288921
 30
0.0
 10
326.088060
 20
101.333236
 30
0.0
  0
SPLINE
  5
105
100
AcDbEntity
  8
Calque_1
 62
1
100
AcDbSpline
 70
8
 71
3
 72
8
 73
4
 74
0
 40
0
 40
0
 40
0
 40
0
 40
1
 40
1
 40
1
 40
1
 10
326.088060
 20
101.333236
 30
0.0
 10
327.743356
 20
100.377550
 30
0.0
 10
328.763060
 20
98.611371
 30
0.0
 10
328.763060
 20
96.700000
 30
0.0
  0
SPLINE
  5
106
100
AcDbEntity
  8
Calque_1
 62
1
100
AcDbSpline
 70
8
 71
3
 72
8
 73
4
 74
0
 40
0
 40
0
 40
0
 40
0
 40
1
 40
1
 40
1
 40
1
 10
346.806510
 20
117.300000
 30
0.0
 10
346.806510
 20
115.388629
 30
0.0
 10
345.786806
 20
113.622450
 30
0.0
 10
344.131510
 20
112.666764
 30
0.0
  0
SPLINE
  5
107
100
AcDbEntity
  8
Calque_1
 62
1
100
AcDbSpline
 70
8
 71
3
 72
8
 73
4
 74
0
 40
0
 40
0
 40
0
 40
0
 40
1
 40
1
 40
1
 40
1
 10
344.131510
 20
112.666764
 30
0.0
 10
342.476214
 20
111.711079
 30
0.0
 10
340.436806
 20
111.711079
 30
0.0
 10
338.781510
 20
112.666764
 30
0.0
  0
SPLINE
  5
108
100
AcDbEntity
  8
Calque_1
 62
1
100
AcDbSpline
 70
8
 71
3
 72
8
 73
4
 74
0
 40
0
 40
0
 40
0
 40
0
 40
1
 40
1
 40
1
 40
1
 10
338.781510
 20
112.666764
 30
0.0
 10
337.126214
 20
113.622450
 30
0.0
 10
336.106510
 20
115.388629
 30
0.0
 10
336.106510
 20
117.300000
 30
0.0
  0
SPLINE
  5
109
100
AcDbEntity
  8
Calque_1
 62
1
100
AcDbSpline
 70
8
 71
3
 72
8
 73
4
 74
0
 40
0
 40
0
 40
0
 40
0
 40
1
 40
1
 40
1
 40
1
 10
336.106510
 20
117.300000
 30
0.0
 10
336.106510
 20
119.211371
 30
0.0
 10
337.126214
 20
120.977550
 30
0.0
 10
338.781510
 20
121.933236
 30
0.0
  0
SPLINE
  5
10a
100
AcDbEntity
  8
Calque_1
 62
1
100
AcDbSpline
 70
8
 71
3
 72
8
 73
4
 74
0
 40
0
 40
0
 40
0
 40
0
 40
1
 40
1
 40
1
 40
1
 10
338.781510
 20
121.933236
 30
0.0
 10
340.436806
 20
122.888921
 30
0.0
 10
342.476214
 20
122.888921
 30
0.0
 10
344.131510
 20
121.933236
 30
0.0
  0
SPLINE
  5
10b
100
AcDbEntity
  8
Calque_1
 62
1
100
AcDbSpline
 70
8
 71
3
 72
8
 73
4
 74
0
 40
0
 40
0
 40
0
 40
0
 40
1
 40
1
 40
1
 40
1
 10
344.131510
 20
121.933236
 30
0.0
 10
345.786806
 20
120.977550
 30
0.0
 10
346.806510
 20
119.211371
 30
0.0
 10
346.806510
 20
117.300000
 30
0.0
  0
LWPOLYLINE
  5
10c
100
AcDbEntity
  8
Calque_1
 62
1
100
AcDbPolyline
 90
1
 70
1
 10
328.763060
 20
96.700000
 30
0.0
  0
SPLINE
  5
10d
100
AcDbEntity
  8
Calque_1
 62
1
100
AcDbSpline
 70
8
 71
3
 72
8
 73
4
 74
0
 40
0
 40
0
 40
0
 40
0
 40
1
 40
1
 40
1
 40
1
 10
346.806510
 20
96.700000
 30
0.0
 10
346.806510
 20
94.788629
 30
0.0
 10
345.786806
 20
93.022450
 30
0.0
 10
344.131510
 20
92.066764
 30
0.0
  0
SPLINE
  5
10e
100
AcDbEntity
  8
Calque_1
 62
1
100
AcDbSpline
 70
8
 71
3
 72
8
 73
4
 74
0
 40
0
 40
0
 40
0
 40
0
 40
1
 40
1
 40
1
 40
1
 10
344.131510
 20
92.066764
 30
0.0
 10
342.476214
 20
91.111079
 30
0.0
 10
340.436806
 20
91.111079
 30
0.0
 10
338.781510
 20
92.066764
 30
0.0
  0
SPLINE
  5
10f
100
AcDbEntity
  8
Calque_1
 62
1
100
AcDbSpline
 70
8
 71
3
 72
8
 73
4
 74
0
 40
0
 40
0
 40
0
 40
0
 40
1
 40
1
 40
1
 40
1
 10
338.781510
 20
92.066764
 30
0.0
 10
337.126214
 20
93.022450
 30
0.0
 10
336.106510
 20
94.788629
 30
0.0
 10
336.106510
 20
96.700000
 30
0.0
  0
SPLINE
  5
110
100
AcDbEntity
  8
Calque_1
 62
1
100
AcDbSpline
 70
8
 71
3
 72
8
 73
4
 74
0
 40
0
 40
0
 40
0
 40
0
 40
1
 40
1
 40
1
 40
1
 10
336.106510
 20
96.700000
 30
0.0
 10
336.106510
 20
98.611371
 30
0.0
 10
337.126214
 20
100.377550
 30
0.0
 10
338.781510
 20
101.333236
 30
0.0
  0
SPLINE
  5
111
100
AcDbEntity
  8
Calque_1
 62
1
100
AcDbSpline
 70
8
 71
3
 72
8
 73
4
 74
0
 40
0
 40
0
 40
0
 40
0
 40
1
 40
1
 40
1
 40
1
 10
338.781510
 20
101.333236
 30
0.0
 10
340.436806
 20
102.288921
 30
0.0
 10
342.476214
 20
102.288921
 30
0.0
 10
344.131510
 20
101.333236
 30
0.0
  0
SPLINE
  5
112
100
AcDbEntity
  8
Calque_1
 62
1
100
AcDbSpline
 70
8
 71
3
 72
8
 73
4
 74
0
 40
0
 40
0
 40
0
 40
0
 40
1
 40
1
 40
1
 40
1
 10
344.131510
 20
101.333236
 30
0.0
 10
345.786806
 20
100.377550
 30
0.0
 10
346.806510
 20
98.611371
 30
0.0
 10
346.806510
 20
96.700000
 30
0.0
  0
LWPOLYLINE
  5
113
100
AcDbEntity
  8
Calque_1
 62
1
100
AcDbPolyline
 90
1
 70
1
 10
346.806510
 20
117.300000
 30
0.0
  0
SPLINE
  5
114
100
AcDbEntity
  8
Calque_1
 62
1
100
AcDbSpline
 70
8
 71
3
 72
8
 73
4
 74
0
 40
0
 40
0
 40
0
 40
0
 40
1
 40
1
 40
1
 40
1
 10
364.850000
 20
117.300000
 30
0.0
 10
364.850000
 20
115.388629
 30
0.0
 10
363.830296
 20
113.622450
 30
0.0
 10
362.175000
 20
112.666764
 30
0.0
  0
SPLINE
  5
115
100
AcDbEntity
  8
Calque_1
 62
1
100
AcDbSpline
 70
8
 71
3
 72
8
 73
4
 74
0
 40
0
 40
0
 40
0
 40
0
 40
1
 40
1
 40
1
 40
1
 10
362.175000
 20
112.666764
 30
0.0
 10
360.519704
 20
111.711079
 30
0.0
 10
358.480296
 20
111.711079
 30
0.0
 10
356.825000
 20
112.666764
 30
0.0
  0
SPLINE
  5
116
100
AcDbEntity
  8
Calque_1
 62
1
100
AcDbSpline
 70
8
 71
3
 72
8
 73
4
 74
0
 40
0
 40
0
 40
0
 40
0
 40
1
 40
1
 40
1
 40
1
 10
356.825000
 20
112.666764
 30
0.0
 10
355.169704
 20
113.622450
 30
0.0
 10
354.150000
 20
115.388629
 30
0.0
 10
354.150000
 20
117.300000
 30
0.0
  0
SPLINE
  5
117
100
AcDbEntity
  8
Calque_1
 62
1
100
AcDbSpline
 70
8
 71
3
 72
8
 73
4
 74
0
 40
0
 40
0
 40
0
 40
0
 40
1
 40
1
 40
1
 40
1
 10
354.150000
 20
117.300000
 30
0.0
 10
354.150000
 20
119.211371
 30
0.0
 10
355.169704
 20
120.977550
 30
0.0
 10
356.825000
 20
121.933236
 30
0.0
  0
SPLINE
  5
118
100
AcDbEntity
  8
Calque_1
 62
1
100
AcDbSpline
 70
8
 71
3
 72
8
 73
4
 74
0
 40
0
 40
0
 40
0
 40
0
 40
1
 40
1
 40
1
 40
1
 10
356.825000
 20
121.933236
 30
0.0
 10
358.480296
 20
122.888921
 30
0.0
 10
360.519704
 20
122.888921
 30
0.0
 10
362.175000
 20
121.933236
 30
0.0
  0
SPLINE
  5
119
100
AcDbEntity
  8
Calque_1
 62
1
100
AcDbSpline
 70
8
 71
3
 72
8
 73
4
 74
0
 40
0
 40
0
 40
0
 40
0
 40
1
 40
1
 40
1
 40
1
 10
362.175000
 20
121.933236
 30
0.0
 10
363.830296
 20
120.977550
 30
0.0
 10
364.850000
 20
119.211371
 30
0.0
 10
364.850000
 20
117.300000
 30
0.0
  0
LWPOLYLINE
  5
11a
100
AcDbEntity
  8
Calque_1
 62
1
100
AcDbPolyline
 90
1
 70
1
 10
346.806510
 20
96.700000
 30
0.0
  0
SPLINE
  5
11b
100
AcDbEntity
  8
Calque_1
 62
1
100
AcDbSpline
 70
8
 71
3
 72
8
 73
4
 74
0
 40
0
 40
0
 40
0
 40
0
 40
1
 40
1
 40
1
 40
1
 10
292.676080
 20
96.700000
 30
0.0
 10
292.676080
 20
94.788629
 30
0.0
 10
291.656376
 20
93.022450
 30
0.0
 10
290.001080
 20
92.066764
 30
0.0
  0
SPLINE
  5
11c
100
AcDbEntity
  8
Calque_1
 62
1
100
AcDbSpline
 70
8
 71
3
 72
8
 73
4
 74
0
 40
0
 40
0
 40
0
 40
0
 40
1
 40
1
 40
1
 40
1
 10
290.001080
 20
92.066764
 30
0.0
 10
288.345784
 20
91.111079
 30
0.0
 10
286.306376
 20
91.111079
 30
0.0
 10
284.651080
 20
92.066764
 30
0.0
  0
SPLINE
  5
11d
100
AcDbEntity
  8
Calque_1
 62
1
100
AcDbSpline
 70
8
 71
3
 72
8
 73
4
 74
0
 40
0
 40
0
 40
0
 40
0
 40
1
 40
1
 40
1
 40
1
 10
284.651080
 20
92.066764
 30
0.0
 10
282.995784
 20
93.022450
 30
0.0
 10
281.976080
 20
94.788629
 30
0.0
 10
281.976080
 20
96.700000
 30
0.0
  0
SPLINE
  5
11e
100
AcDbEntity
  8
Calque_1
 62
1
100
AcDbSpline
 70
8
 71
3
 72
8
 73
4
 74
0
 40
0
 40
0
 40
0
 40
0
 40
1
 40
1
 40
1
 40
1
 10
281.976080
 20
96.700000
 30
0.0
 10
281.976080
 20
98.611371
 30
0.0
 10
282.995784
 20
100.377550
 30
0.0
 10
284.651080
 20
101.333236
 30
0.0
  0
SPLINE
  5
11f
100
AcDbEntity
  8
Calque_1
 62
1
100
AcDbSpline
 70
8
 71
3
 72
8
 73
4
 74
0
 40
0
 40
0
 40
0
 40
0
 40
1
 40
1
 40
1
 40
1
 10
284.651080
 20
101.333236
 30
0.0
 10
286.306376
 20
102.288921
 30
0.0
 10
288.345784
 20
102.288921
 30
0.0
 10
290.001080
 20
101.333236
 30
0.0
  0
SPLINE
  5
120
100
AcDbEntity
  8
Calque_1
 62
1
100
AcDbSpline
 70
8
 71
3
 72
8
 73
4
 74
0
 40
0
 40
0
 40
0
 40
0
 40
1
 40
1
 40
1
 40
1
 10
290.001080
 20
101.333236
 30
0.0
 10
291.656376
 20
100.377550
 30
0.0
 10
292.676080
 20
98.611371
 30
0.0
 10
292.676080
 20
96.700000
 30
0.0
  0
LWPOLYLINE
  5
121
100
AcDbEntity
  8
Calque_1
 62
1
100
AcDbPolyline
 90
1
 70
1
 10
364.850000
 20
117.300000
 30
0.0
  0
SPLINE
  5
122
100
AcDbEntity
  8
Calque_1
 62
1
100
AcDbSpline
 70
8
 71
3
 72
8
 73
4
 74
0
 40
0
 40
0
 40
0
 40
0
 40
1
 40
1
 40
1
 40
1
 10
310.719570
 20
117.300000
 30
0.0
 10
310.719570
 20
115.388629
 30
0.0
 10
309.699866
 20
113.622450
 30
0.0
 10
308.044570
 20
112.666764
 30
0.0
  0
SPLINE
  5
123
100
AcDbEntity
  8
Calque_1
 62
1
100
AcDbSpline
 70
8
 71
3
 72
8
 73
4
 74
0
 40
0
 40
0
 40
0
 40
0
 40
1
 40
1
 40
1
 40
1
 10
308.044570
 20
112.666764
 30
0.0
 10
306.389274
 20
111.711079
 30
0.0
 10
304.349866
 20
111.711079
 30
0.0
 10
302.694570
 20
112.666764
 30
0.0
  0
SPLINE
  5
124
100
AcDbEntity
  8
Calque_1
 62
1
100
AcDbSpline
 70
8
 71
3
 72
8
 73
4
 74
0
 40
0
 40
0
 40
0
 40
0
 40
1
 40
1
 40
1
 40
1
 10
302.694570
 20
112.666764
 30
0.0
 10
301.039274
 20
113.622450
 30
0.0
 10
300.019570
 20
115.388629
 30
0.0
 10
300.019570
 20
117.300000
 30
0.0
  0
SPLINE
  5
125
100
AcDbEntity
  8
Calque_1
 62
1
100
AcDbSpline
 70
8
 71
3
 72
8
 73
4
 74
0
 40
0
 40
0
 40
0
 40
0
 40
1
 40
1
 40
1
 40
1
 10
300.019570
 20
117.300000
 30
0.0
 10
300.019570
 20
119.211371
 30
0.0
 10
301.039274
 20
120.977550
 30
0.0
 10
302.694570
 20
121.933236
 30
0.0
  0
SPLINE
  5
126
100
AcDbEntity
  8
Calque_1
 62
1
100
AcDbSpline
 70
8
 71
3
 72
8
 73
4
 74
0
 40
0
 40
0
 40
0
 40
0
 40
1
 40
1
 40
1
 40
1
 10
302.694570
 20
121.933236
 30
0.0
 10
304.349866
 20
122.888921
 30
0.0
 10
306.389274
 20
122.888921
 30
0.0
 10
308.044570
 20
121.933236
 30
0.0
  0
SPLINE
  5
127
100
AcDbEntity
  8
Calque_1
 62
1
100
AcDbSpline
 70
8
 71
3
 72
8
 73
4
 74
0
 40
0
 40
0
 40
0
 40
0
 40
1
 40
1
 40
1
 40
1
 10
308.044570
 20
121.933236
 30
0.0
 10
309.699866
 20
120.977550
 30
0.0
 10
310.719570
 20
119.211371
 30
0.0
 10
310.719570
 20
117.300000
 30
0.0
  0
LWPOLYLINE
  5
128
100
AcDbEntity
  8
Calque_1
 62
1
100
AcDbPolyline
 90
1
 70
1
 10
292.676080
 20
96.700000
 30
0.0
  0
SPLINE
  5
129
100
AcDbEntity
  8
Calque_1
 62
1
100
AcDbSpline
 70
8
 71
3
 72
8
 73
4
 74
0
 40
0
 40
0
 40
0
 40
0
 40
1
 40
1
 40
1
 40
1
 10
310.719570
 20
96.700000
 30
0.0
 10
310.719570
 20
94.788629
 30
0.0
 10
309.699866
 20
93.022450
 30
0.0
 10
308.044570
 20
92.066764
 30
0.0
  0
SPLINE
  5
12a
100
AcDbEntity
  8
Calque_1
 62
1
100
AcDbSpline
 70
8
 71
3
 72
8
 73
4
 74
0
 40
0
 40
0
 40
0
 40
0
 40
1
 40
1
 40
1
 40
1
 10
308.044570
 20
92.066764
 30
0.0
 10
306.389274
 20
91.111079
 30
0.0
 10
304.349866
 20
91.111079
 30
0.0
 10
302.694570
 20
92.066764
 30
0.0
  0
SPLINE
  5
12b
100
AcDbEntity
  8
Calque_1
 62
1
100
AcDbSpline
 70
8
 71
3
 72
8
 73
4
 74
0
 40
0
 40
0
 40
0
 40
0
 40
1
 40
1
 40
1
 40
1
 10
302.694570
 20
92.066764
 30
0.0
 10
301.039274
 20
93.022450
 30
0.0
 10
300.019570
 20
94.788629
 30
0.0
 10
300.019570
 20
96.700000
 30
0.0
  0
SPLINE
  5
12c
100
AcDbEntity
  8
Calque_1
 62
1
100
AcDbSpline
 70
8
 71
3
 72
8
 73
4
 74
0
 40
0
 40
0
 40
0
 40
0
 40
1
 40
1
 40
1
 40
1
 10
300.019570
 20
96.700000
 30
0.0
 10
300.019570
 20
98.611371
 30
0.0
 10
301.039274
 20
100.377550
 30
0.0
 10
302.694570
 20
101.333236
 30
0.0
  0
SPLINE
  5
12d
100
AcDbEntity
  8
Calque_1
 62
1
100
AcDbSpline
 70
8
 71
3
 72
8
 73
4
 74
0
 40
0
 40
0
 40
0
 40
0
 40
1
 40
1
 40
1
 40
1
 10
302.694570
 20
101.333236
 30
0.0
 10
304.349866
 20
102.288921
 30
0.0
 10
306.389274
 20
102.288921
 30
0.0
 10
308.044570
 20
101.333236
 30
0.0
  0
SPLINE
  5
12e
100
AcDbEntity
  8
Calque_1
 62
1
100
AcDbSpline
 70
8
 71
3
 72
8
 73
4
 74
0
 40
0
 40
0
 40
0
 40
0
 40
1
 40
1
 40
1
 40
1
 10
308.044570
 20
101.333236
 30
0.0
 10
309.699866
 20
100.377550
 30
0.0
 10
310.719570
 20
98.611371
 30
0.0
 10
310.719570
 20
96.700000
 30
0.0
  0
LWPOLYLINE
  5
12f
100
AcDbEntity
  8
Calque_1
 62
1
100
AcDbPolyline
 90
1
 70
1
 10
310.719570
 20
117.300000
 30
0.0
  0
SPLINE
  5
130
100
AcDbEntity
  8
Calque_1
 62
1
100
AcDbSpline
 70
8
 71
3
 72
8
 73
4
 74
0
 40
0
 40
0
 40
0
 40
0
 40
1
 40
1
 40
1
 40
1
 10
328.763060
 20
117.300000
 30
0.0
 10
328.763060
 20
115.388629
 30
0.0
 10
327.743356
 20
113.622450
 30
0.0
 10
326.088060
 20
112.666764
 30
0.0
  0
SPLINE
  5
131
100
AcDbEntity
  8
Calque_1
 62
1
100
AcDbSpline
 70
8
 71
3
 72
8
 73
4
 74
0
 40
0
 40
0
 40
0
 40
0
 40
1
 40
1
 40
1
 40
1
 10
326.088060
 20
112.666764
 30
0.0
 10
324.432764
 20
111.711079
 30
0.0
 10
322.393356
 20
111.711079
 30
0.0
 10
320.738060
 20
112.666764
 30
0.0
  0
SPLINE
  5
132
100
AcDbEntity
  8
Calque_1
 62
1
100
AcDbSpline
 70
8
 71
3
 72
8
 73
4
 74
0
 40
0
 40
0
 40
0
 40
0
 40
1
 40
1
 40
1
 40
1
 10
320.738060
 20
112.666764
 30
0.0
 10
319.082764
 20
113.622450
 30
0.0
 10
318.063060
 20
115.388629
 30
0.0
 10
318.063060
 20
117.300000
 30
0.0
  0
SPLINE
  5
133
100
AcDbEntity
  8
Calque_1
 62
1
100
AcDbSpline
 70
8
 71
3
 72
8
 73
4
 74
0
 40
0
 40
0
 40
0
 40
0
 40
1
 40
1
 40
1
 40
1
 10
318.063060
 20
117.300000
 30
0.0
 10
318.063060
 20
119.211371
 30
0.0
 10
319.082764
 20
120.977550
 30
0.0
 10
320.738060
 20
121.933236
 30
0.0
  0
SPLINE
  5
134
100
AcDbEntity
  8
Calque_1
 62
1
100
AcDbSpline
 70
8
 71
3
 72
8
 73
4
 74
0
 40
0
 40
0
 40
0
 40
0
 40
1
 40
1
 40
1
 40
1
 10
320.738060
 20
121.933236
 30
0.0
 10
322.393356
 20
122.888921
 30
0.0
 10
324.432764
 20
122.888921
 30
0.0
 10
326.088060
 20
121.933236
 30
0.0
  0
SPLINE
  5
135
100
AcDbEntity
  8
Calque_1
 62
1
100
AcDbSpline
 70
8
 71
3
 72
8
 73
4
 74
0
 40
0
 40
0
 40
0
 40
0
 40
1
 40
1
 40
1
 40
1
 10
326.088060
 20
121.933236
 30
0.0
 10
327.743356
 20
120.977550
 30
0.0
 10
328.763060
 20
119.211371
 30
0.0
 10
328.763060
 20
117.300000
 30
0.0
  0
LWPOLYLINE
  5
136
100
AcDbEntity
  8
Calque_1
 62
1
100
AcDbPolyline
 90
1
 70
1
 10
310.719570
 20
96.700000
 30
0.0
  0
SPLINE
  5
137
100
AcDbEntity
  8
Calque_1
 62
1
100
AcDbSpline
 70
8
 71
3
 72
8
 73
4
 74
0
 40
0
 40
0
 40
0
 40
0
 40
1
 40
1
 40
1
 40
1
 10
364.850000
 20
96.700000
 30
0.0
 10
364.850000
 20
94.788629
 30
0.0
 10
363.830296
 20
93.022450
 30
0.0
 10
362.175000
 20
92.066764
 30
0.0
  0
SPLINE
  5
138
100
AcDbEntity
  8
Calque_1
 62
1
100
AcDbSpline
 70
8
 71
3
 72
8
 73
4
 74
0
 40
0
 40
0
 40
0
 40
0
 40
1
 40
1
 40
1
 40
1
 10
362.175000
 20
92.066764
 30
0.0
 10
360.519704
 20
91.111079
 30
0.0
 10
358.480296
 20
91.111079
 30
0.0
 10
356.825000
 20
92.066764
 30
0.0
  0
SPLINE
  5
139
100
AcDbEntity
  8
Calque_1
 62
1
100
AcDbSpline
 70
8
 71
3
 72
8
 73
4
 74
0
 40
0
 40
0
 40
0
 40
0
 40
1
 40
1
 40
1
 40
1
 10
356.825000
 20
92.066764
 30
0.0
 10
355.169704
 20
93.022450
 30
0.0
 10
354.150000
 20
94.788629
 30
0.0
 10
354.150000
 20
96.700000
 30
0.0
  0
SPLINE
  5
13a
100
AcDbEntity
  8
Calque_1
 62
1
100
AcDbSpline
 70
8
 71
3
 72
8
 73
4
 74
0
 40
0
 40
0
 40
0
 40
0
 40
1
 40
1
 40
1
 40
1
 10
354.150000
 20
96.700000
 30
0.0
 10
354.150000
 20
98.611371
 30
0.0
 10
355.169704
 20
100.377550
 30
0.0
 10
356.825000
 20
101.333236
 30
0.0
  0
SPLINE
  5
13b
100
AcDbEntity
  8
Calque_1
 62
1
100
AcDbSpline
 70
8
 71
3
 72
8
 73
4
 74
0
 40
0
 40
0
 40
0
 40
0
 40
1
 40
1
 40
1
 40
1
 10
356.825000
 20
101.333236
 30
0.0
 10
358.480296
 20
102.288921
 30
0.0
 10
360.519704
 20
102.288921
 30
0.0
 10
362.175000
 20
101.333236
 30
0.0
  0
SPLINE
  5
13c
100
AcDbEntity
  8
Calque_1
 62
1
100
AcDbSpline
 70
8
 71
3
 72
8
 73
4
 74
0
 40
0
 40
0
 40
0
 40
0
 40
1
 40
1
 40
1
 40
1
 10
362.175000
 20
101.333236
 30
0.0
 10
363.830296
 20
100.377550
 30
0.0
 10
364.850000
 20
98.611371
 30
0.0
 10
364.850000
 20
96.700000
 30
0.0
  0
LWPOLYLINE
  5
13d
100
AcDbEntity
  8
Calque_1
 62
1
100
AcDbPolyline
 90
1
 70
1
 10
328.763060
 20
117.300000
 30
0.0
  0
SPLINE
  5
13e
100
AcDbEntity
  8
Calque_1
 62
1
100
AcDbSpline
 70
8
 71
3
 72
8
 73
4
 74
0
 40
0
 40
0
 40
0
 40
0
 40
1
 40
1
 40
1
 40
1
 10
166.371740
 20
96.700000
 30
0.0
 10
166.371740
 20
94.788629
 30
0.0
 10
165.352036
 20
93.022450
 30
0.0
 10
163.696740
 20
92.066764
 30
0.0
  0
SPLINE
  5
13f
100
AcDbEntity
  8
Calque_1
 62
1
100
AcDbSpline
 70
8
 71
3
 72
8
 73
4
 74
0
 40
0
 40
0
 40
0
 40
0
 40
1
 40
1
 40
1
 40
1
 10
163.696740
 20
92.066764
 30
0.0
 10
162.041444
 20
91.111079
 30
0.0
 10
160.002036
 20
91.111079
 30
0.0
 10
158.346740
 20
92.066764
 30
0.0
  0
SPLINE
  5
140
100
AcDbEntity
  8
Calque_1
 62
1
100
AcDbSpline
 70
8
 71
3
 72
8
 73
4
 74
0
 40
0
 40
0
 40
0
 40
0
 40
1
 40
1
 40
1
 40
1
 10
158.346740
 20
92.066764
 30
0.0
 10
156.691444
 20
93.022450
 30
0.0
 10
155.671740
 20
94.788629
 30
0.0
 10
155.671740
 20
96.700000
 30
0.0
  0
SPLINE
  5
141
100
AcDbEntity
  8
Calque_1
 62
1
100
AcDbSpline
 70
8
 71
3
 72
8
 73
4
 74
0
 40
0
 40
0
 40
0
 40
0
 40
1
 40
1
 40
1
 40
1
 10
155.671740
 20
96.700000
 30
0.0
 10
155.671740
 20
98.611371
 30
0.0
 10
156.691444
 20
100.377550
 30
0.0
 10
158.346740
 20
101.333236
 30
0.0
  0
SPLINE
  5
142
100
AcDbEntity
  8
Calque_1
 62
1
100
AcDbSpline
 70
8
 71
3
 72
8
 73
4
 74
0
 40
0
 40
0
 40
0
 40
0
 40
1
 40
1
 40
1
 40
1
 10
158.346740
 20
101.333236
 30
0.0
 10
160.002036
 20
102.288921
 30
0.0
 10
162.041444
 20
102.288921
 30
0.0
 10
163.696740
 20
101.333236
 30
0.0
  0
SPLINE
  5
143
100
AcDbEntity
  8
Calque_1
 62
1
100
AcDbSpline
 70
8
 71
3
 72
8
 73
4
 74
0
 40
0
 40
0
 40
0
 40
0
 40
1
 40
1
 40
1
 40
1
 10
163.696740
 20
101.333236
 30
0.0
 10
165.352036
 20
100.377550
 30
0.0
 10
166.371740
 20
98.611371
 30
0.0
 10
166.371740
 20
96.700000
 30
0.0
  0
LWPOLYLINE
  5
144
100
AcDbEntity
  8
Calque_1
 62
1
100
AcDbPolyline
 90
1
 70
1
 10
364.850000
 20
96.700000
 30
0.0
  0
SPLINE
  5
145
100
AcDbEntity
  8
Calque_1
 62
1
100
AcDbSpline
 70
8
 71
3
 72
8
 73
4
 74
0
 40
0
 40
0
 40
0
 40
0
 40
1
 40
1
 40
1
 40
1
 10
184.415220
 20
117.300000
 30
0.0
 10
184.415220
 20
115.388629
 30
0.0
 10
183.395516
 20
113.622450
 30
0.0
 10
181.740220
 20
112.666764
 30
0.0
  0
SPLINE
  5
146
100
AcDbEntity
  8
Calque_1
 62
1
100
AcDbSpline
 70
8
 71
3
 72
8
 73
4
 74
0
 40
0
 40
0
 40
0
 40
0
 40
1
 40
1
 40
1
 40
1
 10
181.740220
 20
112.666764
 30
0.0
 10
180.084924
 20
111.711079
 30
0.0
 10
178.045516
 20
111.711079
 30
0.0
 10
176.390220
 20
112.666764
 30
0.0
  0
SPLINE
  5
147
100
AcDbEntity
  8
Calque_1
 62
1
100
AcDbSpline
 70
8
 71
3
 72
8
 73
4
 74
0
 40
0
 40
0
 40
0
 40
0
 40
1
 40
1
 40
1
 40
1
 10
176.390220
 20
112.666764
 30
0.0
 10
174.734924
 20
113.622450
 30
0.0
 10
173.715220
 20
115.388629
 30
0.0
 10
173.715220
 20
117.300000
 30
0.0
  0
SPLINE
  5
148
100
AcDbEntity
  8
Calque_1
 62
1
100
AcDbSpline
 70
8
 71
3
 72
8
 73
4
 74
0
 40
0
 40
0
 40
0
 40
0
 40
1
 40
1
 40
1
 40
1
 10
173.715220
 20
117.300000
 30
0.0
 10
173.715220
 20
119.211371
 30
0.0
 10
174.734924
 20
120.977550
 30
0.0
 10
176.390220
 20
121.933236
 30
0.0
  0
SPLINE
  5
149
100
AcDbEntity
  8
Calque_1
 62
1
100
AcDbSpline
 70
8
 71
3
 72
8
 73
4
 74
0
 40
0
 40
0
 40
0
 40
0
 40
1
 40
1
 40
1
 40
1
 10
176.390220
 20
121.933236
 30
0.0
 10
178.045516
 20
122.888921
 30
0.0
 10
180.084924
 20
122.888921
 30
0.0
 10
181.740220
 20
121.933236
 30
0.0
  0
SPLINE
  5
14a
100
AcDbEntity
  8
Calque_1
 62
1
100
AcDbSpline
 70
8
 71
3
 72
8
 73
4
 74
0
 40
0
 40
0
 40
0
 40
0
 40
1
 40
1
 40
1
 40
1
 10
181.740220
 20
121.933236
 30
0.0
 10
183.395516
 20
120.977550
 30
0.0
 10
184.415220
 20
119.211371
 30
0.0
 10
184.415220
 20
117.300000
 30
0.0
  0
LWPOLYLINE
  5
14b
100
AcDbEntity
  8
Calque_1
 62
1
100
AcDbPolyline
 90
1
 70
1
 10
166.371740
 20
96.700000
 30
0.0
  0
SPLINE
  5
14c
100
AcDbEntity
  8
Calque_1
 62
1
100
AcDbSpline
 70
8
 71
3
 72
8
 73
4
 74
0
 40
0
 40
0
 40
0
 40
0
 40
1
 40
1
 40
1
 40
1
 10
148.328260
 20
96.700000
 30
0.0
 10
148.328260
 20
94.788629
 30
0.0
 10
147.308556
 20
93.022450
 30
0.0
 10
145.653260
 20
92.066764
 30
0.0
  0
SPLINE
  5
14d
100
AcDbEntity
  8
Calque_1
 62
1
100
AcDbSpline
 70
8
 71
3
 72
8
 73
4
 74
0
 40
0
 40
0
 40
0
 40
0
 40
1
 40
1
 40
1
 40
1
 10
145.653260
 20
92.066764
 30
0.0
 10
143.997964
 20
91.111079
 30
0.0
 10
141.958556
 20
91.111079
 30
0.0
 10
140.303260
 20
92.066764
 30
0.0
  0
SPLINE
  5
14e
100
AcDbEntity
  8
Calque_1
 62
1
100
AcDbSpline
 70
8
 71
3
 72
8
 73
4
 74
0
 40
0
 40
0
 40
0
 40
0
 40
1
 40
1
 40
1
 40
1
 10
140.303260
 20
92.066764
 30
0.0
 10
138.647964
 20
93.022450
 30
0.0
 10
137.628260
 20
94.788629
 30
0.0
 10
137.628260
 20
96.700000
 30
0.0
  0
SPLINE
  5
14f
100
AcDbEntity
  8
Calque_1
 62
1
100
AcDbSpline
 70
8
 71
3
 72
8
 73
4
 74
0
 40
0
 40
0
 40
0
 40
0
 40
1
 40
1
 40
1
 40
1
 10
137.628260
 20
96.700000
 30
0.0
 10
137.628260
 20
98.611371
 30
0.0
 10
138.647964
 20
100.377550
 30
0.0
 10
140.303260
 20
101.333236
 30
0.0
  0
SPLINE
  5
150
100
AcDbEntity
  8
Calque_1
 62
1
100
AcDbSpline
 70
8
 71
3
 72
8
 73
4
 74
0
 40
0
 40
0
 40
0
 40
0
 40
1
 40
1
 40
1
 40
1
 10
140.303260
 20
101.333236
 30
0.0
 10
141.958556
 20
102.288921
 30
0.0
 10
143.997964
 20
102.288921
 30
0.0
 10
145.653260
 20
101.333236
 30
0.0
  0
SPLINE
  5
151
100
AcDbEntity
  8
Calque_1
 62
1
100
AcDbSpline
 70
8
 71
3
 72
8
 73
4
 74
0
 40
0
 40
0
 40
0
 40
0
 40
1
 40
1
 40
1
 40
1
 10
145.653260
 20
101.333236
 30
0.0
 10
147.308556
 20
100.377550
 30
0.0
 10
148.328260
 20
98.611371
 30
0.0
 10
148.328260
 20
96.700000
 30
0.0
  0
LWPOLYLINE
  5
152
100
AcDbEntity
  8
Calque_1
 62
1
100
AcDbPolyline
 90
1
 70
1
 10
184.415220
 20
117.300000
 30
0.0
  0
SPLINE
  5
153
100
AcDbEntity
  8
Calque_1
 62
1
100
AcDbSpline
 70
8
 71
3
 72
8
 73
4
 74
0
 40
0
 40
0
 40
0
 40
0
 40
1
 40
1
 40
1
 40
1
 10
166.371740
 20
117.300000
 30
0.0
 10
166.371740
 20
115.388629
 30
0.0
 10
165.352036
 20
113.622450
 30
0.0
 10
163.696740
 20
112.666764
 30
0.0
  0
SPLINE
  5
154
100
AcDbEntity
  8
Calque_1
 62
1
100
AcDbSpline
 70
8
 71
3
 72
8
 73
4
 74
0
 40
0
 40
0
 40
0
 40
0
 40
1
 40
1
 40
1
 40
1
 10
163.696740
 20
112.666764
 30
0.0
 10
162.041444
 20
111.711079
 30
0.0
 10
160.002036
 20
111.711079
 30
0.0
 10
158.346740
 20
112.666764
 30
0.0
  0
SPLINE
  5
155
100
AcDbEntity
  8
Calque_1
 62
1
100
AcDbSpline
 70
8
 71
3
 72
8
 73
4
 74
0
 40
0
 40
0
 40
0
 40
0
 40
1
 40
1
 40
1
 40
1
 10
158.346740
 20
112.666764
 30
0.0
 10
156.691444
 20
113.622450
 30
0.0
 10
155.671740
 20
115.388629
 30
0.0
 10
155.671740
 20
117.300000
 30
0.0
  0
SPLINE
  5
156
100
AcDbEntity
  8
Calque_1
 62
1
100
AcDbSpline
 70
8
 71
3
 72
8
 73
4
 74
0
 40
0
 40
0
 40
0
 40
0
 40
1
 40
1
 40
1
 40
1
 10
155.671740
 20
117.300000
 30
0.0
 10
155.671740
 20
119.211371
 30
0.0
 10
156.691444
 20
120.977550
 30
0.0
 10
158.346740
 20
121.933236
 30
0.0
  0
SPLINE
  5
157
100
AcDbEntity
  8
Calque_1
 62
1
100
AcDbSpline
 70
8
 71
3
 72
8
 73
4
 74
0
 40
0
 40
0
 40
0
 40
0
 40
1
 40
1
 40
1
 40
1
 10
158.346740
 20
121.933236
 30
0.0
 10
160.002036
 20
122.888921
 30
0.0
 10
162.041444
 20
122.888921
 30
0.0
 10
163.696740
 20
121.933236
 30
0.0
  0
SPLINE
  5
158
100
AcDbEntity
  8
Calque_1
 62
1
100
AcDbSpline
 70
8
 71
3
 72
8
 73
4
 74
0
 40
0
 40
0
 40
0
 40
0
 40
1
 40
1
 40
1
 40
1
 10
163.696740
 20
121.933236
 30
0.0
 10
165.352036
 20
120.977550
 30
0.0
 10
166.371740
 20
119.211371
 30
0.0
 10
166.371740
 20
117.300000
 30
0.0
  0
LWPOLYLINE
  5
159
100
AcDbEntity
  8
Calque_1
 62
1
100
AcDbPolyline
 90
1
 70
1
 10
148.328260
 20
96.700000
 30
0.0
  0
SPLINE
  5
15a
100
AcDbEntity
  8
Calque_1
 62
1
100
AcDbSpline
 70
8
 71
3
 72
8
 73
4
 74
0
 40
0
 40
0
 40
0
 40
0
 40
1
 40
1
 40
1
 40
1
 10
130.284780
 20
96.700000
 30
0.0
 10
130.284780
 20
94.788629
 30
0.0
 10
129.265076
 20
93.022450
 30
0.0
 10
127.609780
 20
92.066764
 30
0.0
  0
SPLINE
  5
15b
100
AcDbEntity
  8
Calque_1
 62
1
100
AcDbSpline
 70
8
 71
3
 72
8
 73
4
 74
0
 40
0
 40
0
 40
0
 40
0
 40
1
 40
1
 40
1
 40
1
 10
127.609780
 20
92.066764
 30
0.0
 10
125.954484
 20
91.111079
 30
0.0
 10
123.915076
 20
91.111079
 30
0.0
 10
122.259780
 20
92.066764
 30
0.0
  0
SPLINE
  5
15c
100
AcDbEntity
  8
Calque_1
 62
1
100
AcDbSpline
 70
8
 71
3
 72
8
 73
4
 74
0
 40
0
 40
0
 40
0
 40
0
 40
1
 40
1
 40
1
 40
1
 10
122.259780
 20
92.066764
 30
0.0
 10
120.604484
 20
93.022450
 30
0.0
 10
119.584780
 20
94.788629
 30
0.0
 10
119.584780
 20
96.700000
 30
0.0
  0
SPLINE
  5
15d
100
AcDbEntity
  8
Calque_1
 62
1
100
AcDbSpline
 70
8
 71
3
 72
8
 73
4
 74
0
 40
0
 40
0
 40
0
 40
0
 40
1
 40
1
 40
1
 40
1
 10
119.584780
 20
96.700000
 30
0.0
 10
119.584780
 20
98.611371
 30
0.0
 10
120.604484
 20
100.377550
 30
0.0
 10
122.259780
 20
101.333236
 30
0.0
  0
SPLINE
  5
15e
100
AcDbEntity
  8
Calque_1
 62
1
100
AcDbSpline
 70
8
 71
3
 72
8
 73
4
 74
0
 40
0
 40
0
 40
0
 40
0
 40
1
 40
1
 40
1
 40
1
 10
122.259780
 20
101.333236
 30
0.0
 10
123.915076
 20
102.288921
 30
0.0
 10
125.954484
 20
102.288921
 30
0.0
 10
127.609780
 20
101.333236
 30
0.0
  0
SPLINE
  5
15f
100
AcDbEntity
  8
Calque_1
 62
1
100
AcDbSpline
 70
8
 71
3
 72
8
 73
4
 74
0
 40
0
 40
0
 40
0
 40
0
 40
1
 40
1
 40
1
 40
1
 10
127.609780
 20
101.333236
 30
0.0
 10
129.265076
 20
100.377550
 30
0.0
 10
130.284780
 20
98.611371
 30
0.0
 10
130.284780
 20
96.700000
 30
0.0
  0
LWPOLYLINE
  5
160
100
AcDbEntity
  8
Calque_1
 62
1
100
AcDbPolyline
 90
1
 70
1
 10
166.371740
 20
117.300000
 30
0.0
  0
SPLINE
  5
161
100
AcDbEntity
  8
Calque_1
 62
1
100
AcDbSpline
 70
8
 71
3
 72
8
 73
4
 74
0
 40
0
 40
0
 40
0
 40
0
 40
1
 40
1
 40
1
 40
1
 10
148.328260
 20
117.300000
 30
0.0
 10
148.328260
 20
115.388629
 30
0.0
 10
147.308556
 20
113.622450
 30
0.0
 10
145.653260
 20
112.666764
 30
0.0
  0
SPLINE
  5
162
100
AcDbEntity
  8
Calque_1
 62
1
100
AcDbSpline
 70
8
 71
3
 72
8
 73
4
 74
0
 40
0
 40
0
 40
0
 40
0
 40
1
 40
1
 40
1
 40
1
 10
145.653260
 20
112.666764
 30
0.0
 10
143.997964
 20
111.711079
 30
0.0
 10
141.958556
 20
111.711079
 30
0.0
 10
140.303260
 20
112.666764
 30
0.0
  0
SPLINE
  5
163
100
AcDbEntity
  8
Calque_1
 62
1
100
AcDbSpline
 70
8
 71
3
 72
8
 73
4
 74
0
 40
0
 40
0
 40
0
 40
0
 40
1
 40
1
 40
1
 40
1
 10
140.303260
 20
112.666764
 30
0.0
 10
138.647964
 20
113.622450
 30
0.0
 10
137.628260
 20
115.388629
 30
0.0
 10
137.628260
 20
117.300000
 30
0.0
  0
SPLINE
  5
164
100
AcDbEntity
  8
Calque_1
 62
1
100
AcDbSpline
 70
8
 71
3
 72
8
 73
4
 74
0
 40
0
 40
0
 40
0
 40
0
 40
1
 40
1
 40
1
 40
1
 10
137.628260
 20
117.300000
 30
0.0
 10
137.628260
 20
119.211371
 30
0.0
 10
138.647964
 20
120.977550
 30
0.0
 10
140.303260
 20
121.933236
 30
0.0
  0
SPLINE
  5
165
100
AcDbEntity
  8
Calque_1
 62
1
100
AcDbSpline
 70
8
 71
3
 72
8
 73
4
 74
0
 40
0
 40
0
 40
0
 40
0
 40
1
 40
1
 40
1
 40
1
 10
140.303260
 20
121.933236
 30
0.0
 10
141.958556
 20
122.888921
 30
0.0
 10
143.997964
 20
122.888921
 30
0.0
 10
145.653260
 20
121.933236
 30
0.0
  0
SPLINE
  5
166
100
AcDbEntity
  8
Calque_1
 62
1
100
AcDbSpline
 70
8
 71
3
 72
8
 73
4
 74
0
 40
0
 40
0
 40
0
 40
0
 40
1
 40
1
 40
1
 40
1
 10
145.653260
 20
121.933236
 30
0.0
 10
147.308556
 20
120.977550
 30
0.0
 10
148.328260
 20
119.211371
 30
0.0
 10
148.328260
 20
117.300000
 30
0.0
  0
LWPOLYLINE
  5
167
100
AcDbEntity
  8
Calque_1
 62
1
100
AcDbPolyline
 90
1
 70
1
 10
130.284780
 20
96.700000
 30
0.0
  0
SPLINE
  5
168
100
AcDbEntity
  8
Calque_1
 62
1
100
AcDbSpline
 70
8
 71
3
 72
8
 73
4
 74
0
 40
0
 40
0
 40
0
 40
0
 40
1
 40
1
 40
1
 40
1
 10
112.241300
 20
96.700000
 30
0.0
 10
112.241300
 20
94.788629
 30
0.0
 10
111.221596
 20
93.022450
 30
0.0
 10
109.566300
 20
92.066764
 30
0.0
  0
SPLINE
  5
169
100
AcDbEntity
  8
Calque_1
 62
1
100
AcDbSpline
 70
8
 71
3
 72
8
 73
4
 74
0
 40
0
 40
0
 40
0
 40
0
 40
1
 40
1
 40
1
 40
1
 10
109.566300
 20
92.066764
 30
0.0
 10
107.911004
 20
91.111079
 30
0.0
 10
105.871596
 20
91.111079
 30
0.0
 10
104.216300
 20
92.066764
 30
0.0
  0
SPLINE
  5
16a
100
AcDbEntity
  8
Calque_1
 62
1
100
AcDbSpline
 70
8
 71
3
 72
8
 73
4
 74
0
 40
0
 40
0
 40
0
 40
0
 40
1
 40
1
 40
1
 40
1
 10
104.216300
 20
92.066764
 30
0.0
 10
102.561004
 20
93.022450
 30
0.0
 10
101.541300
 20
94.788629
 30
0.0
 10
101.541300
 20
96.700000
 30
0.0
  0
SPLINE
  5
16b
100
AcDbEntity
  8
Calque_1
 62
1
100
AcDbSpline
 70
8
 71
3
 72
8
 73
4
 74
0
 40
0
 40
0
 40
0
 40
0
 40
1
 40
1
 40
1
 40
1
 10
101.541300
 20
96.700000
 30
0.0
 10
101.541300
 20
98.611371
 30
0.0
 10
102.561004
 20
100.377550
 30
0.0
 10
104.216300
 20
101.333236
 30
0.0
  0
SPLINE
  5
16c
100
AcDbEntity
  8
Calque_1
 62
1
100
AcDbSpline
 70
8
 71
3
 72
8
 73
4
 74
0
 40
0
 40
0
 40
0
 40
0
 40
1
 40
1
 40
1
 40
1
 10
104.216300
 20
101.333236
 30
0.0
 10
105.871596
 20
102.288921
 30
0.0
 10
107.911004
 20
102.288921
 30
0.0
 10
109.566300
 20
101.333236
 30
0.0
  0
SPLINE
  5
16d
100
AcDbEntity
  8
Calque_1
 62
1
100
AcDbSpline
 70
8
 71
3
 72
8
 73
4
 74
0
 40
0
 40
0
 40
0
 40
0
 40
1
 40
1
 40
1
 40
1
 10
109.566300
 20
101.333236
 30
0.0
 10
111.221596
 20
100.377550
 30
0.0
 10
112.241300
 20
98.611371
 30
0.0
 10
112.241300
 20
96.700000
 30
0.0
  0
LWPOLYLINE
  5
16e
100
AcDbEntity
  8
Calque_1
 62
1
100
AcDbPolyline
 90
1
 70
1
 10
148.328260
 20
117.300000
 30
0.0
  0
SPLINE
  5
16f
100
AcDbEntity
  8
Calque_1
 62
1
100
AcDbSpline
 70
8
 71
3
 72
8
 73
4
 74
0
 40
0
 40
0
 40
0
 40
0
 40
1
 40
1
 40
1
 40
1
 10
130.284780
 20
117.300000
 30
0.0
 10
130.284780
 20
115.388629
 30
0.0
 10
129.265076
 20
113.622450
 30
0.0
 10
127.609780
 20
112.666764
 30
0.0
  0
SPLINE
  5
170
100
AcDbEntity
  8
Calque_1
 62
1
100
AcDbSpline
 70
8
 71
3
 72
8
 73
4
 74
0
 40
0
 40
0
 40
0
 40
0
 40
1
 40
1
 40
1
 40
1
 10
127.609780
 20
112.666764
 30
0.0
 10
125.954484
 20
111.711079
 30
0.0
 10
123.915076
 20
111.711079
 30
0.0
 10
122.259780
 20
112.666764
 30
0.0
  0
SPLINE
  5
171
100
AcDbEntity
  8
Calque_1
 62
1
100
AcDbSpline
 70
8
 71
3
 72
8
 73
4
 74
0
 40
0
 40
0
 40
0
 40
0
 40
1
 40
1
 40
1
 40
1
 10
122.259780
 20
112.666764
 30
0.0
 10
120.604484
 20
113.622450
 30
0.0
 10
119.584780
 20
115.388629
 30
0.0
 10
119.584780
 20
117.300000
 30
0.0
  0
SPLINE
  5
172
100
AcDbEntity
  8
Calque_1
 62
1
100
AcDbSpline
 70
8
 71
3
 72
8
 73
4
 74
0
 40
0
 40
0
 40
0
 40
0
 40
1
 40
1
 40
1
 40
1
 10
119.584780
 20
117.300000
 30
0.0
 10
119.584780
 20
119.211371
 30
0.0
 10
120.604484
 20
120.977550
 30
0.0
 10
122.259780
 20
121.933236
 30
0.0
  0
SPLINE
  5
173
100
AcDbEntity
  8
Calque_1
 62
1
100
AcDbSpline
 70
8
 71
3
 72
8
 73
4
 74
0
 40
0
 40
0
 40
0
 40
0
 40
1
 40
1
 40
1
 40
1
 10
122.259780
 20
121.933236
 30
0.0
 10
123.915076
 20
122.888921
 30
0.0
 10
125.954484
 20
122.888921
 30
0.0
 10
127.609780
 20
121.933236
 30
0.0
  0
SPLINE
  5
174
100
AcDbEntity
  8
Calque_1
 62
1
100
AcDbSpline
 70
8
 71
3
 72
8
 73
4
 74
0
 40
0
 40
0
 40
0
 40
0
 40
1
 40
1
 40
1
 40
1
 10
127.609780
 20
121.933236
 30
0.0
 10
129.265076
 20
120.977550
 30
0.0
 10
130.284780
 20
119.211371
 30
0.0
 10
130.284780
 20
117.300000
 30
0.0
  0
LWPOLYLINE
  5
175
100
AcDbEntity
  8
Calque_1
 62
1
100
AcDbPolyline
 90
1
 70
1
 10
112.241300
 20
96.700000
 30
0.0
  0
SPLINE
  5
176
100
AcDbEntity
  8
Calque_1
 62
1
100
AcDbSpline
 70
8
 71
3
 72
8
 73
4
 74
0
 40
0
 40
0
 40
0
 40
0
 40
1
 40
1
 40
1
 40
1
 10
184.415220
 20
96.700000
 30
0.0
 10
184.415220
 20
94.788629
 30
0.0
 10
183.395516
 20
93.022450
 30
0.0
 10
181.740220
 20
92.066764
 30
0.0
  0
SPLINE
  5
177
100
AcDbEntity
  8
Calque_1
 62
1
100
AcDbSpline
 70
8
 71
3
 72
8
 73
4
 74
0
 40
0
 40
0
 40
0
 40
0
 40
1
 40
1
 40
1
 40
1
 10
181.740220
 20
92.066764
 30
0.0
 10
180.084924
 20
91.111079
 30
0.0
 10
178.045516
 20
91.111079
 30
0.0
 10
176.390220
 20
92.066764
 30
0.0
  0
SPLINE
  5
178
100
AcDbEntity
  8
Calque_1
 62
1
100
AcDbSpline
 70
8
 71
3
 72
8
 73
4
 74
0
 40
0
 40
0
 40
0
 40
0
 40
1
 40
1
 40
1
 40
1
 10
176.390220
 20
92.066764
 30
0.0
 10
174.734924
 20
93.022450
 30
0.0
 10
173.715220
 20
94.788629
 30
0.0
 10
173.715220
 20
96.700000
 30
0.0
  0
SPLINE
  5
179
100
AcDbEntity
  8
Calque_1
 62
1
100
AcDbSpline
 70
8
 71
3
 72
8
 73
4
 74
0
 40
0
 40
0
 40
0
 40
0
 40
1
 40
1
 40
1
 40
1
 10
173.715220
 20
96.700000
 30
0.0
 10
173.715220
 20
98.611371
 30
0.0
 10
174.734924
 20
100.377550
 30
0.0
 10
176.390220
 20
101.333236
 30
0.0
  0
SPLINE
  5
17a
100
AcDbEntity
  8
Calque_1
 62
1
100
AcDbSpline
 70
8
 71
3
 72
8
 73
4
 74
0
 40
0
 40
0
 40
0
 40
0
 40
1
 40
1
 40
1
 40
1
 10
176.390220
 20
101.333236
 30
0.0
 10
178.045516
 20
102.288921
 30
0.0
 10
180.084924
 20
102.288921
 30
0.0
 10
181.740220
 20
101.333236
 30
0.0
  0
SPLINE
  5
17b
100
AcDbEntity
  8
Calque_1
 62
1
100
AcDbSpline
 70
8
 71
3
 72
8
 73
4
 74
0
 40
0
 40
0
 40
0
 40
0
 40
1
 40
1
 40
1
 40
1
 10
181.740220
 20
101.333236
 30
0.0
 10
183.395516
 20
100.377550
 30
0.0
 10
184.415220
 20
98.611371
 30
0.0
 10
184.415220
 20
96.700000
 30
0.0
  0
LWPOLYLINE
  5
17c
100
AcDbEntity
  8
Calque_1
 62
1
100
AcDbPolyline
 90
1
 70
1
 10
130.284780
 20
117.300000
 30
0.0
  0
SPLINE
  5
17d
100
AcDbEntity
  8
Calque_1
 62
1
100
AcDbSpline
 70
8
 71
3
 72
8
 73
4
 74
0
 40
0
 40
0
 40
0
 40
0
 40
1
 40
1
 40
1
 40
1
 10
202.458690
 20
117.300000
 30
0.0
 10
202.458690
 20
115.388629
 30
0.0
 10
201.438986
 20
113.622450
 30
0.0
 10
199.783690
 20
112.666764
 30
0.0
  0
SPLINE
  5
17e
100
AcDbEntity
  8
Calque_1
 62
1
100
AcDbSpline
 70
8
 71
3
 72
8
 73
4
 74
0
 40
0
 40
0
 40
0
 40
0
 40
1
 40
1
 40
1
 40
1
 10
199.783690
 20
112.666764
 30
0.0
 10
198.128394
 20
111.711079
 30
0.0
 10
196.088986
 20
111.711079
 30
0.0
 10
194.433690
 20
112.666764
 30
0.0
  0
SPLINE
  5
17f
100
AcDbEntity
  8
Calque_1
 62
1
100
AcDbSpline
 70
8
 71
3
 72
8
 73
4
 74
0
 40
0
 40
0
 40
0
 40
0
 40
1
 40
1
 40
1
 40
1
 10
194.433690
 20
112.666764
 30
0.0
 10
192.778394
 20
113.622450
 30
0.0
 10
191.758690
 20
115.388629
 30
0.0
 10
191.758690
 20
117.300000
 30
0.0
  0
SPLINE
  5
180
100
AcDbEntity
  8
Calque_1
 62
1
100
AcDbSpline
 70
8
 71
3
 72
8
 73
4
 74
0
 40
0
 40
0
 40
0
 40
0
 40
1
 40
1
 40
1
 40
1
 10
191.758690
 20
117.300000
 30
0.0
 10
191.758690
 20
119.211371
 30
0.0
 10
192.778394
 20
120.977550
 30
0.0
 10
194.433690
 20
121.933236
 30
0.0
  0
SPLINE
  5
181
100
AcDbEntity
  8
Calque_1
 62
1
100
AcDbSpline
 70
8
 71
3
 72
8
 73
4
 74
0
 40
0
 40
0
 40
0
 40
0
 40
1
 40
1
 40
1
 40
1
 10
194.433690
 20
121.933236
 30
0.0
 10
196.088986
 20
122.888921
 30
0.0
 10
198.128394
 20
122.888921
 30
0.0
 10
199.783690
 20
121.933236
 30
0.0
  0
SPLINE
  5
182
100
AcDbEntity
  8
Calque_1
 62
1
100
AcDbSpline
 70
8
 71
3
 72
8
 73
4
 74
0
 40
0
 40
0
 40
0
 40
0
 40
1
 40
1
 40
1
 40
1
 10
199.783690
 20
121.933236
 30
0.0
 10
201.438986
 20
120.977550
 30
0.0
 10
202.458690
 20
119.211371
 30
0.0
 10
202.458690
 20
117.300000
 30
0.0
  0
LWPOLYLINE
  5
183
100
AcDbEntity
  8
Calque_1
 62
1
100
AcDbPolyline
 90
1
 70
1
 10
184.415220
 20
96.700000
 30
0.0
  0
SPLINE
  5
184
100
AcDbEntity
  8
Calque_1
 62
1
100
AcDbSpline
 70
8
 71
3
 72
8
 73
4
 74
0
 40
0
 40
0
 40
0
 40
0
 40
1
 40
1
 40
1
 40
1
 10
256.589140
 20
117.300000
 30
0.0
 10
256.589140
 20
115.388629
 30
0.0
 10
255.569436
 20
113.622450
 30
0.0
 10
253.914140
 20
112.666764
 30
0.0
  0
SPLINE
  5
185
100
AcDbEntity
  8
Calque_1
 62
1
100
AcDbSpline
 70
8
 71
3
 72
8
 73
4
 74
0
 40
0
 40
0
 40
0
 40
0
 40
1
 40
1
 40
1
 40
1
 10
253.914140
 20
112.666764
 30
0.0
 10
252.258844
 20
111.711079
 30
0.0
 10
250.219436
 20
111.711079
 30
0.0
 10
248.564140
 20
112.666764
 30
0.0
  0
SPLINE
  5
186
100
AcDbEntity
  8
Calque_1
 62
1
100
AcDbSpline
 70
8
 71
3
 72
8
 73
4
 74
0
 40
0
 40
0
 40
0
 40
0
 40
1
 40
1
 40
1
 40
1
 10
248.564140
 20
112.666764
 30
0.0
 10
246.908844
 20
113.622450
 30
0.0
 10
245.889140
 20
115.388629
 30
0.0
 10
245.889140
 20
117.300000
 30
0.0
  0
SPLINE
  5
187
100
AcDbEntity
  8
Calque_1
 62
1
100
AcDbSpline
 70
8
 71
3
 72
8
 73
4
 74
0
 40
0
 40
0
 40
0
 40
0
 40
1
 40
1
 40
1
 40
1
 10
245.889140
 20
117.300000
 30
0.0
 10
245.889140
 20
119.211371
 30
0.0
 10
246.908844
 20
120.977550
 30
0.0
 10
248.564140
 20
121.933236
 30
0.0
  0
SPLINE
  5
188
100
AcDbEntity
  8
Calque_1
 62
1
100
AcDbSpline
 70
8
 71
3
 72
8
 73
4
 74
0
 40
0
 40
0
 40
0
 40
0
 40
1
 40
1
 40
1
 40
1
 10
248.564140
 20
121.933236
 30
0.0
 10
250.219436
 20
122.888921
 30
0.0
 10
252.258844
 20
122.888921
 30
0.0
 10
253.914140
 20
121.933236
 30
0.0
  0
SPLINE
  5
189
100
AcDbEntity
  8
Calque_1
 62
1
100
AcDbSpline
 70
8
 71
3
 72
8
 73
4
 74
0
 40
0
 40
0
 40
0
 40
0
 40
1
 40
1
 40
1
 40
1
 10
253.914140
 20
121.933236
 30
0.0
 10
255.569436
 20
120.977550
 30
0.0
 10
256.589140
 20
119.211371
 30
0.0
 10
256.589140
 20
117.300000
 30
0.0
  0
LWPOLYLINE
  5
18a
100
AcDbEntity
  8
Calque_1
 62
1
100
AcDbPolyline
 90
1
 70
1
 10
202.458690
 20
117.300000
 30
0.0
  0
SPLINE
  5
18b
100
AcDbEntity
  8
Calque_1
 62
1
100
AcDbSpline
 70
8
 71
3
 72
8
 73
4
 74
0
 40
0
 40
0
 40
0
 40
0
 40
1
 40
1
 40
1
 40
1
 10
238.545650
 20
96.700000
 30
0.0
 10
238.545650
 20
94.788629
 30
0.0
 10
237.525946
 20
93.022450
 30
0.0
 10
235.870650
 20
92.066764
 30
0.0
  0
SPLINE
  5
18c
100
AcDbEntity
  8
Calque_1
 62
1
100
AcDbSpline
 70
8
 71
3
 72
8
 73
4
 74
0
 40
0
 40
0
 40
0
 40
0
 40
1
 40
1
 40
1
 40
1
 10
235.870650
 20
92.066764
 30
0.0
 10
234.215354
 20
91.111079
 30
0.0
 10
232.175946
 20
91.111079
 30
0.0
 10
230.520650
 20
92.066764
 30
0.0
  0
SPLINE
  5
18d
100
AcDbEntity
  8
Calque_1
 62
1
100
AcDbSpline
 70
8
 71
3
 72
8
 73
4
 74
0
 40
0
 40
0
 40
0
 40
0
 40
1
 40
1
 40
1
 40
1
 10
230.520650
 20
92.066764
 30
0.0
 10
228.865354
 20
93.022450
 30
0.0
 10
227.845650
 20
94.788629
 30
0.0
 10
227.845650
 20
96.700000
 30
0.0
  0
SPLINE
  5
18e
100
AcDbEntity
  8
Calque_1
 62
1
100
AcDbSpline
 70
8
 71
3
 72
8
 73
4
 74
0
 40
0
 40
0
 40
0
 40
0
 40
1
 40
1
 40
1
 40
1
 10
227.845650
 20
96.700000
 30
0.0
 10
227.845650
 20
98.611371
 30
0.0
 10
228.865354
 20
100.377550
 30
0.0
 10
230.520650
 20
101.333236
 30
0.0
  0
SPLINE
  5
18f
100
AcDbEntity
  8
Calque_1
 62
1
100
AcDbSpline
 70
8
 71
3
 72
8
 73
4
 74
0
 40
0
 40
0
 40
0
 40
0
 40
1
 40
1
 40
1
 40
1
 10
230.520650
 20
101.333236
 30
0.0
 10
232.175946
 20
102.288921
 30
0.0
 10
234.215354
 20
102.288921
 30
0.0
 10
235.870650
 20
101.333236
 30
0.0
  0
SPLINE
  5
190
100
AcDbEntity
  8
Calque_1
 62
1
100
AcDbSpline
 70
8
 71
3
 72
8
 73
4
 74
0
 40
0
 40
0
 40
0
 40
0
 40
1
 40
1
 40
1
 40
1
 10
235.870650
 20
101.333236
 30
0.0
 10
237.525946
 20
100.377550
 30
0.0
 10
238.545650
 20
98.611371
 30
0.0
 10
238.545650
 20
96.700000
 30
0.0
  0
LWPOLYLINE
  5
191
100
AcDbEntity
  8
Calque_1
 62
1
100
AcDbPolyline
 90
1
 70
1
 10
256.589140
 20
117.300000
 30
0.0
  0
SPLINE
  5
192
100
AcDbEntity
  8
Calque_1
 62
1
100
AcDbSpline
 70
8
 71
3
 72
8
 73
4
 74
0
 40
0
 40
0
 40
0
 40
0
 40
1
 40
1
 40
1
 40
1
 10
274.632620
 20
117.300000
 30
0.0
 10
274.632620
 20
115.388629
 30
0.0
 10
273.612916
 20
113.622450
 30
0.0
 10
271.957620
 20
112.666764
 30
0.0
  0
SPLINE
  5
193
100
AcDbEntity
  8
Calque_1
 62
1
100
AcDbSpline
 70
8
 71
3
 72
8
 73
4
 74
0
 40
0
 40
0
 40
0
 40
0
 40
1
 40
1
 40
1
 40
1
 10
271.957620
 20
112.666764
 30
0.0
 10
270.302324
 20
111.711079
 30
0.0
 10
268.262916
 20
111.711079
 30
0.0
 10
266.607620
 20
112.666764
 30
0.0
  0
SPLINE
  5
194
100
AcDbEntity
  8
Calque_1
 62
1
100
AcDbSpline
 70
8
 71
3
 72
8
 73
4
 74
0
 40
0
 40
0
 40
0
 40
0
 40
1
 40
1
 40
1
 40
1
 10
266.607620
 20
112.666764
 30
0.0
 10
264.952324
 20
113.622450
 30
0.0
 10
263.932620
 20
115.388629
 30
0.0
 10
263.932620
 20
117.300000
 30
0.0
  0
SPLINE
  5
195
100
AcDbEntity
  8
Calque_1
 62
1
100
AcDbSpline
 70
8
 71
3
 72
8
 73
4
 74
0
 40
0
 40
0
 40
0
 40
0
 40
1
 40
1
 40
1
 40
1
 10
263.932620
 20
117.300000
 30
0.0
 10
263.932620
 20
119.211371
 30
0.0
 10
264.952324
 20
120.977550
 30
0.0
 10
266.607620
 20
121.933236
 30
0.0
  0
SPLINE
  5
196
100
AcDbEntity
  8
Calque_1
 62
1
100
AcDbSpline
 70
8
 71
3
 72
8
 73
4
 74
0
 40
0
 40
0
 40
0
 40
0
 40
1
 40
1
 40
1
 40
1
 10
266.607620
 20
121.933236
 30
0.0
 10
268.262916
 20
122.888921
 30
0.0
 10
270.302324
 20
122.888921
 30
0.0
 10
271.957620
 20
121.933236
 30
0.0
  0
SPLINE
  5
197
100
AcDbEntity
  8
Calque_1
 62
1
100
AcDbSpline
 70
8
 71
3
 72
8
 73
4
 74
0
 40
0
 40
0
 40
0
 40
0
 40
1
 40
1
 40
1
 40
1
 10
271.957620
 20
121.933236
 30
0.0
 10
273.612916
 20
120.977550
 30
0.0
 10
274.632620
 20
119.211371
 30
0.0
 10
274.632620
 20
117.300000
 30
0.0
  0
LWPOLYLINE
  5
198
100
AcDbEntity
  8
Calque_1
 62
1
100
AcDbPolyline
 90
1
 70
1
 10
238.545650
 20
96.700000
 30
0.0
  0
SPLINE
  5
199
100
AcDbEntity
  8
Calque_1
 62
1
100
AcDbSpline
 70
8
 71
3
 72
8
 73
4
 74
0
 40
0
 40
0
 40
0
 40
0
 40
1
 40
1
 40
1
 40
1
 10
256.589140
 20
96.700000
 30
0.0
 10
256.589140
 20
94.788629
 30
0.0
 10
255.569436
 20
93.022450
 30
0.0
 10
253.914140
 20
92.066764
 30
0.0
  0
SPLINE
  5
19a
100
AcDbEntity
  8
Calque_1
 62
1
100
AcDbSpline
 70
8
 71
3
 72
8
 73
4
 74
0
 40
0
 40
0
 40
0
 40
0
 40
1
 40
1
 40
1
 40
1
 10
253.914140
 20
92.066764
 30
0.0
 10
252.258844
 20
91.111079
 30
0.0
 10
250.219436
 20
91.111079
 30
0.0
 10
248.564140
 20
92.066764
 30
0.0
  0
SPLINE
  5
19b
100
AcDbEntity
  8
Calque_1
 62
1
100
AcDbSpline
 70
8
 71
3
 72
8
 73
4
 74
0
 40
0
 40
0
 40
0
 40
0
 40
1
 40
1
 40
1
 40
1
 10
248.564140
 20
92.066764
 30
0.0
 10
246.908844
 20
93.022450
 30
0.0
 10
245.889140
 20
94.788629
 30
0.0
 10
245.889140
 20
96.700000
 30
0.0
  0
SPLINE
  5
19c
100
AcDbEntity
  8
Calque_1
 62
1
100
AcDbSpline
 70
8
 71
3
 72
8
 73
4
 74
0
 40
0
 40
0
 40
0
 40
0
 40
1
 40
1
 40
1
 40
1
 10
245.889140
 20
96.700000
 30
0.0
 10
245.889140
 20
98.611371
 30
0.0
 10
246.908844
 20
100.377550
 30
0.0
 10
248.564140
 20
101.333236
 30
0.0
  0
SPLINE
  5
19d
100
AcDbEntity
  8
Calque_1
 62
1
100
AcDbSpline
 70
8
 71
3
 72
8
 73
4
 74
0
 40
0
 40
0
 40
0
 40
0
 40
1
 40
1
 40
1
 40
1
 10
248.564140
 20
101.333236
 30
0.0
 10
250.219436
 20
102.288921
 30
0.0
 10
252.258844
 20
102.288921
 30
0.0
 10
253.914140
 20
101.333236
 30
0.0
  0
SPLINE
  5
19e
100
AcDbEntity
  8
Calque_1
 62
1
100
AcDbSpline
 70
8
 71
3
 72
8
 73
4
 74
0
 40
0
 40
0
 40
0
 40
0
 40
1
 40
1
 40
1
 40
1
 10
253.914140
 20
101.333236
 30
0.0
 10
255.569436
 20
100.377550
 30
0.0
 10
256.589140
 20
98.611371
 30
0.0
 10
256.589140
 20
96.700000
 30
0.0
  0
LWPOLYLINE
  5
19f
100
AcDbEntity
  8
Calque_1
 62
1
100
AcDbPolyline
 90
1
 70
1
 10
274.632620
 20
117.300000
 30
0.0
  0
SPLINE
  5
1a0
100
AcDbEntity
  8
Calque_1
 62
1
100
AcDbSpline
 70
8
 71
3
 72
8
 73
4
 74
0
 40
0
 40
0
 40
0
 40
0
 40
1
 40
1
 40
1
 40
1
 10
220.502180
 20
117.300000
 30
0.0
 10
220.502180
 20
115.388629
 30
0.0
 10
219.482476
 20
113.622450
 30
0.0
 10
217.827180
 20
112.666764
 30
0.0
  0
SPLINE
  5
1a1
100
AcDbEntity
  8
Calque_1
 62
1
100
AcDbSpline
 70
8
 71
3
 72
8
 73
4
 74
0
 40
0
 40
0
 40
0
 40
0
 40
1
 40
1
 40
1
 40
1
 10
217.827180
 20
112.666764
 30
0.0
 10
216.171884
 20
111.711079
 30
0.0
 10
214.132476
 20
111.711079
 30
0.0
 10
212.477180
 20
112.666764
 30
0.0
  0
SPLINE
  5
1a2
100
AcDbEntity
  8
Calque_1
 62
1
100
AcDbSpline
 70
8
 71
3
 72
8
 73
4
 74
0
 40
0
 40
0
 40
0
 40
0
 40
1
 40
1
 40
1
 40
1
 10
212.477180
 20
112.666764
 30
0.0
 10
210.821884
 20
113.622450
 30
0.0
 10
209.802180
 20
115.388629
 30
0.0
 10
209.802180
 20
117.300000
 30
0.0
  0
SPLINE
  5
1a3
100
AcDbEntity
  8
Calque_1
 62
1
100
AcDbSpline
 70
8
 71
3
 72
8
 73
4
 74
0
 40
0
 40
0
 40
0
 40
0
 40
1
 40
1
 40
1
 40
1
 10
209.802180
 20
117.300000
 30
0.0
 10
209.802180
 20
119.211371
 30
0.0
 10
210.821884
 20
120.977550
 30
0.0
 10
212.477180
 20
121.933236
 30
0.0
  0
SPLINE
  5
1a4
100
AcDbEntity
  8
Calque_1
 62
1
100
AcDbSpline
 70
8
 71
3
 72
8
 73
4
 74
0
 40
0
 40
0
 40
0
 40
0
 40
1
 40
1
 40
1
 40
1
 10
212.477180
 20
121.933236
 30
0.0
 10
214.132476
 20
122.888921
 30
0.0
 10
216.171884
 20
122.888921
 30
0.0
 10
217.827180
 20
121.933236
 30
0.0
  0
SPLINE
  5
1a5
100
AcDbEntity
  8
Calque_1
 62
1
100
AcDbSpline
 70
8
 71
3
 72
8
 73
4
 74
0
 40
0
 40
0
 40
0
 40
0
 40
1
 40
1
 40
1
 40
1
 10
217.827180
 20
121.933236
 30
0.0
 10
219.482476
 20
120.977550
 30
0.0
 10
220.502180
 20
119.211371
 30
0.0
 10
220.502180
 20
117.300000
 30
0.0
  0
LWPOLYLINE
  5
1a6
100
AcDbEntity
  8
Calque_1
 62
1
100
AcDbPolyline
 90
1
 70
1
 10
256.589140
 20
96.700000
 30
0.0
  0
SPLINE
  5
1a7
100
AcDbEntity
  8
Calque_1
 62
1
100
AcDbSpline
 70
8
 71
3
 72
8
 73
4
 74
0
 40
0
 40
0
 40
0
 40
0
 40
1
 40
1
 40
1
 40
1
 10
202.458690
 20
96.700000
 30
0.0
 10
202.458690
 20
94.788629
 30
0.0
 10
201.438986
 20
93.022450
 30
0.0
 10
199.783690
 20
92.066764
 30
0.0
  0
SPLINE
  5
1a8
100
AcDbEntity
  8
Calque_1
 62
1
100
AcDbSpline
 70
8
 71
3
 72
8
 73
4
 74
0
 40
0
 40
0
 40
0
 40
0
 40
1
 40
1
 40
1
 40
1
 10
199.783690
 20
92.066764
 30
0.0
 10
198.128394
 20
91.111079
 30
0.0
 10
196.088986
 20
91.111079
 30
0.0
 10
194.433690
 20
92.066764
 30
0.0
  0
SPLINE
  5
1a9
100
AcDbEntity
  8
Calque_1
 62
1
100
AcDbSpline
 70
8
 71
3
 72
8
 73
4
 74
0
 40
0
 40
0
 40
0
 40
0
 40
1
 40
1
 40
1
 40
1
 10
194.433690
 20
92.066764
 30
0.0
 10
192.778394
 20
93.022450
 30
0.0
 10
191.758690
 20
94.788629
 30
0.0
 10
191.758690
 20
96.700000
 30
0.0
  0
SPLINE
  5
1aa
100
AcDbEntity
  8
Calque_1
 62
1
100
AcDbSpline
 70
8
 71
3
 72
8
 73
4
 74
0
 40
0
 40
0
 40
0
 40
0
 40
1
 40
1
 40
1
 40
1
 10
191.758690
 20
96.700000
 30
0.0
 10
191.758690
 20
98.611371
 30
0.0
 10
192.778394
 20
100.377550
 30
0.0
 10
194.433690
 20
101.333236
 30
0.0
  0
SPLINE
  5
1ab
100
AcDbEntity
  8
Calque_1
 62
1
100
AcDbSpline
 70
8
 71
3
 72
8
 73
4
 74
0
 40
0
 40
0
 40
0
 40
0
 40
1
 40
1
 40
1
 40
1
 10
194.433690
 20
101.333236
 30
0.0
 10
196.088986
 20
102.288921
 30
0.0
 10
198.128394
 20
102.288921
 30
0.0
 10
199.783690
 20
101.333236
 30
0.0
  0
SPLINE
  5
1ac
100
AcDbEntity
  8
Calque_1
 62
1
100
AcDbSpline
 70
8
 71
3
 72
8
 73
4
 74
0
 40
0
 40
0
 40
0
 40
0
 40
1
 40
1
 40
1
 40
1
 10
199.783690
 20
101.333236
 30
0.0
 10
201.438986
 20
100.377550
 30
0.0
 10
202.458690
 20
98.611371
 30
0.0
 10
202.458690
 20
96.700000
 30
0.0
  0
LWPOLYLINE
  5
1ad
100
AcDbEntity
  8
Calque_1
 62
1
100
AcDbPolyline
 90
1
 70
1
 10
220.502180
 20
117.300000
 30
0.0
  0
SPLINE
  5
1ae
100
AcDbEntity
  8
Calque_1
 62
1
100
AcDbSpline
 70
8
 71
3
 72
8
 73
4
 74
0
 40
0
 40
0
 40
0
 40
0
 40
1
 40
1
 40
1
 40
1
 10
238.545650
 20
117.300000
 30
0.0
 10
238.545650
 20
115.388629
 30
0.0
 10
237.525946
 20
113.622450
 30
0.0
 10
235.870650
 20
112.666764
 30
0.0
  0
SPLINE
  5
1af
100
AcDbEntity
  8
Calque_1
 62
1
100
AcDbSpline
 70
8
 71
3
 72
8
 73
4
 74
0
 40
0
 40
0
 40
0
 40
0
 40
1
 40
1
 40
1
 40
1
 10
235.870650
 20
112.666764
 30
0.0
 10
234.215354
 20
111.711079
 30
0.0
 10
232.175946
 20
111.711079
 30
0.0
 10
230.520650
 20
112.666764
 30
0.0
  0
SPLINE
  5
1b0
100
AcDbEntity
  8
Calque_1
 62
1
100
AcDbSpline
 70
8
 71
3
 72
8
 73
4
 74
0
 40
0
 40
0
 40
0
 40
0
 40
1
 40
1
 40
1
 40
1
 10
230.520650
 20
112.666764
 30
0.0
 10
228.865354
 20
113.622450
 30
0.0
 10
227.845650
 20
115.388629
 30
0.0
 10
227.845650
 20
117.300000
 30
0.0
  0
SPLINE
  5
1b1
100
AcDbEntity
  8
Calque_1
 62
1
100
AcDbSpline
 70
8
 71
3
 72
8
 73
4
 74
0
 40
0
 40
0
 40
0
 40
0
 40
1
 40
1
 40
1
 40
1
 10
227.845650
 20
117.300000
 30
0.0
 10
227.845650
 20
119.211371
 30
0.0
 10
228.865354
 20
120.977550
 30
0.0
 10
230.520650
 20
121.933236
 30
0.0
  0
SPLINE
  5
1b2
100
AcDbEntity
  8
Calque_1
 62
1
100
AcDbSpline
 70
8
 71
3
 72
8
 73
4
 74
0
 40
0
 40
0
 40
0
 40
0
 40
1
 40
1
 40
1
 40
1
 10
230.520650
 20
121.933236
 30
0.0
 10
232.175946
 20
122.888921
 30
0.0
 10
234.215354
 20
122.888921
 30
0.0
 10
235.870650
 20
121.933236
 30
0.0
  0
SPLINE
  5
1b3
100
AcDbEntity
  8
Calque_1
 62
1
100
AcDbSpline
 70
8
 71
3
 72
8
 73
4
 74
0
 40
0
 40
0
 40
0
 40
0
 40
1
 40
1
 40
1
 40
1
 10
235.870650
 20
121.933236
 30
0.0
 10
237.525946
 20
120.977550
 30
0.0
 10
238.545650
 20
119.211371
 30
0.0
 10
238.545650
 20
117.300000
 30
0.0
  0
LWPOLYLINE
  5
1b4
100
AcDbEntity
  8
Calque_1
 62
1
100
AcDbPolyline
 90
1
 70
1
 10
202.458690
 20
96.700000
 30
0.0
  0
SPLINE
  5
1b5
100
AcDbEntity
  8
Calque_1
 62
1
100
AcDbSpline
 70
8
 71
3
 72
8
 73
4
 74
0
 40
0
 40
0
 40
0
 40
0
 40
1
 40
1
 40
1
 40
1
 10
220.502180
 20
96.700000
 30
0.0
 10
220.502180
 20
94.788629
 30
0.0
 10
219.482476
 20
93.022450
 30
0.0
 10
217.827180
 20
92.066764
 30
0.0
  0
SPLINE
  5
1b6
100
AcDbEntity
  8
Calque_1
 62
1
100
AcDbSpline
 70
8
 71
3
 72
8
 73
4
 74
0
 40
0
 40
0
 40
0
 40
0
 40
1
 40
1
 40
1
 40
1
 10
217.827180
 20
92.066764
 30
0.0
 10
216.171884
 20
91.111079
 30
0.0
 10
214.132476
 20
91.111079
 30
0.0
 10
212.477180
 20
92.066764
 30
0.0
  0
SPLINE
  5
1b7
100
AcDbEntity
  8
Calque_1
 62
1
100
AcDbSpline
 70
8
 71
3
 72
8
 73
4
 74
0
 40
0
 40
0
 40
0
 40
0
 40
1
 40
1
 40
1
 40
1
 10
212.477180
 20
92.066764
 30
0.0
 10
210.821884
 20
93.022450
 30
0.0
 10
209.802180
 20
94.788629
 30
0.0
 10
209.802180
 20
96.700000
 30
0.0
  0
SPLINE
  5
1b8
100
AcDbEntity
  8
Calque_1
 62
1
100
AcDbSpline
 70
8
 71
3
 72
8
 73
4
 74
0
 40
0
 40
0
 40
0
 40
0
 40
1
 40
1
 40
1
 40
1
 10
209.802180
 20
96.700000
 30
0.0
 10
209.802180
 20
98.611371
 30
0.0
 10
210.821884
 20
100.377550
 30
0.0
 10
212.477180
 20
101.333236
 30
0.0
  0
SPLINE
  5
1b9
100
AcDbEntity
  8
Calque_1
 62
1
100
AcDbSpline
 70
8
 71
3
 72
8
 73
4
 74
0
 40
0
 40
0
 40
0
 40
0
 40
1
 40
1
 40
1
 40
1
 10
212.477180
 20
101.333236
 30
0.0
 10
214.132476
 20
102.288921
 30
0.0
 10
216.171884
 20
102.288921
 30
0.0
 10
217.827180
 20
101.333236
 30
0.0
  0
SPLINE
  5
1ba
100
AcDbEntity
  8
Calque_1
 62
1
100
AcDbSpline
 70
8
 71
3
 72
8
 73
4
 74
0
 40
0
 40
0
 40
0
 40
0
 40
1
 40
1
 40
1
 40
1
 10
217.827180
 20
101.333236
 30
0.0
 10
219.482476
 20
100.377550
 30
0.0
 10
220.502180
 20
98.611371
 30
0.0
 10
220.502180
 20
96.700000
 30
0.0
  0
LWPOLYLINE
  5
1bb
100
AcDbEntity
  8
Calque_1
 62
1
100
AcDbPolyline
 90
1
 70
1
 10
238.545650
 20
117.300000
 30
0.0
  0
SPLINE
  5
1bc
100
AcDbEntity
  8
Calque_1
 62
1
100
AcDbSpline
 70
8
 71
3
 72
8
 73
4
 74
0
 40
0
 40
0
 40
0
 40
0
 40
1
 40
1
 40
1
 40
1
 10
292.676080
 20
117.300000
 30
0.0
 10
292.676080
 20
115.388629
 30
0.0
 10
291.656376
 20
113.622450
 30
0.0
 10
290.001080
 20
112.666764
 30
0.0
  0
SPLINE
  5
1bd
100
AcDbEntity
  8
Calque_1
 62
1
100
AcDbSpline
 70
8
 71
3
 72
8
 73
4
 74
0
 40
0
 40
0
 40
0
 40
0
 40
1
 40
1
 40
1
 40
1
 10
290.001080
 20
112.666764
 30
0.0
 10
288.345784
 20
111.711079
 30
0.0
 10
286.306376
 20
111.711079
 30
0.0
 10
284.651080
 20
112.666764
 30
0.0
  0
SPLINE
  5
1be
100
AcDbEntity
  8
Calque_1
 62
1
100
AcDbSpline
 70
8
 71
3
 72
8
 73
4
 74
0
 40
0
 40
0
 40
0
 40
0
 40
1
 40
1
 40
1
 40
1
 10
284.651080
 20
112.666764
 30
0.0
 10
282.995784
 20
113.622450
 30
0.0
 10
281.976080
 20
115.388629
 30
0.0
 10
281.976080
 20
117.300000
 30
0.0
  0
SPLINE
  5
1bf
100
AcDbEntity
  8
Calque_1
 62
1
100
AcDbSpline
 70
8
 71
3
 72
8
 73
4
 74
0
 40
0
 40
0
 40
0
 40
0
 40
1
 40
1
 40
1
 40
1
 10
281.976080
 20
117.300000
 30
0.0
 10
281.976080
 20
119.211371
 30
0.0
 10
282.995784
 20
120.977550
 30
0.0
 10
284.651080
 20
121.933236
 30
0.0
  0
SPLINE
  5
1c0
100
AcDbEntity
  8
Calque_1
 62
1
100
AcDbSpline
 70
8
 71
3
 72
8
 73
4
 74
0
 40
0
 40
0
 40
0
 40
0
 40
1
 40
1
 40
1
 40
1
 10
284.651080
 20
121.933236
 30
0.0
 10
286.306376
 20
122.888921
 30
0.0
 10
288.345784
 20
122.888921
 30
0.0
 10
290.001080
 20
121.933236
 30
0.0
  0
SPLINE
  5
1c1
100
AcDbEntity
  8
Calque_1
 62
1
100
AcDbSpline
 70
8
 71
3
 72
8
 73
4
 74
0
 40
0
 40
0
 40
0
 40
0
 40
1
 40
1
 40
1
 40
1
 10
290.001080
 20
121.933236
 30
0.0
 10
291.656376
 20
120.977550
 30
0.0
 10
292.676080
 20
119.211371
 30
0.0
 10
292.676080
 20
117.300000
 30
0.0
  0
LWPOLYLINE
  5
1c2
100
AcDbEntity
  8
Calque_1
 62
1
100
AcDbPolyline
 90
1
 70
1
 10
220.502180
 20
96.700000
 30
0.0
  0
SPLINE
  5
1c3
100
AcDbEntity
  8
Calque_1
 62
1
100
AcDbSpline
 70
8
 71
3
 72
8
 73
4
 74
0
 40
0
 40
0
 40
0
 40
0
 40
1
 40
1
 40
1
 40
1
 10
274.632620
 20
96.700000
 30
0.0
 10
274.632620
 20
94.788629
 30
0.0
 10
273.612916
 20
93.022450
 30
0.0
 10
271.957620
 20
92.066764
 30
0.0
  0
SPLINE
  5
1c4
100
AcDbEntity
  8
Calque_1
 62
1
100
AcDbSpline
 70
8
 71
3
 72
8
 73
4
 74
0
 40
0
 40
0
 40
0
 40
0
 40
1
 40
1
 40
1
 40
1
 10
271.957620
 20
92.066764
 30
0.0
 10
270.302324
 20
91.111079
 30
0.0
 10
268.262916
 20
91.111079
 30
0.0
 10
266.607620
 20
92.066764
 30
0.0
  0
SPLINE
  5
1c5
100
AcDbEntity
  8
Calque_1
 62
1
100
AcDbSpline
 70
8
 71
3
 72
8
 73
4
 74
0
 40
0
 40
0
 40
0
 40
0
 40
1
 40
1
 40
1
 40
1
 10
266.607620
 20
92.066764
 30
0.0
 10
264.952324
 20
93.022450
 30
0.0
 10
263.932620
 20
94.788629
 30
0.0
 10
263.932620
 20
96.700000
 30
0.0
  0
SPLINE
  5
1c6
100
AcDbEntity
  8
Calque_1
 62
1
100
AcDbSpline
 70
8
 71
3
 72
8
 73
4
 74
0
 40
0
 40
0
 40
0
 40
0
 40
1
 40
1
 40
1
 40
1
 10
263.932620
 20
96.700000
 30
0.0
 10
263.932620
 20
98.611371
 30
0.0
 10
264.952324
 20
100.377550
 30
0.0
 10
266.607620
 20
101.333236
 30
0.0
  0
SPLINE
  5
1c7
100
AcDbEntity
  8
Calque_1
 62
1
100
AcDbSpline
 70
8
 71
3
 72
8
 73
4
 74
0
 40
0
 40
0
 40
0
 40
0
 40
1
 40
1
 40
1
 40
1
 10
266.607620
 20
101.333236
 30
0.0
 10
268.262916
 20
102.288921
 30
0.0
 10
270.302324
 20
102.288921
 30
0.0
 10
271.957620
 20
101.333236
 30
0.0
  0
SPLINE
  5
1c8
100
AcDbEntity
  8
Calque_1
 62
1
100
AcDbSpline
 70
8
 71
3
 72
8
 73
4
 74
0
 40
0
 40
0
 40
0
 40
0
 40
1
 40
1
 40
1
 40
1
 10
271.957620
 20
101.333236
 30
0.0
 10
273.612916
 20
100.377550
 30
0.0
 10
274.632620
 20
98.611371
 30
0.0
 10
274.632620
 20
96.700000
 30
0.0
  0
LWPOLYLINE
  5
1c9
100
AcDbEntity
  8
Calque_1
 62
1
100
AcDbPolyline
 90
1
 70
1
 10
292.676080
 20
117.300000
 30
0.0
  0
SPLINE
  5
1ca
100
AcDbEntity
  8
Calque_1
 62
1
100
AcDbSpline
 70
8
 71
3
 72
8
 73
4
 74
0
 40
0
 40
0
 40
0
 40
0
 40
1
 40
1
 40
1
 40
1
 10
3.980435
 20
117.300000
 30
0.0
 10
3.980435
 20
115.388629
 30
0.0
 10
2.960730
 20
113.622450
 30
0.0
 10
1.305435
 20
112.666764
 30
0.0
  0
SPLINE
  5
1cb
100
AcDbEntity
  8
Calque_1
 62
1
100
AcDbSpline
 70
8
 71
3
 72
8
 73
4
 74
0
 40
0
 40
0
 40
0
 40
0
 40
1
 40
1
 40
1
 40
1
 10
1.305435
 20
112.666764
 30
0.0
 10
-0.349861
 20
111.711079
 30
0.0
 10
-2.389269
 20
111.711079
 30
0.0
 10
-4.044565
 20
112.666764
 30
0.0
  0
SPLINE
  5
1cc
100
AcDbEntity
  8
Calque_1
 62
1
100
AcDbSpline
 70
8
 71
3
 72
8
 73
4
 74
0
 40
0
 40
0
 40
0
 40
0
 40
1
 40
1
 40
1
 40
1
 10
-4.044565
 20
112.666764
 30
0.0
 10
-5.699861
 20
113.622450
 30
0.0
 10
-6.719565
 20
115.388629
 30
0.0
 10
-6.719565
 20
117.300000
 30
0.0
  0
SPLINE
  5
1cd
100
AcDbEntity
  8
Calque_1
 62
1
100
AcDbSpline
 70
8
 71
3
 72
8
 73
4
 74
0
 40
0
 40
0
 40
0
 40
0
 40
1
 40
1
 40
1
 40
1
 10
-6.719565
 20
117.300000
 30
0.0
 10
-6.719565
 20
119.211371
 30
0.0
 10
-5.699861
 20
120.977550
 30
0.0
 10
-4.044565
 20
121.933236
 30
0.0
  0
SPLINE
  5
1ce
100
AcDbEntity
  8
Calque_1
 62
1
100
AcDbSpline
 70
8
 71
3
 72
8
 73
4
 74
0
 40
0
 40
0
 40
0
 40
0
 40
1
 40
1
 40
1
 40
1
 10
-4.044565
 20
121.933236
 30
0.0
 10
-2.389269
 20
122.888921
 30
0.0
 10
-0.349861
 20
122.888921
 30
0.0
 10
1.305435
 20
121.933236
 30
0.0
  0
SPLINE
  5
1cf
100
AcDbEntity
  8
Calque_1
 62
1
100
AcDbSpline
 70
8
 71
3
 72
8
 73
4
 74
0
 40
0
 40
0
 40
0
 40
0
 40
1
 40
1
 40
1
 40
1
 10
1.305435
 20
121.933236
 30
0.0
 10
2.960730
 20
120.977550
 30
0.0
 10
3.980435
 20
119.211371
 30
0.0
 10
3.980435
 20
117.300000
 30
0.0
  0
LWPOLYLINE
  5
1d0
100
AcDbEntity
  8
Calque_1
 62
1
100
AcDbPolyline
 90
1
 70
1
 10
274.632620
 20
96.700000
 30
0.0
  0
SPLINE
  5
1d1
100
AcDbEntity
  8
Calque_1
 62
1
100
AcDbSpline
 70
8
 71
3
 72
8
 73
4
 74
0
 40
0
 40
0
 40
0
 40
0
 40
1
 40
1
 40
1
 40
1
 10
-14.063044
 20
96.700000
 30
0.0
 10
-14.063044
 20
94.788629
 30
0.0
 10
-15.082748
 20
93.022450
 30
0.0
 10
-16.738044
 20
92.066764
 30
0.0
  0
SPLINE
  5
1d2
100
AcDbEntity
  8
Calque_1
 62
1
100
AcDbSpline
 70
8
 71
3
 72
8
 73
4
 74
0
 40
0
 40
0
 40
0
 40
0
 40
1
 40
1
 40
1
 40
1
 10
-16.738044
 20
92.066764
 30
0.0
 10
-18.393340
 20
91.111079
 30
0.0
 10
-20.432748
 20
91.111079
 30
0.0
 10
-22.088044
 20
92.066764
 30
0.0
  0
SPLINE
  5
1d3
100
AcDbEntity
  8
Calque_1
 62
1
100
AcDbSpline
 70
8
 71
3
 72
8
 73
4
 74
0
 40
0
 40
0
 40
0
 40
0
 40
1
 40
1
 40
1
 40
1
 10
-22.088044
 20
92.066764
 30
0.0
 10
-23.743340
 20
93.022450
 30
0.0
 10
-24.763044
 20
94.788629
 30
0.0
 10
-24.763044
 20
96.700000
 30
0.0
  0
SPLINE
  5
1d4
100
AcDbEntity
  8
Calque_1
 62
1
100
AcDbSpline
 70
8
 71
3
 72
8
 73
4
 74
0
 40
0
 40
0
 40
0
 40
0
 40
1
 40
1
 40
1
 40
1
 10
-24.763044
 20
96.700000
 30
0.0
 10
-24.763044
 20
98.611371
 30
0.0
 10
-23.743340
 20
100.377550
 30
0.0
 10
-22.088044
 20
101.333236
 30
0.0
  0
SPLINE
  5
1d5
100
AcDbEntity
  8
Calque_1
 62
1
100
AcDbSpline
 70
8
 71
3
 72
8
 73
4
 74
0
 40
0
 40
0
 40
0
 40
0
 40
1
 40
1
 40
1
 40
1
 10
-22.088044
 20
101.333236
 30
0.0
 10
-20.432748
 20
102.288921
 30
0.0
 10
-18.393340
 20
102.288921
 30
0.0
 10
-16.738044
 20
101.333236
 30
0.0
  0
SPLINE
  5
1d6
100
AcDbEntity
  8
Calque_1
 62
1
100
AcDbSpline
 70
8
 71
3
 72
8
 73
4
 74
0
 40
0
 40
0
 40
0
 40
0
 40
1
 40
1
 40
1
 40
1
 10
-16.738044
 20
101.333236
 30
0.0
 10
-15.082748
 20
100.377550
 30
0.0
 10
-14.063044
 20
98.611371
 30
0.0
 10
-14.063044
 20
96.700000
 30
0.0
  0
LWPOLYLINE
  5
1d7
100
AcDbEntity
  8
Calque_1
 62
1
100
AcDbPolyline
 90
1
 70
1
 10
3.980435
 20
117.300000
 30
0.0
  0
SPLINE
  5
1d8
100
AcDbEntity
  8
Calque_1
 62
1
100
AcDbSpline
 70
8
 71
3
 72
8
 73
4
 74
0
 40
0
 40
0
 40
0
 40
0
 40
1
 40
1
 40
1
 40
1
 10
-14.063044
 20
117.300000
 30
0.0
 10
-14.063044
 20
115.388629
 30
0.0
 10
-15.082748
 20
113.622450
 30
0.0
 10
-16.738044
 20
112.666764
 30
0.0
  0
SPLINE
  5
1d9
100
AcDbEntity
  8
Calque_1
 62
1
100
AcDbSpline
 70
8
 71
3
 72
8
 73
4
 74
0
 40
0
 40
0
 40
0
 40
0
 40
1
 40
1
 40
1
 40
1
 10
-16.738044
 20
112.666764
 30
0.0
 10
-18.393340
 20
111.711079
 30
0.0
 10
-20.432748
 20
111.711079
 30
0.0
 10
-22.088044
 20
112.666764
 30
0.0
  0
SPLINE
  5
1da
100
AcDbEntity
  8
Calque_1
 62
1
100
AcDbSpline
 70
8
 71
3
 72
8
 73
4
 74
0
 40
0
 40
0
 40
0
 40
0
 40
1
 40
1
 40
1
 40
1
 10
-22.088044
 20
112.666764
 30
0.0
 10
-23.743340
 20
113.622450
 30
0.0
 10
-24.763044
 20
115.388629
 30
0.0
 10
-24.763044
 20
117.300000
 30
0.0
  0
SPLINE
  5
1db
100
AcDbEntity
  8
Calque_1
 62
1
100
AcDbSpline
 70
8
 71
3
 72
8
 73
4
 74
0
 40
0
 40
0
 40
0
 40
0
 40
1
 40
1
 40
1
 40
1
 10
-24.763044
 20
117.300000
 30
0.0
 10
-24.763044
 20
119.211371
 30
0.0
 10
-23.743340
 20
120.977550
 30
0.0
 10
-22.088044
 20
121.933236
 30
0.0
  0
SPLINE
  5
1dc
100
AcDbEntity
  8
Calque_1
 62
1
100
AcDbSpline
 70
8
 71
3
 72
8
 73
4
 74
0
 40
0
 40
0
 40
0
 40
0
 40
1
 40
1
 40
1
 40
1
 10
-22.088044
 20
121.933236
 30
0.0
 10
-20.432748
 20
122.888921
 30
0.0
 10
-18.393340
 20
122.888921
 30
0.0
 10
-16.738044
 20
121.933236
 30
0.0
  0
SPLINE
  5
1dd
100
AcDbEntity
  8
Calque_1
 62
1
100
AcDbSpline
 70
8
 71
3
 72
8
 73
4
 74
0
 40
0
 40
0
 40
0
 40
0
 40
1
 40
1
 40
1
 40
1
 10
-16.738044
 20
121.933236
 30
0.0
 10
-15.082748
 20
120.977550
 30
0.0
 10
-14.063044
 20
119.211371
 30
0.0
 10
-14.063044
 20
117.300000
 30
0.0
  0
LWPOLYLINE
  5
1de
100
AcDbEntity
  8
Calque_1
 62
1
100
AcDbPolyline
 90
1
 70
1
 10
-14.063044
 20
96.700000
 30
0.0
  0
SPLINE
  5
1df
100
AcDbEntity
  8
Calque_1
 62
1
100
AcDbSpline
 70
8
 71
3
 72
8
 73
4
 74
0
 40
0
 40
0
 40
0
 40
0
 40
1
 40
1
 40
1
 40
1
 10
-32.106520
 20
96.700000
 30
0.0
 10
-32.106520
 20
93.745277
 30
0.0
 10
-34.501797
 20
91.350000
 30
0.0
 10
-37.456520
 20
91.350000
 30
0.0
  0
SPLINE
  5
1e0
100
AcDbEntity
  8
Calque_1
 62
1
100
AcDbSpline
 70
8
 71
3
 72
8
 73
4
 74
0
 40
0
 40
0
 40
0
 40
0
 40
1
 40
1
 40
1
 40
1
 10
-37.456520
 20
91.350000
 30
0.0
 10
-40.411243
 20
91.350000
 30
0.0
 10
-42.806520
 20
93.745277
 30
0.0
 10
-42.806520
 20
96.700000
 30
0.0
  0
SPLINE
  5
1e1
100
AcDbEntity
  8
Calque_1
 62
1
100
AcDbSpline
 70
8
 71
3
 72
8
 73
4
 74
0
 40
0
 40
0
 40
0
 40
0
 40
1
 40
1
 40
1
 40
1
 10
-42.806520
 20
96.700000
 30
0.0
 10
-42.806520
 20
99.654723
 30
0.0
 10
-40.411243
 20
102.050000
 30
0.0
 10
-37.456520
 20
102.050000
 30
0.0
  0
SPLINE
  5
1e2
100
AcDbEntity
  8
Calque_1
 62
1
100
AcDbSpline
 70
8
 71
3
 72
8
 73
4
 74
0
 40
0
 40
0
 40
0
 40
0
 40
1
 40
1
 40
1
 40
1
 10
-37.456520
 20
102.050000
 30
0.0
 10
-34.501797
 20
102.050000
 30
0.0
 10
-32.106520
 20
99.654723
 30
0.0
 10
-32.106520
 20
96.700000
 30
0.0
  0
LWPOLYLINE
  5
1e3
100
AcDbEntity
  8
Calque_1
 62
1
100
AcDbPolyline
 90
1
 70
1
 10
-14.063044
 20
117.300000
 30
0.0
  0
SPLINE
  5
1e4
100
AcDbEntity
  8
Calque_1
 62
1
100
AcDbSpline
 70
8
 71
3
 72
8
 73
4
 74
0
 40
0
 40
0
 40
0
 40
0
 40
1
 40
1
 40
1
 40
1
 10
-32.106520
 20
117.300000
 30
0.0
 10
-32.106520
 20
114.345277
 30
0.0
 10
-34.501797
 20
111.950000
 30
0.0
 10
-37.456520
 20
111.950000
 30
0.0
  0
SPLINE
  5
1e5
100
AcDbEntity
  8
Calque_1
 62
1
100
AcDbSpline
 70
8
 71
3
 72
8
 73
4
 74
0
 40
0
 40
0
 40
0
 40
0
 40
1
 40
1
 40
1
 40
1
 10
-37.456520
 20
111.950000
 30
0.0
 10
-40.411243
 20
111.950000
 30
0.0
 10
-42.806520
 20
114.345277
 30
0.0
 10
-42.806520
 20
117.300000
 30
0.0
  0
SPLINE
  5
1e6
100
AcDbEntity
  8
Calque_1
 62
1
100
AcDbSpline
 70
8
 71
3
 72
8
 73
4
 74
0
 40
0
 40
0
 40
0
 40
0
 40
1
 40
1
 40
1
 40
1
 10
-42.806520
 20
117.300000
 30
0.0
 10
-42.806520
 20
120.254723
 30
0.0
 10
-40.411243
 20
122.650000
 30
0.0
 10
-37.456520
 20
122.650000
 30
0.0
  0
SPLINE
  5
1e7
100
AcDbEntity
  8
Calque_1
 62
1
100
AcDbSpline
 70
8
 71
3
 72
8
 73
4
 74
0
 40
0
 40
0
 40
0
 40
0
 40
1
 40
1
 40
1
 40
1
 10
-37.456520
 20
122.650000
 30
0.0
 10
-34.501797
 20
122.650000
 30
0.0
 10
-32.106520
 20
120.254723
 30
0.0
 10
-32.106520
 20
117.300000
 30
0.0
  0
LWPOLYLINE
  5
1e8
100
AcDbEntity
  8
Calque_1
 62
1
100
AcDbPolyline
 90
1
 70
1
 10
-32.106520
 20
96.700000
 30
0.0
  0
SPLINE
  5
1e9
100
AcDbEntity
  8
Calque_1
 62
1
100
AcDbSpline
 70
8
 71
3
 72
8
 73
4
 74
0
 40
0
 40
0
 40
0
 40
0
 40
1
 40
1
 40
1
 40
1
 10
-50.150000
 20
96.700000
 30
0.0
 10
-50.150000
 20
94.788629
 30
0.0
 10
-51.169704
 20
93.022450
 30
0.0
 10
-52.825000
 20
92.066764
 30
0.0
  0
SPLINE
  5
1ea
100
AcDbEntity
  8
Calque_1
 62
1
100
AcDbSpline
 70
8
 71
3
 72
8
 73
4
 74
0
 40
0
 40
0
 40
0
 40
0
 40
1
 40
1
 40
1
 40
1
 10
-52.825000
 20
92.066764
 30
0.0
 10
-54.480296
 20
91.111079
 30
0.0
 10
-56.519704
 20
91.111079
 30
0.0
 10
-58.175000
 20
92.066764
 30
0.0
  0
SPLINE
  5
1eb
100
AcDbEntity
  8
Calque_1
 62
1
100
AcDbSpline
 70
8
 71
3
 72
8
 73
4
 74
0
 40
0
 40
0
 40
0
 40
0
 40
1
 40
1
 40
1
 40
1
 10
-58.175000
 20
92.066764
 30
0.0
 10
-59.830296
 20
93.022450
 30
0.0
 10
-60.850000
 20
94.788629
 30
0.0
 10
-60.850000
 20
96.700000
 30
0.0
  0
SPLINE
  5
1ec
100
AcDbEntity
  8
Calque_1
 62
1
100
AcDbSpline
 70
8
 71
3
 72
8
 73
4
 74
0
 40
0
 40
0
 40
0
 40
0
 40
1
 40
1
 40
1
 40
1
 10
-60.850000
 20
96.700000
 30
0.0
 10
-60.850000
 20
98.611371
 30
0.0
 10
-59.830296
 20
100.377550
 30
0.0
 10
-58.175000
 20
101.333236
 30
0.0
  0
SPLINE
  5
1ed
100
AcDbEntity
  8
Calque_1
 62
1
100
AcDbSpline
 70
8
 71
3
 72
8
 73
4
 74
0
 40
0
 40
0
 40
0
 40
0
 40
1
 40
1
 40
1
 40
1
 10
-58.175000
 20
101.333236
 30
0.0
 10
-56.519704
 20
102.288921
 30
0.0
 10
-54.480296
 20
102.288921
 30
0.0
 10
-52.825000
 20
101.333236
 30
0.0
  0
SPLINE
  5
1ee
100
AcDbEntity
  8
Calque_1
 62
1
100
AcDbSpline
 70
8
 71
3
 72
8
 73
4
 74
0
 40
0
 40
0
 40
0
 40
0
 40
1
 40
1
 40
1
 40
1
 10
-52.825000
 20
101.333236
 30
0.0
 10
-51.169704
 20
100.377550
 30
0.0
 10
-50.150000
 20
98.611371
 30
0.0
 10
-50.150000
 20
96.700000
 30
0.0
  0
LWPOLYLINE
  5
1ef
100
AcDbEntity
  8
Calque_1
 62
1
100
AcDbPolyline
 90
1
 70
1
 10
-32.106520
 20
117.300000
 30
0.0
  0
SPLINE
  5
1f0
100
AcDbEntity
  8
Calque_1
 62
1
100
AcDbSpline
 70
8
 71
3
 72
8
 73
4
 74
0
 40
0
 40
0
 40
0
 40
0
 40
1
 40
1
 40
1
 40
1
 10
-50.150000
 20
117.300000
 30
0.0
 10
-50.150000
 20
115.388629
 30
0.0
 10
-51.169704
 20
113.622450
 30
0.0
 10
-52.825000
 20
112.666764
 30
0.0
  0
SPLINE
  5
1f1
100
AcDbEntity
  8
Calque_1
 62
1
100
AcDbSpline
 70
8
 71
3
 72
8
 73
4
 74
0
 40
0
 40
0
 40
0
 40
0
 40
1
 40
1
 40
1
 40
1
 10
-52.825000
 20
112.666764
 30
0.0
 10
-54.480296
 20
111.711079
 30
0.0
 10
-56.519704
 20
111.711079
 30
0.0
 10
-58.175000
 20
112.666764
 30
0.0
  0
SPLINE
  5
1f2
100
AcDbEntity
  8
Calque_1
 62
1
100
AcDbSpline
 70
8
 71
3
 72
8
 73
4
 74
0
 40
0
 40
0
 40
0
 40
0
 40
1
 40
1
 40
1
 40
1
 10
-58.175000
 20
112.666764
 30
0.0
 10
-59.830296
 20
113.622450
 30
0.0
 10
-60.850000
 20
115.388629
 30
0.0
 10
-60.850000
 20
117.300000
 30
0.0
  0
SPLINE
  5
1f3
100
AcDbEntity
  8
Calque_1
 62
1
100
AcDbSpline
 70
8
 71
3
 72
8
 73
4
 74
0
 40
0
 40
0
 40
0
 40
0
 40
1
 40
1
 40
1
 40
1
 10
-60.850000
 20
117.300000
 30
0.0
 10
-60.850000
 20
119.211371
 30
0.0
 10
-59.830296
 20
120.977550
 30
0.0
 10
-58.175000
 20
121.933236
 30
0.0
  0
SPLINE
  5
1f4
100
AcDbEntity
  8
Calque_1
 62
1
100
AcDbSpline
 70
8
 71
3
 72
8
 73
4
 74
0
 40
0
 40
0
 40
0
 40
0
 40
1
 40
1
 40
1
 40
1
 10
-58.175000
 20
121.933236
 30
0.0
 10
-56.519704
 20
122.888921
 30
0.0
 10
-54.480296
 20
122.888921
 30
0.0
 10
-52.825000
 20
121.933236
 30
0.0
  0
SPLINE
  5
1f5
100
AcDbEntity
  8
Calque_1
 62
1
100
AcDbSpline
 70
8
 71
3
 72
8
 73
4
 74
0
 40
0
 40
0
 40
0
 40
0
 40
1
 40
1
 40
1
 40
1
 10
-52.825000
 20
121.933236
 30
0.0
 10
-51.169704
 20
120.977550
 30
0.0
 10
-50.150000
 20
119.211371
 30
0.0
 10
-50.150000
 20
117.300000
 30
0.0
  0
LWPOLYLINE
  5
1f6
100
AcDbEntity
  8
Calque_1
 62
1
100
AcDbPolyline
 90
1
 70
1
 10
-50.150000
 20
96.700000
 30
0.0
  0
SPLINE
  5
1f7
100
AcDbEntity
  8
Calque_1
 62
1
100
AcDbSpline
 70
8
 71
3
 72
8
 73
4
 74
0
 40
0
 40
0
 40
0
 40
0
 40
1
 40
1
 40
1
 40
1
 10
22.023914
 20
117.300000
 30
0.0
 10
22.023914
 20
115.388629
 30
0.0
 10
21.004210
 20
113.622450
 30
0.0
 10
19.348914
 20
112.666764
 30
0.0
  0
SPLINE
  5
1f8
100
AcDbEntity
  8
Calque_1
 62
1
100
AcDbSpline
 70
8
 71
3
 72
8
 73
4
 74
0
 40
0
 40
0
 40
0
 40
0
 40
1
 40
1
 40
1
 40
1
 10
19.348914
 20
112.666764
 30
0.0
 10
17.693618
 20
111.711079
 30
0.0
 10
15.654210
 20
111.711079
 30
0.0
 10
13.998914
 20
112.666764
 30
0.0
  0
SPLINE
  5
1f9
100
AcDbEntity
  8
Calque_1
 62
1
100
AcDbSpline
 70
8
 71
3
 72
8
 73
4
 74
0
 40
0
 40
0
 40
0
 40
0
 40
1
 40
1
 40
1
 40
1
 10
13.998914
 20
112.666764
 30
0.0
 10
12.343618
 20
113.622450
 30
0.0
 10
11.323914
 20
115.388629
 30
0.0
 10
11.323914
 20
117.300000
 30
0.0
  0
SPLINE
  5
1fa
100
AcDbEntity
  8
Calque_1
 62
1
100
AcDbSpline
 70
8
 71
3
 72
8
 73
4
 74
0
 40
0
 40
0
 40
0
 40
0
 40
1
 40
1
 40
1
 40
1
 10
11.323914
 20
117.300000
 30
0.0
 10
11.323914
 20
119.211371
 30
0.0
 10
12.343618
 20
120.977550
 30
0.0
 10
13.998914
 20
121.933236
 30
0.0
  0
SPLINE
  5
1fb
100
AcDbEntity
  8
Calque_1
 62
1
100
AcDbSpline
 70
8
 71
3
 72
8
 73
4
 74
0
 40
0
 40
0
 40
0
 40
0
 40
1
 40
1
 40
1
 40
1
 10
13.998914
 20
121.933236
 30
0.0
 10
15.654210
 20
122.888921
 30
0.0
 10
17.693618
 20
122.888921
 30
0.0
 10
19.348914
 20
121.933236
 30
0.0
  0
SPLINE
  5
1fc
100
AcDbEntity
  8
Calque_1
 62
1
100
AcDbSpline
 70
8
 71
3
 72
8
 73
4
 74
0
 40
0
 40
0
 40
0
 40
0
 40
1
 40
1
 40
1
 40
1
 10
19.348914
 20
121.933236
 30
0.0
 10
21.004210
 20
120.977550
 30
0.0
 10
22.023914
 20
119.211371
 30
0.0
 10
22.023914
 20
117.300000
 30
0.0
  0
LWPOLYLINE
  5
1fd
100
AcDbEntity
  8
Calque_1
 62
1
100
AcDbPolyline
 90
1
 70
1
 10
-50.150000
 20
117.300000
 30
0.0
  0
SPLINE
  5
1fe
100
AcDbEntity
  8
Calque_1
 62
1
100
AcDbSpline
 70
8
 71
3
 72
8
 73
4
 74
0
 40
0
 40
0
 40
0
 40
0
 40
1
 40
1
 40
1
 40
1
 10
3.980435
 20
96.700000
 30
0.0
 10
3.980435
 20
94.788629
 30
0.0
 10
2.960730
 20
93.022450
 30
0.0
 10
1.305435
 20
92.066764
 30
0.0
  0
SPLINE
  5
1ff
100
AcDbEntity
  8
Calque_1
 62
1
100
AcDbSpline
 70
8
 71
3
 72
8
 73
4
 74
0
 40
0
 40
0
 40
0
 40
0
 40
1
 40
1
 40
1
 40
1
 10
1.305435
 20
92.066764
 30
0.0
 10
-0.349861
 20
91.111079
 30
0.0
 10
-2.389269
 20
91.111079
 30
0.0
 10
-4.044565
 20
92.066764
 30
0.0
  0
SPLINE
  5
200
100
AcDbEntity
  8
Calque_1
 62
1
100
AcDbSpline
 70
8
 71
3
 72
8
 73
4
 74
0
 40
0
 40
0
 40
0
 40
0
 40
1
 40
1
 40
1
 40
1
 10
-4.044565
 20
92.066764
 30
0.0
 10
-5.699861
 20
93.022450
 30
0.0
 10
-6.719565
 20
94.788629
 30
0.0
 10
-6.719565
 20
96.700000
 30
0.0
  0
SPLINE
  5
201
100
AcDbEntity
  8
Calque_1
 62
1
100
AcDbSpline
 70
8
 71
3
 72
8
 73
4
 74
0
 40
0
 40
0
 40
0
 40
0
 40
1
 40
1
 40
1
 40
1
 10
-6.719565
 20
96.700000
 30
0.0
 10
-6.719565
 20
98.611371
 30
0.0
 10
-5.699861
 20
100.377550
 30
0.0
 10
-4.044565
 20
101.333236
 30
0.0
  0
SPLINE
  5
202
100
AcDbEntity
  8
Calque_1
 62
1
100
AcDbSpline
 70
8
 71
3
 72
8
 73
4
 74
0
 40
0
 40
0
 40
0
 40
0
 40
1
 40
1
 40
1
 40
1
 10
-4.044565
 20
101.333236
 30
0.0
 10
-2.389269
 20
102.288921
 30
0.0
 10
-0.349861
 20
102.288921
 30
0.0
 10
1.305435
 20
101.333236
 30
0.0
  0
SPLINE
  5
203
100
AcDbEntity
  8
Calque_1
 62
1
100
AcDbSpline
 70
8
 71
3
 72
8
 73
4
 74
0
 40
0
 40
0
 40
0
 40
0
 40
1
 40
1
 40
1
 40
1
 10
1.305435
 20
101.333236
 30
0.0
 10
2.960730
 20
100.377550
 30
0.0
 10
3.980435
 20
98.611371
 30
0.0
 10
3.980435
 20
96.700000
 30
0.0
  0
LWPOLYLINE
  5
204
100
AcDbEntity
  8
Calque_1
 62
1
100
AcDbPolyline
 90
1
 70
1
 10
22.023914
 20
117.300000
 30
0.0
  0
LWPOLYLINE
  5
205
100
AcDbEntity
  8
Calque_1
 62
1
100
AcDbPolyline
 90
1
 70
1
 10
3.980435
 20
96.700000
 30
0.0
  0
SPLINE
  5
206
100
AcDbEntity
  8
Calque_1
 62
1
100
AcDbSpline
 70
8
 71
3
 72
8
 73
4
 74
0
 40
0
 40
0
 40
0
 40
0
 40
1
 40
1
 40
1
 40
1
 10
112.241300
 20
117.300000
 30
0.0
 10
112.241300
 20
115.388629
 30
0.0
 10
111.221596
 20
113.622450
 30
0.0
 10
109.566300
 20
112.666764
 30
0.0
  0
SPLINE
  5
207
100
AcDbEntity
  8
Calque_1
 62
1
100
AcDbSpline
 70
8
 71
3
 72
8
 73
4
 74
0
 40
0
 40
0
 40
0
 40
0
 40
1
 40
1
 40
1
 40
1
 10
109.566300
 20
112.666764
 30
0.0
 10
107.911004
 20
111.711079
 30
0.0
 10
105.871596
 20
111.711079
 30
0.0
 10
104.216300
 20
112.666764
 30
0.0
  0
SPLINE
  5
208
100
AcDbEntity
  8
Calque_1
 62
1
100
AcDbSpline
 70
8
 71
3
 72
8
 73
4
 74
0
 40
0
 40
0
 40
0
 40
0
 40
1
 40
1
 40
1
 40
1
 10
104.216300
 20
112.666764
 30
0.0
 10
102.561004
 20
113.622450
 30
0.0
 10
101.541300
 20
115.388629
 30
0.0
 10
101.541300
 20
117.300000
 30
0.0
  0
SPLINE
  5
209
100
AcDbEntity
  8
Calque_1
 62
1
100
AcDbSpline
 70
8
 71
3
 72
8
 73
4
 74
0
 40
0
 40
0
 40
0
 40
0
 40
1
 40
1
 40
1
 40
1
 10
101.541300
 20
117.300000
 30
0.0
 10
101.541300
 20
119.211371
 30
0.0
 10
102.561004
 20
120.977550
 30
0.0
 10
104.216300
 20
121.933236
 30
0.0
  0
SPLINE
  5
20a
100
AcDbEntity
  8
Calque_1
 62
1
100
AcDbSpline
 70
8
 71
3
 72
8
 73
4
 74
0
 40
0
 40
0
 40
0
 40
0
 40
1
 40
1
 40
1
 40
1
 10
104.216300
 20
121.933236
 30
0.0
 10
105.871596
 20
122.888921
 30
0.0
 10
107.911004
 20
122.888921
 30
0.0
 10
109.566300
 20
121.933236
 30
0.0
  0
SPLINE
  5
20b
100
AcDbEntity
  8
Calque_1
 62
1
100
AcDbSpline
 70
8
 71
3
 72
8
 73
4
 74
0
 40
0
 40
0
 40
0
 40
0
 40
1
 40
1
 40
1
 40
1
 10
109.566300
 20
121.933236
 30
0.0
 10
111.221596
 20
120.977550
 30
0.0
 10
112.241300
 20
119.211371
 30
0.0
 10
112.241300
 20
117.300000
 30
0.0
  0
LWPOLYLINE
  5
20c
100
AcDbEntity
  8
Calque_1
 62
1
100
AcDbPolyline
 90
4
 70
1
 10
-68.000000
 20
129.000000
 30
0.0
 10
372.000000
 20
129.000000
 30
0.0
 10
372.000000
 20
85.000000
 30
0.0
 10
-68.000000
 20
85.000000
 30
0.0
  0
SPLINE
  5
20d
100
AcDbEntity
  8
Calque_1
 62
1
100
AcDbSpline
 70
8
 71
3
 72
8
 73
4
 74
0
 40
0
 40
0
 40
0
 40
0
 40
1
 40
1
 40
1
 40
1
 10
94.197824
 20
96.700000
 30
0.0
 10
94.197824
 20
93.745277
 30
0.0
 10
91.802547
 20
91.350000
 30
0.0
 10
88.847824
 20
91.350000
 30
0.0
  0
SPLINE
  5
20e
100
AcDbEntity
  8
Calque_1
 62
1
100
AcDbSpline
 70
8
 71
3
 72
8
 73
4
 74
0
 40
0
 40
0
 40
0
 40
0
 40
1
 40
1
 40
1
 40
1
 10
88.847824
 20
91.350000
 30
0.0
 10
85.893101
 20
91.350000
 30
0.0
 10
83.497824
 20
93.745277
 30
0.0
 10
83.497824
 20
96.700000
 30
0.0
  0
SPLINE
  5
20f
100
AcDbEntity
  8
Calque_1
 62
1
100
AcDbSpline
 70
8
 71
3
 72
8
 73
4
 74
0
 40
0
 40
0
 40
0
 40
0
 40
1
 40
1
 40
1
 40
1
 10
83.497824
 20
96.700000
 30
0.0
 10
83.497824
 20
99.654723
 30
0.0
 10
85.893101
 20
102.050000
 30
0.0
 10
88.847824
 20
102.050000
 30
0.0
  0
SPLINE
  5
210
100
AcDbEntity
  8
Calque_1
 62
1
100
AcDbSpline
 70
8
 71
3
 72
8
 73
4
 74
0
 40
0
 40
0
 40
0
 40
0
 40
1
 40
1
 40
1
 40
1
 10
88.847824
 20
102.050000
 30
0.0
 10
91.802547
 20
102.050000
 30
0.0
 10
94.197824
 20
99.654723
 30
0.0
 10
94.197824
 20
96.700000
 30
0.0
  0
LWPOLYLINE
  5
211
100
AcDbEntity
  8
Calque_1
 62
1
100
AcDbPolyline
 90
1
 70
1
 10
112.241300
 20
117.300000
 30
0.0
  0
SPLINE
  5
212
100
AcDbEntity
  8
Calque_1
 62
1
100
AcDbSpline
 70
8
 71
3
 72
8
 73
4
 74
0
 40
0
 40
0
 40
0
 40
0
 40
1
 40
1
 40
1
 40
1
 10
94.197824
 20
117.300000
 30
0.0
 10
94.197824
 20
114.345277
 30
0.0
 10
91.802547
 20
111.950000
 30
0.0
 10
88.847824
 20
111.950000
 30
0.0
  0
SPLINE
  5
213
100
AcDbEntity
  8
Calque_1
 62
1
100
AcDbSpline
 70
8
 71
3
 72
8
 73
4
 74
0
 40
0
 40
0
 40
0
 40
0
 40
1
 40
1
 40
1
 40
1
 10
88.847824
 20
111.950000
 30
0.0
 10
85.893101
 20
111.950000
 30
0.0
 10
83.497824
 20
114.345277
 30
0.0
 10
83.497824
 20
117.300000
 30
0.0
  0
SPLINE
  5
214
100
AcDbEntity
  8
Calque_1
 62
1
100
AcDbSpline
 70
8
 71
3
 72
8
 73
4
 74
0
 40
0
 40
0
 40
0
 40
0
 40
1
 40
1
 40
1
 40
1
 10
83.497824
 20
117.300000
 30
0.0
 10
83.497824
 20
120.254723
 30
0.0
 10
85.893101
 20
122.650000
 30
0.0
 10
88.847824
 20
122.650000
 30
0.0
  0
SPLINE
  5
215
100
AcDbEntity
  8
Calque_1
 62
1
100
AcDbSpline
 70
8
 71
3
 72
8
 73
4
 74
0
 40
0
 40
0
 40
0
 40
0
 40
1
 40
1
 40
1
 40
1
 10
88.847824
 20
122.650000
 30
0.0
 10
91.802547
 20
122.650000
 30
0.0
 10
94.197824
 20
120.254723
 30
0.0
 10
94.197824
 20
117.300000
 30
0.0
  0
LWPOLYLINE
  5
216
100
AcDbEntity
  8
Calque_1
 62
1
100
AcDbPolyline
 90
1
 70
1
 10
94.197824
 20
96.700000
 30
0.0
  0
SPLINE
  5
217
100
AcDbEntity
  8
Calque_1
 62
1
100
AcDbSpline
 70
8
 71
3
 72
8
 73
4
 74
0
 40
0
 40
0
 40
0
 40
0
 40
1
 40
1
 40
1
 40
1
 10
76.154344
 20
96.700000
 30
0.0
 10
76.154344
 20
94.788629
 30
0.0
 10
75.134640
 20
93.022450
 30
0.0
 10
73.479344
 20
92.066764
 30
0.0
  0
SPLINE
  5
218
100
AcDbEntity
  8
Calque_1
 62
1
100
AcDbSpline
 70
8
 71
3
 72
8
 73
4
 74
0
 40
0
 40
0
 40
0
 40
0
 40
1
 40
1
 40
1
 40
1
 10
73.479344
 20
92.066764
 30
0.0
 10
71.824048
 20
91.111079
 30
0.0
 10
69.784640
 20
91.111079
 30
0.0
 10
68.129344
 20
92.066764
 30
0.0
  0
SPLINE
  5
219
100
AcDbEntity
  8
Calque_1
 62
1
100
AcDbSpline
 70
8
 71
3
 72
8
 73
4
 74
0
 40
0
 40
0
 40
0
 40
0
 40
1
 40
1
 40
1
 40
1
 10
68.129344
 20
92.066764
 30
0.0
 10
66.474048
 20
93.022450
 30
0.0
 10
65.454344
 20
94.788629
 30
0.0
 10
65.454344
 20
96.700000
 30
0.0
  0
SPLINE
  5
21a
100
AcDbEntity
  8
Calque_1
 62
1
100
AcDbSpline
 70
8
 71
3
 72
8
 73
4
 74
0
 40
0
 40
0
 40
0
 40
0
 40
1
 40
1
 40
1
 40
1
 10
65.454344
 20
96.700000
 30
0.0
 10
65.454344
 20
98.611371
 30
0.0
 10
66.474048
 20
100.377550
 30
0.0
 10
68.129344
 20
101.333236
 30
0.0
  0
SPLINE
  5
21b
100
AcDbEntity
  8
Calque_1
 62
1
100
AcDbSpline
 70
8
 71
3
 72
8
 73
4
 74
0
 40
0
 40
0
 40
0
 40
0
 40
1
 40
1
 40
1
 40
1
 10
68.129344
 20
101.333236
 30
0.0
 10
69.784640
 20
102.288921
 30
0.0
 10
71.824048
 20
102.288921
 30
0.0
 10
73.479344
 20
101.333236
 30
0.0
  0
SPLINE
  5
21c
100
AcDbEntity
  8
Calque_1
 62
1
100
AcDbSpline
 70
8
 71
3
 72
8
 73
4
 74
0
 40
0
 40
0
 40
0
 40
0
 40
1
 40
1
 40
1
 40
1
 10
73.479344
 20
101.333236
 30
0.0
 10
75.134640
 20
100.377550
 30
0.0
 10
76.154344
 20
98.611371
 30
0.0
 10
76.154344
 20
96.700000
 30
0.0
  0
LWPOLYLINE
  5
21d
100
AcDbEntity
  8
Calque_1
 62
1
100
AcDbPolyline
 90
1
 70
1
 10
94.197824
 20
117.300000
 30
0.0
  0
SPLINE
  5
21e
100
AcDbEntity
  8
Calque_1
 62
1
100
AcDbSpline
 70
8
 71
3
 72
8
 73
4
 74
0
 40
0
 40
0
 40
0
 40
0
 40
1
 40
1
 40
1
 40
1
 10
76.154344
 20
117.300000
 30
0.0
 10
76.154344
 20
115.388629
 30
0.0
 10
75.134640
 20
113.622450
 30
0.0
 10
73.479344
 20
112.666764
 30
0.0
  0
SPLINE
  5
21f
100
AcDbEntity
  8
Calque_1
 62
1
100
AcDbSpline
 70
8
 71
3
 72
8
 73
4
 74
0
 40
0
 40
0
 40
0
 40
0
 40
1
 40
1
 40
1
 40
1
 10
73.479344
 20
112.666764
 30
0.0
 10
71.824048
 20
111.711079
 30
0.0
 10
69.784640
 20
111.711079
 30
0.0
 10
68.129344
 20
112.666764
 30
0.0
  0
SPLINE
  5
220
100
AcDbEntity
  8
Calque_1
 62
1
100
AcDbSpline
 70
8
 71
3
 72
8
 73
4
 74
0
 40
0
 40
0
 40
0
 40
0
 40
1
 40
1
 40
1
 40
1
 10
68.129344
 20
112.666764
 30
0.0
 10
66.474048
 20
113.622450
 30
0.0
 10
65.454344
 20
115.388629
 30
0.0
 10
65.454344
 20
117.300000
 30
0.0
  0
SPLINE
  5
221
100
AcDbEntity
  8
Calque_1
 62
1
100
AcDbSpline
 70
8
 71
3
 72
8
 73
4
 74
0
 40
0
 40
0
 40
0
 40
0
 40
1
 40
1
 40
1
 40
1
 10
65.454344
 20
117.300000
 30
0.0
 10
65.454344
 20
119.211371
 30
0.0
 10
66.474048
 20
120.977550
 30
0.0
 10
68.129344
 20
121.933236
 30
0.0
  0
SPLINE
  5
222
100
AcDbEntity
  8
Calque_1
 62
1
100
AcDbSpline
 70
8
 71
3
 72
8
 73
4
 74
0
 40
0
 40
0
 40
0
 40
0
 40
1
 40
1
 40
1
 40
1
 10
68.129344
 20
121.933236
 30
0.0
 10
69.784640
 20
122.888921
 30
0.0
 10
71.824048
 20
122.888921
 30
0.0
 10
73.479344
 20
121.933236
 30
0.0
  0
SPLINE
  5
223
100
AcDbEntity
  8
Calque_1
 62
1
100
AcDbSpline
 70
8
 71
3
 72
8
 73
4
 74
0
 40
0
 40
0
 40
0
 40
0
 40
1
 40
1
 40
1
 40
1
 10
73.479344
 20
121.933236
 30
0.0
 10
75.134640
 20
120.977550
 30
0.0
 10
76.154344
 20
119.211371
 30
0.0
 10
76.154344
 20
117.300000
 30
0.0
  0
LWPOLYLINE
  5
224
100
AcDbEntity
  8
Calque_1
 62
1
100
AcDbPolyline
 90
1
 70
1
 10
76.154344
 20
96.700000
 30
0.0
  0
SPLINE
  5
225
100
AcDbEntity
  8
Calque_1
 62
1
100
AcDbSpline
 70
8
 71
3
 72
8
 73
4
 74
0
 40
0
 40
0
 40
0
 40
0
 40
1
 40
1
 40
1
 40
1
 10
58.110868
 20
96.700000
 30
0.0
 10
58.110868
 20
94.788629
 30
0.0
 10
57.091164
 20
93.022450
 30
0.0
 10
55.435868
 20
92.066764
 30
0.0
  0
SPLINE
  5
226
100
AcDbEntity
  8
Calque_1
 62
1
100
AcDbSpline
 70
8
 71
3
 72
8
 73
4
 74
0
 40
0
 40
0
 40
0
 40
0
 40
1
 40
1
 40
1
 40
1
 10
55.435868
 20
92.066764
 30
0.0
 10
53.780572
 20
91.111079
 30
0.0
 10
51.741164
 20
91.111079
 30
0.0
 10
50.085868
 20
92.066764
 30
0.0
  0
SPLINE
  5
227
100
AcDbEntity
  8
Calque_1
 62
1
100
AcDbSpline
 70
8
 71
3
 72
8
 73
4
 74
0
 40
0
 40
0
 40
0
 40
0
 40
1
 40
1
 40
1
 40
1
 10
50.085868
 20
92.066764
 30
0.0
 10
48.430572
 20
93.022450
 30
0.0
 10
47.410868
 20
94.788629
 30
0.0
 10
47.410868
 20
96.700000
 30
0.0
  0
SPLINE
  5
228
100
AcDbEntity
  8
Calque_1
 62
1
100
AcDbSpline
 70
8
 71
3
 72
8
 73
4
 74
0
 40
0
 40
0
 40
0
 40
0
 40
1
 40
1
 40
1
 40
1
 10
47.410868
 20
96.700000
 30
0.0
 10
47.410868
 20
98.611371
 30
0.0
 10
48.430572
 20
100.377550
 30
0.0
 10
50.085868
 20
101.333236
 30
0.0
  0
SPLINE
  5
229
100
AcDbEntity
  8
Calque_1
 62
1
100
AcDbSpline
 70
8
 71
3
 72
8
 73
4
 74
0
 40
0
 40
0
 40
0
 40
0
 40
1
 40
1
 40
1
 40
1
 10
50.085868
 20
101.333236
 30
0.0
 10
51.741164
 20
102.288921
 30
0.0
 10
53.780572
 20
102.288921
 30
0.0
 10
55.435868
 20
101.333236
 30
0.0
  0
SPLINE
  5
22a
100
AcDbEntity
  8
Calque_1
 62
1
100
AcDbSpline
 70
8
 71
3
 72
8
 73
4
 74
0
 40
0
 40
0
 40
0
 40
0
 40
1
 40
1
 40
1
 40
1
 10
55.435868
 20
101.333236
 30
0.0
 10
57.091164
 20
100.377550
 30
0.0
 10
58.110868
 20
98.611371
 30
0.0
 10
58.110868
 20
96.700000
 30
0.0
  0
LWPOLYLINE
  5
22b
100
AcDbEntity
  8
Calque_1
 62
1
100
AcDbPolyline
 90
1
 70
1
 10
76.154344
 20
117.300000
 30
0.0
  0
SPLINE
  5
22c
100
AcDbEntity
  8
Calque_1
 62
1
100
AcDbSpline
 70
8
 71
3
 72
8
 73
4
 74
0
 40
0
 40
0
 40
0
 40
0
 40
1
 40
1
 40
1
 40
1
 10
58.110868
 20
117.300000
 30
0.0
 10
58.110868
 20
115.388629
 30
0.0
 10
57.091164
 20
113.622450
 30
0.0
 10
55.435868
 20
112.666764
 30
0.0
  0
SPLINE
  5
22d
100
AcDbEntity
  8
Calque_1
 62
1
100
AcDbSpline
 70
8
 71
3
 72
8
 73
4
 74
0
 40
0
 40
0
 40
0
 40
0
 40
1
 40
1
 40
1
 40
1
 10
55.435868
 20
112.666764
 30
0.0
 10
53.780572
 20
111.711079
 30
0.0
 10
51.741164
 20
111.711079
 30
0.0
 10
50.085868
 20
112.666764
 30
0.0
  0
SPLINE
  5
22e
100
AcDbEntity
  8
Calque_1
 62
1
100
AcDbSpline
 70
8
 71
3
 72
8
 73
4
 74
0
 40
0
 40
0
 40
0
 40
0
 40
1
 40
1
 40
1
 40
1
 10
50.085868
 20
112.666764
 30
0.0
 10
48.430572
 20
113.622450
 30
0.0
 10
47.410868
 20
115.388629
 30
0.0
 10
47.410868
 20
117.300000
 30
0.0
  0
SPLINE
  5
22f
100
AcDbEntity
  8
Calque_1
 62
1
100
AcDbSpline
 70
8
 71
3
 72
8
 73
4
 74
0
 40
0
 40
0
 40
0
 40
0
 40
1
 40
1
 40
1
 40
1
 10
47.410868
 20
117.300000
 30
0.0
 10
47.410868
 20
119.211371
 30
0.0
 10
48.430572
 20
120.977550
 30
0.0
 10
50.085868
 20
121.933236
 30
0.0
  0
SPLINE
  5
230
100
AcDbEntity
  8
Calque_1
 62
1
100
AcDbSpline
 70
8
 71
3
 72
8
 73
4
 74
0
 40
0
 40
0
 40
0
 40
0
 40
1
 40
1
 40
1
 40
1
 10
50.085868
 20
121.933236
 30
0.0
 10
51.741164
 20
122.888921
 30
0.0
 10
53.780572
 20
122.888921
 30
0.0
 10
55.435868
 20
121.933236
 30
0.0
  0
SPLINE
  5
231
100
AcDbEntity
  8
Calque_1
 62
1
100
AcDbSpline
 70
8
 71
3
 72
8
 73
4
 74
0
 40
0
 40
0
 40
0
 40
0
 40
1
 40
1
 40
1
 40
1
 10
55.435868
 20
121.933236
 30
0.0
 10
57.091164
 20
120.977550
 30
0.0
 10
58.110868
 20
119.211371
 30
0.0
 10
58.110868
 20
117.300000
 30
0.0
  0
LWPOLYLINE
  5
232
100
AcDbEntity
  8
Calque_1
 62
1
100
AcDbPolyline
 90
1
 70
1
 10
58.110868
 20
96.700000
 30
0.0
  0
SPLINE
  5
233
100
AcDbEntity
  8
Calque_1
 62
1
100
AcDbSpline
 70
8
 71
3
 72
8
 73
4
 74
0
 40
0
 40
0
 40
0
 40
0
 40
1
 40
1
 40
1
 40
1
 10
40.067392
 20
96.700000
 30
0.0
 10
40.067392
 20
94.788629
 30
0.0
 10
39.047688
 20
93.022450
 30
0.0
 10
37.392392
 20
92.066764
 30
0.0
  0
SPLINE
  5
234
100
AcDbEntity
  8
Calque_1
 62
1
100
AcDbSpline
 70
8
 71
3
 72
8
 73
4
 74
0
 40
0
 40
0
 40
0
 40
0
 40
1
 40
1
 40
1
 40
1
 10
37.392392
 20
92.066764
 30
0.0
 10
35.737096
 20
91.111079
 30
0.0
 10
33.697688
 20
91.111079
 30
0.0
 10
32.042392
 20
92.066764
 30
0.0
  0
SPLINE
  5
235
100
AcDbEntity
  8
Calque_1
 62
1
100
AcDbSpline
 70
8
 71
3
 72
8
 73
4
 74
0
 40
0
 40
0
 40
0
 40
0
 40
1
 40
1
 40
1
 40
1
 10
32.042392
 20
92.066764
 30
0.0
 10
30.387096
 20
93.022450
 30
0.0
 10
29.367392
 20
94.788629
 30
0.0
 10
29.367392
 20
96.700000
 30
0.0
  0
SPLINE
  5
236
100
AcDbEntity
  8
Calque_1
 62
1
100
AcDbSpline
 70
8
 71
3
 72
8
 73
4
 74
0
 40
0
 40
0
 40
0
 40
0
 40
1
 40
1
 40
1
 40
1
 10
29.367392
 20
96.700000
 30
0.0
 10
29.367392
 20
98.611371
 30
0.0
 10
30.387096
 20
100.377550
 30
0.0
 10
32.042392
 20
101.333236
 30
0.0
  0
SPLINE
  5
237
100
AcDbEntity
  8
Calque_1
 62
1
100
AcDbSpline
 70
8
 71
3
 72
8
 73
4
 74
0
 40
0
 40
0
 40
0
 40
0
 40
1
 40
1
 40
1
 40
1
 10
32.042392
 20
101.333236
 30
0.0
 10
33.697688
 20
102.288921
 30
0.0
 10
35.737096
 20
102.288921
 30
0.0
 10
37.392392
 20
101.333236
 30
0.0
  0
SPLINE
  5
238
100
AcDbEntity
  8
Calque_1
 62
1
100
AcDbSpline
 70
8
 71
3
 72
8
 73
4
 74
0
 40
0
 40
0
 40
0
 40
0
 40
1
 40
1
 40
1
 40
1
 10
37.392392
 20
101.333236
 30
0.0
 10
39.047688
 20
100.377550
 30
0.0
 10
40.067392
 20
98.611371
 30
0.0
 10
40.067392
 20
96.700000
 30
0.0
  0
LWPOLYLINE
  5
239
100
AcDbEntity
  8
Calque_1
 62
1
100
AcDbPolyline
 90
1
 70
1
 10
58.110868
 20
117.300000
 30
0.0
  0
SPLINE
  5
23a
100
AcDbEntity
  8
Calque_1
 62
1
100
AcDbSpline
 70
8
 71
3
 72
8
 73
4
 74
0
 40
0
 40
0
 40
0
 40
0
 40
1
 40
1
 40
1
 40
1
 10
40.067392
 20
117.300000
 30
0.0
 10
40.067392
 20
115.388629
 30
0.0
 10
39.047688
 20
113.622450
 30
0.0
 10
37.392392
 20
112.666764
 30
0.0
  0
SPLINE
  5
23b
100
AcDbEntity
  8
Calque_1
 62
1
100
AcDbSpline
 70
8
 71
3
 72
8
 73
4
 74
0
 40
0
 40
0
 40
0
 40
0
 40
1
 40
1
 40
1
 40
1
 10
37.392392
 20
112.666764
 30
0.0
 10
35.737096
 20
111.711079
 30
0.0
 10
33.697688
 20
111.711079
 30
0.0
 10
32.042392
 20
112.666764
 30
0.0
  0
SPLINE
  5
23c
100
AcDbEntity
  8
Calque_1
 62
1
100
AcDbSpline
 70
8
 71
3
 72
8
 73
4
 74
0
 40
0
 40
0
 40
0
 40
0
 40
1
 40
1
 40
1
 40
1
 10
32.042392
 20
112.666764
 30
0.0
 10
30.387096
 20
113.622450
 30
0.0
 10
29.367392
 20
115.388629
 30
0.0
 10
29.367392
 20
117.300000
 30
0.0
  0
SPLINE
  5
23d
100
AcDbEntity
  8
Calque_1
 62
1
100
AcDbSpline
 70
8
 71
3
 72
8
 73
4
 74
0
 40
0
 40
0
 40
0
 40
0
 40
1
 40
1
 40
1
 40
1
 10
29.367392
 20
117.300000
 30
0.0
 10
29.367392
 20
119.211371
 30
0.0
 10
30.387096
 20
120.977550
 30
0.0
 10
32.042392
 20
121.933236
 30
0.0
  0
SPLINE
  5
23e
100
AcDbEntity
  8
Calque_1
 62
1
100
AcDbSpline
 70
8
 71
3
 72
8
 73
4
 74
0
 40
0
 40
0
 40
0
 40
0
 40
1
 40
1
 40
1
 40
1
 10
32.042392
 20
121.933236
 30
0.0
 10
33.697688
 20
122.888921
 30
0.0
 10
35.737096
 20
122.888921
 30
0.0
 10
37.392392
 20
121.933236
 30
0.0
  0
SPLINE
  5
23f
100
AcDbEntity
  8
Calque_1
 62
1
100
AcDbSpline
 70
8
 71
3
 72
8
 73
4
 74
0
 40
0
 40
0
 40
0
 40
0
 40
1
 40
1
 40
1
 40
1
 10
37.392392
 20
121.933236
 30
0.0
 10
39.047688
 20
120.977550
 30
0.0
 10
40.067392
 20
119.211371
 30
0.0
 10
40.067392
 20
117.300000
 30
0.0
  0
LWPOLYLINE
  5
240
100
AcDbEntity
  8
Calque_1
 62
1
100
AcDbPolyline
 90
1
 70
1
 10
40.067392
 20
96.700000
 30
0.0
  0
SPLINE
  5
241
100
AcDbEntity
  8
Calque_1
 62
1
100
AcDbSpline
 70
8
 71
3
 72
8
 73
4
 74
0
 40
0
 40
0
 40
0
 40
0
 40
1
 40
1
 40
1
 40
1
 10
22.023914
 20
96.700000
 30
0.0
 10
22.023914
 20
94.788629
 30
0.0
 10
21.004210
 20
93.022450
 30
0.0
 10
19.348914
 20
92.066764
 30
0.0
  0
SPLINE
  5
242
100
AcDbEntity
  8
Calque_1
 62
1
100
AcDbSpline
 70
8
 71
3
 72
8
 73
4
 74
0
 40
0
 40
0
 40
0
 40
0
 40
1
 40
1
 40
1
 40
1
 10
19.348914
 20
92.066764
 30
0.0
 10
17.693618
 20
91.111079
 30
0.0
 10
15.654210
 20
91.111079
 30
0.0
 10
13.998914
 20
92.066764
 30
0.0
  0
SPLINE
  5
243
100
AcDbEntity
  8
Calque_1
 62
1
100
AcDbSpline
 70
8
 71
3
 72
8
 73
4
 74
0
 40
0
 40
0
 40
0
 40
0
 40
1
 40
1
 40
1
 40
1
 10
13.998914
 20
92.066764
 30
0.0
 10
12.343618
 20
93.022450
 30
0.0
 10
11.323914
 20
94.788629
 30
0.0
 10
11.323914
 20
96.700000
 30
0.0
  0
SPLINE
  5
244
100
AcDbEntity
  8
Calque_1
 62
1
100
AcDbSpline
 70
8
 71
3
 72
8
 73
4
 74
0
 40
0
 40
0
 40
0
 40
0
 40
1
 40
1
 40
1
 40
1
 10
11.323914
 20
96.700000
 30
0.0
 10
11.323914
 20
98.611371
 30
0.0
 10
12.343618
 20
100.377550
 30
0.0
 10
13.998914
 20
101.333236
 30
0.0
  0
SPLINE
  5
245
100
AcDbEntity
  8
Calque_1
 62
1
100
AcDbSpline
 70
8
 71
3
 72
8
 73
4
 74
0
 40
0
 40
0
 40
0
 40
0
 40
1
 40
1
 40
1
 40
1
 10
13.998914
 20
101.333236
 30
0.0
 10
15.654210
 20
102.288921
 30
0.0
 10
17.693618
 20
102.288921
 30
0.0
 10
19.348914
 20
101.333236
 30
0.0
  0
SPLINE
  5
246
100
AcDbEntity
  8
Calque_1
 62
1
100
AcDbSpline
 70
8
 71
3
 72
8
 73
4
 74
0
 40
0
 40
0
 40
0
 40
0
 40
1
 40
1
 40
1
 40
1
 10
19.348914
 20
101.333236
 30
0.0
 10
21.004210
 20
100.377550
 30
0.0
 10
22.023914
 20
98.611371
 30
0.0
 10
22.023914
 20
96.700000
 30
0.0
  0
LWPOLYLINE
  5
247
100
AcDbEntity
  8
Calque_1
 62
1
100
AcDbPolyline
 90
1
 70
1
 10
40.067392
 20
117.300000
 30
0.0
  0
LWPOLYLINE
  5
248
100
AcDbEntity
  8
Calque_1
 62
1
100
AcDbPolyline
 90
1
 70
1
 10
22.023914
 20
96.700000
 30
0.0
  0
ENDSEC
  0
SECTION
  2
OBJECTS
  0
DICTIONARY
  5
C
330
0
100
AcDbDictionary
  3
ACAD_GROUP
350
D
  3
ACAD_MLINESTYLE
350
17
  0
DICTIONARY
  5
D
330
C
100
AcDbDictionary
  0
DICTIONARY
  5
1A
330
C
100
AcDbDictionary
  0
DICTIONARY
  5
17
330
C
100
AcDbDictionary
  3
STANDARD
350
18
  0
DICTIONARY
  5
19
330
C
100
AcDbDictionary
  0
ENDSEC
  0
EOF
