  0
SECTION
  2
HEADER
  9
$ACADVER
  1
AC1014
  9
$HANDSEED
  5
FFFF
  9
$MEASUREMENT
 70
     1
  0
ENDSEC
  0
SECTION
  2
TABLES
  0
TABLE
  2
VPORT
  5
8
330
0
100
AcDbSymbolTable
 70
     4
  0
VPORT
  5
2E
330
8
100
AcDbSymbolTableRecord
100
AcDbViewportTableRecord
  2
*ACTIVE
 70
     0
 10
0.0
 20
0.0
 11
1.0
 21
1.0
 12
210.0
 22
148.5
 13
0.0
 23
0.0
 14
10.0
 24
10.0
 15
10.0
 25
10.0
 16
0.0
 26
0.0
 36
1.0
 17
0.0
 27
0.0
 37
0.0
 40
341.0
 41
1.24
 42
50.0
 43
0.0
 44
0.0
 50
0.0
 51
0.0
 71
     0
 72
   100
 73
     1
 74
     3
 75
     0
 76
     0
 77
     0
 78
     0
  0
ENDTAB
  0
TABLE
  2
LTYPE
  5
5
330
0
100
AcDbSymbolTable
 70
     1
  0
LTYPE
  5
14
330
5
100
AcDbSymbolTableRecord
100
AcDbLinetypeTableRecord
  2
BYBLOCK
 70
     0
  3

 72
    65
 73
     0
 40
0.0
  0
LTYPE
  5
15
330
5
100
AcDbSymbolTableRecord
100
AcDbLinetypeTableRecord
  2
BYLAYER
 70
     0
  3

 72
    65
 73
     0
 40
0.0
  0
LTYPE
  5
16
330
5
100
AcDbSymbolTableRecord
100
AcDbLinetypeTableRecord
  2
CONTINUOUS
 70
     0
  3
Solid line
 72
    65
 73
     0
 40
0.0
  0
ENDTAB
  0
TABLE
  2
LAYER
  5
2
100
AcDbSymbolTable
 70
2
  0
LAYER
  5
50
100
AcDbSymbolTableRecord
100
AcDbLayerTableRecord
  2
0
 70
0
  6
CONTINUOUS
  0
LAYER
  5
51
100
AcDbSymbolTableRecord
100
AcDbLayerTableRecord
  2
Calque_1
 70
0
  6
CONTINUOUS
  0
ENDTAB
  0
TABLE
  2
STYLE
  5
3
330
0
100
AcDbSymbolTable
 70
     1
  0
STYLE
  5
11
330
3
100
AcDbSymbolTableRecord
100
AcDbTextStyleTableRecord
  2
STANDARD
 70
     0
 40
0.0
 41
1.0
 50
0.0
 71
     0
 42
2.5
  3
txt
  4

  0
ENDTAB
  0
TABLE
  2
VIEW
  5
6
330
0
100
AcDbSymbolTable
 70
     0
  0
ENDTAB
  0
TABLE
  2
UCS
  5
7
330
0
100
AcDbSymbolTable
 70
     0
  0
ENDTAB
  0
TABLE
  2
APPID
  5
9
330
0
100
AcDbSymbolTable
 70
     2
  0
APPID
  5
12
330
9
100
AcDbSymbolTableRecord
100
AcDbRegAppTableRecord
  2
ACAD
 70
     0
  0
ENDTAB
  0
TABLE
  2
DIMSTYLE
  5
A
330
0
100
AcDbSymbolTable
 70
     1
  0
DIMSTYLE
105
27
330
A
100
AcDbSymbolTableRecord
100
AcDbDimStyleTableRecord
  2
ISO-25
 70
     0
  3

  4

  5

  6

  7

 40
1.0
 41
2.5
 42
0.625
 43
3.75
 44
1.25
 45
0.0
 46
0.0
 47
0.0
 48
0.0
140
2.5
141
2.5
142
0.0
143
0.03937007874016
144
1.0
145
0.0
146
1.0
147
0.625
 71
     0
 72
     0
 73
     0
 74
     0
 75
     0
 76
     0
 77
     1
 78
     8
170
     0
171
     3
172
     1
173
     0
174
     0
175
     0
176
     0
177
     0
178
     0
270
     2
271
     2
272
     2
273
     2
274
     3
340
11
275
     0
280
     0
281
     0
282
     0
283
     0
284
     8
285
     0
286
     0
287
     3
288
     0
  0
ENDTAB
  0
TABLE
  2
BLOCK_RECORD
  5
1
330
0
100
AcDbSymbolTable
 70
     1
  0
BLOCK_RECORD
  5
1F
330
1
100
AcDbSymbolTableRecord
100
AcDbBlockTableRecord
  2
*MODEL_SPACE
  0
BLOCK_RECORD
  5
1B
330
1
100
AcDbSymbolTableRecord
100
AcDbBlockTableRecord
  2
*PAPER_SPACE
  0
ENDTAB
  0
ENDSEC
  0
SECTION
  2
BLOCKS
  0
BLOCK
  5
20
330
1F
100
AcDbEntity
  8
0
100
AcDbBlockBegin
  2
*MODEL_SPACE
 70
     0
 10
0.0
 20
0.0
 30
0.0
  3
*MODEL_SPACE
  1

  0
ENDBLK
  5
21
330
1F
100
AcDbEntity
  8
0
100
AcDbBlockEnd
  0
BLOCK
  5
1C
330
1B
100
AcDbEntity
 67
     1
  8
0
100
AcDbBlockBegin
  2
*PAPER_SPACE
  1

  0
ENDBLK
  5
1D
330
1B
100
AcDbEntity
 67
     1
  8
0
100
AcDbBlockEnd
  0
ENDSEC
  0
SECTION
  2
ENTITIES
  0
SPLINE
  5
100
100
AcDbEntity
  8
Calque_1
 62
1
100
AcDbSpline
 70
8
 71
3
 72
8
 73
4
 74
0
 40
0
 40
0
 40
0
 40
0
 40
1
 40
1
 40
1
 40
1
 10
409.418370
 20
107.000000
 30
0.0
 10
409.418370
 20
106.602175
 30
0.0
 10
409.260335
 20
106.220644
 30
0.0
 10
408.979030
 20
105.939340
 30
0.0
  0
SPLINE
  5
101
100
AcDbEntity
  8
Calque_1
 62
1
100
AcDbSpline
 70
8
 71
3
 72
8
 73
4
 74
0
 40
0
 40
0
 40
0
 40
0
 40
1
 40
1
 40
1
 40
1
 10
408.979030
 20
105.939340
 30
0.0
 10
408.697726
 20
105.658035
 30
0.0
 10
408.316195
 20
105.500000
 30
0.0
 10
407.918370
 20
105.500000
 30
0.0
  0
SPLINE
  5
102
100
AcDbEntity
  8
Calque_1
 62
1
100
AcDbSpline
 70
8
 71
3
 72
8
 73
4
 74
0
 40
0
 40
0
 40
0
 40
0
 40
1
 40
1
 40
1
 40
1
 10
407.918370
 20
105.500000
 30
0.0
 10
407.520545
 20
105.500000
 30
0.0
 10
407.139014
 20
105.658035
 30
0.0
 10
406.857710
 20
105.939340
 30
0.0
  0
SPLINE
  5
103
100
AcDbEntity
  8
Calque_1
 62
1
100
AcDbSpline
 70
8
 71
3
 72
8
 73
4
 74
0
 40
0
 40
0
 40
0
 40
0
 40
1
 40
1
 40
1
 40
1
 10
406.857710
 20
105.939340
 30
0.0
 10
406.576405
 20
106.220644
 30
0.0
 10
406.418370
 20
106.602175
 30
0.0
 10
406.418370
 20
107.000000
 30
0.0
  0
SPLINE
  5
104
100
AcDbEntity
  8
Calque_1
 62
1
100
AcDbSpline
 70
8
 71
3
 72
8
 73
4
 74
0
 40
0
 40
0
 40
0
 40
0
 40
1
 40
1
 40
1
 40
1
 10
406.418370
 20
107.000000
 30
0.0
 10
406.418370
 20
107.397825
 30
0.0
 10
406.576405
 20
107.779356
 30
0.0
 10
406.857710
 20
108.060660
 30
0.0
  0
SPLINE
  5
105
100
AcDbEntity
  8
Calque_1
 62
1
100
AcDbSpline
 70
8
 71
3
 72
8
 73
4
 74
0
 40
0
 40
0
 40
0
 40
0
 40
1
 40
1
 40
1
 40
1
 10
406.857710
 20
108.060660
 30
0.0
 10
407.139014
 20
108.341965
 30
0.0
 10
407.520545
 20
108.500000
 30
0.0
 10
407.918370
 20
108.500000
 30
0.0
  0
SPLINE
  5
106
100
AcDbEntity
  8
Calque_1
 62
1
100
AcDbSpline
 70
8
 71
3
 72
8
 73
4
 74
0
 40
0
 40
0
 40
0
 40
0
 40
1
 40
1
 40
1
 40
1
 10
407.918370
 20
108.500000
 30
0.0
 10
408.316195
 20
108.500000
 30
0.0
 10
408.697726
 20
108.341965
 30
0.0
 10
408.979030
 20
108.060660
 30
0.0
  0
SPLINE
  5
107
100
AcDbEntity
  8
Calque_1
 62
1
100
AcDbSpline
 70
8
 71
3
 72
8
 73
4
 74
0
 40
0
 40
0
 40
0
 40
0
 40
1
 40
1
 40
1
 40
1
 10
408.979030
 20
108.060660
 30
0.0
 10
409.260335
 20
107.779356
 30
0.0
 10
409.418370
 20
107.397825
 30
0.0
 10
409.418370
 20
107.000000
 30
0.0
  0
SPLINE
  5
108
100
AcDbEntity
  8
Calque_1
 62
1
100
AcDbSpline
 70
8
 71
3
 72
8
 73
4
 74
0
 40
0
 40
0
 40
0
 40
0
 40
1
 40
1
 40
1
 40
1
 10
422.887760
 20
107.000000
 30
0.0
 10
422.887760
 20
106.602175
 30
0.0
 10
422.729725
 20
106.220644
 30
0.0
 10
422.448420
 20
105.939340
 30
0.0
  0
SPLINE
  5
109
100
AcDbEntity
  8
Calque_1
 62
1
100
AcDbSpline
 70
8
 71
3
 72
8
 73
4
 74
0
 40
0
 40
0
 40
0
 40
0
 40
1
 40
1
 40
1
 40
1
 10
422.448420
 20
105.939340
 30
0.0
 10
422.167116
 20
105.658035
 30
0.0
 10
421.785585
 20
105.500000
 30
0.0
 10
421.387760
 20
105.500000
 30
0.0
  0
SPLINE
  5
10a
100
AcDbEntity
  8
Calque_1
 62
1
100
AcDbSpline
 70
8
 71
3
 72
8
 73
4
 74
0
 40
0
 40
0
 40
0
 40
0
 40
1
 40
1
 40
1
 40
1
 10
421.387760
 20
105.500000
 30
0.0
 10
420.989935
 20
105.500000
 30
0.0
 10
420.608404
 20
105.658035
 30
0.0
 10
420.327100
 20
105.939340
 30
0.0
  0
SPLINE
  5
10b
100
AcDbEntity
  8
Calque_1
 62
1
100
AcDbSpline
 70
8
 71
3
 72
8
 73
4
 74
0
 40
0
 40
0
 40
0
 40
0
 40
1
 40
1
 40
1
 40
1
 10
420.327100
 20
105.939340
 30
0.0
 10
420.045795
 20
106.220644
 30
0.0
 10
419.887760
 20
106.602175
 30
0.0
 10
419.887760
 20
107.000000
 30
0.0
  0
SPLINE
  5
10c
100
AcDbEntity
  8
Calque_1
 62
1
100
AcDbSpline
 70
8
 71
3
 72
8
 73
4
 74
0
 40
0
 40
0
 40
0
 40
0
 40
1
 40
1
 40
1
 40
1
 10
419.887760
 20
107.000000
 30
0.0
 10
419.887760
 20
107.397825
 30
0.0
 10
420.045795
 20
107.779356
 30
0.0
 10
420.327100
 20
108.060660
 30
0.0
  0
SPLINE
  5
10d
100
AcDbEntity
  8
Calque_1
 62
1
100
AcDbSpline
 70
8
 71
3
 72
8
 73
4
 74
0
 40
0
 40
0
 40
0
 40
0
 40
1
 40
1
 40
1
 40
1
 10
420.327100
 20
108.060660
 30
0.0
 10
420.608404
 20
108.341965
 30
0.0
 10
420.989935
 20
108.500000
 30
0.0
 10
421.387760
 20
108.500000
 30
0.0
  0
SPLINE
  5
10e
100
AcDbEntity
  8
Calque_1
 62
1
100
AcDbSpline
 70
8
 71
3
 72
8
 73
4
 74
0
 40
0
 40
0
 40
0
 40
0
 40
1
 40
1
 40
1
 40
1
 10
421.387760
 20
108.500000
 30
0.0
 10
421.785585
 20
108.500000
 30
0.0
 10
422.167116
 20
108.341965
 30
0.0
 10
422.448420
 20
108.060660
 30
0.0
  0
SPLINE
  5
10f
100
AcDbEntity
  8
Calque_1
 62
1
100
AcDbSpline
 70
8
 71
3
 72
8
 73
4
 74
0
 40
0
 40
0
 40
0
 40
0
 40
1
 40
1
 40
1
 40
1
 10
422.448420
 20
108.060660
 30
0.0
 10
422.729725
 20
107.779356
 30
0.0
 10
422.887760
 20
107.397825
 30
0.0
 10
422.887760
 20
107.000000
 30
0.0
  0
LWPOLYLINE
  5
110
100
AcDbEntity
  8
Calque_1
 62
1
100
AcDbPolyline
 90
1
 70
1
 10
409.418370
 20
107.000000
 30
0.0
  0
SPLINE
  5
111
100
AcDbEntity
  8
Calque_1
 62
1
100
AcDbSpline
 70
8
 71
3
 72
8
 73
4
 74
0
 40
0
 40
0
 40
0
 40
0
 40
1
 40
1
 40
1
 40
1
 10
436.357150
 20
107.000000
 30
0.0
 10
436.357150
 20
106.602175
 30
0.0
 10
436.199115
 20
106.220644
 30
0.0
 10
435.917810
 20
105.939340
 30
0.0
  0
SPLINE
  5
112
100
AcDbEntity
  8
Calque_1
 62
1
100
AcDbSpline
 70
8
 71
3
 72
8
 73
4
 74
0
 40
0
 40
0
 40
0
 40
0
 40
1
 40
1
 40
1
 40
1
 10
435.917810
 20
105.939340
 30
0.0
 10
435.636506
 20
105.658035
 30
0.0
 10
435.254975
 20
105.500000
 30
0.0
 10
434.857150
 20
105.500000
 30
0.0
  0
SPLINE
  5
113
100
AcDbEntity
  8
Calque_1
 62
1
100
AcDbSpline
 70
8
 71
3
 72
8
 73
4
 74
0
 40
0
 40
0
 40
0
 40
0
 40
1
 40
1
 40
1
 40
1
 10
434.857150
 20
105.500000
 30
0.0
 10
434.459325
 20
105.500000
 30
0.0
 10
434.077794
 20
105.658035
 30
0.0
 10
433.796490
 20
105.939340
 30
0.0
  0
SPLINE
  5
114
100
AcDbEntity
  8
Calque_1
 62
1
100
AcDbSpline
 70
8
 71
3
 72
8
 73
4
 74
0
 40
0
 40
0
 40
0
 40
0
 40
1
 40
1
 40
1
 40
1
 10
433.796490
 20
105.939340
 30
0.0
 10
433.515185
 20
106.220644
 30
0.0
 10
433.357150
 20
106.602175
 30
0.0
 10
433.357150
 20
107.000000
 30
0.0
  0
SPLINE
  5
115
100
AcDbEntity
  8
Calque_1
 62
1
100
AcDbSpline
 70
8
 71
3
 72
8
 73
4
 74
0
 40
0
 40
0
 40
0
 40
0
 40
1
 40
1
 40
1
 40
1
 10
433.357150
 20
107.000000
 30
0.0
 10
433.357150
 20
107.397825
 30
0.0
 10
433.515185
 20
107.779356
 30
0.0
 10
433.796490
 20
108.060660
 30
0.0
  0
SPLINE
  5
116
100
AcDbEntity
  8
Calque_1
 62
1
100
AcDbSpline
 70
8
 71
3
 72
8
 73
4
 74
0
 40
0
 40
0
 40
0
 40
0
 40
1
 40
1
 40
1
 40
1
 10
433.796490
 20
108.060660
 30
0.0
 10
434.077794
 20
108.341965
 30
0.0
 10
434.459325
 20
108.500000
 30
0.0
 10
434.857150
 20
108.500000
 30
0.0
  0
SPLINE
  5
117
100
AcDbEntity
  8
Calque_1
 62
1
100
AcDbSpline
 70
8
 71
3
 72
8
 73
4
 74
0
 40
0
 40
0
 40
0
 40
0
 40
1
 40
1
 40
1
 40
1
 10
434.857150
 20
108.500000
 30
0.0
 10
435.254975
 20
108.500000
 30
0.0
 10
435.636506
 20
108.341965
 30
0.0
 10
435.917810
 20
108.060660
 30
0.0
  0
SPLINE
  5
118
100
AcDbEntity
  8
Calque_1
 62
1
100
AcDbSpline
 70
8
 71
3
 72
8
 73
4
 74
0
 40
0
 40
0
 40
0
 40
0
 40
1
 40
1
 40
1
 40
1
 10
435.917810
 20
108.060660
 30
0.0
 10
436.199115
 20
107.779356
 30
0.0
 10
436.357150
 20
107.397825
 30
0.0
 10
436.357150
 20
107.000000
 30
0.0
  0
LWPOLYLINE
  5
119
100
AcDbEntity
  8
Calque_1
 62
1
100
AcDbPolyline
 90
1
 70
1
 10
422.887760
 20
107.000000
 30
0.0
  0
SPLINE
  5
11a
100
AcDbEntity
  8
Calque_1
 62
1
100
AcDbSpline
 70
8
 71
3
 72
8
 73
4
 74
0
 40
0
 40
0
 40
0
 40
0
 40
1
 40
1
 40
1
 40
1
 10
449.826540
 20
107.000000
 30
0.0
 10
449.826540
 20
106.602175
 30
0.0
 10
449.668505
 20
106.220644
 30
0.0
 10
449.387200
 20
105.939340
 30
0.0
  0
SPLINE
  5
11b
100
AcDbEntity
  8
Calque_1
 62
1
100
AcDbSpline
 70
8
 71
3
 72
8
 73
4
 74
0
 40
0
 40
0
 40
0
 40
0
 40
1
 40
1
 40
1
 40
1
 10
449.387200
 20
105.939340
 30
0.0
 10
449.105896
 20
105.658035
 30
0.0
 10
448.724365
 20
105.500000
 30
0.0
 10
448.326540
 20
105.500000
 30
0.0
  0
SPLINE
  5
11c
100
AcDbEntity
  8
Calque_1
 62
1
100
AcDbSpline
 70
8
 71
3
 72
8
 73
4
 74
0
 40
0
 40
0
 40
0
 40
0
 40
1
 40
1
 40
1
 40
1
 10
448.326540
 20
105.500000
 30
0.0
 10
447.928715
 20
105.500000
 30
0.0
 10
447.547184
 20
105.658035
 30
0.0
 10
447.265880
 20
105.939340
 30
0.0
  0
SPLINE
  5
11d
100
AcDbEntity
  8
Calque_1
 62
1
100
AcDbSpline
 70
8
 71
3
 72
8
 73
4
 74
0
 40
0
 40
0
 40
0
 40
0
 40
1
 40
1
 40
1
 40
1
 10
447.265880
 20
105.939340
 30
0.0
 10
446.984575
 20
106.220644
 30
0.0
 10
446.826540
 20
106.602175
 30
0.0
 10
446.826540
 20
107.000000
 30
0.0
  0
SPLINE
  5
11e
100
AcDbEntity
  8
Calque_1
 62
1
100
AcDbSpline
 70
8
 71
3
 72
8
 73
4
 74
0
 40
0
 40
0
 40
0
 40
0
 40
1
 40
1
 40
1
 40
1
 10
446.826540
 20
107.000000
 30
0.0
 10
446.826540
 20
107.397825
 30
0.0
 10
446.984575
 20
107.779356
 30
0.0
 10
447.265880
 20
108.060660
 30
0.0
  0
SPLINE
  5
11f
100
AcDbEntity
  8
Calque_1
 62
1
100
AcDbSpline
 70
8
 71
3
 72
8
 73
4
 74
0
 40
0
 40
0
 40
0
 40
0
 40
1
 40
1
 40
1
 40
1
 10
447.265880
 20
108.060660
 30
0.0
 10
447.547184
 20
108.341965
 30
0.0
 10
447.928715
 20
108.500000
 30
0.0
 10
448.326540
 20
108.500000
 30
0.0
  0
SPLINE
  5
120
100
AcDbEntity
  8
Calque_1
 62
1
100
AcDbSpline
 70
8
 71
3
 72
8
 73
4
 74
0
 40
0
 40
0
 40
0
 40
0
 40
1
 40
1
 40
1
 40
1
 10
448.326540
 20
108.500000
 30
0.0
 10
448.724365
 20
108.500000
 30
0.0
 10
449.105896
 20
108.341965
 30
0.0
 10
449.387200
 20
108.060660
 30
0.0
  0
SPLINE
  5
121
100
AcDbEntity
  8
Calque_1
 62
1
100
AcDbSpline
 70
8
 71
3
 72
8
 73
4
 74
0
 40
0
 40
0
 40
0
 40
0
 40
1
 40
1
 40
1
 40
1
 10
449.387200
 20
108.060660
 30
0.0
 10
449.668505
 20
107.779356
 30
0.0
 10
449.826540
 20
107.397825
 30
0.0
 10
449.826540
 20
107.000000
 30
0.0
  0
LWPOLYLINE
  5
122
100
AcDbEntity
  8
Calque_1
 62
1
100
AcDbPolyline
 90
1
 70
1
 10
436.357150
 20
107.000000
 30
0.0
  0
SPLINE
  5
123
100
AcDbEntity
  8
Calque_1
 62
1
100
AcDbSpline
 70
8
 71
3
 72
8
 73
4
 74
0
 40
0
 40
0
 40
0
 40
0
 40
1
 40
1
 40
1
 40
1
 10
355.540800
 20
107.000000
 30
0.0
 10
355.540800
 20
106.602175
 30
0.0
 10
355.382765
 20
106.220644
 30
0.0
 10
355.101460
 20
105.939340
 30
0.0
  0
SPLINE
  5
124
100
AcDbEntity
  8
Calque_1
 62
1
100
AcDbSpline
 70
8
 71
3
 72
8
 73
4
 74
0
 40
0
 40
0
 40
0
 40
0
 40
1
 40
1
 40
1
 40
1
 10
355.101460
 20
105.939340
 30
0.0
 10
354.820156
 20
105.658035
 30
0.0
 10
354.438625
 20
105.500000
 30
0.0
 10
354.040800
 20
105.500000
 30
0.0
  0
SPLINE
  5
125
100
AcDbEntity
  8
Calque_1
 62
1
100
AcDbSpline
 70
8
 71
3
 72
8
 73
4
 74
0
 40
0
 40
0
 40
0
 40
0
 40
1
 40
1
 40
1
 40
1
 10
354.040800
 20
105.500000
 30
0.0
 10
353.642975
 20
105.500000
 30
0.0
 10
353.261444
 20
105.658035
 30
0.0
 10
352.980140
 20
105.939340
 30
0.0
  0
SPLINE
  5
126
100
AcDbEntity
  8
Calque_1
 62
1
100
AcDbSpline
 70
8
 71
3
 72
8
 73
4
 74
0
 40
0
 40
0
 40
0
 40
0
 40
1
 40
1
 40
1
 40
1
 10
352.980140
 20
105.939340
 30
0.0
 10
352.698835
 20
106.220644
 30
0.0
 10
352.540800
 20
106.602175
 30
0.0
 10
352.540800
 20
107.000000
 30
0.0
  0
SPLINE
  5
127
100
AcDbEntity
  8
Calque_1
 62
1
100
AcDbSpline
 70
8
 71
3
 72
8
 73
4
 74
0
 40
0
 40
0
 40
0
 40
0
 40
1
 40
1
 40
1
 40
1
 10
352.540800
 20
107.000000
 30
0.0
 10
352.540800
 20
107.397825
 30
0.0
 10
352.698835
 20
107.779356
 30
0.0
 10
352.980140
 20
108.060660
 30
0.0
  0
SPLINE
  5
128
100
AcDbEntity
  8
Calque_1
 62
1
100
AcDbSpline
 70
8
 71
3
 72
8
 73
4
 74
0
 40
0
 40
0
 40
0
 40
0
 40
1
 40
1
 40
1
 40
1
 10
352.980140
 20
108.060660
 30
0.0
 10
353.261444
 20
108.341965
 30
0.0
 10
353.642975
 20
108.500000
 30
0.0
 10
354.040800
 20
108.500000
 30
0.0
  0
SPLINE
  5
129
100
AcDbEntity
  8
Calque_1
 62
1
100
AcDbSpline
 70
8
 71
3
 72
8
 73
4
 74
0
 40
0
 40
0
 40
0
 40
0
 40
1
 40
1
 40
1
 40
1
 10
354.040800
 20
108.500000
 30
0.0
 10
354.438625
 20
108.500000
 30
0.0
 10
354.820156
 20
108.341965
 30
0.0
 10
355.101460
 20
108.060660
 30
0.0
  0
SPLINE
  5
12a
100
AcDbEntity
  8
Calque_1
 62
1
100
AcDbSpline
 70
8
 71
3
 72
8
 73
4
 74
0
 40
0
 40
0
 40
0
 40
0
 40
1
 40
1
 40
1
 40
1
 10
355.101460
 20
108.060660
 30
0.0
 10
355.382765
 20
107.779356
 30
0.0
 10
355.540800
 20
107.397825
 30
0.0
 10
355.540800
 20
107.000000
 30
0.0
  0
LWPOLYLINE
  5
12b
100
AcDbEntity
  8
Calque_1
 62
1
100
AcDbPolyline
 90
1
 70
1
 10
449.826540
 20
107.000000
 30
0.0
  0
SPLINE
  5
12c
100
AcDbEntity
  8
Calque_1
 62
1
100
AcDbSpline
 70
8
 71
3
 72
8
 73
4
 74
0
 40
0
 40
0
 40
0
 40
0
 40
1
 40
1
 40
1
 40
1
 10
261.255100
 20
107.000000
 30
0.0
 10
261.255100
 20
106.602175
 30
0.0
 10
261.097065
 20
106.220644
 30
0.0
 10
260.815760
 20
105.939340
 30
0.0
  0
SPLINE
  5
12d
100
AcDbEntity
  8
Calque_1
 62
1
100
AcDbSpline
 70
8
 71
3
 72
8
 73
4
 74
0
 40
0
 40
0
 40
0
 40
0
 40
1
 40
1
 40
1
 40
1
 10
260.815760
 20
105.939340
 30
0.0
 10
260.534456
 20
105.658035
 30
0.0
 10
260.152925
 20
105.500000
 30
0.0
 10
259.755100
 20
105.500000
 30
0.0
  0
SPLINE
  5
12e
100
AcDbEntity
  8
Calque_1
 62
1
100
AcDbSpline
 70
8
 71
3
 72
8
 73
4
 74
0
 40
0
 40
0
 40
0
 40
0
 40
1
 40
1
 40
1
 40
1
 10
259.755100
 20
105.500000
 30
0.0
 10
259.357275
 20
105.500000
 30
0.0
 10
258.975744
 20
105.658035
 30
0.0
 10
258.694440
 20
105.939340
 30
0.0
  0
SPLINE
  5
12f
100
AcDbEntity
  8
Calque_1
 62
1
100
AcDbSpline
 70
8
 71
3
 72
8
 73
4
 74
0
 40
0
 40
0
 40
0
 40
0
 40
1
 40
1
 40
1
 40
1
 10
258.694440
 20
105.939340
 30
0.0
 10
258.413135
 20
106.220644
 30
0.0
 10
258.255100
 20
106.602175
 30
0.0
 10
258.255100
 20
107.000000
 30
0.0
  0
SPLINE
  5
130
100
AcDbEntity
  8
Calque_1
 62
1
100
AcDbSpline
 70
8
 71
3
 72
8
 73
4
 74
0
 40
0
 40
0
 40
0
 40
0
 40
1
 40
1
 40
1
 40
1
 10
258.255100
 20
107.000000
 30
0.0
 10
258.255100
 20
107.397825
 30
0.0
 10
258.413135
 20
107.779356
 30
0.0
 10
258.694440
 20
108.060660
 30
0.0
  0
SPLINE
  5
131
100
AcDbEntity
  8
Calque_1
 62
1
100
AcDbSpline
 70
8
 71
3
 72
8
 73
4
 74
0
 40
0
 40
0
 40
0
 40
0
 40
1
 40
1
 40
1
 40
1
 10
258.694440
 20
108.060660
 30
0.0
 10
258.975744
 20
108.341965
 30
0.0
 10
259.357275
 20
108.500000
 30
0.0
 10
259.755100
 20
108.500000
 30
0.0
  0
SPLINE
  5
132
100
AcDbEntity
  8
Calque_1
 62
1
100
AcDbSpline
 70
8
 71
3
 72
8
 73
4
 74
0
 40
0
 40
0
 40
0
 40
0
 40
1
 40
1
 40
1
 40
1
 10
259.755100
 20
108.500000
 30
0.0
 10
260.152925
 20
108.500000
 30
0.0
 10
260.534456
 20
108.341965
 30
0.0
 10
260.815760
 20
108.060660
 30
0.0
  0
SPLINE
  5
133
100
AcDbEntity
  8
Calque_1
 62
1
100
AcDbSpline
 70
8
 71
3
 72
8
 73
4
 74
0
 40
0
 40
0
 40
0
 40
0
 40
1
 40
1
 40
1
 40
1
 10
260.815760
 20
108.060660
 30
0.0
 10
261.097065
 20
107.779356
 30
0.0
 10
261.255100
 20
107.397825
 30
0.0
 10
261.255100
 20
107.000000
 30
0.0
  0
LWPOLYLINE
  5
134
100
AcDbEntity
  8
Calque_1
 62
1
100
AcDbPolyline
 90
1
 70
1
 10
355.540800
 20
107.000000
 30
0.0
  0
SPLINE
  5
135
100
AcDbEntity
  8
Calque_1
 62
1
100
AcDbSpline
 70
8
 71
3
 72
8
 73
4
 74
0
 40
0
 40
0
 40
0
 40
0
 40
1
 40
1
 40
1
 40
1
 10
382.479580
 20
107.000000
 30
0.0
 10
382.479580
 20
106.602175
 30
0.0
 10
382.321545
 20
106.220644
 30
0.0
 10
382.040240
 20
105.939340
 30
0.0
  0
SPLINE
  5
136
100
AcDbEntity
  8
Calque_1
 62
1
100
AcDbSpline
 70
8
 71
3
 72
8
 73
4
 74
0
 40
0
 40
0
 40
0
 40
0
 40
1
 40
1
 40
1
 40
1
 10
382.040240
 20
105.939340
 30
0.0
 10
381.758936
 20
105.658035
 30
0.0
 10
381.377405
 20
105.500000
 30
0.0
 10
380.979580
 20
105.500000
 30
0.0
  0
SPLINE
  5
137
100
AcDbEntity
  8
Calque_1
 62
1
100
AcDbSpline
 70
8
 71
3
 72
8
 73
4
 74
0
 40
0
 40
0
 40
0
 40
0
 40
1
 40
1
 40
1
 40
1
 10
380.979580
 20
105.500000
 30
0.0
 10
380.151153
 20
105.500000
 30
0.0
 10
379.479580
 20
106.171573
 30
0.0
 10
379.479580
 20
107.000000
 30
0.0
  0
SPLINE
  5
138
100
AcDbEntity
  8
Calque_1
 62
1
100
AcDbSpline
 70
8
 71
3
 72
8
 73
4
 74
0
 40
0
 40
0
 40
0
 40
0
 40
1
 40
1
 40
1
 40
1
 10
379.479580
 20
107.000000
 30
0.0
 10
379.479580
 20
107.397825
 30
0.0
 10
379.637615
 20
107.779356
 30
0.0
 10
379.918920
 20
108.060660
 30
0.0
  0
SPLINE
  5
139
100
AcDbEntity
  8
Calque_1
 62
1
100
AcDbSpline
 70
8
 71
3
 72
8
 73
4
 74
0
 40
0
 40
0
 40
0
 40
0
 40
1
 40
1
 40
1
 40
1
 10
379.918920
 20
108.060660
 30
0.0
 10
380.200224
 20
108.341965
 30
0.0
 10
380.581755
 20
108.500000
 30
0.0
 10
380.979580
 20
108.500000
 30
0.0
  0
SPLINE
  5
13a
100
AcDbEntity
  8
Calque_1
 62
1
100
AcDbSpline
 70
8
 71
3
 72
8
 73
4
 74
0
 40
0
 40
0
 40
0
 40
0
 40
1
 40
1
 40
1
 40
1
 10
380.979580
 20
108.500000
 30
0.0
 10
381.377405
 20
108.500000
 30
0.0
 10
381.758936
 20
108.341965
 30
0.0
 10
382.040240
 20
108.060660
 30
0.0
  0
SPLINE
  5
13b
100
AcDbEntity
  8
Calque_1
 62
1
100
AcDbSpline
 70
8
 71
3
 72
8
 73
4
 74
0
 40
0
 40
0
 40
0
 40
0
 40
1
 40
1
 40
1
 40
1
 10
382.040240
 20
108.060660
 30
0.0
 10
382.321545
 20
107.779356
 30
0.0
 10
382.479580
 20
107.397825
 30
0.0
 10
382.479580
 20
107.000000
 30
0.0
  0
LWPOLYLINE
  5
13c
100
AcDbEntity
  8
Calque_1
 62
1
100
AcDbPolyline
 90
1
 70
1
 10
261.255100
 20
107.000000
 30
0.0
  0
SPLINE
  5
13d
100
AcDbEntity
  8
Calque_1
 62
1
100
AcDbSpline
 70
8
 71
3
 72
8
 73
4
 74
0
 40
0
 40
0
 40
0
 40
0
 40
1
 40
1
 40
1
 40
1
 10
395.948970
 20
107.000000
 30
0.0
 10
395.948970
 20
106.602175
 30
0.0
 10
395.790935
 20
106.220644
 30
0.0
 10
395.509630
 20
105.939340
 30
0.0
  0
SPLINE
  5
13e
100
AcDbEntity
  8
Calque_1
 62
1
100
AcDbSpline
 70
8
 71
3
 72
8
 73
4
 74
0
 40
0
 40
0
 40
0
 40
0
 40
1
 40
1
 40
1
 40
1
 10
395.509630
 20
105.939340
 30
0.0
 10
395.228326
 20
105.658035
 30
0.0
 10
394.846795
 20
105.500000
 30
0.0
 10
394.448970
 20
105.500000
 30
0.0
  0
SPLINE
  5
13f
100
AcDbEntity
  8
Calque_1
 62
1
100
AcDbSpline
 70
8
 71
3
 72
8
 73
4
 74
0
 40
0
 40
0
 40
0
 40
0
 40
1
 40
1
 40
1
 40
1
 10
394.448970
 20
105.500000
 30
0.0
 10
394.051145
 20
105.500000
 30
0.0
 10
393.669614
 20
105.658035
 30
0.0
 10
393.388310
 20
105.939340
 30
0.0
  0
SPLINE
  5
140
100
AcDbEntity
  8
Calque_1
 62
1
100
AcDbSpline
 70
8
 71
3
 72
8
 73
4
 74
0
 40
0
 40
0
 40
0
 40
0
 40
1
 40
1
 40
1
 40
1
 10
393.388310
 20
105.939340
 30
0.0
 10
393.107005
 20
106.220644
 30
0.0
 10
392.948970
 20
106.602175
 30
0.0
 10
392.948970
 20
107.000000
 30
0.0
  0
SPLINE
  5
141
100
AcDbEntity
  8
Calque_1
 62
1
100
AcDbSpline
 70
8
 71
3
 72
8
 73
4
 74
0
 40
0
 40
0
 40
0
 40
0
 40
1
 40
1
 40
1
 40
1
 10
392.948970
 20
107.000000
 30
0.0
 10
392.948970
 20
107.397825
 30
0.0
 10
393.107005
 20
107.779356
 30
0.0
 10
393.388310
 20
108.060660
 30
0.0
  0
SPLINE
  5
142
100
AcDbEntity
  8
Calque_1
 62
1
100
AcDbSpline
 70
8
 71
3
 72
8
 73
4
 74
0
 40
0
 40
0
 40
0
 40
0
 40
1
 40
1
 40
1
 40
1
 10
393.388310
 20
108.060660
 30
0.0
 10
393.669614
 20
108.341965
 30
0.0
 10
394.051145
 20
108.500000
 30
0.0
 10
394.448970
 20
108.500000
 30
0.0
  0
SPLINE
  5
143
100
AcDbEntity
  8
Calque_1
 62
1
100
AcDbSpline
 70
8
 71
3
 72
8
 73
4
 74
0
 40
0
 40
0
 40
0
 40
0
 40
1
 40
1
 40
1
 40
1
 10
394.448970
 20
108.500000
 30
0.0
 10
394.846795
 20
108.500000
 30
0.0
 10
395.228326
 20
108.341965
 30
0.0
 10
395.509630
 20
108.060660
 30
0.0
  0
SPLINE
  5
144
100
AcDbEntity
  8
Calque_1
 62
1
100
AcDbSpline
 70
8
 71
3
 72
8
 73
4
 74
0
 40
0
 40
0
 40
0
 40
0
 40
1
 40
1
 40
1
 40
1
 10
395.509630
 20
108.060660
 30
0.0
 10
395.790935
 20
107.779356
 30
0.0
 10
395.948970
 20
107.397825
 30
0.0
 10
395.948970
 20
107.000000
 30
0.0
  0
LWPOLYLINE
  5
145
100
AcDbEntity
  8
Calque_1
 62
1
100
AcDbPolyline
 90
1
 70
1
 10
382.479580
 20
107.000000
 30
0.0
  0
SPLINE
  5
146
100
AcDbEntity
  8
Calque_1
 62
1
100
AcDbSpline
 70
8
 71
3
 72
8
 73
4
 74
0
 40
0
 40
0
 40
0
 40
0
 40
1
 40
1
 40
1
 40
1
 10
247.785720
 20
107.000000
 30
0.0
 10
247.785720
 20
106.602175
 30
0.0
 10
247.627685
 20
106.220644
 30
0.0
 10
247.346380
 20
105.939340
 30
0.0
  0
SPLINE
  5
147
100
AcDbEntity
  8
Calque_1
 62
1
100
AcDbSpline
 70
8
 71
3
 72
8
 73
4
 74
0
 40
0
 40
0
 40
0
 40
0
 40
1
 40
1
 40
1
 40
1
 10
247.346380
 20
105.939340
 30
0.0
 10
247.065076
 20
105.658035
 30
0.0
 10
246.683545
 20
105.500000
 30
0.0
 10
246.285720
 20
105.500000
 30
0.0
  0
SPLINE
  5
148
100
AcDbEntity
  8
Calque_1
 62
1
100
AcDbSpline
 70
8
 71
3
 72
8
 73
4
 74
0
 40
0
 40
0
 40
0
 40
0
 40
1
 40
1
 40
1
 40
1
 10
246.285720
 20
105.500000
 30
0.0
 10
245.887895
 20
105.500000
 30
0.0
 10
245.506364
 20
105.658035
 30
0.0
 10
245.225060
 20
105.939340
 30
0.0
  0
SPLINE
  5
149
100
AcDbEntity
  8
Calque_1
 62
1
100
AcDbSpline
 70
8
 71
3
 72
8
 73
4
 74
0
 40
0
 40
0
 40
0
 40
0
 40
1
 40
1
 40
1
 40
1
 10
245.225060
 20
105.939340
 30
0.0
 10
244.943755
 20
106.220644
 30
0.0
 10
244.785720
 20
106.602175
 30
0.0
 10
244.785720
 20
107.000000
 30
0.0
  0
SPLINE
  5
14a
100
AcDbEntity
  8
Calque_1
 62
1
100
AcDbSpline
 70
8
 71
3
 72
8
 73
4
 74
0
 40
0
 40
0
 40
0
 40
0
 40
1
 40
1
 40
1
 40
1
 10
244.785720
 20
107.000000
 30
0.0
 10
244.785720
 20
107.397825
 30
0.0
 10
244.943755
 20
107.779356
 30
0.0
 10
245.225060
 20
108.060660
 30
0.0
  0
SPLINE
  5
14b
100
AcDbEntity
  8
Calque_1
 62
1
100
AcDbSpline
 70
8
 71
3
 72
8
 73
4
 74
0
 40
0
 40
0
 40
0
 40
0
 40
1
 40
1
 40
1
 40
1
 10
245.225060
 20
108.060660
 30
0.0
 10
245.506364
 20
108.341965
 30
0.0
 10
245.887895
 20
108.500000
 30
0.0
 10
246.285720
 20
108.500000
 30
0.0
  0
SPLINE
  5
14c
100
AcDbEntity
  8
Calque_1
 62
1
100
AcDbSpline
 70
8
 71
3
 72
8
 73
4
 74
0
 40
0
 40
0
 40
0
 40
0
 40
1
 40
1
 40
1
 40
1
 10
246.285720
 20
108.500000
 30
0.0
 10
246.683545
 20
108.500000
 30
0.0
 10
247.065076
 20
108.341965
 30
0.0
 10
247.346380
 20
108.060660
 30
0.0
  0
SPLINE
  5
14d
100
AcDbEntity
  8
Calque_1
 62
1
100
AcDbSpline
 70
8
 71
3
 72
8
 73
4
 74
0
 40
0
 40
0
 40
0
 40
0
 40
1
 40
1
 40
1
 40
1
 10
247.346380
 20
108.060660
 30
0.0
 10
247.627685
 20
107.779356
 30
0.0
 10
247.785720
 20
107.397825
 30
0.0
 10
247.785720
 20
107.000000
 30
0.0
  0
LWPOLYLINE
  5
14e
100
AcDbEntity
  8
Calque_1
 62
1
100
AcDbPolyline
 90
1
 70
1
 10
395.948970
 20
107.000000
 30
0.0
  0
SPLINE
  5
14f
100
AcDbEntity
  8
Calque_1
 62
1
100
AcDbSpline
 70
8
 71
3
 72
8
 73
4
 74
0
 40
0
 40
0
 40
0
 40
0
 40
1
 40
1
 40
1
 40
1
 10
463.295930
 20
107.000000
 30
0.0
 10
463.295930
 20
106.602175
 30
0.0
 10
463.137895
 20
106.220644
 30
0.0
 10
462.856590
 20
105.939340
 30
0.0
  0
SPLINE
  5
150
100
AcDbEntity
  8
Calque_1
 62
1
100
AcDbSpline
 70
8
 71
3
 72
8
 73
4
 74
0
 40
0
 40
0
 40
0
 40
0
 40
1
 40
1
 40
1
 40
1
 10
462.856590
 20
105.939340
 30
0.0
 10
462.575286
 20
105.658035
 30
0.0
 10
462.193755
 20
105.500000
 30
0.0
 10
461.795930
 20
105.500000
 30
0.0
  0
SPLINE
  5
151
100
AcDbEntity
  8
Calque_1
 62
1
100
AcDbSpline
 70
8
 71
3
 72
8
 73
4
 74
0
 40
0
 40
0
 40
0
 40
0
 40
1
 40
1
 40
1
 40
1
 10
461.795930
 20
105.500000
 30
0.0
 10
461.398105
 20
105.500000
 30
0.0
 10
461.016574
 20
105.658035
 30
0.0
 10
460.735270
 20
105.939340
 30
0.0
  0
SPLINE
  5
152
100
AcDbEntity
  8
Calque_1
 62
1
100
AcDbSpline
 70
8
 71
3
 72
8
 73
4
 74
0
 40
0
 40
0
 40
0
 40
0
 40
1
 40
1
 40
1
 40
1
 10
460.735270
 20
105.939340
 30
0.0
 10
460.453965
 20
106.220644
 30
0.0
 10
460.295930
 20
106.602175
 30
0.0
 10
460.295930
 20
107.000000
 30
0.0
  0
SPLINE
  5
153
100
AcDbEntity
  8
Calque_1
 62
1
100
AcDbSpline
 70
8
 71
3
 72
8
 73
4
 74
0
 40
0
 40
0
 40
0
 40
0
 40
1
 40
1
 40
1
 40
1
 10
460.295930
 20
107.000000
 30
0.0
 10
460.295930
 20
107.397825
 30
0.0
 10
460.453965
 20
107.779356
 30
0.0
 10
460.735270
 20
108.060660
 30
0.0
  0
SPLINE
  5
154
100
AcDbEntity
  8
Calque_1
 62
1
100
AcDbSpline
 70
8
 71
3
 72
8
 73
4
 74
0
 40
0
 40
0
 40
0
 40
0
 40
1
 40
1
 40
1
 40
1
 10
460.735270
 20
108.060660
 30
0.0
 10
461.016574
 20
108.341965
 30
0.0
 10
461.398105
 20
108.500000
 30
0.0
 10
461.795930
 20
108.500000
 30
0.0
  0
SPLINE
  5
155
100
AcDbEntity
  8
Calque_1
 62
1
100
AcDbSpline
 70
8
 71
3
 72
8
 73
4
 74
0
 40
0
 40
0
 40
0
 40
0
 40
1
 40
1
 40
1
 40
1
 10
461.795930
 20
108.500000
 30
0.0
 10
462.193755
 20
108.500000
 30
0.0
 10
462.575286
 20
108.341965
 30
0.0
 10
462.856590
 20
108.060660
 30
0.0
  0
SPLINE
  5
156
100
AcDbEntity
  8
Calque_1
 62
1
100
AcDbSpline
 70
8
 71
3
 72
8
 73
4
 74
0
 40
0
 40
0
 40
0
 40
0
 40
1
 40
1
 40
1
 40
1
 10
462.856590
 20
108.060660
 30
0.0
 10
463.137895
 20
107.779356
 30
0.0
 10
463.295930
 20
107.397825
 30
0.0
 10
463.295930
 20
107.000000
 30
0.0
  0
LWPOLYLINE
  5
157
100
AcDbEntity
  8
Calque_1
 62
1
100
AcDbPolyline
 90
1
 70
1
 10
247.785720
 20
107.000000
 30
0.0
  0
SPLINE
  5
158
100
AcDbEntity
  8
Calque_1
 62
1
100
AcDbSpline
 70
8
 71
3
 72
8
 73
4
 74
0
 40
0
 40
0
 40
0
 40
0
 40
1
 40
1
 40
1
 40
1
 10
476.765320
 20
107.000000
 30
0.0
 10
476.765320
 20
106.602175
 30
0.0
 10
476.607285
 20
106.220644
 30
0.0
 10
476.325980
 20
105.939340
 30
0.0
  0
SPLINE
  5
159
100
AcDbEntity
  8
Calque_1
 62
1
100
AcDbSpline
 70
8
 71
3
 72
8
 73
4
 74
0
 40
0
 40
0
 40
0
 40
0
 40
1
 40
1
 40
1
 40
1
 10
476.325980
 20
105.939340
 30
0.0
 10
476.044676
 20
105.658035
 30
0.0
 10
475.663145
 20
105.500000
 30
0.0
 10
475.265320
 20
105.500000
 30
0.0
  0
SPLINE
  5
15a
100
AcDbEntity
  8
Calque_1
 62
1
100
AcDbSpline
 70
8
 71
3
 72
8
 73
4
 74
0
 40
0
 40
0
 40
0
 40
0
 40
1
 40
1
 40
1
 40
1
 10
475.265320
 20
105.500000
 30
0.0
 10
474.867495
 20
105.500000
 30
0.0
 10
474.485964
 20
105.658035
 30
0.0
 10
474.204660
 20
105.939340
 30
0.0
  0
SPLINE
  5
15b
100
AcDbEntity
  8
Calque_1
 62
1
100
AcDbSpline
 70
8
 71
3
 72
8
 73
4
 74
0
 40
0
 40
0
 40
0
 40
0
 40
1
 40
1
 40
1
 40
1
 10
474.204660
 20
105.939340
 30
0.0
 10
473.923355
 20
106.220644
 30
0.0
 10
473.765320
 20
106.602175
 30
0.0
 10
473.765320
 20
107.000000
 30
0.0
  0
SPLINE
  5
15c
100
AcDbEntity
  8
Calque_1
 62
1
100
AcDbSpline
 70
8
 71
3
 72
8
 73
4
 74
0
 40
0
 40
0
 40
0
 40
0
 40
1
 40
1
 40
1
 40
1
 10
473.765320
 20
107.000000
 30
0.0
 10
473.765320
 20
107.397825
 30
0.0
 10
473.923355
 20
107.779356
 30
0.0
 10
474.204660
 20
108.060660
 30
0.0
  0
SPLINE
  5
15d
100
AcDbEntity
  8
Calque_1
 62
1
100
AcDbSpline
 70
8
 71
3
 72
8
 73
4
 74
0
 40
0
 40
0
 40
0
 40
0
 40
1
 40
1
 40
1
 40
1
 10
474.204660
 20
108.060660
 30
0.0
 10
474.485964
 20
108.341965
 30
0.0
 10
474.867495
 20
108.500000
 30
0.0
 10
475.265320
 20
108.500000
 30
0.0
  0
SPLINE
  5
15e
100
AcDbEntity
  8
Calque_1
 62
1
100
AcDbSpline
 70
8
 71
3
 72
8
 73
4
 74
0
 40
0
 40
0
 40
0
 40
0
 40
1
 40
1
 40
1
 40
1
 10
475.265320
 20
108.500000
 30
0.0
 10
475.663145
 20
108.500000
 30
0.0
 10
476.044676
 20
108.341965
 30
0.0
 10
476.325980
 20
108.060660
 30
0.0
  0
SPLINE
  5
15f
100
AcDbEntity
  8
Calque_1
 62
1
100
AcDbSpline
 70
8
 71
3
 72
8
 73
4
 74
0
 40
0
 40
0
 40
0
 40
0
 40
1
 40
1
 40
1
 40
1
 10
476.325980
 20
108.060660
 30
0.0
 10
476.607285
 20
107.779356
 30
0.0
 10
476.765320
 20
107.397825
 30
0.0
 10
476.765320
 20
107.000000
 30
0.0
  0
LWPOLYLINE
  5
160
100
AcDbEntity
  8
Calque_1
 62
1
100
AcDbPolyline
 90
1
 70
1
 10
463.295930
 20
107.000000
 30
0.0
  0
SPLINE
  5
161
100
AcDbEntity
  8
Calque_1
 62
1
100
AcDbSpline
 70
8
 71
3
 72
8
 73
4
 74
0
 40
0
 40
0
 40
0
 40
0
 40
1
 40
1
 40
1
 40
1
 10
166.969390
 20
107.000000
 30
0.0
 10
166.969390
 20
106.602175
 30
0.0
 10
166.811355
 20
106.220644
 30
0.0
 10
166.530050
 20
105.939340
 30
0.0
  0
SPLINE
  5
162
100
AcDbEntity
  8
Calque_1
 62
1
100
AcDbSpline
 70
8
 71
3
 72
8
 73
4
 74
0
 40
0
 40
0
 40
0
 40
0
 40
1
 40
1
 40
1
 40
1
 10
166.530050
 20
105.939340
 30
0.0
 10
166.248746
 20
105.658035
 30
0.0
 10
165.867215
 20
105.500000
 30
0.0
 10
165.469390
 20
105.500000
 30
0.0
  0
SPLINE
  5
163
100
AcDbEntity
  8
Calque_1
 62
1
100
AcDbSpline
 70
8
 71
3
 72
8
 73
4
 74
0
 40
0
 40
0
 40
0
 40
0
 40
1
 40
1
 40
1
 40
1
 10
165.469390
 20
105.500000
 30
0.0
 10
165.071565
 20
105.500000
 30
0.0
 10
164.690034
 20
105.658035
 30
0.0
 10
164.408730
 20
105.939340
 30
0.0
  0
SPLINE
  5
164
100
AcDbEntity
  8
Calque_1
 62
1
100
AcDbSpline
 70
8
 71
3
 72
8
 73
4
 74
0
 40
0
 40
0
 40
0
 40
0
 40
1
 40
1
 40
1
 40
1
 10
164.408730
 20
105.939340
 30
0.0
 10
164.127425
 20
106.220644
 30
0.0
 10
163.969390
 20
106.602175
 30
0.0
 10
163.969390
 20
107.000000
 30
0.0
  0
SPLINE
  5
165
100
AcDbEntity
  8
Calque_1
 62
1
100
AcDbSpline
 70
8
 71
3
 72
8
 73
4
 74
0
 40
0
 40
0
 40
0
 40
0
 40
1
 40
1
 40
1
 40
1
 10
163.969390
 20
107.000000
 30
0.0
 10
163.969390
 20
107.397825
 30
0.0
 10
164.127425
 20
107.779356
 30
0.0
 10
164.408730
 20
108.060660
 30
0.0
  0
SPLINE
  5
166
100
AcDbEntity
  8
Calque_1
 62
1
100
AcDbSpline
 70
8
 71
3
 72
8
 73
4
 74
0
 40
0
 40
0
 40
0
 40
0
 40
1
 40
1
 40
1
 40
1
 10
164.408730
 20
108.060660
 30
0.0
 10
164.690034
 20
108.341965
 30
0.0
 10
165.071565
 20
108.500000
 30
0.0
 10
165.469390
 20
108.500000
 30
0.0
  0
SPLINE
  5
167
100
AcDbEntity
  8
Calque_1
 62
1
100
AcDbSpline
 70
8
 71
3
 72
8
 73
4
 74
0
 40
0
 40
0
 40
0
 40
0
 40
1
 40
1
 40
1
 40
1
 10
165.469390
 20
108.500000
 30
0.0
 10
165.867215
 20
108.500000
 30
0.0
 10
166.248746
 20
108.341965
 30
0.0
 10
166.530050
 20
108.060660
 30
0.0
  0
SPLINE
  5
168
100
AcDbEntity
  8
Calque_1
 62
1
100
AcDbSpline
 70
8
 71
3
 72
8
 73
4
 74
0
 40
0
 40
0
 40
0
 40
0
 40
1
 40
1
 40
1
 40
1
 10
166.530050
 20
108.060660
 30
0.0
 10
166.811355
 20
107.779356
 30
0.0
 10
166.969390
 20
107.397825
 30
0.0
 10
166.969390
 20
107.000000
 30
0.0
  0
LWPOLYLINE
  5
169
100
AcDbEntity
  8
Calque_1
 62
1
100
AcDbPolyline
 90
1
 70
1
 10
476.765320
 20
107.000000
 30
0.0
  0
SPLINE
  5
16a
100
AcDbEntity
  8
Calque_1
 62
1
100
AcDbSpline
 70
8
 71
3
 72
8
 73
4
 74
0
 40
0
 40
0
 40
0
 40
0
 40
1
 40
1
 40
1
 40
1
 10
180.438780
 20
107.000000
 30
0.0
 10
180.438780
 20
106.602175
 30
0.0
 10
180.280745
 20
106.220644
 30
0.0
 10
179.999440
 20
105.939340
 30
0.0
  0
SPLINE
  5
16b
100
AcDbEntity
  8
Calque_1
 62
1
100
AcDbSpline
 70
8
 71
3
 72
8
 73
4
 74
0
 40
0
 40
0
 40
0
 40
0
 40
1
 40
1
 40
1
 40
1
 10
179.999440
 20
105.939340
 30
0.0
 10
179.718136
 20
105.658035
 30
0.0
 10
179.336605
 20
105.500000
 30
0.0
 10
178.938780
 20
105.500000
 30
0.0
  0
SPLINE
  5
16c
100
AcDbEntity
  8
Calque_1
 62
1
100
AcDbSpline
 70
8
 71
3
 72
8
 73
4
 74
0
 40
0
 40
0
 40
0
 40
0
 40
1
 40
1
 40
1
 40
1
 10
178.938780
 20
105.500000
 30
0.0
 10
178.540955
 20
105.500000
 30
0.0
 10
178.159424
 20
105.658035
 30
0.0
 10
177.878120
 20
105.939340
 30
0.0
  0
SPLINE
  5
16d
100
AcDbEntity
  8
Calque_1
 62
1
100
AcDbSpline
 70
8
 71
3
 72
8
 73
4
 74
0
 40
0
 40
0
 40
0
 40
0
 40
1
 40
1
 40
1
 40
1
 10
177.878120
 20
105.939340
 30
0.0
 10
177.596815
 20
106.220644
 30
0.0
 10
177.438780
 20
106.602175
 30
0.0
 10
177.438780
 20
107.000000
 30
0.0
  0
SPLINE
  5
16e
100
AcDbEntity
  8
Calque_1
 62
1
100
AcDbSpline
 70
8
 71
3
 72
8
 73
4
 74
0
 40
0
 40
0
 40
0
 40
0
 40
1
 40
1
 40
1
 40
1
 10
177.438780
 20
107.000000
 30
0.0
 10
177.438780
 20
107.397825
 30
0.0
 10
177.596815
 20
107.779356
 30
0.0
 10
177.878120
 20
108.060660
 30
0.0
  0
SPLINE
  5
16f
100
AcDbEntity
  8
Calque_1
 62
1
100
AcDbSpline
 70
8
 71
3
 72
8
 73
4
 74
0
 40
0
 40
0
 40
0
 40
0
 40
1
 40
1
 40
1
 40
1
 10
177.878120
 20
108.060660
 30
0.0
 10
178.159424
 20
108.341965
 30
0.0
 10
178.540955
 20
108.500000
 30
0.0
 10
178.938780
 20
108.500000
 30
0.0
  0
SPLINE
  5
170
100
AcDbEntity
  8
Calque_1
 62
1
100
AcDbSpline
 70
8
 71
3
 72
8
 73
4
 74
0
 40
0
 40
0
 40
0
 40
0
 40
1
 40
1
 40
1
 40
1
 10
178.938780
 20
108.500000
 30
0.0
 10
179.336605
 20
108.500000
 30
0.0
 10
179.718136
 20
108.341965
 30
0.0
 10
179.999440
 20
108.060660
 30
0.0
  0
SPLINE
  5
171
100
AcDbEntity
  8
Calque_1
 62
1
100
AcDbSpline
 70
8
 71
3
 72
8
 73
4
 74
0
 40
0
 40
0
 40
0
 40
0
 40
1
 40
1
 40
1
 40
1
 10
179.999440
 20
108.060660
 30
0.0
 10
180.280745
 20
107.779356
 30
0.0
 10
180.438780
 20
107.397825
 30
0.0
 10
180.438780
 20
107.000000
 30
0.0
  0
LWPOLYLINE
  5
172
100
AcDbEntity
  8
Calque_1
 62
1
100
AcDbPolyline
 90
1
 70
1
 10
166.969390
 20
107.000000
 30
0.0
  0
SPLINE
  5
173
100
AcDbEntity
  8
Calque_1
 62
1
100
AcDbSpline
 70
8
 71
3
 72
8
 73
4
 74
0
 40
0
 40
0
 40
0
 40
0
 40
1
 40
1
 40
1
 40
1
 10
140.030610
 20
107.000000
 30
0.0
 10
140.030610
 20
106.602175
 30
0.0
 10
139.872575
 20
106.220644
 30
0.0
 10
139.591270
 20
105.939340
 30
0.0
  0
SPLINE
  5
174
100
AcDbEntity
  8
Calque_1
 62
1
100
AcDbSpline
 70
8
 71
3
 72
8
 73
4
 74
0
 40
0
 40
0
 40
0
 40
0
 40
1
 40
1
 40
1
 40
1
 10
139.591270
 20
105.939340
 30
0.0
 10
139.309966
 20
105.658035
 30
0.0
 10
138.928435
 20
105.500000
 30
0.0
 10
138.530610
 20
105.500000
 30
0.0
  0
SPLINE
  5
175
100
AcDbEntity
  8
Calque_1
 62
1
100
AcDbSpline
 70
8
 71
3
 72
8
 73
4
 74
0
 40
0
 40
0
 40
0
 40
0
 40
1
 40
1
 40
1
 40
1
 10
138.530610
 20
105.500000
 30
0.0
 10
137.702183
 20
105.500000
 30
0.0
 10
137.030610
 20
106.171573
 30
0.0
 10
137.030610
 20
107.000000
 30
0.0
  0
SPLINE
  5
176
100
AcDbEntity
  8
Calque_1
 62
1
100
AcDbSpline
 70
8
 71
3
 72
8
 73
4
 74
0
 40
0
 40
0
 40
0
 40
0
 40
1
 40
1
 40
1
 40
1
 10
137.030610
 20
107.000000
 30
0.0
 10
137.030610
 20
107.397825
 30
0.0
 10
137.188645
 20
107.779356
 30
0.0
 10
137.469950
 20
108.060660
 30
0.0
  0
SPLINE
  5
177
100
AcDbEntity
  8
Calque_1
 62
1
100
AcDbSpline
 70
8
 71
3
 72
8
 73
4
 74
0
 40
0
 40
0
 40
0
 40
0
 40
1
 40
1
 40
1
 40
1
 10
137.469950
 20
108.060660
 30
0.0
 10
137.751254
 20
108.341965
 30
0.0
 10
138.132785
 20
108.500000
 30
0.0
 10
138.530610
 20
108.500000
 30
0.0
  0
SPLINE
  5
178
100
AcDbEntity
  8
Calque_1
 62
1
100
AcDbSpline
 70
8
 71
3
 72
8
 73
4
 74
0
 40
0
 40
0
 40
0
 40
0
 40
1
 40
1
 40
1
 40
1
 10
138.530610
 20
108.500000
 30
0.0
 10
138.928435
 20
108.500000
 30
0.0
 10
139.309966
 20
108.341965
 30
0.0
 10
139.591270
 20
108.060660
 30
0.0
  0
SPLINE
  5
179
100
AcDbEntity
  8
Calque_1
 62
1
100
AcDbSpline
 70
8
 71
3
 72
8
 73
4
 74
0
 40
0
 40
0
 40
0
 40
0
 40
1
 40
1
 40
1
 40
1
 10
139.591270
 20
108.060660
 30
0.0
 10
139.872575
 20
107.779356
 30
0.0
 10
140.030610
 20
107.397825
 30
0.0
 10
140.030610
 20
107.000000
 30
0.0
  0
LWPOLYLINE
  5
17a
100
AcDbEntity
  8
Calque_1
 62
1
100
AcDbPolyline
 90
1
 70
1
 10
180.438780
 20
107.000000
 30
0.0
  0
SPLINE
  5
17b
100
AcDbEntity
  8
Calque_1
 62
1
100
AcDbSpline
 70
8
 71
3
 72
8
 73
4
 74
0
 40
0
 40
0
 40
0
 40
0
 40
1
 40
1
 40
1
 40
1
 10
153.500000
 20
107.000000
 30
0.0
 10
153.500000
 20
106.602175
 30
0.0
 10
153.341965
 20
106.220644
 30
0.0
 10
153.060660
 20
105.939340
 30
0.0
  0
SPLINE
  5
17c
100
AcDbEntity
  8
Calque_1
 62
1
100
AcDbSpline
 70
8
 71
3
 72
8
 73
4
 74
0
 40
0
 40
0
 40
0
 40
0
 40
1
 40
1
 40
1
 40
1
 10
153.060660
 20
105.939340
 30
0.0
 10
152.779356
 20
105.658035
 30
0.0
 10
152.397825
 20
105.500000
 30
0.0
 10
152.000000
 20
105.500000
 30
0.0
  0
SPLINE
  5
17d
100
AcDbEntity
  8
Calque_1
 62
1
100
AcDbSpline
 70
8
 71
3
 72
8
 73
4
 74
0
 40
0
 40
0
 40
0
 40
0
 40
1
 40
1
 40
1
 40
1
 10
152.000000
 20
105.500000
 30
0.0
 10
151.602175
 20
105.500000
 30
0.0
 10
151.220644
 20
105.658035
 30
0.0
 10
150.939340
 20
105.939340
 30
0.0
  0
SPLINE
  5
17e
100
AcDbEntity
  8
Calque_1
 62
1
100
AcDbSpline
 70
8
 71
3
 72
8
 73
4
 74
0
 40
0
 40
0
 40
0
 40
0
 40
1
 40
1
 40
1
 40
1
 10
150.939340
 20
105.939340
 30
0.0
 10
150.658035
 20
106.220644
 30
0.0
 10
150.500000
 20
106.602175
 30
0.0
 10
150.500000
 20
107.000000
 30
0.0
  0
SPLINE
  5
17f
100
AcDbEntity
  8
Calque_1
 62
1
100
AcDbSpline
 70
8
 71
3
 72
8
 73
4
 74
0
 40
0
 40
0
 40
0
 40
0
 40
1
 40
1
 40
1
 40
1
 10
150.500000
 20
107.000000
 30
0.0
 10
150.500000
 20
107.397825
 30
0.0
 10
150.658035
 20
107.779356
 30
0.0
 10
150.939340
 20
108.060660
 30
0.0
  0
SPLINE
  5
180
100
AcDbEntity
  8
Calque_1
 62
1
100
AcDbSpline
 70
8
 71
3
 72
8
 73
4
 74
0
 40
0
 40
0
 40
0
 40
0
 40
1
 40
1
 40
1
 40
1
 10
150.939340
 20
108.060660
 30
0.0
 10
151.220644
 20
108.341965
 30
0.0
 10
151.602175
 20
108.500000
 30
0.0
 10
152.000000
 20
108.500000
 30
0.0
  0
SPLINE
  5
181
100
AcDbEntity
  8
Calque_1
 62
1
100
AcDbSpline
 70
8
 71
3
 72
8
 73
4
 74
0
 40
0
 40
0
 40
0
 40
0
 40
1
 40
1
 40
1
 40
1
 10
152.000000
 20
108.500000
 30
0.0
 10
152.397825
 20
108.500000
 30
0.0
 10
152.779356
 20
108.341965
 30
0.0
 10
153.060660
 20
108.060660
 30
0.0
  0
SPLINE
  5
182
100
AcDbEntity
  8
Calque_1
 62
1
100
AcDbSpline
 70
8
 71
3
 72
8
 73
4
 74
0
 40
0
 40
0
 40
0
 40
0
 40
1
 40
1
 40
1
 40
1
 10
153.060660
 20
108.060660
 30
0.0
 10
153.341965
 20
107.779356
 30
0.0
 10
153.500000
 20
107.397825
 30
0.0
 10
153.500000
 20
107.000000
 30
0.0
  0
LWPOLYLINE
  5
183
100
AcDbEntity
  8
Calque_1
 62
1
100
AcDbPolyline
 90
1
 70
1
 10
140.030610
 20
107.000000
 30
0.0
  0
SPLINE
  5
184
100
AcDbEntity
  8
Calque_1
 62
1
100
AcDbSpline
 70
8
 71
3
 72
8
 73
4
 74
0
 40
0
 40
0
 40
0
 40
0
 40
1
 40
1
 40
1
 40
1
 10
113.091840
 20
107.000000
 30
0.0
 10
113.091840
 20
106.602175
 30
0.0
 10
112.933805
 20
106.220644
 30
0.0
 10
112.652500
 20
105.939340
 30
0.0
  0
SPLINE
  5
185
100
AcDbEntity
  8
Calque_1
 62
1
100
AcDbSpline
 70
8
 71
3
 72
8
 73
4
 74
0
 40
0
 40
0
 40
0
 40
0
 40
1
 40
1
 40
1
 40
1
 10
112.652500
 20
105.939340
 30
0.0
 10
112.371196
 20
105.658035
 30
0.0
 10
111.989665
 20
105.500000
 30
0.0
 10
111.591840
 20
105.500000
 30
0.0
  0
SPLINE
  5
186
100
AcDbEntity
  8
Calque_1
 62
1
100
AcDbSpline
 70
8
 71
3
 72
8
 73
4
 74
0
 40
0
 40
0
 40
0
 40
0
 40
1
 40
1
 40
1
 40
1
 10
111.591840
 20
105.500000
 30
0.0
 10
111.194015
 20
105.500000
 30
0.0
 10
110.812484
 20
105.658035
 30
0.0
 10
110.531180
 20
105.939340
 30
0.0
  0
SPLINE
  5
187
100
AcDbEntity
  8
Calque_1
 62
1
100
AcDbSpline
 70
8
 71
3
 72
8
 73
4
 74
0
 40
0
 40
0
 40
0
 40
0
 40
1
 40
1
 40
1
 40
1
 10
110.531180
 20
105.939340
 30
0.0
 10
110.249875
 20
106.220644
 30
0.0
 10
110.091840
 20
106.602175
 30
0.0
 10
110.091840
 20
107.000000
 30
0.0
  0
SPLINE
  5
188
100
AcDbEntity
  8
Calque_1
 62
1
100
AcDbSpline
 70
8
 71
3
 72
8
 73
4
 74
0
 40
0
 40
0
 40
0
 40
0
 40
1
 40
1
 40
1
 40
1
 10
110.091840
 20
107.000000
 30
0.0
 10
110.091840
 20
107.397825
 30
0.0
 10
110.249875
 20
107.779356
 30
0.0
 10
110.531180
 20
108.060660
 30
0.0
  0
SPLINE
  5
189
100
AcDbEntity
  8
Calque_1
 62
1
100
AcDbSpline
 70
8
 71
3
 72
8
 73
4
 74
0
 40
0
 40
0
 40
0
 40
0
 40
1
 40
1
 40
1
 40
1
 10
110.531180
 20
108.060660
 30
0.0
 10
110.812484
 20
108.341965
 30
0.0
 10
111.194015
 20
108.500000
 30
0.0
 10
111.591840
 20
108.500000
 30
0.0
  0
SPLINE
  5
18a
100
AcDbEntity
  8
Calque_1
 62
1
100
AcDbSpline
 70
8
 71
3
 72
8
 73
4
 74
0
 40
0
 40
0
 40
0
 40
0
 40
1
 40
1
 40
1
 40
1
 10
111.591840
 20
108.500000
 30
0.0
 10
111.989665
 20
108.500000
 30
0.0
 10
112.371196
 20
108.341965
 30
0.0
 10
112.652500
 20
108.060660
 30
0.0
  0
SPLINE
  5
18b
100
AcDbEntity
  8
Calque_1
 62
1
100
AcDbSpline
 70
8
 71
3
 72
8
 73
4
 74
0
 40
0
 40
0
 40
0
 40
0
 40
1
 40
1
 40
1
 40
1
 10
112.652500
 20
108.060660
 30
0.0
 10
112.933805
 20
107.779356
 30
0.0
 10
113.091840
 20
107.397825
 30
0.0
 10
113.091840
 20
107.000000
 30
0.0
  0
LWPOLYLINE
  5
18c
100
AcDbEntity
  8
Calque_1
 62
1
100
AcDbPolyline
 90
1
 70
1
 10
153.500000
 20
107.000000
 30
0.0
  0
SPLINE
  5
18d
100
AcDbEntity
  8
Calque_1
 62
1
100
AcDbSpline
 70
8
 71
3
 72
8
 73
4
 74
0
 40
0
 40
0
 40
0
 40
0
 40
1
 40
1
 40
1
 40
1
 10
126.561230
 20
107.000000
 30
0.0
 10
126.561230
 20
106.602175
 30
0.0
 10
126.403195
 20
106.220644
 30
0.0
 10
126.121890
 20
105.939340
 30
0.0
  0
SPLINE
  5
18e
100
AcDbEntity
  8
Calque_1
 62
1
100
AcDbSpline
 70
8
 71
3
 72
8
 73
4
 74
0
 40
0
 40
0
 40
0
 40
0
 40
1
 40
1
 40
1
 40
1
 10
126.121890
 20
105.939340
 30
0.0
 10
125.840586
 20
105.658035
 30
0.0
 10
125.459055
 20
105.500000
 30
0.0
 10
125.061230
 20
105.500000
 30
0.0
  0
SPLINE
  5
18f
100
AcDbEntity
  8
Calque_1
 62
1
100
AcDbSpline
 70
8
 71
3
 72
8
 73
4
 74
0
 40
0
 40
0
 40
0
 40
0
 40
1
 40
1
 40
1
 40
1
 10
125.061230
 20
105.500000
 30
0.0
 10
124.663405
 20
105.500000
 30
0.0
 10
124.281874
 20
105.658035
 30
0.0
 10
124.000570
 20
105.939340
 30
0.0
  0
SPLINE
  5
190
100
AcDbEntity
  8
Calque_1
 62
1
100
AcDbSpline
 70
8
 71
3
 72
8
 73
4
 74
0
 40
0
 40
0
 40
0
 40
0
 40
1
 40
1
 40
1
 40
1
 10
124.000570
 20
105.939340
 30
0.0
 10
123.719265
 20
106.220644
 30
0.0
 10
123.561230
 20
106.602175
 30
0.0
 10
123.561230
 20
107.000000
 30
0.0
  0
SPLINE
  5
191
100
AcDbEntity
  8
Calque_1
 62
1
100
AcDbSpline
 70
8
 71
3
 72
8
 73
4
 74
0
 40
0
 40
0
 40
0
 40
0
 40
1
 40
1
 40
1
 40
1
 10
123.561230
 20
107.000000
 30
0.0
 10
123.561230
 20
107.397825
 30
0.0
 10
123.719265
 20
107.779356
 30
0.0
 10
124.000570
 20
108.060660
 30
0.0
  0
SPLINE
  5
192
100
AcDbEntity
  8
Calque_1
 62
1
100
AcDbSpline
 70
8
 71
3
 72
8
 73
4
 74
0
 40
0
 40
0
 40
0
 40
0
 40
1
 40
1
 40
1
 40
1
 10
124.000570
 20
108.060660
 30
0.0
 10
124.281874
 20
108.341965
 30
0.0
 10
124.663405
 20
108.500000
 30
0.0
 10
125.061230
 20
108.500000
 30
0.0
  0
SPLINE
  5
193
100
AcDbEntity
  8
Calque_1
 62
1
100
AcDbSpline
 70
8
 71
3
 72
8
 73
4
 74
0
 40
0
 40
0
 40
0
 40
0
 40
1
 40
1
 40
1
 40
1
 10
125.061230
 20
108.500000
 30
0.0
 10
125.459055
 20
108.500000
 30
0.0
 10
125.840586
 20
108.341965
 30
0.0
 10
126.121890
 20
108.060660
 30
0.0
  0
SPLINE
  5
194
100
AcDbEntity
  8
Calque_1
 62
1
100
AcDbSpline
 70
8
 71
3
 72
8
 73
4
 74
0
 40
0
 40
0
 40
0
 40
0
 40
1
 40
1
 40
1
 40
1
 10
126.121890
 20
108.060660
 30
0.0
 10
126.403195
 20
107.779356
 30
0.0
 10
126.561230
 20
107.397825
 30
0.0
 10
126.561230
 20
107.000000
 30
0.0
  0
LWPOLYLINE
  5
195
100
AcDbEntity
  8
Calque_1
 62
1
100
AcDbPolyline
 90
1
 70
1
 10
113.091840
 20
107.000000
 30
0.0
  0
SPLINE
  5
196
100
AcDbEntity
  8
Calque_1
 62
1
100
AcDbSpline
 70
8
 71
3
 72
8
 73
4
 74
0
 40
0
 40
0
 40
0
 40
0
 40
1
 40
1
 40
1
 40
1
 10
86.153061
 20
107.000000
 30
0.0
 10
86.153061
 20
106.602175
 30
0.0
 10
85.995026
 20
106.220644
 30
0.0
 10
85.713721
 20
105.939340
 30
0.0
  0
SPLINE
  5
197
100
AcDbEntity
  8
Calque_1
 62
1
100
AcDbSpline
 70
8
 71
3
 72
8
 73
4
 74
0
 40
0
 40
0
 40
0
 40
0
 40
1
 40
1
 40
1
 40
1
 10
85.713721
 20
105.939340
 30
0.0
 10
85.432417
 20
105.658035
 30
0.0
 10
85.050886
 20
105.500000
 30
0.0
 10
84.653061
 20
105.500000
 30
0.0
  0
SPLINE
  5
198
100
AcDbEntity
  8
Calque_1
 62
1
100
AcDbSpline
 70
8
 71
3
 72
8
 73
4
 74
0
 40
0
 40
0
 40
0
 40
0
 40
1
 40
1
 40
1
 40
1
 10
84.653061
 20
105.500000
 30
0.0
 10
84.255236
 20
105.500000
 30
0.0
 10
83.873705
 20
105.658035
 30
0.0
 10
83.592401
 20
105.939340
 30
0.0
  0
SPLINE
  5
199
100
AcDbEntity
  8
Calque_1
 62
1
100
AcDbSpline
 70
8
 71
3
 72
8
 73
4
 74
0
 40
0
 40
0
 40
0
 40
0
 40
1
 40
1
 40
1
 40
1
 10
83.592401
 20
105.939340
 30
0.0
 10
83.311096
 20
106.220644
 30
0.0
 10
83.153061
 20
106.602175
 30
0.0
 10
83.153061
 20
107.000000
 30
0.0
  0
SPLINE
  5
19a
100
AcDbEntity
  8
Calque_1
 62
1
100
AcDbSpline
 70
8
 71
3
 72
8
 73
4
 74
0
 40
0
 40
0
 40
0
 40
0
 40
1
 40
1
 40
1
 40
1
 10
83.153061
 20
107.000000
 30
0.0
 10
83.153061
 20
107.397825
 30
0.0
 10
83.311096
 20
107.779356
 30
0.0
 10
83.592401
 20
108.060660
 30
0.0
  0
SPLINE
  5
19b
100
AcDbEntity
  8
Calque_1
 62
1
100
AcDbSpline
 70
8
 71
3
 72
8
 73
4
 74
0
 40
0
 40
0
 40
0
 40
0
 40
1
 40
1
 40
1
 40
1
 10
83.592401
 20
108.060660
 30
0.0
 10
83.873705
 20
108.341965
 30
0.0
 10
84.255236
 20
108.500000
 30
0.0
 10
84.653061
 20
108.500000
 30
0.0
  0
SPLINE
  5
19c
100
AcDbEntity
  8
Calque_1
 62
1
100
AcDbSpline
 70
8
 71
3
 72
8
 73
4
 74
0
 40
0
 40
0
 40
0
 40
0
 40
1
 40
1
 40
1
 40
1
 10
84.653061
 20
108.500000
 30
0.0
 10
85.050886
 20
108.500000
 30
0.0
 10
85.432417
 20
108.341965
 30
0.0
 10
85.713721
 20
108.060660
 30
0.0
  0
SPLINE
  5
19d
100
AcDbEntity
  8
Calque_1
 62
1
100
AcDbSpline
 70
8
 71
3
 72
8
 73
4
 74
0
 40
0
 40
0
 40
0
 40
0
 40
1
 40
1
 40
1
 40
1
 10
85.713721
 20
108.060660
 30
0.0
 10
85.995026
 20
107.779356
 30
0.0
 10
86.153061
 20
107.397825
 30
0.0
 10
86.153061
 20
107.000000
 30
0.0
  0
LWPOLYLINE
  5
19e
100
AcDbEntity
  8
Calque_1
 62
1
100
AcDbPolyline
 90
1
 70
1
 10
126.561230
 20
107.000000
 30
0.0
  0
SPLINE
  5
19f
100
AcDbEntity
  8
Calque_1
 62
1
100
AcDbSpline
 70
8
 71
3
 72
8
 73
4
 74
0
 40
0
 40
0
 40
0
 40
0
 40
1
 40
1
 40
1
 40
1
 10
99.622452
 20
107.000000
 30
0.0
 10
99.622452
 20
106.602175
 30
0.0
 10
99.464417
 20
106.220644
 30
0.0
 10
99.183112
 20
105.939340
 30
0.0
  0
SPLINE
  5
1a0
100
AcDbEntity
  8
Calque_1
 62
1
100
AcDbSpline
 70
8
 71
3
 72
8
 73
4
 74
0
 40
0
 40
0
 40
0
 40
0
 40
1
 40
1
 40
1
 40
1
 10
99.183112
 20
105.939340
 30
0.0
 10
98.901808
 20
105.658035
 30
0.0
 10
98.520277
 20
105.500000
 30
0.0
 10
98.122452
 20
105.500000
 30
0.0
  0
SPLINE
  5
1a1
100
AcDbEntity
  8
Calque_1
 62
1
100
AcDbSpline
 70
8
 71
3
 72
8
 73
4
 74
0
 40
0
 40
0
 40
0
 40
0
 40
1
 40
1
 40
1
 40
1
 10
98.122452
 20
105.500000
 30
0.0
 10
97.724627
 20
105.500000
 30
0.0
 10
97.343096
 20
105.658035
 30
0.0
 10
97.061792
 20
105.939340
 30
0.0
  0
SPLINE
  5
1a2
100
AcDbEntity
  8
Calque_1
 62
1
100
AcDbSpline
 70
8
 71
3
 72
8
 73
4
 74
0
 40
0
 40
0
 40
0
 40
0
 40
1
 40
1
 40
1
 40
1
 10
97.061792
 20
105.939340
 30
0.0
 10
96.780487
 20
106.220644
 30
0.0
 10
96.622452
 20
106.602175
 30
0.0
 10
96.622452
 20
107.000000
 30
0.0
  0
SPLINE
  5
1a3
100
AcDbEntity
  8
Calque_1
 62
1
100
AcDbSpline
 70
8
 71
3
 72
8
 73
4
 74
0
 40
0
 40
0
 40
0
 40
0
 40
1
 40
1
 40
1
 40
1
 10
96.622452
 20
107.000000
 30
0.0
 10
96.622452
 20
107.397825
 30
0.0
 10
96.780487
 20
107.779356
 30
0.0
 10
97.061792
 20
108.060660
 30
0.0
  0
SPLINE
  5
1a4
100
AcDbEntity
  8
Calque_1
 62
1
100
AcDbSpline
 70
8
 71
3
 72
8
 73
4
 74
0
 40
0
 40
0
 40
0
 40
0
 40
1
 40
1
 40
1
 40
1
 10
97.061792
 20
108.060660
 30
0.0
 10
97.343096
 20
108.341965
 30
0.0
 10
97.724627
 20
108.500000
 30
0.0
 10
98.122452
 20
108.500000
 30
0.0
  0
SPLINE
  5
1a5
100
AcDbEntity
  8
Calque_1
 62
1
100
AcDbSpline
 70
8
 71
3
 72
8
 73
4
 74
0
 40
0
 40
0
 40
0
 40
0
 40
1
 40
1
 40
1
 40
1
 10
98.122452
 20
108.500000
 30
0.0
 10
98.520277
 20
108.500000
 30
0.0
 10
98.901808
 20
108.341965
 30
0.0
 10
99.183112
 20
108.060660
 30
0.0
  0
SPLINE
  5
1a6
100
AcDbEntity
  8
Calque_1
 62
1
100
AcDbSpline
 70
8
 71
3
 72
8
 73
4
 74
0
 40
0
 40
0
 40
0
 40
0
 40
1
 40
1
 40
1
 40
1
 10
99.183112
 20
108.060660
 30
0.0
 10
99.464417
 20
107.779356
 30
0.0
 10
99.622452
 20
107.397825
 30
0.0
 10
99.622452
 20
107.000000
 30
0.0
  0
LWPOLYLINE
  5
1a7
100
AcDbEntity
  8
Calque_1
 62
1
100
AcDbPolyline
 90
1
 70
1
 10
86.153061
 20
107.000000
 30
0.0
  0
SPLINE
  5
1a8
100
AcDbEntity
  8
Calque_1
 62
1
100
AcDbSpline
 70
8
 71
3
 72
8
 73
4
 74
0
 40
0
 40
0
 40
0
 40
0
 40
1
 40
1
 40
1
 40
1
 10
193.908160
 20
107.000000
 30
0.0
 10
193.908160
 20
106.602175
 30
0.0
 10
193.750125
 20
106.220644
 30
0.0
 10
193.468820
 20
105.939340
 30
0.0
  0
SPLINE
  5
1a9
100
AcDbEntity
  8
Calque_1
 62
1
100
AcDbSpline
 70
8
 71
3
 72
8
 73
4
 74
0
 40
0
 40
0
 40
0
 40
0
 40
1
 40
1
 40
1
 40
1
 10
193.468820
 20
105.939340
 30
0.0
 10
193.187516
 20
105.658035
 30
0.0
 10
192.805985
 20
105.500000
 30
0.0
 10
192.408160
 20
105.500000
 30
0.0
  0
SPLINE
  5
1aa
100
AcDbEntity
  8
Calque_1
 62
1
100
AcDbSpline
 70
8
 71
3
 72
8
 73
4
 74
0
 40
0
 40
0
 40
0
 40
0
 40
1
 40
1
 40
1
 40
1
 10
192.408160
 20
105.500000
 30
0.0
 10
192.010335
 20
105.500000
 30
0.0
 10
191.628804
 20
105.658035
 30
0.0
 10
191.347500
 20
105.939340
 30
0.0
  0
SPLINE
  5
1ab
100
AcDbEntity
  8
Calque_1
 62
1
100
AcDbSpline
 70
8
 71
3
 72
8
 73
4
 74
0
 40
0
 40
0
 40
0
 40
0
 40
1
 40
1
 40
1
 40
1
 10
191.347500
 20
105.939340
 30
0.0
 10
191.066195
 20
106.220644
 30
0.0
 10
190.908160
 20
106.602175
 30
0.0
 10
190.908160
 20
107.000000
 30
0.0
  0
SPLINE
  5
1ac
100
AcDbEntity
  8
Calque_1
 62
1
100
AcDbSpline
 70
8
 71
3
 72
8
 73
4
 74
0
 40
0
 40
0
 40
0
 40
0
 40
1
 40
1
 40
1
 40
1
 10
190.908160
 20
107.000000
 30
0.0
 10
190.908160
 20
107.397825
 30
0.0
 10
191.066195
 20
107.779356
 30
0.0
 10
191.347500
 20
108.060660
 30
0.0
  0
SPLINE
  5
1ad
100
AcDbEntity
  8
Calque_1
 62
1
100
AcDbSpline
 70
8
 71
3
 72
8
 73
4
 74
0
 40
0
 40
0
 40
0
 40
0
 40
1
 40
1
 40
1
 40
1
 10
191.347500
 20
108.060660
 30
0.0
 10
191.628804
 20
108.341965
 30
0.0
 10
192.010335
 20
108.500000
 30
0.0
 10
192.408160
 20
108.500000
 30
0.0
  0
SPLINE
  5
1ae
100
AcDbEntity
  8
Calque_1
 62
1
100
AcDbSpline
 70
8
 71
3
 72
8
 73
4
 74
0
 40
0
 40
0
 40
0
 40
0
 40
1
 40
1
 40
1
 40
1
 10
192.408160
 20
108.500000
 30
0.0
 10
192.805985
 20
108.500000
 30
0.0
 10
193.187516
 20
108.341965
 30
0.0
 10
193.468820
 20
108.060660
 30
0.0
  0
SPLINE
  5
1af
100
AcDbEntity
  8
Calque_1
 62
1
100
AcDbSpline
 70
8
 71
3
 72
8
 73
4
 74
0
 40
0
 40
0
 40
0
 40
0
 40
1
 40
1
 40
1
 40
1
 10
193.468820
 20
108.060660
 30
0.0
 10
193.750125
 20
107.779356
 30
0.0
 10
193.908160
 20
107.397825
 30
0.0
 10
193.908160
 20
107.000000
 30
0.0
  0
LWPOLYLINE
  5
1b0
100
AcDbEntity
  8
Calque_1
 62
1
100
AcDbPolyline
 90
1
 70
1
 10
99.622452
 20
107.000000
 30
0.0
  0
SPLINE
  5
1b1
100
AcDbEntity
  8
Calque_1
 62
1
100
AcDbSpline
 70
8
 71
3
 72
8
 73
4
 74
0
 40
0
 40
0
 40
0
 40
0
 40
1
 40
1
 40
1
 40
1
 10
207.377550
 20
107.000000
 30
0.0
 10
207.377550
 20
106.602175
 30
0.0
 10
207.219515
 20
106.220644
 30
0.0
 10
206.938210
 20
105.939340
 30
0.0
  0
SPLINE
  5
1b2
100
AcDbEntity
  8
Calque_1
 62
1
100
AcDbSpline
 70
8
 71
3
 72
8
 73
4
 74
0
 40
0
 40
0
 40
0
 40
0
 40
1
 40
1
 40
1
 40
1
 10
206.938210
 20
105.939340
 30
0.0
 10
206.656906
 20
105.658035
 30
0.0
 10
206.275375
 20
105.500000
 30
0.0
 10
205.877550
 20
105.500000
 30
0.0
  0
SPLINE
  5
1b3
100
AcDbEntity
  8
Calque_1
 62
1
100
AcDbSpline
 70
8
 71
3
 72
8
 73
4
 74
0
 40
0
 40
0
 40
0
 40
0
 40
1
 40
1
 40
1
 40
1
 10
205.877550
 20
105.500000
 30
0.0
 10
205.479725
 20
105.500000
 30
0.0
 10
205.098194
 20
105.658035
 30
0.0
 10
204.816890
 20
105.939340
 30
0.0
  0
SPLINE
  5
1b4
100
AcDbEntity
  8
Calque_1
 62
1
100
AcDbSpline
 70
8
 71
3
 72
8
 73
4
 74
0
 40
0
 40
0
 40
0
 40
0
 40
1
 40
1
 40
1
 40
1
 10
204.816890
 20
105.939340
 30
0.0
 10
204.535585
 20
106.220644
 30
0.0
 10
204.377550
 20
106.602175
 30
0.0
 10
204.377550
 20
107.000000
 30
0.0
  0
SPLINE
  5
1b5
100
AcDbEntity
  8
Calque_1
 62
1
100
AcDbSpline
 70
8
 71
3
 72
8
 73
4
 74
0
 40
0
 40
0
 40
0
 40
0
 40
1
 40
1
 40
1
 40
1
 10
204.377550
 20
107.000000
 30
0.0
 10
204.377550
 20
107.397825
 30
0.0
 10
204.535585
 20
107.779356
 30
0.0
 10
204.816890
 20
108.060660
 30
0.0
  0
SPLINE
  5
1b6
100
AcDbEntity
  8
Calque_1
 62
1
100
AcDbSpline
 70
8
 71
3
 72
8
 73
4
 74
0
 40
0
 40
0
 40
0
 40
0
 40
1
 40
1
 40
1
 40
1
 10
204.816890
 20
108.060660
 30
0.0
 10
205.098194
 20
108.341965
 30
0.0
 10
205.479725
 20
108.500000
 30
0.0
 10
205.877550
 20
108.500000
 30
0.0
  0
SPLINE
  5
1b7
100
AcDbEntity
  8
Calque_1
 62
1
100
AcDbSpline
 70
8
 71
3
 72
8
 73
4
 74
0
 40
0
 40
0
 40
0
 40
0
 40
1
 40
1
 40
1
 40
1
 10
205.877550
 20
108.500000
 30
0.0
 10
206.275375
 20
108.500000
 30
0.0
 10
206.656906
 20
108.341965
 30
0.0
 10
206.938210
 20
108.060660
 30
0.0
  0
SPLINE
  5
1b8
100
AcDbEntity
  8
Calque_1
 62
1
100
AcDbSpline
 70
8
 71
3
 72
8
 73
4
 74
0
 40
0
 40
0
 40
0
 40
0
 40
1
 40
1
 40
1
 40
1
 10
206.938210
 20
108.060660
 30
0.0
 10
207.219515
 20
107.779356
 30
0.0
 10
207.377550
 20
107.397825
 30
0.0
 10
207.377550
 20
107.000000
 30
0.0
  0
LWPOLYLINE
  5
1b9
100
AcDbEntity
  8
Calque_1
 62
1
100
AcDbPolyline
 90
1
 70
1
 10
193.908160
 20
107.000000
 30
0.0
  0
SPLINE
  5
1ba
100
AcDbEntity
  8
Calque_1
 62
1
100
AcDbSpline
 70
8
 71
3
 72
8
 73
4
 74
0
 40
0
 40
0
 40
0
 40
0
 40
1
 40
1
 40
1
 40
1
 10
342.071440
 20
107.000000
 30
0.0
 10
342.071440
 20
106.602175
 30
0.0
 10
341.913405
 20
106.220644
 30
0.0
 10
341.632100
 20
105.939340
 30
0.0
  0
SPLINE
  5
1bb
100
AcDbEntity
  8
Calque_1
 62
1
100
AcDbSpline
 70
8
 71
3
 72
8
 73
4
 74
0
 40
0
 40
0
 40
0
 40
0
 40
1
 40
1
 40
1
 40
1
 10
341.632100
 20
105.939340
 30
0.0
 10
341.350796
 20
105.658035
 30
0.0
 10
340.969265
 20
105.500000
 30
0.0
 10
340.571440
 20
105.500000
 30
0.0
  0
SPLINE
  5
1bc
100
AcDbEntity
  8
Calque_1
 62
1
100
AcDbSpline
 70
8
 71
3
 72
8
 73
4
 74
0
 40
0
 40
0
 40
0
 40
0
 40
1
 40
1
 40
1
 40
1
 10
340.571440
 20
105.500000
 30
0.0
 10
339.743013
 20
105.500000
 30
0.0
 10
339.071440
 20
106.171573
 30
0.0
 10
339.071440
 20
107.000000
 30
0.0
  0
SPLINE
  5
1bd
100
AcDbEntity
  8
Calque_1
 62
1
100
AcDbSpline
 70
8
 71
3
 72
8
 73
4
 74
0
 40
0
 40
0
 40
0
 40
0
 40
1
 40
1
 40
1
 40
1
 10
339.071440
 20
107.000000
 30
0.0
 10
339.071440
 20
107.397825
 30
0.0
 10
339.229475
 20
107.779356
 30
0.0
 10
339.510780
 20
108.060660
 30
0.0
  0
SPLINE
  5
1be
100
AcDbEntity
  8
Calque_1
 62
1
100
AcDbSpline
 70
8
 71
3
 72
8
 73
4
 74
0
 40
0
 40
0
 40
0
 40
0
 40
1
 40
1
 40
1
 40
1
 10
339.510780
 20
108.060660
 30
0.0
 10
339.792084
 20
108.341965
 30
0.0
 10
340.173615
 20
108.500000
 30
0.0
 10
340.571440
 20
108.500000
 30
0.0
  0
SPLINE
  5
1bf
100
AcDbEntity
  8
Calque_1
 62
1
100
AcDbSpline
 70
8
 71
3
 72
8
 73
4
 74
0
 40
0
 40
0
 40
0
 40
0
 40
1
 40
1
 40
1
 40
1
 10
340.571440
 20
108.500000
 30
0.0
 10
340.969265
 20
108.500000
 30
0.0
 10
341.350796
 20
108.341965
 30
0.0
 10
341.632100
 20
108.060660
 30
0.0
  0
SPLINE
  5
1c0
100
AcDbEntity
  8
Calque_1
 62
1
100
AcDbSpline
 70
8
 71
3
 72
8
 73
4
 74
0
 40
0
 40
0
 40
0
 40
0
 40
1
 40
1
 40
1
 40
1
 10
341.632100
 20
108.060660
 30
0.0
 10
341.913405
 20
107.779356
 30
0.0
 10
342.071440
 20
107.397825
 30
0.0
 10
342.071440
 20
107.000000
 30
0.0
  0
LWPOLYLINE
  5
1c1
100
AcDbEntity
  8
Calque_1
 62
1
100
AcDbPolyline
 90
1
 70
1
 10
207.377550
 20
107.000000
 30
0.0
  0
SPLINE
  5
1c2
100
AcDbEntity
  8
Calque_1
 62
1
100
AcDbSpline
 70
8
 71
3
 72
8
 73
4
 74
0
 40
0
 40
0
 40
0
 40
0
 40
1
 40
1
 40
1
 40
1
 10
369.010190
 20
107.000000
 30
0.0
 10
369.010190
 20
106.602175
 30
0.0
 10
368.852155
 20
106.220644
 30
0.0
 10
368.570850
 20
105.939340
 30
0.0
  0
SPLINE
  5
1c3
100
AcDbEntity
  8
Calque_1
 62
1
100
AcDbSpline
 70
8
 71
3
 72
8
 73
4
 74
0
 40
0
 40
0
 40
0
 40
0
 40
1
 40
1
 40
1
 40
1
 10
368.570850
 20
105.939340
 30
0.0
 10
368.289546
 20
105.658035
 30
0.0
 10
367.908015
 20
105.500000
 30
0.0
 10
367.510190
 20
105.500000
 30
0.0
  0
SPLINE
  5
1c4
100
AcDbEntity
  8
Calque_1
 62
1
100
AcDbSpline
 70
8
 71
3
 72
8
 73
4
 74
0
 40
0
 40
0
 40
0
 40
0
 40
1
 40
1
 40
1
 40
1
 10
367.510190
 20
105.500000
 30
0.0
 10
367.112365
 20
105.500000
 30
0.0
 10
366.730834
 20
105.658035
 30
0.0
 10
366.449530
 20
105.939340
 30
0.0
  0
SPLINE
  5
1c5
100
AcDbEntity
  8
Calque_1
 62
1
100
AcDbSpline
 70
8
 71
3
 72
8
 73
4
 74
0
 40
0
 40
0
 40
0
 40
0
 40
1
 40
1
 40
1
 40
1
 10
366.449530
 20
105.939340
 30
0.0
 10
366.168225
 20
106.220644
 30
0.0
 10
366.010190
 20
106.602175
 30
0.0
 10
366.010190
 20
107.000000
 30
0.0
  0
SPLINE
  5
1c6
100
AcDbEntity
  8
Calque_1
 62
1
100
AcDbSpline
 70
8
 71
3
 72
8
 73
4
 74
0
 40
0
 40
0
 40
0
 40
0
 40
1
 40
1
 40
1
 40
1
 10
366.010190
 20
107.000000
 30
0.0
 10
366.010190
 20
107.397825
 30
0.0
 10
366.168225
 20
107.779356
 30
0.0
 10
366.449530
 20
108.060660
 30
0.0
  0
SPLINE
  5
1c7
100
AcDbEntity
  8
Calque_1
 62
1
100
AcDbSpline
 70
8
 71
3
 72
8
 73
4
 74
0
 40
0
 40
0
 40
0
 40
0
 40
1
 40
1
 40
1
 40
1
 10
366.449530
 20
108.060660
 30
0.0
 10
366.730834
 20
108.341965
 30
0.0
 10
367.112365
 20
108.500000
 30
0.0
 10
367.510190
 20
108.500000
 30
0.0
  0
SPLINE
  5
1c8
100
AcDbEntity
  8
Calque_1
 62
1
100
AcDbSpline
 70
8
 71
3
 72
8
 73
4
 74
0
 40
0
 40
0
 40
0
 40
0
 40
1
 40
1
 40
1
 40
1
 10
367.510190
 20
108.500000
 30
0.0
 10
367.908015
 20
108.500000
 30
0.0
 10
368.289546
 20
108.341965
 30
0.0
 10
368.570850
 20
108.060660
 30
0.0
  0
SPLINE
  5
1c9
100
AcDbEntity
  8
Calque_1
 62
1
100
AcDbSpline
 70
8
 71
3
 72
8
 73
4
 74
0
 40
0
 40
0
 40
0
 40
0
 40
1
 40
1
 40
1
 40
1
 10
368.570850
 20
108.060660
 30
0.0
 10
368.852155
 20
107.779356
 30
0.0
 10
369.010190
 20
107.397825
 30
0.0
 10
369.010190
 20
107.000000
 30
0.0
  0
LWPOLYLINE
  5
1ca
100
AcDbEntity
  8
Calque_1
 62
1
100
AcDbPolyline
 90
1
 70
1
 10
342.071440
 20
107.000000
 30
0.0
  0
SPLINE
  5
1cb
100
AcDbEntity
  8
Calque_1
 62
1
100
AcDbSpline
 70
8
 71
3
 72
8
 73
4
 74
0
 40
0
 40
0
 40
0
 40
0
 40
1
 40
1
 40
1
 40
1
 10
328.602050
 20
107.000000
 30
0.0
 10
328.602050
 20
106.602175
 30
0.0
 10
328.444015
 20
106.220644
 30
0.0
 10
328.162710
 20
105.939340
 30
0.0
  0
SPLINE
  5
1cc
100
AcDbEntity
  8
Calque_1
 62
1
100
AcDbSpline
 70
8
 71
3
 72
8
 73
4
 74
0
 40
0
 40
0
 40
0
 40
0
 40
1
 40
1
 40
1
 40
1
 10
328.162710
 20
105.939340
 30
0.0
 10
327.881406
 20
105.658035
 30
0.0
 10
327.499875
 20
105.500000
 30
0.0
 10
327.102050
 20
105.500000
 30
0.0
  0
SPLINE
  5
1cd
100
AcDbEntity
  8
Calque_1
 62
1
100
AcDbSpline
 70
8
 71
3
 72
8
 73
4
 74
0
 40
0
 40
0
 40
0
 40
0
 40
1
 40
1
 40
1
 40
1
 10
327.102050
 20
105.500000
 30
0.0
 10
326.704225
 20
105.500000
 30
0.0
 10
326.322694
 20
105.658035
 30
0.0
 10
326.041390
 20
105.939340
 30
0.0
  0
SPLINE
  5
1ce
100
AcDbEntity
  8
Calque_1
 62
1
100
AcDbSpline
 70
8
 71
3
 72
8
 73
4
 74
0
 40
0
 40
0
 40
0
 40
0
 40
1
 40
1
 40
1
 40
1
 10
326.041390
 20
105.939340
 30
0.0
 10
325.760085
 20
106.220644
 30
0.0
 10
325.602050
 20
106.602175
 30
0.0
 10
325.602050
 20
107.000000
 30
0.0
  0
SPLINE
  5
1cf
100
AcDbEntity
  8
Calque_1
 62
1
100
AcDbSpline
 70
8
 71
3
 72
8
 73
4
 74
0
 40
0
 40
0
 40
0
 40
0
 40
1
 40
1
 40
1
 40
1
 10
325.602050
 20
107.000000
 30
0.0
 10
325.602050
 20
107.397825
 30
0.0
 10
325.760085
 20
107.779356
 30
0.0
 10
326.041390
 20
108.060660
 30
0.0
  0
SPLINE
  5
1d0
100
AcDbEntity
  8
Calque_1
 62
1
100
AcDbSpline
 70
8
 71
3
 72
8
 73
4
 74
0
 40
0
 40
0
 40
0
 40
0
 40
1
 40
1
 40
1
 40
1
 10
326.041390
 20
108.060660
 30
0.0
 10
326.322694
 20
108.341965
 30
0.0
 10
326.704225
 20
108.500000
 30
0.0
 10
327.102050
 20
108.500000
 30
0.0
  0
SPLINE
  5
1d1
100
AcDbEntity
  8
Calque_1
 62
1
100
AcDbSpline
 70
8
 71
3
 72
8
 73
4
 74
0
 40
0
 40
0
 40
0
 40
0
 40
1
 40
1
 40
1
 40
1
 10
327.102050
 20
108.500000
 30
0.0
 10
327.499875
 20
108.500000
 30
0.0
 10
327.881406
 20
108.341965
 30
0.0
 10
328.162710
 20
108.060660
 30
0.0
  0
SPLINE
  5
1d2
100
AcDbEntity
  8
Calque_1
 62
1
100
AcDbSpline
 70
8
 71
3
 72
8
 73
4
 74
0
 40
0
 40
0
 40
0
 40
0
 40
1
 40
1
 40
1
 40
1
 10
328.162710
 20
108.060660
 30
0.0
 10
328.444015
 20
107.779356
 30
0.0
 10
328.602050
 20
107.397825
 30
0.0
 10
328.602050
 20
107.000000
 30
0.0
  0
LWPOLYLINE
  5
1d3
100
AcDbEntity
  8
Calque_1
 62
1
100
AcDbPolyline
 90
1
 70
1
 10
369.010190
 20
107.000000
 30
0.0
  0
LWPOLYLINE
  5
1d4
100
AcDbEntity
  8
Calque_1
 62
1
100
AcDbPolyline
 90
1
 70
1
 10
328.602050
 20
107.000000
 30
0.0
  0
SPLINE
  5
1d5
100
AcDbEntity
  8
Calque_1
 62
1
100
AcDbSpline
 70
8
 71
3
 72
8
 73
4
 74
0
 40
0
 40
0
 40
0
 40
0
 40
1
 40
1
 40
1
 40
1
 10
288.193880
 20
107.000000
 30
0.0
 10
288.193880
 20
106.602175
 30
0.0
 10
288.035845
 20
106.220644
 30
0.0
 10
287.754540
 20
105.939340
 30
0.0
  0
SPLINE
  5
1d6
100
AcDbEntity
  8
Calque_1
 62
1
100
AcDbSpline
 70
8
 71
3
 72
8
 73
4
 74
0
 40
0
 40
0
 40
0
 40
0
 40
1
 40
1
 40
1
 40
1
 10
287.754540
 20
105.939340
 30
0.0
 10
287.473236
 20
105.658035
 30
0.0
 10
287.091705
 20
105.500000
 30
0.0
 10
286.693880
 20
105.500000
 30
0.0
  0
SPLINE
  5
1d7
100
AcDbEntity
  8
Calque_1
 62
1
100
AcDbSpline
 70
8
 71
3
 72
8
 73
4
 74
0
 40
0
 40
0
 40
0
 40
0
 40
1
 40
1
 40
1
 40
1
 10
286.693880
 20
105.500000
 30
0.0
 10
286.296055
 20
105.500000
 30
0.0
 10
285.914524
 20
105.658035
 30
0.0
 10
285.633220
 20
105.939340
 30
0.0
  0
SPLINE
  5
1d8
100
AcDbEntity
  8
Calque_1
 62
1
100
AcDbSpline
 70
8
 71
3
 72
8
 73
4
 74
0
 40
0
 40
0
 40
0
 40
0
 40
1
 40
1
 40
1
 40
1
 10
285.633220
 20
105.939340
 30
0.0
 10
285.351915
 20
106.220644
 30
0.0
 10
285.193880
 20
106.602175
 30
0.0
 10
285.193880
 20
107.000000
 30
0.0
  0
SPLINE
  5
1d9
100
AcDbEntity
  8
Calque_1
 62
1
100
AcDbSpline
 70
8
 71
3
 72
8
 73
4
 74
0
 40
0
 40
0
 40
0
 40
0
 40
1
 40
1
 40
1
 40
1
 10
285.193880
 20
107.000000
 30
0.0
 10
285.193880
 20
107.397825
 30
0.0
 10
285.351915
 20
107.779356
 30
0.0
 10
285.633220
 20
108.060660
 30
0.0
  0
SPLINE
  5
1da
100
AcDbEntity
  8
Calque_1
 62
1
100
AcDbSpline
 70
8
 71
3
 72
8
 73
4
 74
0
 40
0
 40
0
 40
0
 40
0
 40
1
 40
1
 40
1
 40
1
 10
285.633220
 20
108.060660
 30
0.0
 10
285.914524
 20
108.341965
 30
0.0
 10
286.296055
 20
108.500000
 30
0.0
 10
286.693880
 20
108.500000
 30
0.0
  0
SPLINE
  5
1db
100
AcDbEntity
  8
Calque_1
 62
1
100
AcDbSpline
 70
8
 71
3
 72
8
 73
4
 74
0
 40
0
 40
0
 40
0
 40
0
 40
1
 40
1
 40
1
 40
1
 10
286.693880
 20
108.500000
 30
0.0
 10
287.091705
 20
108.500000
 30
0.0
 10
287.473236
 20
108.341965
 30
0.0
 10
287.754540
 20
108.060660
 30
0.0
  0
SPLINE
  5
1dc
100
AcDbEntity
  8
Calque_1
 62
1
100
AcDbSpline
 70
8
 71
3
 72
8
 73
4
 74
0
 40
0
 40
0
 40
0
 40
0
 40
1
 40
1
 40
1
 40
1
 10
287.754540
 20
108.060660
 30
0.0
 10
288.035845
 20
107.779356
 30
0.0
 10
288.193880
 20
107.397825
 30
0.0
 10
288.193880
 20
107.000000
 30
0.0
  0
LWPOLYLINE
  5
1dd
100
AcDbEntity
  8
Calque_1
 62
1
100
AcDbPolyline
 90
4
 70
1
 10
-178.000000
 20
117.000000
 30
0.0
 10
482.000000
 20
117.000000
 30
0.0
 10
482.000000
 20
97.000000
 30
0.0
 10
-178.000000
 20
97.000000
 30
0.0
  0
SPLINE
  5
1de
100
AcDbEntity
  8
Calque_1
 62
1
100
AcDbSpline
 70
8
 71
3
 72
8
 73
4
 74
0
 40
0
 40
0
 40
0
 40
0
 40
1
 40
1
 40
1
 40
1
 10
274.724490
 20
107.000000
 30
0.0
 10
274.724490
 20
106.602175
 30
0.0
 10
274.566455
 20
106.220644
 30
0.0
 10
274.285150
 20
105.939340
 30
0.0
  0
SPLINE
  5
1df
100
AcDbEntity
  8
Calque_1
 62
1
100
AcDbSpline
 70
8
 71
3
 72
8
 73
4
 74
0
 40
0
 40
0
 40
0
 40
0
 40
1
 40
1
 40
1
 40
1
 10
274.285150
 20
105.939340
 30
0.0
 10
274.003846
 20
105.658035
 30
0.0
 10
273.622315
 20
105.500000
 30
0.0
 10
273.224490
 20
105.500000
 30
0.0
  0
SPLINE
  5
1e0
100
AcDbEntity
  8
Calque_1
 62
1
100
AcDbSpline
 70
8
 71
3
 72
8
 73
4
 74
0
 40
0
 40
0
 40
0
 40
0
 40
1
 40
1
 40
1
 40
1
 10
273.224490
 20
105.500000
 30
0.0
 10
272.396063
 20
105.500000
 30
0.0
 10
271.724490
 20
106.171573
 30
0.0
 10
271.724490
 20
107.000000
 30
0.0
  0
SPLINE
  5
1e1
100
AcDbEntity
  8
Calque_1
 62
1
100
AcDbSpline
 70
8
 71
3
 72
8
 73
4
 74
0
 40
0
 40
0
 40
0
 40
0
 40
1
 40
1
 40
1
 40
1
 10
271.724490
 20
107.000000
 30
0.0
 10
271.724490
 20
107.397825
 30
0.0
 10
271.882525
 20
107.779356
 30
0.0
 10
272.163830
 20
108.060660
 30
0.0
  0
SPLINE
  5
1e2
100
AcDbEntity
  8
Calque_1
 62
1
100
AcDbSpline
 70
8
 71
3
 72
8
 73
4
 74
0
 40
0
 40
0
 40
0
 40
0
 40
1
 40
1
 40
1
 40
1
 10
272.163830
 20
108.060660
 30
0.0
 10
272.445134
 20
108.341965
 30
0.0
 10
272.826665
 20
108.500000
 30
0.0
 10
273.224490
 20
108.500000
 30
0.0
  0
SPLINE
  5
1e3
100
AcDbEntity
  8
Calque_1
 62
1
100
AcDbSpline
 70
8
 71
3
 72
8
 73
4
 74
0
 40
0
 40
0
 40
0
 40
0
 40
1
 40
1
 40
1
 40
1
 10
273.224490
 20
108.500000
 30
0.0
 10
273.622315
 20
108.500000
 30
0.0
 10
274.003846
 20
108.341965
 30
0.0
 10
274.285150
 20
108.060660
 30
0.0
  0
SPLINE
  5
1e4
100
AcDbEntity
  8
Calque_1
 62
1
100
AcDbSpline
 70
8
 71
3
 72
8
 73
4
 74
0
 40
0
 40
0
 40
0
 40
0
 40
1
 40
1
 40
1
 40
1
 10
274.285150
 20
108.060660
 30
0.0
 10
274.566455
 20
107.779356
 30
0.0
 10
274.724490
 20
107.397825
 30
0.0
 10
274.724490
 20
107.000000
 30
0.0
  0
LWPOLYLINE
  5
1e5
100
AcDbEntity
  8
Calque_1
 62
1
100
AcDbPolyline
 90
1
 70
1
 10
288.193880
 20
107.000000
 30
0.0
  0
SPLINE
  5
1e6
100
AcDbEntity
  8
Calque_1
 62
1
100
AcDbSpline
 70
8
 71
3
 72
8
 73
4
 74
0
 40
0
 40
0
 40
0
 40
0
 40
1
 40
1
 40
1
 40
1
 10
315.132660
 20
107.000000
 30
0.0
 10
315.132660
 20
106.602175
 30
0.0
 10
314.974625
 20
106.220644
 30
0.0
 10
314.693320
 20
105.939340
 30
0.0
  0
SPLINE
  5
1e7
100
AcDbEntity
  8
Calque_1
 62
1
100
AcDbSpline
 70
8
 71
3
 72
8
 73
4
 74
0
 40
0
 40
0
 40
0
 40
0
 40
1
 40
1
 40
1
 40
1
 10
314.693320
 20
105.939340
 30
0.0
 10
314.412016
 20
105.658035
 30
0.0
 10
314.030485
 20
105.500000
 30
0.0
 10
313.632660
 20
105.500000
 30
0.0
  0
SPLINE
  5
1e8
100
AcDbEntity
  8
Calque_1
 62
1
100
AcDbSpline
 70
8
 71
3
 72
8
 73
4
 74
0
 40
0
 40
0
 40
0
 40
0
 40
1
 40
1
 40
1
 40
1
 10
313.632660
 20
105.500000
 30
0.0
 10
313.234835
 20
105.500000
 30
0.0
 10
312.853304
 20
105.658035
 30
0.0
 10
312.572000
 20
105.939340
 30
0.0
  0
SPLINE
  5
1e9
100
AcDbEntity
  8
Calque_1
 62
1
100
AcDbSpline
 70
8
 71
3
 72
8
 73
4
 74
0
 40
0
 40
0
 40
0
 40
0
 40
1
 40
1
 40
1
 40
1
 10
312.572000
 20
105.939340
 30
0.0
 10
312.290695
 20
106.220644
 30
0.0
 10
312.132660
 20
106.602175
 30
0.0
 10
312.132660
 20
107.000000
 30
0.0
  0
SPLINE
  5
1ea
100
AcDbEntity
  8
Calque_1
 62
1
100
AcDbSpline
 70
8
 71
3
 72
8
 73
4
 74
0
 40
0
 40
0
 40
0
 40
0
 40
1
 40
1
 40
1
 40
1
 10
312.132660
 20
107.000000
 30
0.0
 10
312.132660
 20
107.397825
 30
0.0
 10
312.290695
 20
107.779356
 30
0.0
 10
312.572000
 20
108.060660
 30
0.0
  0
SPLINE
  5
1eb
100
AcDbEntity
  8
Calque_1
 62
1
100
AcDbSpline
 70
8
 71
3
 72
8
 73
4
 74
0
 40
0
 40
0
 40
0
 40
0
 40
1
 40
1
 40
1
 40
1
 10
312.572000
 20
108.060660
 30
0.0
 10
312.853304
 20
108.341965
 30
0.0
 10
313.234835
 20
108.500000
 30
0.0
 10
313.632660
 20
108.500000
 30
0.0
  0
SPLINE
  5
1ec
100
AcDbEntity
  8
Calque_1
 62
1
100
AcDbSpline
 70
8
 71
3
 72
8
 73
4
 74
0
 40
0
 40
0
 40
0
 40
0
 40
1
 40
1
 40
1
 40
1
 10
313.632660
 20
108.500000
 30
0.0
 10
314.030485
 20
108.500000
 30
0.0
 10
314.412016
 20
108.341965
 30
0.0
 10
314.693320
 20
108.060660
 30
0.0
  0
SPLINE
  5
1ed
100
AcDbEntity
  8
Calque_1
 62
1
100
AcDbSpline
 70
8
 71
3
 72
8
 73
4
 74
0
 40
0
 40
0
 40
0
 40
0
 40
1
 40
1
 40
1
 40
1
 10
314.693320
 20
108.060660
 30
0.0
 10
314.974625
 20
107.779356
 30
0.0
 10
315.132660
 20
107.397825
 30
0.0
 10
315.132660
 20
107.000000
 30
0.0
  0
LWPOLYLINE
  5
1ee
100
AcDbEntity
  8
Calque_1
 62
1
100
AcDbPolyline
 90
1
 70
1
 10
274.724490
 20
107.000000
 30
0.0
  0
SPLINE
  5
1ef
100
AcDbEntity
  8
Calque_1
 62
1
100
AcDbSpline
 70
8
 71
3
 72
8
 73
4
 74
0
 40
0
 40
0
 40
0
 40
0
 40
1
 40
1
 40
1
 40
1
 10
301.663270
 20
107.000000
 30
0.0
 10
301.663270
 20
106.602175
 30
0.0
 10
301.505235
 20
106.220644
 30
0.0
 10
301.223930
 20
105.939340
 30
0.0
  0
SPLINE
  5
1f0
100
AcDbEntity
  8
Calque_1
 62
1
100
AcDbSpline
 70
8
 71
3
 72
8
 73
4
 74
0
 40
0
 40
0
 40
0
 40
0
 40
1
 40
1
 40
1
 40
1
 10
301.223930
 20
105.939340
 30
0.0
 10
300.942626
 20
105.658035
 30
0.0
 10
300.561095
 20
105.500000
 30
0.0
 10
300.163270
 20
105.500000
 30
0.0
  0
SPLINE
  5
1f1
100
AcDbEntity
  8
Calque_1
 62
1
100
AcDbSpline
 70
8
 71
3
 72
8
 73
4
 74
0
 40
0
 40
0
 40
0
 40
0
 40
1
 40
1
 40
1
 40
1
 10
300.163270
 20
105.500000
 30
0.0
 10
299.765445
 20
105.500000
 30
0.0
 10
299.383914
 20
105.658035
 30
0.0
 10
299.102610
 20
105.939340
 30
0.0
  0
SPLINE
  5
1f2
100
AcDbEntity
  8
Calque_1
 62
1
100
AcDbSpline
 70
8
 71
3
 72
8
 73
4
 74
0
 40
0
 40
0
 40
0
 40
0
 40
1
 40
1
 40
1
 40
1
 10
299.102610
 20
105.939340
 30
0.0
 10
298.821305
 20
106.220644
 30
0.0
 10
298.663270
 20
106.602175
 30
0.0
 10
298.663270
 20
107.000000
 30
0.0
  0
SPLINE
  5
1f3
100
AcDbEntity
  8
Calque_1
 62
1
100
AcDbSpline
 70
8
 71
3
 72
8
 73
4
 74
0
 40
0
 40
0
 40
0
 40
0
 40
1
 40
1
 40
1
 40
1
 10
298.663270
 20
107.000000
 30
0.0
 10
298.663270
 20
107.397825
 30
0.0
 10
298.821305
 20
107.779356
 30
0.0
 10
299.102610
 20
108.060660
 30
0.0
  0
SPLINE
  5
1f4
100
AcDbEntity
  8
Calque_1
 62
1
100
AcDbSpline
 70
8
 71
3
 72
8
 73
4
 74
0
 40
0
 40
0
 40
0
 40
0
 40
1
 40
1
 40
1
 40
1
 10
299.102610
 20
108.060660
 30
0.0
 10
299.383914
 20
108.341965
 30
0.0
 10
299.765445
 20
108.500000
 30
0.0
 10
300.163270
 20
108.500000
 30
0.0
  0
SPLINE
  5
1f5
100
AcDbEntity
  8
Calque_1
 62
1
100
AcDbSpline
 70
8
 71
3
 72
8
 73
4
 74
0
 40
0
 40
0
 40
0
 40
0
 40
1
 40
1
 40
1
 40
1
 10
300.163270
 20
108.500000
 30
0.0
 10
300.561095
 20
108.500000
 30
0.0
 10
300.942626
 20
108.341965
 30
0.0
 10
301.223930
 20
108.060660
 30
0.0
  0
SPLINE
  5
1f6
100
AcDbEntity
  8
Calque_1
 62
1
100
AcDbSpline
 70
8
 71
3
 72
8
 73
4
 74
0
 40
0
 40
0
 40
0
 40
0
 40
1
 40
1
 40
1
 40
1
 10
301.223930
 20
108.060660
 30
0.0
 10
301.505235
 20
107.779356
 30
0.0
 10
301.663270
 20
107.397825
 30
0.0
 10
301.663270
 20
107.000000
 30
0.0
  0
LWPOLYLINE
  5
1f7
100
AcDbEntity
  8
Calque_1
 62
1
100
AcDbPolyline
 90
1
 70
1
 10
315.132660
 20
107.000000
 30
0.0
  0
SPLINE
  5
1f8
100
AcDbEntity
  8
Calque_1
 62
1
100
AcDbSpline
 70
8
 71
3
 72
8
 73
4
 74
0
 40
0
 40
0
 40
0
 40
0
 40
1
 40
1
 40
1
 40
1
 10
234.316330
 20
107.000000
 30
0.0
 10
234.316330
 20
106.602175
 30
0.0
 10
234.158295
 20
106.220644
 30
0.0
 10
233.876990
 20
105.939340
 30
0.0
  0
SPLINE
  5
1f9
100
AcDbEntity
  8
Calque_1
 62
1
100
AcDbSpline
 70
8
 71
3
 72
8
 73
4
 74
0
 40
0
 40
0
 40
0
 40
0
 40
1
 40
1
 40
1
 40
1
 10
233.876990
 20
105.939340
 30
0.0
 10
233.595686
 20
105.658035
 30
0.0
 10
233.214155
 20
105.500000
 30
0.0
 10
232.816330
 20
105.500000
 30
0.0
  0
SPLINE
  5
1fa
100
AcDbEntity
  8
Calque_1
 62
1
100
AcDbSpline
 70
8
 71
3
 72
8
 73
4
 74
0
 40
0
 40
0
 40
0
 40
0
 40
1
 40
1
 40
1
 40
1
 10
232.816330
 20
105.500000
 30
0.0
 10
232.418505
 20
105.500000
 30
0.0
 10
232.036974
 20
105.658035
 30
0.0
 10
231.755670
 20
105.939340
 30
0.0
  0
SPLINE
  5
1fb
100
AcDbEntity
  8
Calque_1
 62
1
100
AcDbSpline
 70
8
 71
3
 72
8
 73
4
 74
0
 40
0
 40
0
 40
0
 40
0
 40
1
 40
1
 40
1
 40
1
 10
231.755670
 20
105.939340
 30
0.0
 10
231.474365
 20
106.220644
 30
0.0
 10
231.316330
 20
106.602175
 30
0.0
 10
231.316330
 20
107.000000
 30
0.0
  0
SPLINE
  5
1fc
100
AcDbEntity
  8
Calque_1
 62
1
100
AcDbSpline
 70
8
 71
3
 72
8
 73
4
 74
0
 40
0
 40
0
 40
0
 40
0
 40
1
 40
1
 40
1
 40
1
 10
231.316330
 20
107.000000
 30
0.0
 10
231.316330
 20
107.397825
 30
0.0
 10
231.474365
 20
107.779356
 30
0.0
 10
231.755670
 20
108.060660
 30
0.0
  0
SPLINE
  5
1fd
100
AcDbEntity
  8
Calque_1
 62
1
100
AcDbSpline
 70
8
 71
3
 72
8
 73
4
 74
0
 40
0
 40
0
 40
0
 40
0
 40
1
 40
1
 40
1
 40
1
 10
231.755670
 20
108.060660
 30
0.0
 10
232.036974
 20
108.341965
 30
0.0
 10
232.418505
 20
108.500000
 30
0.0
 10
232.816330
 20
108.500000
 30
0.0
  0
SPLINE
  5
1fe
100
AcDbEntity
  8
Calque_1
 62
1
100
AcDbSpline
 70
8
 71
3
 72
8
 73
4
 74
0
 40
0
 40
0
 40
0
 40
0
 40
1
 40
1
 40
1
 40
1
 10
232.816330
 20
108.500000
 30
0.0
 10
233.214155
 20
108.500000
 30
0.0
 10
233.595686
 20
108.341965
 30
0.0
 10
233.876990
 20
108.060660
 30
0.0
  0
SPLINE
  5
1ff
100
AcDbEntity
  8
Calque_1
 62
1
100
AcDbSpline
 70
8
 71
3
 72
8
 73
4
 74
0
 40
0
 40
0
 40
0
 40
0
 40
1
 40
1
 40
1
 40
1
 10
233.876990
 20
108.060660
 30
0.0
 10
234.158295
 20
107.779356
 30
0.0
 10
234.316330
 20
107.397825
 30
0.0
 10
234.316330
 20
107.000000
 30
0.0
  0
LWPOLYLINE
  5
200
100
AcDbEntity
  8
Calque_1
 62
1
100
AcDbPolyline
 90
1
 70
1
 10
301.663270
 20
107.000000
 30
0.0
  0
SPLINE
  5
201
100
AcDbEntity
  8
Calque_1
 62
1
100
AcDbSpline
 70
8
 71
3
 72
8
 73
4
 74
0
 40
0
 40
0
 40
0
 40
0
 40
1
 40
1
 40
1
 40
1
 10
220.846940
 20
107.000000
 30
0.0
 10
220.846940
 20
106.602175
 30
0.0
 10
220.688905
 20
106.220644
 30
0.0
 10
220.407600
 20
105.939340
 30
0.0
  0
SPLINE
  5
202
100
AcDbEntity
  8
Calque_1
 62
1
100
AcDbSpline
 70
8
 71
3
 72
8
 73
4
 74
0
 40
0
 40
0
 40
0
 40
0
 40
1
 40
1
 40
1
 40
1
 10
220.407600
 20
105.939340
 30
0.0
 10
220.126296
 20
105.658035
 30
0.0
 10
219.744765
 20
105.500000
 30
0.0
 10
219.346940
 20
105.500000
 30
0.0
  0
SPLINE
  5
203
100
AcDbEntity
  8
Calque_1
 62
1
100
AcDbSpline
 70
8
 71
3
 72
8
 73
4
 74
0
 40
0
 40
0
 40
0
 40
0
 40
1
 40
1
 40
1
 40
1
 10
219.346940
 20
105.500000
 30
0.0
 10
218.949115
 20
105.500000
 30
0.0
 10
218.567584
 20
105.658035
 30
0.0
 10
218.286280
 20
105.939340
 30
0.0
  0
SPLINE
  5
204
100
AcDbEntity
  8
Calque_1
 62
1
100
AcDbSpline
 70
8
 71
3
 72
8
 73
4
 74
0
 40
0
 40
0
 40
0
 40
0
 40
1
 40
1
 40
1
 40
1
 10
218.286280
 20
105.939340
 30
0.0
 10
218.004975
 20
106.220644
 30
0.0
 10
217.846940
 20
106.602175
 30
0.0
 10
217.846940
 20
107.000000
 30
0.0
  0
SPLINE
  5
205
100
AcDbEntity
  8
Calque_1
 62
1
100
AcDbSpline
 70
8
 71
3
 72
8
 73
4
 74
0
 40
0
 40
0
 40
0
 40
0
 40
1
 40
1
 40
1
 40
1
 10
217.846940
 20
107.000000
 30
0.0
 10
217.846940
 20
107.397825
 30
0.0
 10
218.004975
 20
107.779356
 30
0.0
 10
218.286280
 20
108.060660
 30
0.0
  0
SPLINE
  5
206
100
AcDbEntity
  8
Calque_1
 62
1
100
AcDbSpline
 70
8
 71
3
 72
8
 73
4
 74
0
 40
0
 40
0
 40
0
 40
0
 40
1
 40
1
 40
1
 40
1
 10
218.286280
 20
108.060660
 30
0.0
 10
218.567584
 20
108.341965
 30
0.0
 10
218.949115
 20
108.500000
 30
0.0
 10
219.346940
 20
108.500000
 30
0.0
  0
SPLINE
  5
207
100
AcDbEntity
  8
Calque_1
 62
1
100
AcDbSpline
 70
8
 71
3
 72
8
 73
4
 74
0
 40
0
 40
0
 40
0
 40
0
 40
1
 40
1
 40
1
 40
1
 10
219.346940
 20
108.500000
 30
0.0
 10
219.744765
 20
108.500000
 30
0.0
 10
220.126296
 20
108.341965
 30
0.0
 10
220.407600
 20
108.060660
 30
0.0
  0
SPLINE
  5
208
100
AcDbEntity
  8
Calque_1
 62
1
100
AcDbSpline
 70
8
 71
3
 72
8
 73
4
 74
0
 40
0
 40
0
 40
0
 40
0
 40
1
 40
1
 40
1
 40
1
 10
220.407600
 20
108.060660
 30
0.0
 10
220.688905
 20
107.779356
 30
0.0
 10
220.846940
 20
107.397825
 30
0.0
 10
220.846940
 20
107.000000
 30
0.0
  0
LWPOLYLINE
  5
209
100
AcDbEntity
  8
Calque_1
 62
1
100
AcDbPolyline
 90
1
 70
1
 10
234.316330
 20
107.000000
 30
0.0
  0
SPLINE
  5
20a
100
AcDbEntity
  8
Calque_1
 62
1
100
AcDbSpline
 70
8
 71
3
 72
8
 73
4
 74
0
 40
0
 40
0
 40
0
 40
0
 40
1
 40
1
 40
1
 40
1
 10
72.683670
 20
107.000000
 30
0.0
 10
72.683670
 20
106.602175
 30
0.0
 10
72.525635
 20
106.220644
 30
0.0
 10
72.244330
 20
105.939340
 30
0.0
  0
SPLINE
  5
20b
100
AcDbEntity
  8
Calque_1
 62
1
100
AcDbSpline
 70
8
 71
3
 72
8
 73
4
 74
0
 40
0
 40
0
 40
0
 40
0
 40
1
 40
1
 40
1
 40
1
 10
72.244330
 20
105.939340
 30
0.0
 10
71.963026
 20
105.658035
 30
0.0
 10
71.581495
 20
105.500000
 30
0.0
 10
71.183670
 20
105.500000
 30
0.0
  0
SPLINE
  5
20c
100
AcDbEntity
  8
Calque_1
 62
1
100
AcDbSpline
 70
8
 71
3
 72
8
 73
4
 74
0
 40
0
 40
0
 40
0
 40
0
 40
1
 40
1
 40
1
 40
1
 10
71.183670
 20
105.500000
 30
0.0
 10
70.785845
 20
105.500000
 30
0.0
 10
70.404314
 20
105.658035
 30
0.0
 10
70.123010
 20
105.939340
 30
0.0
  0
SPLINE
  5
20d
100
AcDbEntity
  8
Calque_1
 62
1
100
AcDbSpline
 70
8
 71
3
 72
8
 73
4
 74
0
 40
0
 40
0
 40
0
 40
0
 40
1
 40
1
 40
1
 40
1
 10
70.123010
 20
105.939340
 30
0.0
 10
69.841705
 20
106.220644
 30
0.0
 10
69.683670
 20
106.602175
 30
0.0
 10
69.683670
 20
107.000000
 30
0.0
  0
SPLINE
  5
20e
100
AcDbEntity
  8
Calque_1
 62
1
100
AcDbSpline
 70
8
 71
3
 72
8
 73
4
 74
0
 40
0
 40
0
 40
0
 40
0
 40
1
 40
1
 40
1
 40
1
 10
69.683670
 20
107.000000
 30
0.0
 10
69.683670
 20
107.397825
 30
0.0
 10
69.841705
 20
107.779356
 30
0.0
 10
70.123010
 20
108.060660
 30
0.0
  0
SPLINE
  5
20f
100
AcDbEntity
  8
Calque_1
 62
1
100
AcDbSpline
 70
8
 71
3
 72
8
 73
4
 74
0
 40
0
 40
0
 40
0
 40
0
 40
1
 40
1
 40
1
 40
1
 10
70.123010
 20
108.060660
 30
0.0
 10
70.404314
 20
108.341965
 30
0.0
 10
70.785845
 20
108.500000
 30
0.0
 10
71.183670
 20
108.500000
 30
0.0
  0
SPLINE
  5
210
100
AcDbEntity
  8
Calque_1
 62
1
100
AcDbSpline
 70
8
 71
3
 72
8
 73
4
 74
0
 40
0
 40
0
 40
0
 40
0
 40
1
 40
1
 40
1
 40
1
 10
71.183670
 20
108.500000
 30
0.0
 10
71.581495
 20
108.500000
 30
0.0
 10
71.963026
 20
108.341965
 30
0.0
 10
72.244330
 20
108.060660
 30
0.0
  0
SPLINE
  5
211
100
AcDbEntity
  8
Calque_1
 62
1
100
AcDbSpline
 70
8
 71
3
 72
8
 73
4
 74
0
 40
0
 40
0
 40
0
 40
0
 40
1
 40
1
 40
1
 40
1
 10
72.244330
 20
108.060660
 30
0.0
 10
72.525635
 20
107.779356
 30
0.0
 10
72.683670
 20
107.397825
 30
0.0
 10
72.683670
 20
107.000000
 30
0.0
  0
LWPOLYLINE
  5
212
100
AcDbEntity
  8
Calque_1
 62
1
100
AcDbPolyline
 90
1
 70
1
 10
220.846940
 20
107.000000
 30
0.0
  0
SPLINE
  5
213
100
AcDbEntity
  8
Calque_1
 62
1
100
AcDbSpline
 70
8
 71
3
 72
8
 73
4
 74
0
 40
0
 40
0
 40
0
 40
0
 40
1
 40
1
 40
1
 40
1
 10
59.214287
 20
107.000000
 30
0.0
 10
59.214287
 20
106.602175
 30
0.0
 10
59.056252
 20
106.220644
 30
0.0
 10
58.774947
 20
105.939340
 30
0.0
  0
SPLINE
  5
214
100
AcDbEntity
  8
Calque_1
 62
1
100
AcDbSpline
 70
8
 71
3
 72
8
 73
4
 74
0
 40
0
 40
0
 40
0
 40
0
 40
1
 40
1
 40
1
 40
1
 10
58.774947
 20
105.939340
 30
0.0
 10
58.493643
 20
105.658035
 30
0.0
 10
58.112112
 20
105.500000
 30
0.0
 10
57.714287
 20
105.500000
 30
0.0
  0
SPLINE
  5
215
100
AcDbEntity
  8
Calque_1
 62
1
100
AcDbSpline
 70
8
 71
3
 72
8
 73
4
 74
0
 40
0
 40
0
 40
0
 40
0
 40
1
 40
1
 40
1
 40
1
 10
57.714287
 20
105.500000
 30
0.0
 10
57.316462
 20
105.500000
 30
0.0
 10
56.934931
 20
105.658035
 30
0.0
 10
56.653627
 20
105.939340
 30
0.0
  0
SPLINE
  5
216
100
AcDbEntity
  8
Calque_1
 62
1
100
AcDbSpline
 70
8
 71
3
 72
8
 73
4
 74
0
 40
0
 40
0
 40
0
 40
0
 40
1
 40
1
 40
1
 40
1
 10
56.653627
 20
105.939340
 30
0.0
 10
56.372322
 20
106.220644
 30
0.0
 10
56.214287
 20
106.602175
 30
0.0
 10
56.214287
 20
107.000000
 30
0.0
  0
SPLINE
  5
217
100
AcDbEntity
  8
Calque_1
 62
1
100
AcDbSpline
 70
8
 71
3
 72
8
 73
4
 74
0
 40
0
 40
0
 40
0
 40
0
 40
1
 40
1
 40
1
 40
1
 10
56.214287
 20
107.000000
 30
0.0
 10
56.214287
 20
107.397825
 30
0.0
 10
56.372322
 20
107.779356
 30
0.0
 10
56.653627
 20
108.060660
 30
0.0
  0
SPLINE
  5
218
100
AcDbEntity
  8
Calque_1
 62
1
100
AcDbSpline
 70
8
 71
3
 72
8
 73
4
 74
0
 40
0
 40
0
 40
0
 40
0
 40
1
 40
1
 40
1
 40
1
 10
56.653627
 20
108.060660
 30
0.0
 10
56.934931
 20
108.341965
 30
0.0
 10
57.316462
 20
108.500000
 30
0.0
 10
57.714287
 20
108.500000
 30
0.0
  0
SPLINE
  5
219
100
AcDbEntity
  8
Calque_1
 62
1
100
AcDbSpline
 70
8
 71
3
 72
8
 73
4
 74
0
 40
0
 40
0
 40
0
 40
0
 40
1
 40
1
 40
1
 40
1
 10
57.714287
 20
108.500000
 30
0.0
 10
58.112112
 20
108.500000
 30
0.0
 10
58.493643
 20
108.341965
 30
0.0
 10
58.774947
 20
108.060660
 30
0.0
  0
SPLINE
  5
21a
100
AcDbEntity
  8
Calque_1
 62
1
100
AcDbSpline
 70
8
 71
3
 72
8
 73
4
 74
0
 40
0
 40
0
 40
0
 40
0
 40
1
 40
1
 40
1
 40
1
 10
58.774947
 20
108.060660
 30
0.0
 10
59.056252
 20
107.779356
 30
0.0
 10
59.214287
 20
107.397825
 30
0.0
 10
59.214287
 20
107.000000
 30
0.0
  0
LWPOLYLINE
  5
21b
100
AcDbEntity
  8
Calque_1
 62
1
100
AcDbPolyline
 90
1
 70
1
 10
72.683670
 20
107.000000
 30
0.0
  0
SPLINE
  5
21c
100
AcDbEntity
  8
Calque_1
 62
1
100
AcDbSpline
 70
8
 71
3
 72
8
 73
4
 74
0
 40
0
 40
0
 40
0
 40
0
 40
1
 40
1
 40
1
 40
1
 10
45.744900
 20
107.000000
 30
0.0
 10
45.744900
 20
106.602175
 30
0.0
 10
45.586865
 20
106.220644
 30
0.0
 10
45.305560
 20
105.939340
 30
0.0
  0
SPLINE
  5
21d
100
AcDbEntity
  8
Calque_1
 62
1
100
AcDbSpline
 70
8
 71
3
 72
8
 73
4
 74
0
 40
0
 40
0
 40
0
 40
0
 40
1
 40
1
 40
1
 40
1
 10
45.305560
 20
105.939340
 30
0.0
 10
45.024256
 20
105.658035
 30
0.0
 10
44.642725
 20
105.500000
 30
0.0
 10
44.244900
 20
105.500000
 30
0.0
  0
SPLINE
  5
21e
100
AcDbEntity
  8
Calque_1
 62
1
100
AcDbSpline
 70
8
 71
3
 72
8
 73
4
 74
0
 40
0
 40
0
 40
0
 40
0
 40
1
 40
1
 40
1
 40
1
 10
44.244900
 20
105.500000
 30
0.0
 10
43.847075
 20
105.500000
 30
0.0
 10
43.465544
 20
105.658035
 30
0.0
 10
43.184240
 20
105.939340
 30
0.0
  0
SPLINE
  5
21f
100
AcDbEntity
  8
Calque_1
 62
1
100
AcDbSpline
 70
8
 71
3
 72
8
 73
4
 74
0
 40
0
 40
0
 40
0
 40
0
 40
1
 40
1
 40
1
 40
1
 10
43.184240
 20
105.939340
 30
0.0
 10
42.902935
 20
106.220644
 30
0.0
 10
42.744900
 20
106.602175
 30
0.0
 10
42.744900
 20
107.000000
 30
0.0
  0
SPLINE
  5
220
100
AcDbEntity
  8
Calque_1
 62
1
100
AcDbSpline
 70
8
 71
3
 72
8
 73
4
 74
0
 40
0
 40
0
 40
0
 40
0
 40
1
 40
1
 40
1
 40
1
 10
42.744900
 20
107.000000
 30
0.0
 10
42.744900
 20
107.397825
 30
0.0
 10
42.902935
 20
107.779356
 30
0.0
 10
43.184240
 20
108.060660
 30
0.0
  0
SPLINE
  5
221
100
AcDbEntity
  8
Calque_1
 62
1
100
AcDbSpline
 70
8
 71
3
 72
8
 73
4
 74
0
 40
0
 40
0
 40
0
 40
0
 40
1
 40
1
 40
1
 40
1
 10
43.184240
 20
108.060660
 30
0.0
 10
43.465544
 20
108.341965
 30
0.0
 10
43.847075
 20
108.500000
 30
0.0
 10
44.244900
 20
108.500000
 30
0.0
  0
SPLINE
  5
222
100
AcDbEntity
  8
Calque_1
 62
1
100
AcDbSpline
 70
8
 71
3
 72
8
 73
4
 74
0
 40
0
 40
0
 40
0
 40
0
 40
1
 40
1
 40
1
 40
1
 10
44.244900
 20
108.500000
 30
0.0
 10
44.642725
 20
108.500000
 30
0.0
 10
45.024256
 20
108.341965
 30
0.0
 10
45.305560
 20
108.060660
 30
0.0
  0
SPLINE
  5
223
100
AcDbEntity
  8
Calque_1
 62
1
100
AcDbSpline
 70
8
 71
3
 72
8
 73
4
 74
0
 40
0
 40
0
 40
0
 40
0
 40
1
 40
1
 40
1
 40
1
 10
45.305560
 20
108.060660
 30
0.0
 10
45.586865
 20
107.779356
 30
0.0
 10
45.744900
 20
107.397825
 30
0.0
 10
45.744900
 20
107.000000
 30
0.0
  0
LWPOLYLINE
  5
224
100
AcDbEntity
  8
Calque_1
 62
1
100
AcDbPolyline
 90
1
 70
1
 10
59.214287
 20
107.000000
 30
0.0
  0
SPLINE
  5
225
100
AcDbEntity
  8
Calque_1
 62
1
100
AcDbSpline
 70
8
 71
3
 72
8
 73
4
 74
0
 40
0
 40
0
 40
0
 40
0
 40
1
 40
1
 40
1
 40
1
 10
32.275511
 20
107.000000
 30
0.0
 10
32.275511
 20
106.602175
 30
0.0
 10
32.117476
 20
106.220644
 30
0.0
 10
31.836171
 20
105.939340
 30
0.0
  0
SPLINE
  5
226
100
AcDbEntity
  8
Calque_1
 62
1
100
AcDbSpline
 70
8
 71
3
 72
8
 73
4
 74
0
 40
0
 40
0
 40
0
 40
0
 40
1
 40
1
 40
1
 40
1
 10
31.836171
 20
105.939340
 30
0.0
 10
31.554867
 20
105.658035
 30
0.0
 10
31.173336
 20
105.500000
 30
0.0
 10
30.775511
 20
105.500000
 30
0.0
  0
SPLINE
  5
227
100
AcDbEntity
  8
Calque_1
 62
1
100
AcDbSpline
 70
8
 71
3
 72
8
 73
4
 74
0
 40
0
 40
0
 40
0
 40
0
 40
1
 40
1
 40
1
 40
1
 10
30.775511
 20
105.500000
 30
0.0
 10
30.377686
 20
105.500000
 30
0.0
 10
29.996155
 20
105.658035
 30
0.0
 10
29.714851
 20
105.939340
 30
0.0
  0
SPLINE
  5
228
100
AcDbEntity
  8
Calque_1
 62
1
100
AcDbSpline
 70
8
 71
3
 72
8
 73
4
 74
0
 40
0
 40
0
 40
0
 40
0
 40
1
 40
1
 40
1
 40
1
 10
29.714851
 20
105.939340
 30
0.0
 10
29.433546
 20
106.220644
 30
0.0
 10
29.275511
 20
106.602175
 30
0.0
 10
29.275511
 20
107.000000
 30
0.0
  0
SPLINE
  5
229
100
AcDbEntity
  8
Calque_1
 62
1
100
AcDbSpline
 70
8
 71
3
 72
8
 73
4
 74
0
 40
0
 40
0
 40
0
 40
0
 40
1
 40
1
 40
1
 40
1
 10
29.275511
 20
107.000000
 30
0.0
 10
29.275511
 20
107.397825
 30
0.0
 10
29.433546
 20
107.779356
 30
0.0
 10
29.714851
 20
108.060660
 30
0.0
  0
SPLINE
  5
22a
100
AcDbEntity
  8
Calque_1
 62
1
100
AcDbSpline
 70
8
 71
3
 72
8
 73
4
 74
0
 40
0
 40
0
 40
0
 40
0
 40
1
 40
1
 40
1
 40
1
 10
29.714851
 20
108.060660
 30
0.0
 10
29.996155
 20
108.341965
 30
0.0
 10
30.377686
 20
108.500000
 30
0.0
 10
30.775511
 20
108.500000
 30
0.0
  0
SPLINE
  5
22b
100
AcDbEntity
  8
Calque_1
 62
1
100
AcDbSpline
 70
8
 71
3
 72
8
 73
4
 74
0
 40
0
 40
0
 40
0
 40
0
 40
1
 40
1
 40
1
 40
1
 10
30.775511
 20
108.500000
 30
0.0
 10
31.173336
 20
108.500000
 30
0.0
 10
31.554867
 20
108.341965
 30
0.0
 10
31.836171
 20
108.060660
 30
0.0
  0
SPLINE
  5
22c
100
AcDbEntity
  8
Calque_1
 62
1
100
AcDbSpline
 70
8
 71
3
 72
8
 73
4
 74
0
 40
0
 40
0
 40
0
 40
0
 40
1
 40
1
 40
1
 40
1
 10
31.836171
 20
108.060660
 30
0.0
 10
32.117476
 20
107.779356
 30
0.0
 10
32.275511
 20
107.397825
 30
0.0
 10
32.275511
 20
107.000000
 30
0.0
  0
LWPOLYLINE
  5
22d
100
AcDbEntity
  8
Calque_1
 62
1
100
AcDbPolyline
 90
1
 70
1
 10
45.744900
 20
107.000000
 30
0.0
  0
SPLINE
  5
22e
100
AcDbEntity
  8
Calque_1
 62
1
100
AcDbSpline
 70
8
 71
3
 72
8
 73
4
 74
0
 40
0
 40
0
 40
0
 40
0
 40
1
 40
1
 40
1
 40
1
 10
18.806122
 20
107.000000
 30
0.0
 10
18.806122
 20
106.602175
 30
0.0
 10
18.648087
 20
106.220644
 30
0.0
 10
18.366782
 20
105.939340
 30
0.0
  0
SPLINE
  5
22f
100
AcDbEntity
  8
Calque_1
 62
1
100
AcDbSpline
 70
8
 71
3
 72
8
 73
4
 74
0
 40
0
 40
0
 40
0
 40
0
 40
1
 40
1
 40
1
 40
1
 10
18.366782
 20
105.939340
 30
0.0
 10
18.085478
 20
105.658035
 30
0.0
 10
17.703947
 20
105.500000
 30
0.0
 10
17.306122
 20
105.500000
 30
0.0
  0
SPLINE
  5
230
100
AcDbEntity
  8
Calque_1
 62
1
100
AcDbSpline
 70
8
 71
3
 72
8
 73
4
 74
0
 40
0
 40
0
 40
0
 40
0
 40
1
 40
1
 40
1
 40
1
 10
17.306122
 20
105.500000
 30
0.0
 10
16.908297
 20
105.500000
 30
0.0
 10
16.526766
 20
105.658035
 30
0.0
 10
16.245462
 20
105.939340
 30
0.0
  0
SPLINE
  5
231
100
AcDbEntity
  8
Calque_1
 62
1
100
AcDbSpline
 70
8
 71
3
 72
8
 73
4
 74
0
 40
0
 40
0
 40
0
 40
0
 40
1
 40
1
 40
1
 40
1
 10
16.245462
 20
105.939340
 30
0.0
 10
15.964157
 20
106.220644
 30
0.0
 10
15.806122
 20
106.602175
 30
0.0
 10
15.806122
 20
107.000000
 30
0.0
  0
SPLINE
  5
232
100
AcDbEntity
  8
Calque_1
 62
1
100
AcDbSpline
 70
8
 71
3
 72
8
 73
4
 74
0
 40
0
 40
0
 40
0
 40
0
 40
1
 40
1
 40
1
 40
1
 10
15.806122
 20
107.000000
 30
0.0
 10
15.806122
 20
107.397825
 30
0.0
 10
15.964157
 20
107.779356
 30
0.0
 10
16.245462
 20
108.060660
 30
0.0
  0
SPLINE
  5
233
100
AcDbEntity
  8
Calque_1
 62
1
100
AcDbSpline
 70
8
 71
3
 72
8
 73
4
 74
0
 40
0
 40
0
 40
0
 40
0
 40
1
 40
1
 40
1
 40
1
 10
16.245462
 20
108.060660
 30
0.0
 10
16.526766
 20
108.341965
 30
0.0
 10
16.908297
 20
108.500000
 30
0.0
 10
17.306122
 20
108.500000
 30
0.0
  0
SPLINE
  5
234
100
AcDbEntity
  8
Calque_1
 62
1
100
AcDbSpline
 70
8
 71
3
 72
8
 73
4
 74
0
 40
0
 40
0
 40
0
 40
0
 40
1
 40
1
 40
1
 40
1
 10
17.306122
 20
108.500000
 30
0.0
 10
17.703947
 20
108.500000
 30
0.0
 10
18.085478
 20
108.341965
 30
0.0
 10
18.366782
 20
108.060660
 30
0.0
  0
SPLINE
  5
235
100
AcDbEntity
  8
Calque_1
 62
1
100
AcDbSpline
 70
8
 71
3
 72
8
 73
4
 74
0
 40
0
 40
0
 40
0
 40
0
 40
1
 40
1
 40
1
 40
1
 10
18.366782
 20
108.060660
 30
0.0
 10
18.648087
 20
107.779356
 30
0.0
 10
18.806122
 20
107.397825
 30
0.0
 10
18.806122
 20
107.000000
 30
0.0
  0
LWPOLYLINE
  5
236
100
AcDbEntity
  8
Calque_1
 62
1
100
AcDbPolyline
 90
1
 70
1
 10
32.275511
 20
107.000000
 30
0.0
  0
SPLINE
  5
237
100
AcDbEntity
  8
Calque_1
 62
1
100
AcDbSpline
 70
8
 71
3
 72
8
 73
4
 74
0
 40
0
 40
0
 40
0
 40
0
 40
1
 40
1
 40
1
 40
1
 10
5.336735
 20
107.000000
 30
0.0
 10
5.336735
 20
106.602175
 30
0.0
 10
5.178700
 20
106.220644
 30
0.0
 10
4.897395
 20
105.939340
 30
0.0
  0
SPLINE
  5
238
100
AcDbEntity
  8
Calque_1
 62
1
100
AcDbSpline
 70
8
 71
3
 72
8
 73
4
 74
0
 40
0
 40
0
 40
0
 40
0
 40
1
 40
1
 40
1
 40
1
 10
4.897395
 20
105.939340
 30
0.0
 10
4.616090
 20
105.658035
 30
0.0
 10
4.234560
 20
105.500000
 30
0.0
 10
3.836735
 20
105.500000
 30
0.0
  0
SPLINE
  5
239
100
AcDbEntity
  8
Calque_1
 62
1
100
AcDbSpline
 70
8
 71
3
 72
8
 73
4
 74
0
 40
0
 40
0
 40
0
 40
0
 40
1
 40
1
 40
1
 40
1
 10
3.836735
 20
105.500000
 30
0.0
 10
3.438910
 20
105.500000
 30
0.0
 10
3.057379
 20
105.658035
 30
0.0
 10
2.776075
 20
105.939340
 30
0.0
  0
SPLINE
  5
23a
100
AcDbEntity
  8
Calque_1
 62
1
100
AcDbSpline
 70
8
 71
3
 72
8
 73
4
 74
0
 40
0
 40
0
 40
0
 40
0
 40
1
 40
1
 40
1
 40
1
 10
2.776075
 20
105.939340
 30
0.0
 10
2.494770
 20
106.220644
 30
0.0
 10
2.336735
 20
106.602175
 30
0.0
 10
2.336735
 20
107.000000
 30
0.0
  0
SPLINE
  5
23b
100
AcDbEntity
  8
Calque_1
 62
1
100
AcDbSpline
 70
8
 71
3
 72
8
 73
4
 74
0
 40
0
 40
0
 40
0
 40
0
 40
1
 40
1
 40
1
 40
1
 10
2.336735
 20
107.000000
 30
0.0
 10
2.336735
 20
107.397825
 30
0.0
 10
2.494770
 20
107.779356
 30
0.0
 10
2.776075
 20
108.060660
 30
0.0
  0
SPLINE
  5
23c
100
AcDbEntity
  8
Calque_1
 62
1
100
AcDbSpline
 70
8
 71
3
 72
8
 73
4
 74
0
 40
0
 40
0
 40
0
 40
0
 40
1
 40
1
 40
1
 40
1
 10
2.776075
 20
108.060660
 30
0.0
 10
3.057379
 20
108.341965
 30
0.0
 10
3.438910
 20
108.500000
 30
0.0
 10
3.836735
 20
108.500000
 30
0.0
  0
SPLINE
  5
23d
100
AcDbEntity
  8
Calque_1
 62
1
100
AcDbSpline
 70
8
 71
3
 72
8
 73
4
 74
0
 40
0
 40
0
 40
0
 40
0
 40
1
 40
1
 40
1
 40
1
 10
3.836735
 20
108.500000
 30
0.0
 10
4.234560
 20
108.500000
 30
0.0
 10
4.616090
 20
108.341965
 30
0.0
 10
4.897395
 20
108.060660
 30
0.0
  0
SPLINE
  5
23e
100
AcDbEntity
  8
Calque_1
 62
1
100
AcDbSpline
 70
8
 71
3
 72
8
 73
4
 74
0
 40
0
 40
0
 40
0
 40
0
 40
1
 40
1
 40
1
 40
1
 10
4.897395
 20
108.060660
 30
0.0
 10
5.178700
 20
107.779356
 30
0.0
 10
5.336735
 20
107.397825
 30
0.0
 10
5.336735
 20
107.000000
 30
0.0
  0
LWPOLYLINE
  5
23f
100
AcDbEntity
  8
Calque_1
 62
1
100
AcDbPolyline
 90
1
 70
1
 10
18.806122
 20
107.000000
 30
0.0
  0
SPLINE
  5
240
100
AcDbEntity
  8
Calque_1
 62
1
100
AcDbSpline
 70
8
 71
3
 72
8
 73
4
 74
0
 40
0
 40
0
 40
0
 40
0
 40
1
 40
1
 40
1
 40
1
 10
-8.132653
 20
107.000000
 30
0.0
 10
-8.132653
 20
106.602175
 30
0.0
 10
-8.290688
 20
106.220644
 30
0.0
 10
-8.571993
 20
105.939340
 30
0.0
  0
SPLINE
  5
241
100
AcDbEntity
  8
Calque_1
 62
1
100
AcDbSpline
 70
8
 71
3
 72
8
 73
4
 74
0
 40
0
 40
0
 40
0
 40
0
 40
1
 40
1
 40
1
 40
1
 10
-8.571993
 20
105.939340
 30
0.0
 10
-8.853298
 20
105.658035
 30
0.0
 10
-9.234828
 20
105.500000
 30
0.0
 10
-9.632653
 20
105.500000
 30
0.0
  0
SPLINE
  5
242
100
AcDbEntity
  8
Calque_1
 62
1
100
AcDbSpline
 70
8
 71
3
 72
8
 73
4
 74
0
 40
0
 40
0
 40
0
 40
0
 40
1
 40
1
 40
1
 40
1
 10
-9.632653
 20
105.500000
 30
0.0
 10
-10.461080
 20
105.500000
 30
0.0
 10
-11.132653
 20
106.171573
 30
0.0
 10
-11.132653
 20
107.000000
 30
0.0
  0
SPLINE
  5
243
100
AcDbEntity
  8
Calque_1
 62
1
100
AcDbSpline
 70
8
 71
3
 72
8
 73
4
 74
0
 40
0
 40
0
 40
0
 40
0
 40
1
 40
1
 40
1
 40
1
 10
-11.132653
 20
107.000000
 30
0.0
 10
-11.132653
 20
107.828427
 30
0.0
 10
-10.461080
 20
108.500000
 30
0.0
 10
-9.632653
 20
108.500000
 30
0.0
  0
SPLINE
  5
244
100
AcDbEntity
  8
Calque_1
 62
1
100
AcDbSpline
 70
8
 71
3
 72
8
 73
4
 74
0
 40
0
 40
0
 40
0
 40
0
 40
1
 40
1
 40
1
 40
1
 10
-9.632653
 20
108.500000
 30
0.0
 10
-9.234828
 20
108.500000
 30
0.0
 10
-8.853298
 20
108.341965
 30
0.0
 10
-8.571993
 20
108.060660
 30
0.0
  0
SPLINE
  5
245
100
AcDbEntity
  8
Calque_1
 62
1
100
AcDbSpline
 70
8
 71
3
 72
8
 73
4
 74
0
 40
0
 40
0
 40
0
 40
0
 40
1
 40
1
 40
1
 40
1
 10
-8.571993
 20
108.060660
 30
0.0
 10
-8.290688
 20
107.779356
 30
0.0
 10
-8.132653
 20
107.397825
 30
0.0
 10
-8.132653
 20
107.000000
 30
0.0
  0
LWPOLYLINE
  5
246
100
AcDbEntity
  8
Calque_1
 62
1
100
AcDbPolyline
 90
1
 70
1
 10
5.336735
 20
107.000000
 30
0.0
  0
SPLINE
  5
247
100
AcDbEntity
  8
Calque_1
 62
1
100
AcDbSpline
 70
8
 71
3
 72
8
 73
4
 74
0
 40
0
 40
0
 40
0
 40
0
 40
1
 40
1
 40
1
 40
1
 10
-21.602041
 20
107.000000
 30
0.0
 10
-21.602041
 20
106.602175
 30
0.0
 10
-21.760076
 20
106.220644
 30
0.0
 10
-22.041381
 20
105.939340
 30
0.0
  0
SPLINE
  5
248
100
AcDbEntity
  8
Calque_1
 62
1
100
AcDbSpline
 70
8
 71
3
 72
8
 73
4
 74
0
 40
0
 40
0
 40
0
 40
0
 40
1
 40
1
 40
1
 40
1
 10
-22.041381
 20
105.939340
 30
0.0
 10
-22.322685
 20
105.658035
 30
0.0
 10
-22.704216
 20
105.500000
 30
0.0
 10
-23.102041
 20
105.500000
 30
0.0
  0
SPLINE
  5
249
100
AcDbEntity
  8
Calque_1
 62
1
100
AcDbSpline
 70
8
 71
3
 72
8
 73
4
 74
0
 40
0
 40
0
 40
0
 40
0
 40
1
 40
1
 40
1
 40
1
 10
-23.102041
 20
105.500000
 30
0.0
 10
-23.499866
 20
105.500000
 30
0.0
 10
-23.881397
 20
105.658035
 30
0.0
 10
-24.162701
 20
105.939340
 30
0.0
  0
SPLINE
  5
24a
100
AcDbEntity
  8
Calque_1
 62
1
100
AcDbSpline
 70
8
 71
3
 72
8
 73
4
 74
0
 40
0
 40
0
 40
0
 40
0
 40
1
 40
1
 40
1
 40
1
 10
-24.162701
 20
105.939340
 30
0.0
 10
-24.444006
 20
106.220644
 30
0.0
 10
-24.602041
 20
106.602175
 30
0.0
 10
-24.602041
 20
107.000000
 30
0.0
  0
SPLINE
  5
24b
100
AcDbEntity
  8
Calque_1
 62
1
100
AcDbSpline
 70
8
 71
3
 72
8
 73
4
 74
0
 40
0
 40
0
 40
0
 40
0
 40
1
 40
1
 40
1
 40
1
 10
-24.602041
 20
107.000000
 30
0.0
 10
-24.602041
 20
107.397825
 30
0.0
 10
-24.444006
 20
107.779356
 30
0.0
 10
-24.162701
 20
108.060660
 30
0.0
  0
SPLINE
  5
24c
100
AcDbEntity
  8
Calque_1
 62
1
100
AcDbSpline
 70
8
 71
3
 72
8
 73
4
 74
0
 40
0
 40
0
 40
0
 40
0
 40
1
 40
1
 40
1
 40
1
 10
-24.162701
 20
108.060660
 30
0.0
 10
-23.881397
 20
108.341965
 30
0.0
 10
-23.499866
 20
108.500000
 30
0.0
 10
-23.102041
 20
108.500000
 30
0.0
  0
SPLINE
  5
24d
100
AcDbEntity
  8
Calque_1
 62
1
100
AcDbSpline
 70
8
 71
3
 72
8
 73
4
 74
0
 40
0
 40
0
 40
0
 40
0
 40
1
 40
1
 40
1
 40
1
 10
-23.102041
 20
108.500000
 30
0.0
 10
-22.704216
 20
108.500000
 30
0.0
 10
-22.322685
 20
108.341965
 30
0.0
 10
-22.041381
 20
108.060660
 30
0.0
  0
SPLINE
  5
24e
100
AcDbEntity
  8
Calque_1
 62
1
100
AcDbSpline
 70
8
 71
3
 72
8
 73
4
 74
0
 40
0
 40
0
 40
0
 40
0
 40
1
 40
1
 40
1
 40
1
 10
-22.041381
 20
108.060660
 30
0.0
 10
-21.760076
 20
107.779356
 30
0.0
 10
-21.602041
 20
107.397825
 30
0.0
 10
-21.602041
 20
107.000000
 30
0.0
  0
LWPOLYLINE
  5
24f
100
AcDbEntity
  8
Calque_1
 62
1
100
AcDbPolyline
 90
1
 70
1
 10
-8.132653
 20
107.000000
 30
0.0
  0
SPLINE
  5
250
100
AcDbEntity
  8
Calque_1
 62
1
100
AcDbSpline
 70
8
 71
3
 72
8
 73
4
 74
0
 40
0
 40
0
 40
0
 40
0
 40
1
 40
1
 40
1
 40
1
 10
-35.071430
 20
107.000000
 30
0.0
 10
-35.071430
 20
106.602175
 30
0.0
 10
-35.229465
 20
106.220644
 30
0.0
 10
-35.510770
 20
105.939340
 30
0.0
  0
SPLINE
  5
251
100
AcDbEntity
  8
Calque_1
 62
1
100
AcDbSpline
 70
8
 71
3
 72
8
 73
4
 74
0
 40
0
 40
0
 40
0
 40
0
 40
1
 40
1
 40
1
 40
1
 10
-35.510770
 20
105.939340
 30
0.0
 10
-35.792074
 20
105.658035
 30
0.0
 10
-36.173605
 20
105.500000
 30
0.0
 10
-36.571430
 20
105.500000
 30
0.0
  0
SPLINE
  5
252
100
AcDbEntity
  8
Calque_1
 62
1
100
AcDbSpline
 70
8
 71
3
 72
8
 73
4
 74
0
 40
0
 40
0
 40
0
 40
0
 40
1
 40
1
 40
1
 40
1
 10
-36.571430
 20
105.500000
 30
0.0
 10
-36.969255
 20
105.500000
 30
0.0
 10
-37.350786
 20
105.658035
 30
0.0
 10
-37.632090
 20
105.939340
 30
0.0
  0
SPLINE
  5
253
100
AcDbEntity
  8
Calque_1
 62
1
100
AcDbSpline
 70
8
 71
3
 72
8
 73
4
 74
0
 40
0
 40
0
 40
0
 40
0
 40
1
 40
1
 40
1
 40
1
 10
-37.632090
 20
105.939340
 30
0.0
 10
-37.913395
 20
106.220644
 30
0.0
 10
-38.071430
 20
106.602175
 30
0.0
 10
-38.071430
 20
107.000000
 30
0.0
  0
SPLINE
  5
254
100
AcDbEntity
  8
Calque_1
 62
1
100
AcDbSpline
 70
8
 71
3
 72
8
 73
4
 74
0
 40
0
 40
0
 40
0
 40
0
 40
1
 40
1
 40
1
 40
1
 10
-38.071430
 20
107.000000
 30
0.0
 10
-38.071430
 20
107.397825
 30
0.0
 10
-37.913395
 20
107.779356
 30
0.0
 10
-37.632090
 20
108.060660
 30
0.0
  0
SPLINE
  5
255
100
AcDbEntity
  8
Calque_1
 62
1
100
AcDbSpline
 70
8
 71
3
 72
8
 73
4
 74
0
 40
0
 40
0
 40
0
 40
0
 40
1
 40
1
 40
1
 40
1
 10
-37.632090
 20
108.060660
 30
0.0
 10
-37.350786
 20
108.341965
 30
0.0
 10
-36.969255
 20
108.500000
 30
0.0
 10
-36.571430
 20
108.500000
 30
0.0
  0
SPLINE
  5
256
100
AcDbEntity
  8
Calque_1
 62
1
100
AcDbSpline
 70
8
 71
3
 72
8
 73
4
 74
0
 40
0
 40
0
 40
0
 40
0
 40
1
 40
1
 40
1
 40
1
 10
-36.571430
 20
108.500000
 30
0.0
 10
-35.743003
 20
108.500000
 30
0.0
 10
-35.071430
 20
107.828427
 30
0.0
 10
-35.071430
 20
107.000000
 30
0.0
  0
LWPOLYLINE
  5
257
100
AcDbEntity
  8
Calque_1
 62
1
100
AcDbPolyline
 90
1
 70
1
 10
-21.602041
 20
107.000000
 30
0.0
  0
SPLINE
  5
258
100
AcDbEntity
  8
Calque_1
 62
1
100
AcDbSpline
 70
8
 71
3
 72
8
 73
4
 74
0
 40
0
 40
0
 40
0
 40
0
 40
1
 40
1
 40
1
 40
1
 10
-48.540817
 20
107.000000
 30
0.0
 10
-48.540817
 20
106.602175
 30
0.0
 10
-48.698852
 20
106.220644
 30
0.0
 10
-48.980157
 20
105.939340
 30
0.0
  0
SPLINE
  5
259
100
AcDbEntity
  8
Calque_1
 62
1
100
AcDbSpline
 70
8
 71
3
 72
8
 73
4
 74
0
 40
0
 40
0
 40
0
 40
0
 40
1
 40
1
 40
1
 40
1
 10
-48.980157
 20
105.939340
 30
0.0
 10
-49.261461
 20
105.658035
 30
0.0
 10
-49.642992
 20
105.500000
 30
0.0
 10
-50.040817
 20
105.500000
 30
0.0
  0
SPLINE
  5
25a
100
AcDbEntity
  8
Calque_1
 62
1
100
AcDbSpline
 70
8
 71
3
 72
8
 73
4
 74
0
 40
0
 40
0
 40
0
 40
0
 40
1
 40
1
 40
1
 40
1
 10
-50.040817
 20
105.500000
 30
0.0
 10
-50.438642
 20
105.500000
 30
0.0
 10
-50.820173
 20
105.658035
 30
0.0
 10
-51.101477
 20
105.939340
 30
0.0
  0
SPLINE
  5
25b
100
AcDbEntity
  8
Calque_1
 62
1
100
AcDbSpline
 70
8
 71
3
 72
8
 73
4
 74
0
 40
0
 40
0
 40
0
 40
0
 40
1
 40
1
 40
1
 40
1
 10
-51.101477
 20
105.939340
 30
0.0
 10
-51.382782
 20
106.220644
 30
0.0
 10
-51.540817
 20
106.602175
 30
0.0
 10
-51.540817
 20
107.000000
 30
0.0
  0
SPLINE
  5
25c
100
AcDbEntity
  8
Calque_1
 62
1
100
AcDbSpline
 70
8
 71
3
 72
8
 73
4
 74
0
 40
0
 40
0
 40
0
 40
0
 40
1
 40
1
 40
1
 40
1
 10
-51.540817
 20
107.000000
 30
0.0
 10
-51.540817
 20
107.828427
 30
0.0
 10
-50.869244
 20
108.500000
 30
0.0
 10
-50.040817
 20
108.500000
 30
0.0
  0
SPLINE
  5
25d
100
AcDbEntity
  8
Calque_1
 62
1
100
AcDbSpline
 70
8
 71
3
 72
8
 73
4
 74
0
 40
0
 40
0
 40
0
 40
0
 40
1
 40
1
 40
1
 40
1
 10
-50.040817
 20
108.500000
 30
0.0
 10
-49.642992
 20
108.500000
 30
0.0
 10
-49.261461
 20
108.341965
 30
0.0
 10
-48.980157
 20
108.060660
 30
0.0
  0
SPLINE
  5
25e
100
AcDbEntity
  8
Calque_1
 62
1
100
AcDbSpline
 70
8
 71
3
 72
8
 73
4
 74
0
 40
0
 40
0
 40
0
 40
0
 40
1
 40
1
 40
1
 40
1
 10
-48.980157
 20
108.060660
 30
0.0
 10
-48.698852
 20
107.779356
 30
0.0
 10
-48.540817
 20
107.397825
 30
0.0
 10
-48.540817
 20
107.000000
 30
0.0
  0
LWPOLYLINE
  5
25f
100
AcDbEntity
  8
Calque_1
 62
1
100
AcDbPolyline
 90
1
 70
1
 10
-35.071430
 20
107.000000
 30
0.0
  0
SPLINE
  5
260
100
AcDbEntity
  8
Calque_1
 62
1
100
AcDbSpline
 70
8
 71
3
 72
8
 73
4
 74
0
 40
0
 40
0
 40
0
 40
0
 40
1
 40
1
 40
1
 40
1
 10
-88.948982
 20
107.000000
 30
0.0
 10
-88.948982
 20
106.602175
 30
0.0
 10
-89.107017
 20
106.220644
 30
0.0
 10
-89.388322
 20
105.939340
 30
0.0
  0
SPLINE
  5
261
100
AcDbEntity
  8
Calque_1
 62
1
100
AcDbSpline
 70
8
 71
3
 72
8
 73
4
 74
0
 40
0
 40
0
 40
0
 40
0
 40
1
 40
1
 40
1
 40
1
 10
-89.388322
 20
105.939340
 30
0.0
 10
-89.669626
 20
105.658035
 30
0.0
 10
-90.051157
 20
105.500000
 30
0.0
 10
-90.448982
 20
105.500000
 30
0.0
  0
SPLINE
  5
262
100
AcDbEntity
  8
Calque_1
 62
1
100
AcDbSpline
 70
8
 71
3
 72
8
 73
4
 74
0
 40
0
 40
0
 40
0
 40
0
 40
1
 40
1
 40
1
 40
1
 10
-90.448982
 20
105.500000
 30
0.0
 10
-90.846807
 20
105.500000
 30
0.0
 10
-91.228338
 20
105.658035
 30
0.0
 10
-91.509642
 20
105.939340
 30
0.0
  0
SPLINE
  5
263
100
AcDbEntity
  8
Calque_1
 62
1
100
AcDbSpline
 70
8
 71
3
 72
8
 73
4
 74
0
 40
0
 40
0
 40
0
 40
0
 40
1
 40
1
 40
1
 40
1
 10
-91.509642
 20
105.939340
 30
0.0
 10
-91.790947
 20
106.220644
 30
0.0
 10
-91.948982
 20
106.602175
 30
0.0
 10
-91.948982
 20
107.000000
 30
0.0
  0
SPLINE
  5
264
100
AcDbEntity
  8
Calque_1
 62
1
100
AcDbSpline
 70
8
 71
3
 72
8
 73
4
 74
0
 40
0
 40
0
 40
0
 40
0
 40
1
 40
1
 40
1
 40
1
 10
-91.948982
 20
107.000000
 30
0.0
 10
-91.948982
 20
107.397825
 30
0.0
 10
-91.790947
 20
107.779356
 30
0.0
 10
-91.509642
 20
108.060660
 30
0.0
  0
SPLINE
  5
265
100
AcDbEntity
  8
Calque_1
 62
1
100
AcDbSpline
 70
8
 71
3
 72
8
 73
4
 74
0
 40
0
 40
0
 40
0
 40
0
 40
1
 40
1
 40
1
 40
1
 10
-91.509642
 20
108.060660
 30
0.0
 10
-91.228338
 20
108.341965
 30
0.0
 10
-90.846807
 20
108.500000
 30
0.0
 10
-90.448982
 20
108.500000
 30
0.0
  0
SPLINE
  5
266
100
AcDbEntity
  8
Calque_1
 62
1
100
AcDbSpline
 70
8
 71
3
 72
8
 73
4
 74
0
 40
0
 40
0
 40
0
 40
0
 40
1
 40
1
 40
1
 40
1
 10
-90.448982
 20
108.500000
 30
0.0
 10
-90.051157
 20
108.500000
 30
0.0
 10
-89.669626
 20
108.341965
 30
0.0
 10
-89.388322
 20
108.060660
 30
0.0
  0
SPLINE
  5
267
100
AcDbEntity
  8
Calque_1
 62
1
100
AcDbSpline
 70
8
 71
3
 72
8
 73
4
 74
0
 40
0
 40
0
 40
0
 40
0
 40
1
 40
1
 40
1
 40
1
 10
-89.388322
 20
108.060660
 30
0.0
 10
-89.107017
 20
107.779356
 30
0.0
 10
-88.948982
 20
107.397825
 30
0.0
 10
-88.948982
 20
107.000000
 30
0.0
  0
LWPOLYLINE
  5
268
100
AcDbEntity
  8
Calque_1
 62
1
100
AcDbPolyline
 90
1
 70
1
 10
-48.540817
 20
107.000000
 30
0.0
  0
SPLINE
  5
269
100
AcDbEntity
  8
Calque_1
 62
1
100
AcDbSpline
 70
8
 71
3
 72
8
 73
4
 74
0
 40
0
 40
0
 40
0
 40
0
 40
1
 40
1
 40
1
 40
1
 10
-102.418370
 20
107.000000
 30
0.0
 10
-102.418370
 20
106.602175
 30
0.0
 10
-102.576405
 20
106.220644
 30
0.0
 10
-102.857710
 20
105.939340
 30
0.0
  0
SPLINE
  5
26a
100
AcDbEntity
  8
Calque_1
 62
1
100
AcDbSpline
 70
8
 71
3
 72
8
 73
4
 74
0
 40
0
 40
0
 40
0
 40
0
 40
1
 40
1
 40
1
 40
1
 10
-102.857710
 20
105.939340
 30
0.0
 10
-103.139014
 20
105.658035
 30
0.0
 10
-103.520545
 20
105.500000
 30
0.0
 10
-103.918370
 20
105.500000
 30
0.0
  0
SPLINE
  5
26b
100
AcDbEntity
  8
Calque_1
 62
1
100
AcDbSpline
 70
8
 71
3
 72
8
 73
4
 74
0
 40
0
 40
0
 40
0
 40
0
 40
1
 40
1
 40
1
 40
1
 10
-103.918370
 20
105.500000
 30
0.0
 10
-104.316195
 20
105.500000
 30
0.0
 10
-104.697726
 20
105.658035
 30
0.0
 10
-104.979030
 20
105.939340
 30
0.0
  0
SPLINE
  5
26c
100
AcDbEntity
  8
Calque_1
 62
1
100
AcDbSpline
 70
8
 71
3
 72
8
 73
4
 74
0
 40
0
 40
0
 40
0
 40
0
 40
1
 40
1
 40
1
 40
1
 10
-104.979030
 20
105.939340
 30
0.0
 10
-105.260335
 20
106.220644
 30
0.0
 10
-105.418370
 20
106.602175
 30
0.0
 10
-105.418370
 20
107.000000
 30
0.0
  0
SPLINE
  5
26d
100
AcDbEntity
  8
Calque_1
 62
1
100
AcDbSpline
 70
8
 71
3
 72
8
 73
4
 74
0
 40
0
 40
0
 40
0
 40
0
 40
1
 40
1
 40
1
 40
1
 10
-105.418370
 20
107.000000
 30
0.0
 10
-105.418370
 20
107.397825
 30
0.0
 10
-105.260335
 20
107.779356
 30
0.0
 10
-104.979030
 20
108.060660
 30
0.0
  0
SPLINE
  5
26e
100
AcDbEntity
  8
Calque_1
 62
1
100
AcDbSpline
 70
8
 71
3
 72
8
 73
4
 74
0
 40
0
 40
0
 40
0
 40
0
 40
1
 40
1
 40
1
 40
1
 10
-104.979030
 20
108.060660
 30
0.0
 10
-104.697726
 20
108.341965
 30
0.0
 10
-104.316195
 20
108.500000
 30
0.0
 10
-103.918370
 20
108.500000
 30
0.0
  0
SPLINE
  5
26f
100
AcDbEntity
  8
Calque_1
 62
1
100
AcDbSpline
 70
8
 71
3
 72
8
 73
4
 74
0
 40
0
 40
0
 40
0
 40
0
 40
1
 40
1
 40
1
 40
1
 10
-103.918370
 20
108.500000
 30
0.0
 10
-103.520545
 20
108.500000
 30
0.0
 10
-103.139014
 20
108.341965
 30
0.0
 10
-102.857710
 20
108.060660
 30
0.0
  0
SPLINE
  5
270
100
AcDbEntity
  8
Calque_1
 62
1
100
AcDbSpline
 70
8
 71
3
 72
8
 73
4
 74
0
 40
0
 40
0
 40
0
 40
0
 40
1
 40
1
 40
1
 40
1
 10
-102.857710
 20
108.060660
 30
0.0
 10
-102.576405
 20
107.779356
 30
0.0
 10
-102.418370
 20
107.397825
 30
0.0
 10
-102.418370
 20
107.000000
 30
0.0
  0
LWPOLYLINE
  5
271
100
AcDbEntity
  8
Calque_1
 62
1
100
AcDbPolyline
 90
1
 70
1
 10
-88.948982
 20
107.000000
 30
0.0
  0
SPLINE
  5
272
100
AcDbEntity
  8
Calque_1
 62
1
100
AcDbSpline
 70
8
 71
3
 72
8
 73
4
 74
0
 40
0
 40
0
 40
0
 40
0
 40
1
 40
1
 40
1
 40
1
 10
-115.887760
 20
107.000000
 30
0.0
 10
-115.887760
 20
106.602175
 30
0.0
 10
-116.045795
 20
106.220644
 30
0.0
 10
-116.327100
 20
105.939340
 30
0.0
  0
SPLINE
  5
273
100
AcDbEntity
  8
Calque_1
 62
1
100
AcDbSpline
 70
8
 71
3
 72
8
 73
4
 74
0
 40
0
 40
0
 40
0
 40
0
 40
1
 40
1
 40
1
 40
1
 10
-116.327100
 20
105.939340
 30
0.0
 10
-116.608404
 20
105.658035
 30
0.0
 10
-116.989935
 20
105.500000
 30
0.0
 10
-117.387760
 20
105.500000
 30
0.0
  0
SPLINE
  5
274
100
AcDbEntity
  8
Calque_1
 62
1
100
AcDbSpline
 70
8
 71
3
 72
8
 73
4
 74
0
 40
0
 40
0
 40
0
 40
0
 40
1
 40
1
 40
1
 40
1
 10
-117.387760
 20
105.500000
 30
0.0
 10
-117.785585
 20
105.500000
 30
0.0
 10
-118.167116
 20
105.658035
 30
0.0
 10
-118.448420
 20
105.939340
 30
0.0
  0
SPLINE
  5
275
100
AcDbEntity
  8
Calque_1
 62
1
100
AcDbSpline
 70
8
 71
3
 72
8
 73
4
 74
0
 40
0
 40
0
 40
0
 40
0
 40
1
 40
1
 40
1
 40
1
 10
-118.448420
 20
105.939340
 30
0.0
 10
-118.729725
 20
106.220644
 30
0.0
 10
-118.887760
 20
106.602175
 30
0.0
 10
-118.887760
 20
107.000000
 30
0.0
  0
SPLINE
  5
276
100
AcDbEntity
  8
Calque_1
 62
1
100
AcDbSpline
 70
8
 71
3
 72
8
 73
4
 74
0
 40
0
 40
0
 40
0
 40
0
 40
1
 40
1
 40
1
 40
1
 10
-118.887760
 20
107.000000
 30
0.0
 10
-118.887760
 20
107.828427
 30
0.0
 10
-118.216187
 20
108.500000
 30
0.0
 10
-117.387760
 20
108.500000
 30
0.0
  0
SPLINE
  5
277
100
AcDbEntity
  8
Calque_1
 62
1
100
AcDbSpline
 70
8
 71
3
 72
8
 73
4
 74
0
 40
0
 40
0
 40
0
 40
0
 40
1
 40
1
 40
1
 40
1
 10
-117.387760
 20
108.500000
 30
0.0
 10
-116.989935
 20
108.500000
 30
0.0
 10
-116.608404
 20
108.341965
 30
0.0
 10
-116.327100
 20
108.060660
 30
0.0
  0
SPLINE
  5
278
100
AcDbEntity
  8
Calque_1
 62
1
100
AcDbSpline
 70
8
 71
3
 72
8
 73
4
 74
0
 40
0
 40
0
 40
0
 40
0
 40
1
 40
1
 40
1
 40
1
 10
-116.327100
 20
108.060660
 30
0.0
 10
-116.045795
 20
107.779356
 30
0.0
 10
-115.887760
 20
107.397825
 30
0.0
 10
-115.887760
 20
107.000000
 30
0.0
  0
LWPOLYLINE
  5
279
100
AcDbEntity
  8
Calque_1
 62
1
100
AcDbPolyline
 90
1
 70
1
 10
-102.418370
 20
107.000000
 30
0.0
  0
SPLINE
  5
27a
100
AcDbEntity
  8
Calque_1
 62
1
100
AcDbSpline
 70
8
 71
3
 72
8
 73
4
 74
0
 40
0
 40
0
 40
0
 40
0
 40
1
 40
1
 40
1
 40
1
 10
-129.357150
 20
107.000000
 30
0.0
 10
-129.357150
 20
106.602175
 30
0.0
 10
-129.515185
 20
106.220644
 30
0.0
 10
-129.796490
 20
105.939340
 30
0.0
  0
SPLINE
  5
27b
100
AcDbEntity
  8
Calque_1
 62
1
100
AcDbSpline
 70
8
 71
3
 72
8
 73
4
 74
0
 40
0
 40
0
 40
0
 40
0
 40
1
 40
1
 40
1
 40
1
 10
-129.796490
 20
105.939340
 30
0.0
 10
-130.077794
 20
105.658035
 30
0.0
 10
-130.459325
 20
105.500000
 30
0.0
 10
-130.857150
 20
105.500000
 30
0.0
  0
SPLINE
  5
27c
100
AcDbEntity
  8
Calque_1
 62
1
100
AcDbSpline
 70
8
 71
3
 72
8
 73
4
 74
0
 40
0
 40
0
 40
0
 40
0
 40
1
 40
1
 40
1
 40
1
 10
-130.857150
 20
105.500000
 30
0.0
 10
-131.254975
 20
105.500000
 30
0.0
 10
-131.636506
 20
105.658035
 30
0.0
 10
-131.917810
 20
105.939340
 30
0.0
  0
SPLINE
  5
27d
100
AcDbEntity
  8
Calque_1
 62
1
100
AcDbSpline
 70
8
 71
3
 72
8
 73
4
 74
0
 40
0
 40
0
 40
0
 40
0
 40
1
 40
1
 40
1
 40
1
 10
-131.917810
 20
105.939340
 30
0.0
 10
-132.199115
 20
106.220644
 30
0.0
 10
-132.357150
 20
106.602175
 30
0.0
 10
-132.357150
 20
107.000000
 30
0.0
  0
SPLINE
  5
27e
100
AcDbEntity
  8
Calque_1
 62
1
100
AcDbSpline
 70
8
 71
3
 72
8
 73
4
 74
0
 40
0
 40
0
 40
0
 40
0
 40
1
 40
1
 40
1
 40
1
 10
-132.357150
 20
107.000000
 30
0.0
 10
-132.357150
 20
107.397825
 30
0.0
 10
-132.199115
 20
107.779356
 30
0.0
 10
-131.917810
 20
108.060660
 30
0.0
  0
SPLINE
  5
27f
100
AcDbEntity
  8
Calque_1
 62
1
100
AcDbSpline
 70
8
 71
3
 72
8
 73
4
 74
0
 40
0
 40
0
 40
0
 40
0
 40
1
 40
1
 40
1
 40
1
 10
-131.917810
 20
108.060660
 30
0.0
 10
-131.636506
 20
108.341965
 30
0.0
 10
-131.254975
 20
108.500000
 30
0.0
 10
-130.857150
 20
108.500000
 30
0.0
  0
SPLINE
  5
280
100
AcDbEntity
  8
Calque_1
 62
1
100
AcDbSpline
 70
8
 71
3
 72
8
 73
4
 74
0
 40
0
 40
0
 40
0
 40
0
 40
1
 40
1
 40
1
 40
1
 10
-130.857150
 20
108.500000
 30
0.0
 10
-130.459325
 20
108.500000
 30
0.0
 10
-130.077794
 20
108.341965
 30
0.0
 10
-129.796490
 20
108.060660
 30
0.0
  0
SPLINE
  5
281
100
AcDbEntity
  8
Calque_1
 62
1
100
AcDbSpline
 70
8
 71
3
 72
8
 73
4
 74
0
 40
0
 40
0
 40
0
 40
0
 40
1
 40
1
 40
1
 40
1
 10
-129.796490
 20
108.060660
 30
0.0
 10
-129.515185
 20
107.779356
 30
0.0
 10
-129.357150
 20
107.397825
 30
0.0
 10
-129.357150
 20
107.000000
 30
0.0
  0
LWPOLYLINE
  5
282
100
AcDbEntity
  8
Calque_1
 62
1
100
AcDbPolyline
 90
1
 70
1
 10
-115.887760
 20
107.000000
 30
0.0
  0
SPLINE
  5
283
100
AcDbEntity
  8
Calque_1
 62
1
100
AcDbSpline
 70
8
 71
3
 72
8
 73
4
 74
0
 40
0
 40
0
 40
0
 40
0
 40
1
 40
1
 40
1
 40
1
 10
-142.826540
 20
107.000000
 30
0.0
 10
-142.826540
 20
106.602175
 30
0.0
 10
-142.984575
 20
106.220644
 30
0.0
 10
-143.265880
 20
105.939340
 30
0.0
  0
SPLINE
  5
284
100
AcDbEntity
  8
Calque_1
 62
1
100
AcDbSpline
 70
8
 71
3
 72
8
 73
4
 74
0
 40
0
 40
0
 40
0
 40
0
 40
1
 40
1
 40
1
 40
1
 10
-143.265880
 20
105.939340
 30
0.0
 10
-143.547184
 20
105.658035
 30
0.0
 10
-143.928715
 20
105.500000
 30
0.0
 10
-144.326540
 20
105.500000
 30
0.0
  0
SPLINE
  5
285
100
AcDbEntity
  8
Calque_1
 62
1
100
AcDbSpline
 70
8
 71
3
 72
8
 73
4
 74
0
 40
0
 40
0
 40
0
 40
0
 40
1
 40
1
 40
1
 40
1
 10
-144.326540
 20
105.500000
 30
0.0
 10
-144.724365
 20
105.500000
 30
0.0
 10
-145.105896
 20
105.658035
 30
0.0
 10
-145.387200
 20
105.939340
 30
0.0
  0
SPLINE
  5
286
100
AcDbEntity
  8
Calque_1
 62
1
100
AcDbSpline
 70
8
 71
3
 72
8
 73
4
 74
0
 40
0
 40
0
 40
0
 40
0
 40
1
 40
1
 40
1
 40
1
 10
-145.387200
 20
105.939340
 30
0.0
 10
-145.668505
 20
106.220644
 30
0.0
 10
-145.826540
 20
106.602175
 30
0.0
 10
-145.826540
 20
107.000000
 30
0.0
  0
SPLINE
  5
287
100
AcDbEntity
  8
Calque_1
 62
1
100
AcDbSpline
 70
8
 71
3
 72
8
 73
4
 74
0
 40
0
 40
0
 40
0
 40
0
 40
1
 40
1
 40
1
 40
1
 10
-145.826540
 20
107.000000
 30
0.0
 10
-145.826540
 20
107.397825
 30
0.0
 10
-145.668505
 20
107.779356
 30
0.0
 10
-145.387200
 20
108.060660
 30
0.0
  0
SPLINE
  5
288
100
AcDbEntity
  8
Calque_1
 62
1
100
AcDbSpline
 70
8
 71
3
 72
8
 73
4
 74
0
 40
0
 40
0
 40
0
 40
0
 40
1
 40
1
 40
1
 40
1
 10
-145.387200
 20
108.060660
 30
0.0
 10
-145.105896
 20
108.341965
 30
0.0
 10
-144.724365
 20
108.500000
 30
0.0
 10
-144.326540
 20
108.500000
 30
0.0
  0
SPLINE
  5
289
100
AcDbEntity
  8
Calque_1
 62
1
100
AcDbSpline
 70
8
 71
3
 72
8
 73
4
 74
0
 40
0
 40
0
 40
0
 40
0
 40
1
 40
1
 40
1
 40
1
 10
-144.326540
 20
108.500000
 30
0.0
 10
-143.928715
 20
108.500000
 30
0.0
 10
-143.547184
 20
108.341965
 30
0.0
 10
-143.265880
 20
108.060660
 30
0.0
  0
SPLINE
  5
28a
100
AcDbEntity
  8
Calque_1
 62
1
100
AcDbSpline
 70
8
 71
3
 72
8
 73
4
 74
0
 40
0
 40
0
 40
0
 40
0
 40
1
 40
1
 40
1
 40
1
 10
-143.265880
 20
108.060660
 30
0.0
 10
-142.984575
 20
107.779356
 30
0.0
 10
-142.826540
 20
107.397825
 30
0.0
 10
-142.826540
 20
107.000000
 30
0.0
  0
LWPOLYLINE
  5
28b
100
AcDbEntity
  8
Calque_1
 62
1
100
AcDbPolyline
 90
1
 70
1
 10
-129.357150
 20
107.000000
 30
0.0
  0
SPLINE
  5
28c
100
AcDbEntity
  8
Calque_1
 62
1
100
AcDbSpline
 70
8
 71
3
 72
8
 73
4
 74
0
 40
0
 40
0
 40
0
 40
0
 40
1
 40
1
 40
1
 40
1
 10
-156.295910
 20
107.000000
 30
0.0
 10
-156.295910
 20
106.602175
 30
0.0
 10
-156.453945
 20
106.220644
 30
0.0
 10
-156.735250
 20
105.939340
 30
0.0
  0
SPLINE
  5
28d
100
AcDbEntity
  8
Calque_1
 62
1
100
AcDbSpline
 70
8
 71
3
 72
8
 73
4
 74
0
 40
0
 40
0
 40
0
 40
0
 40
1
 40
1
 40
1
 40
1
 10
-156.735250
 20
105.939340
 30
0.0
 10
-157.016554
 20
105.658035
 30
0.0
 10
-157.398085
 20
105.500000
 30
0.0
 10
-157.795910
 20
105.500000
 30
0.0
  0
SPLINE
  5
28e
100
AcDbEntity
  8
Calque_1
 62
1
100
AcDbSpline
 70
8
 71
3
 72
8
 73
4
 74
0
 40
0
 40
0
 40
0
 40
0
 40
1
 40
1
 40
1
 40
1
 10
-157.795910
 20
105.500000
 30
0.0
 10
-158.193735
 20
105.500000
 30
0.0
 10
-158.575266
 20
105.658035
 30
0.0
 10
-158.856570
 20
105.939340
 30
0.0
  0
SPLINE
  5
28f
100
AcDbEntity
  8
Calque_1
 62
1
100
AcDbSpline
 70
8
 71
3
 72
8
 73
4
 74
0
 40
0
 40
0
 40
0
 40
0
 40
1
 40
1
 40
1
 40
1
 10
-158.856570
 20
105.939340
 30
0.0
 10
-159.137875
 20
106.220644
 30
0.0
 10
-159.295910
 20
106.602175
 30
0.0
 10
-159.295910
 20
107.000000
 30
0.0
  0
SPLINE
  5
290
100
AcDbEntity
  8
Calque_1
 62
1
100
AcDbSpline
 70
8
 71
3
 72
8
 73
4
 74
0
 40
0
 40
0
 40
0
 40
0
 40
1
 40
1
 40
1
 40
1
 10
-159.295910
 20
107.000000
 30
0.0
 10
-159.295910
 20
107.397825
 30
0.0
 10
-159.137875
 20
107.779356
 30
0.0
 10
-158.856570
 20
108.060660
 30
0.0
  0
SPLINE
  5
291
100
AcDbEntity
  8
Calque_1
 62
1
100
AcDbSpline
 70
8
 71
3
 72
8
 73
4
 74
0
 40
0
 40
0
 40
0
 40
0
 40
1
 40
1
 40
1
 40
1
 10
-158.856570
 20
108.060660
 30
0.0
 10
-158.575266
 20
108.341965
 30
0.0
 10
-158.193735
 20
108.500000
 30
0.0
 10
-157.795910
 20
108.500000
 30
0.0
  0
SPLINE
  5
292
100
AcDbEntity
  8
Calque_1
 62
1
100
AcDbSpline
 70
8
 71
3
 72
8
 73
4
 74
0
 40
0
 40
0
 40
0
 40
0
 40
1
 40
1
 40
1
 40
1
 10
-157.795910
 20
108.500000
 30
0.0
 10
-157.398085
 20
108.500000
 30
0.0
 10
-157.016554
 20
108.341965
 30
0.0
 10
-156.735250
 20
108.060660
 30
0.0
  0
SPLINE
  5
293
100
AcDbEntity
  8
Calque_1
 62
1
100
AcDbSpline
 70
8
 71
3
 72
8
 73
4
 74
0
 40
0
 40
0
 40
0
 40
0
 40
1
 40
1
 40
1
 40
1
 10
-156.735250
 20
108.060660
 30
0.0
 10
-156.453945
 20
107.779356
 30
0.0
 10
-156.295910
 20
107.397825
 30
0.0
 10
-156.295910
 20
107.000000
 30
0.0
  0
LWPOLYLINE
  5
294
100
AcDbEntity
  8
Calque_1
 62
1
100
AcDbPolyline
 90
1
 70
1
 10
-142.826540
 20
107.000000
 30
0.0
  0
SPLINE
  5
295
100
AcDbEntity
  8
Calque_1
 62
1
100
AcDbSpline
 70
8
 71
3
 72
8
 73
4
 74
0
 40
0
 40
0
 40
0
 40
0
 40
1
 40
1
 40
1
 40
1
 10
-169.765300
 20
107.000000
 30
0.0
 10
-169.765300
 20
106.602175
 30
0.0
 10
-169.923335
 20
106.220644
 30
0.0
 10
-170.204640
 20
105.939340
 30
0.0
  0
SPLINE
  5
296
100
AcDbEntity
  8
Calque_1
 62
1
100
AcDbSpline
 70
8
 71
3
 72
8
 73
4
 74
0
 40
0
 40
0
 40
0
 40
0
 40
1
 40
1
 40
1
 40
1
 10
-170.204640
 20
105.939340
 30
0.0
 10
-170.485944
 20
105.658035
 30
0.0
 10
-170.867475
 20
105.500000
 30
0.0
 10
-171.265300
 20
105.500000
 30
0.0
  0
SPLINE
  5
297
100
AcDbEntity
  8
Calque_1
 62
1
100
AcDbSpline
 70
8
 71
3
 72
8
 73
4
 74
0
 40
0
 40
0
 40
0
 40
0
 40
1
 40
1
 40
1
 40
1
 10
-171.265300
 20
105.500000
 30
0.0
 10
-171.663125
 20
105.500000
 30
0.0
 10
-172.044656
 20
105.658035
 30
0.0
 10
-172.325960
 20
105.939340
 30
0.0
  0
SPLINE
  5
298
100
AcDbEntity
  8
Calque_1
 62
1
100
AcDbSpline
 70
8
 71
3
 72
8
 73
4
 74
0
 40
0
 40
0
 40
0
 40
0
 40
1
 40
1
 40
1
 40
1
 10
-172.325960
 20
105.939340
 30
0.0
 10
-172.607265
 20
106.220644
 30
0.0
 10
-172.765300
 20
106.602175
 30
0.0
 10
-172.765300
 20
107.000000
 30
0.0
  0
SPLINE
  5
299
100
AcDbEntity
  8
Calque_1
 62
1
100
AcDbSpline
 70
8
 71
3
 72
8
 73
4
 74
0
 40
0
 40
0
 40
0
 40
0
 40
1
 40
1
 40
1
 40
1
 10
-172.765300
 20
107.000000
 30
0.0
 10
-172.765300
 20
107.397825
 30
0.0
 10
-172.607265
 20
107.779356
 30
0.0
 10
-172.325960
 20
108.060660
 30
0.0
  0
SPLINE
  5
29a
100
AcDbEntity
  8
Calque_1
 62
1
100
AcDbSpline
 70
8
 71
3
 72
8
 73
4
 74
0
 40
0
 40
0
 40
0
 40
0
 40
1
 40
1
 40
1
 40
1
 10
-172.325960
 20
108.060660
 30
0.0
 10
-172.044656
 20
108.341965
 30
0.0
 10
-171.663125
 20
108.500000
 30
0.0
 10
-171.265300
 20
108.500000
 30
0.0
  0
SPLINE
  5
29b
100
AcDbEntity
  8
Calque_1
 62
1
100
AcDbSpline
 70
8
 71
3
 72
8
 73
4
 74
0
 40
0
 40
0
 40
0
 40
0
 40
1
 40
1
 40
1
 40
1
 10
-171.265300
 20
108.500000
 30
0.0
 10
-170.436873
 20
108.500000
 30
0.0
 10
-169.765300
 20
107.828427
 30
0.0
 10
-169.765300
 20
107.000000
 30
0.0
  0
LWPOLYLINE
  5
29c
100
AcDbEntity
  8
Calque_1
 62
1
100
AcDbPolyline
 90
1
 70
1
 10
-156.295910
 20
107.000000
 30
0.0
  0
SPLINE
  5
29d
100
AcDbEntity
  8
Calque_1
 62
1
100
AcDbSpline
 70
8
 71
3
 72
8
 73
4
 74
0
 40
0
 40
0
 40
0
 40
0
 40
1
 40
1
 40
1
 40
1
 10
-62.010204
 20
107.000000
 30
0.0
 10
-62.010204
 20
106.602175
 30
0.0
 10
-62.168239
 20
106.220644
 30
0.0
 10
-62.449544
 20
105.939340
 30
0.0
  0
SPLINE
  5
29e
100
AcDbEntity
  8
Calque_1
 62
1
100
AcDbSpline
 70
8
 71
3
 72
8
 73
4
 74
0
 40
0
 40
0
 40
0
 40
0
 40
1
 40
1
 40
1
 40
1
 10
-62.449544
 20
105.939340
 30
0.0
 10
-62.730848
 20
105.658035
 30
0.0
 10
-63.112379
 20
105.500000
 30
0.0
 10
-63.510204
 20
105.500000
 30
0.0
  0
SPLINE
  5
29f
100
AcDbEntity
  8
Calque_1
 62
1
100
AcDbSpline
 70
8
 71
3
 72
8
 73
4
 74
0
 40
0
 40
0
 40
0
 40
0
 40
1
 40
1
 40
1
 40
1
 10
-63.510204
 20
105.500000
 30
0.0
 10
-63.908029
 20
105.500000
 30
0.0
 10
-64.289560
 20
105.658035
 30
0.0
 10
-64.570864
 20
105.939340
 30
0.0
  0
SPLINE
  5
2a0
100
AcDbEntity
  8
Calque_1
 62
1
100
AcDbSpline
 70
8
 71
3
 72
8
 73
4
 74
0
 40
0
 40
0
 40
0
 40
0
 40
1
 40
1
 40
1
 40
1
 10
-64.570864
 20
105.939340
 30
0.0
 10
-64.852169
 20
106.220644
 30
0.0
 10
-65.010204
 20
106.602175
 30
0.0
 10
-65.010204
 20
107.000000
 30
0.0
  0
SPLINE
  5
2a1
100
AcDbEntity
  8
Calque_1
 62
1
100
AcDbSpline
 70
8
 71
3
 72
8
 73
4
 74
0
 40
0
 40
0
 40
0
 40
0
 40
1
 40
1
 40
1
 40
1
 10
-65.010204
 20
107.000000
 30
0.0
 10
-65.010204
 20
107.397825
 30
0.0
 10
-64.852169
 20
107.779356
 30
0.0
 10
-64.570864
 20
108.060660
 30
0.0
  0
SPLINE
  5
2a2
100
AcDbEntity
  8
Calque_1
 62
1
100
AcDbSpline
 70
8
 71
3
 72
8
 73
4
 74
0
 40
0
 40
0
 40
0
 40
0
 40
1
 40
1
 40
1
 40
1
 10
-64.570864
 20
108.060660
 30
0.0
 10
-64.289560
 20
108.341965
 30
0.0
 10
-63.908029
 20
108.500000
 30
0.0
 10
-63.510204
 20
108.500000
 30
0.0
  0
SPLINE
  5
2a3
100
AcDbEntity
  8
Calque_1
 62
1
100
AcDbSpline
 70
8
 71
3
 72
8
 73
4
 74
0
 40
0
 40
0
 40
0
 40
0
 40
1
 40
1
 40
1
 40
1
 10
-63.510204
 20
108.500000
 30
0.0
 10
-63.112379
 20
108.500000
 30
0.0
 10
-62.730848
 20
108.341965
 30
0.0
 10
-62.449544
 20
108.060660
 30
0.0
  0
SPLINE
  5
2a4
100
AcDbEntity
  8
Calque_1
 62
1
100
AcDbSpline
 70
8
 71
3
 72
8
 73
4
 74
0
 40
0
 40
0
 40
0
 40
0
 40
1
 40
1
 40
1
 40
1
 10
-62.449544
 20
108.060660
 30
0.0
 10
-62.168239
 20
107.779356
 30
0.0
 10
-62.010204
 20
107.397825
 30
0.0
 10
-62.010204
 20
107.000000
 30
0.0
  0
LWPOLYLINE
  5
2a5
100
AcDbEntity
  8
Calque_1
 62
1
100
AcDbPolyline
 90
1
 70
1
 10
-169.765300
 20
107.000000
 30
0.0
  0
SPLINE
  5
2a6
100
AcDbEntity
  8
Calque_1
 62
1
100
AcDbSpline
 70
8
 71
3
 72
8
 73
4
 74
0
 40
0
 40
0
 40
0
 40
0
 40
1
 40
1
 40
1
 40
1
 10
-75.479591
 20
107.000000
 30
0.0
 10
-75.479591
 20
106.602175
 30
0.0
 10
-75.637626
 20
106.220644
 30
0.0
 10
-75.918931
 20
105.939340
 30
0.0
  0
SPLINE
  5
2a7
100
AcDbEntity
  8
Calque_1
 62
1
100
AcDbSpline
 70
8
 71
3
 72
8
 73
4
 74
0
 40
0
 40
0
 40
0
 40
0
 40
1
 40
1
 40
1
 40
1
 10
-75.918931
 20
105.939340
 30
0.0
 10
-76.200235
 20
105.658035
 30
0.0
 10
-76.581766
 20
105.500000
 30
0.0
 10
-76.979591
 20
105.500000
 30
0.0
  0
SPLINE
  5
2a8
100
AcDbEntity
  8
Calque_1
 62
1
100
AcDbSpline
 70
8
 71
3
 72
8
 73
4
 74
0
 40
0
 40
0
 40
0
 40
0
 40
1
 40
1
 40
1
 40
1
 10
-76.979591
 20
105.500000
 30
0.0
 10
-77.377416
 20
105.500000
 30
0.0
 10
-77.758947
 20
105.658035
 30
0.0
 10
-78.040251
 20
105.939340
 30
0.0
  0
SPLINE
  5
2a9
100
AcDbEntity
  8
Calque_1
 62
1
100
AcDbSpline
 70
8
 71
3
 72
8
 73
4
 74
0
 40
0
 40
0
 40
0
 40
0
 40
1
 40
1
 40
1
 40
1
 10
-78.040251
 20
105.939340
 30
0.0
 10
-78.321556
 20
106.220644
 30
0.0
 10
-78.479591
 20
106.602175
 30
0.0
 10
-78.479591
 20
107.000000
 30
0.0
  0
SPLINE
  5
2aa
100
AcDbEntity
  8
Calque_1
 62
1
100
AcDbSpline
 70
8
 71
3
 72
8
 73
4
 74
0
 40
0
 40
0
 40
0
 40
0
 40
1
 40
1
 40
1
 40
1
 10
-78.479591
 20
107.000000
 30
0.0
 10
-78.479591
 20
107.397825
 30
0.0
 10
-78.321556
 20
107.779356
 30
0.0
 10
-78.040251
 20
108.060660
 30
0.0
  0
SPLINE
  5
2ab
100
AcDbEntity
  8
Calque_1
 62
1
100
AcDbSpline
 70
8
 71
3
 72
8
 73
4
 74
0
 40
0
 40
0
 40
0
 40
0
 40
1
 40
1
 40
1
 40
1
 10
-78.040251
 20
108.060660
 30
0.0
 10
-77.758947
 20
108.341965
 30
0.0
 10
-77.377416
 20
108.500000
 30
0.0
 10
-76.979591
 20
108.500000
 30
0.0
  0
SPLINE
  5
2ac
100
AcDbEntity
  8
Calque_1
 62
1
100
AcDbSpline
 70
8
 71
3
 72
8
 73
4
 74
0
 40
0
 40
0
 40
0
 40
0
 40
1
 40
1
 40
1
 40
1
 10
-76.979591
 20
108.500000
 30
0.0
 10
-76.581766
 20
108.500000
 30
0.0
 10
-76.200235
 20
108.341965
 30
0.0
 10
-75.918931
 20
108.060660
 30
0.0
  0
SPLINE
  5
2ad
100
AcDbEntity
  8
Calque_1
 62
1
100
AcDbSpline
 70
8
 71
3
 72
8
 73
4
 74
0
 40
0
 40
0
 40
0
 40
0
 40
1
 40
1
 40
1
 40
1
 10
-75.918931
 20
108.060660
 30
0.0
 10
-75.637626
 20
107.779356
 30
0.0
 10
-75.479591
 20
107.397825
 30
0.0
 10
-75.479591
 20
107.000000
 30
0.0
  0
LWPOLYLINE
  5
2ae
100
AcDbEntity
  8
Calque_1
 62
1
100
AcDbPolyline
 90
1
 70
1
 10
-62.010204
 20
107.000000
 30
0.0
  0
LWPOLYLINE
  5
2af
100
AcDbEntity
  8
Calque_1
 62
1
100
AcDbPolyline
 90
1
 70
1
 10
-75.479591
 20
107.000000
 30
0.0
  0
ENDSEC
  0
SECTION
  2
OBJECTS
  0
DICTIONARY
  5
C
330
0
100
AcDbDictionary
  3
ACAD_GROUP
350
D
  3
ACAD_MLINESTYLE
350
17
  0
DICTIONARY
  5
D
330
C
100
AcDbDictionary
  0
DICTIONARY
  5
1A
330
C
100
AcDbDictionary
  0
DICTIONARY
  5
17
330
C
100
AcDbDictionary
  3
STANDARD
350
18
  0
DICTIONARY
  5
19
330
C
100
AcDbDictionary
  0
ENDSEC
  0
EOF
